<svg xmlns:xlink="http://www.w3.org/1999/xlink" width="271" height="74" viewBox="0 0 271 74">
  <defs>
    <polygon id="aksvb-logo-licorne-black-a" points="0 .085 0 5.904 12.669 5.904 12.669 .085 0 .085"/>
  </defs>
  <g fill="none" fill-rule="evenodd">
    <g transform="translate(190)">
      <path fill="#443D3D" d="M24.0425589,40.2265196 C24.6122938,44.9170658 26.663199,47.8488375 28.9421384,49.256088 C31.2209376,50.6633384 34.0696119,51.3668194 36.462358,50.3699449 C38.8551042,49.3732146 41.1913675,46.9693781 41.5333486,43.3341255 C41.8750493,39.6988728 42.0460398,42.5132294 41.9892766,43.5686672 C41.932233,44.6239608 42.1029432,47.3211908 39.7096364,49.3147955 C37.3168902,51.3081118 34.3544092,52.5395281 29.6256801,50.6044866 C24.8972313,48.6695894 22.8921571,43.8603298 23.3019737,40.3439347 C23.4728241,38.8779767 23.928612,40.0505411 24.0425589,40.2265196"/>
      <path fill="#443D3D" d="M32.0090991,42.6060606 C31.6786904,43.2077539 31.8769681,43.535779 30.0932815,43.0982328 C28.3095949,42.6606866 28.50771,42.9889808 28.50771,43.426527 C28.50771,43.8639386 28.1114797,47.036014 33,47.0909091 C29.8951663,46.2158167 29.2345116,45.832762 28.9702496,43.2623799 C29.4987735,43.3717664 32.2072143,44.3562454 32.0090991,42.6060606"/>
      <path fill="#443D3D" d="M36.1117101,41.8585859 C35.1415246,42.2827108 34.5798647,42.3433853 34.0692077,42.1009856 C34.0692077,43.7977837 34.1713391,44.9489588 33.7628135,45.1912094 C33.3542879,45.4336092 32.8436309,45.4336092 32.6904966,44.3431085 C32.5372367,43.2523098 32.3841024,43.00991 32.3329739,43.9188345 C32.281971,44.8277589 32.0265797,45.1308331 30.75,44.2217596 C31.2096541,45.1308331 31.4904213,45.3429702 32.2053411,45.0703077 C32.4607324,45.5246954 33.2266551,45.7369815 33.7373121,45.4945818 C34.2479691,45.2521821 34.7650329,44.926299 34.7650329,44.7444247 C34.7650329,44.5628485 36.5202358,44.3126968 36.75,43.2827215 C36.3416,43.4642977 35.8053159,43.8885718 35.2947846,44.2825831 C34.9883904,44.4643084 34.8032222,44.4416487 34.809629,44.1914969 C34.8204326,43.7663284 34.7585005,43.1916353 34.3756019,42.7068358 C34.7841275,42.6463104 35.7031845,42.7068358 36.1117101,41.8585859"/>
      <path fill="#443D3D" d="M36.9062285 40.3636364C37.0246035 42.3754629 37.3797284 45.4492281 33 46.3434343 35.1307495 46.231796 38.9777178 45.3932715 36.9062285 40.3636364M41.9998038 53.493942C42.0123075 52.316002 41.4281236 50.9319964 39.9414934 49.3333333 40.6912785 50.403522 41.6472289 51.8983776 41.5969234 53.4936603 41.5413838 55.2547249 40.2853448 57.1217099 36.75 58.3030303 39.2427409 57.5758147 41.9729064 56.0010964 41.9998038 53.493942"/>
      <path fill="#443D3D" d="M39.5103307,51.5757576 C40.6419485,53.933959 41.3395058,55.6198968 38.5299385,57.2200896 C36.8333466,58.1869678 35.8910738,59.114897 35.25,60.5454545 C35.8155306,58.6509324 36.8710487,57.9163218 38.4168324,56.8337377 C39.9627552,55.7511537 40.8305978,54.7844181 39.5103307,51.5757576"/>
      <path fill="#443D3D" d="M36.2921096 57.5555556C34.3792055 59.9972301 32.7777578 61.9351806 38.25 62.7878788 34.3345475 61.7029126 34.2898895 60.6561333 36.2921096 57.5555556M38.1840352 52.3232323C38.5598486 55.8339184 37.3951181 57.6855744 33 58.3030303 37.3201217 57.37706 38.4093014 55.1394407 38.1840352 52.3232323M26.6041536 48.2319238C27.0259171 50.4460938 27.0557802 51.3168171 30.0559625 52.9459802 30.9764827 53.4458521 30.8614177 53.8745584 30.4011576 54.695993 29.9408975 55.5172957 28.7899643 56.8743167 27.7163072 58.3030303 29.902401 54.8031366 31.1299027 53.6961175 29.749264 53.1962456 28.3684838 52.6961102 25.87555 51.4464965 26.2974551 48.0534829 26.3740235 47.6962056 26.565657 47.8033492 26.6041536 48.2319238"/>
      <path fill="#443D3D" d="M28.9406381,62.7878788 C27.9655804,60.6577393 27.6872495,59.3869652 29.3933435,58.0789534 C31.0994375,56.7708036 32.80566,56.0231515 33.5022584,54.790029 C34.1987282,53.5566307 33.2236704,52.3981217 33.0496815,52.3232323 C33.6765043,53.1456358 33.8853167,54.3786204 32.6317996,55.3879024 C33.0496815,54.0800285 33.1540234,53.0332329 32.0396718,52.3607459 C33.0496815,53.2574871 32.944954,55.2759132 31.4128489,56.0980409 C31.9006348,55.0140074 32.5273291,53.4817413 30.6120372,52.3232323 C32.2835647,53.5566307 31.8659398,55.5749189 30.4380482,56.6588144 C29.0101566,57.7424341 26.1200639,59.5739817 28.9406381,62.7878788"/>
      <path fill="#443D3D" d="M37.1967265 52.3232323C39.0334419 54.105674 38.7427512 56.1813633 34.1100122 57.7472637 29.7336462 59.2266595 30.3977937 63.664427 31.4137693 65.030303 29.3819623 63.020122 28.9910583 59.4163256 33.9927842 57.4439378 39.1288969 55.4187795 38.0562539 53.6888284 37.1967265 52.3232323M46.5 31.4747448C45.8447944 31.9394007 44.5343833 32.7070022 43.5 32.8888889 43.8791777 32.38388 45.0860996 31.5556496 45.5002262 31.3939394 45.0172199 31.676808 44.7758016 32.1818168 44.6034327 32.3232511 45.1895889 32.2019933 45.948114 31.7374369 46.5 31.4747448M22.5 29.8989899C24.1157253 31.1270858 25.8428846 32.1413485 26.4278791 33.1024156 27.0127365 34.0634827 28.4057307 34.3305114 29.2414176 34.2503897 30.0772415 34.1702679 31.6371812 34.2235949 32.25 34.3838384 30.4114066 33.6096783 28.962901 33.1558739 28.0992528 32.9689669 27.2357417 32.7820599 26.2886208 32.1680119 22.5 29.8989899M17.6657763 27.6565657C16.1476976 28.0304668 15.6026026 28.3293395 15.2136389 29.0394896 14.8245316 29.7497777 14.7857501 30.3850373 16.6929362 29.2637476 16.2646165 30.4971662 15.953503 31.3194453 16.9263431 34.0851554 17.1986751 32.7396077 17.2768126 32.7768461 17.432513 32.4404592 17.7826952 35.5425561 18.094096 35.318574 19.6898812 36.2154679 19.3784805 35.318574 19.4172619 34.7953055 19.4563307 34.6458002 20.8185654 37.7106587 21.8696866 38.4577714 24.75 39.6161616 23.8157977 38.7194057 21.8696866 37.5983918 21.1301098 36.7761127 20.390533 35.9538336 19.5343245 34.2718991 19.5343245 33.1507473 19.1839986 33.9355121 18.9892295 34.9446729 19.1060048 35.5053177 17.8605454 34.2346607 17.6269948 33.1508852 17.8994705 30.8335531 16.9264867 31.730447 16.8097115 32.066696 16.8486365 32.5527261 16.5370922 30.9081679 16.6926489 29.9365214 17.5879261 28.7031027 17.0040497 28.8152317 16.1476976 29.0397655 15.8364404 29.1891328 16.225835 28.5909737 16.6535802 28.142182 17.6657763 27.6565657M26.25 40.7544399C28.6505723 42.1992213 31.0509994 42.6811921 31.877426 41.9804521 32.7038525 41.2798737 34.9859282 39.9226647 39 39.6161616 35.5763781 40.6230815 34.1988554 41.6736259 33.4514265 42.1555967 32.7038525 42.6372444 29.3981464 43.2940366 26.25 40.7544399"/>
      <path fill="#443D3D" d="M39 39.2311239C41.7332118 39.6116081 44.4486126 38.9155525 45.672599 36.0710541 46.0986239 35.0812052 46.7014496 35.0429882 46.7726939 35.2714473 47.3761745 34.0150628 47.5178772 32.9490608 47.482517 32.3780536 47.4472877 31.8069059 47.7661843 32.035084 47.943771 32.3016196 47.9084108 30.3598578 47.3406833 28.8748737 46.2048354 27.6565657 49.1860924 31.1593241 48.9735384 33.1012264 48.405287 33.9390502 47.8374285 34.7767336 47.8729197 33.4824131 47.8729197 33.0632904 47.8729197 32.6443082 47.6598418 32.3401176 47.6243506 32.9490608 47.5889904 33.5581446 47.8020683 35.7665825 46.3114398 37.1373371 44.8208113 38.5075296 42.0526322 40.4495724 39 39.2311239M13.5 29.1515152C13.9832334 30.5283506 15.8556887 32.6528351 16.5 32.8888889L16.3994007 32.3380966C15.0705087 31.4728563 13.9026945 29.7416497 13.5 29.1515152M37.924129 35.0341788C36.8443128 35.1768516 34.9215298 35.149828 33 35.0341788 36.7167677 34.9554327 39.5467077 34.5813163 42 33.6363636 40.45289 34.5223294 39.0496163 34.885404 37.924129 35.0341788"/>
      <path fill="#443D3D" d="M41.25 31.3939394C41.988417 31.9245675 42.5881785 32.2619487 44.25 31.4423401 42.9578129 32.3585722 42.4505451 32.406439 41.25 31.3939394M16.5 25.4141414C17.1440577 25.9127823 17.1159533 26.1489331 18.3200312 26.0177526 18.0399522 25.6766316 18.2919269 25.8078121 18.7119765 25.8602326 19.1320261 25.9127823 19.4679004 25.9915423 19.9440209 25.9389926 19.1599927 26.2539033 19.2160636 26.568814 20.643874 26.6999945 19.9999541 26.7787545 20.1539769 26.988695 20.1819434 27.1198755 20.2100478 27.251056 20.4200037 27.3036057 20.7560158 27.4347862 21.0918902 27.5659667 21.3158982 27.6053467 22.6319802 27.670937 21.5399063 27.7759072 21.6520481 27.7890769 21.9319893 27.9464677 22.2119306 28.1039876 22.464043 28.5369091 23.9199578 28.3533081 25.3760103 28.1695779 26.2579904 27.8414975 27 27.5923061 26.4680841 28.1564082 25.3882715 28.3128952 24.9700129 28.5369091 24.6760195 28.694429 25.0539126 28.7600193 25.8099743 28.6418794 26.6976029 28.5033393 25.0959313 29.5866115 24.703986 29.717792 24.311903 29.8491017 23.1079629 30.137673 23.5280125 29.5078516 23.9479243 28.8781592 24.2281411 28.3007584 23.4160084 28.7468496 22.6040136 29.1929408 21.5494122 29.3065618 22.07196 28.7993993 22.464043 28.4188983 22.295968 28.4582783 22.0439934 28.3007584 21.7920187 28.1433676 21.5959772 27.9334271 21.4560066 28.0120579 21.3158982 28.0908179 20.8399155 28.3795183 20.1400625 28.2745481 20.6160452 28.1695779 21.1199945 28.0383973 21.3719691 27.8021175 20.8680198 27.7496969 20.1959956 27.4609965 20.056025 27.3823656 19.9159166 27.3036057 19.5519379 27.5397564 19.1599927 27.5659667 18.7680474 27.5923061 17.760011 27.8808774 16.5840375 26.7263339 17.7320445 27.5135462 18.1496143 27.5254247 19.2020114 27.2905651 20.0839916 27.0936652 19.6779941 26.8444739 19.5380235 26.8444739 19.3980529 26.8444739 18.8099284 26.7131642 18.6699578 26.5295632 18.5299871 26.345833 18.4879684 26.267073 18.2919269 26.267073 18.0960231 26.267073 17.2560617 26.4638438 16.5 25.4141414M26.5529018 29.0600391C27.0372612 28.2866594 27.7983504 27.1718094 27.8651529 27.8851028 27.9319554 28.598551 28.2429893 28.115692 28.4210747 27.9060091 28.59916 27.6963263 29.4662798 27.4864886 29.199398 28.0740341 28.9326803 28.6614248 27.9316272 29.8783287 26.9753827 30.3819392 26.0191382 30.8855496 25.151526 30.5919317 25.6409735 30.1511951 26.130421 29.7107682 26.264026 29.5215271 26.5529018 29.0600391M14.200592 20.9292929C14.8142934 22.4505998 15.4279949 26.2272192 12.75 26.9090909 16.4323459 26.8566988 16.4882118 21.6636858 14.200592 20.9292929M11.3575627 21.6767677C11.0655841 25.8102988 10.8831424 25.9267423 10.9560473 22.2589854 10.2627328 24.9951939 10.4087221 26.2179228 11.0655841 26.1596294 11.722536 26.1014792 12.6349242 25.1699309 11.3575627 21.6767677M35.4484329 26.2934578C34.2664522 27.0640623 34.1570169 29.2337112 35.3409801 29.4347829 36.0393571 29.5531804 36.4423381 27.7454312 36.3617155 27.0935159 37.4630735 27.0047177 38.2689033 29.1975504 36.3080552 29.7606676 34.3470748 30.323639 33.0846037 29.0495535 33.0039811 28.0714618 32.9233584 27.0935159 34.078509 25.7303406 35.4484329 26.2934578M31.0892611 29.1522641C31.9811774 29.5294398 32.1249938 30.132921 30.8303633 30.3780621 29.5357327 30.6232031 28.5863464 29.7179813 28.5 29.3974051 28.8166508 30.4534972 29.6796907 30.7364022 31.233219 30.6232031 32.7867473 30.5100968 34.3402756 29.1145929 31.0892611 29.1522641M46.3552004 25.2071004C46.5227613 26.6471405 46.3829669 27.5975783 45.4052306 27.7416957 44.4274943 27.8856713 44.0922351 26.7623494 44.1479054 25.7831448 44.2039881 24.8039402 44.3994529 24.3431047 43.8127837 24.9191491 43.2261144 25.4951935 42.3881725 26.8200247 42.9187591 27.5112779 43.4496205 28.2023894 44.3436451 28.4040404 45.1259166 28.4040404 45.9080507 28.4040404 47.2210462 28.1736227 47.249225 26.906325 47.2769914 25.6391691 46.5506652 25.3799846 46.3552004 25.2071004"/>
      <path fill="#443D3D" d="M41.25 26.1616162C43.2682519 27.692026 44.1467295 28.6123746 43.5993904 29.8864848 43.4999186 30.1174954 43.4999186 30.5506759 43.8971546 30.3485061 44.294065 30.1463363 44.5258945 29.4533044 44.6580894 29.1646122 44.7904472 28.8757778 45.75 29.020266 45.75 29.8288032 45.75 30.6371983 45.2868293 30.7238628 45.1212601 30.4640114 44.9560164 30.2041599 44.8897562 30.2908244 44.4596342 30.4928522 44.0291867 30.695022 43.3675609 30.7527036 43.3016262 30.3196653 43.2352031 29.8864848 43.2023172 27.7208668 41.25 26.1616162M36.6252144 29.8989899C36.7828821 30.4183247 36.998928 31.0722247 37.5283173 31.05292 38.1508669 31.0303032 38.1473428 30.6731659 38.1200689 29.8989899 38.8363916 30.4375348 39.6771323 31.2453048 38.1200689 31.3606599 36.5630055 31.4761097 36.0334629 31.2837249 36.0023584 30.8991447 35.9712539 30.5144698 36.2515008 30.1683097 36.6252144 29.8989899"/>
      <path fill="#443D3D" d="M39.180284 27.0306405C40.1884926 29.0446472 40.9580008 31.2896837 38.9211841 33.043782 38.0862281 33.7632016 36.4610814 34.1781207 34.9767466 32.6123002 34.458547 32.0655866 34.4885793 31.7014884 34.7751616 30.7708578 34.8903328 30.3968503 34.9479893 29.447392 34.458547 30.2242858 33.968963 31.0010381 32.961321 32.5834215 31.3203081 32.957429 29.6790118 33.3314366 28.7001272 33.043782 27.75 31.5190146 28.6713698 33.3603153 29.621497 34.1372092 33.7098631 33.043782 35.4949463 34.2521578 38.0285717 35.5468865 40.6782182 32.5259472 43.3268732 29.5048663 41.2537911 27.4333852 40.7931062 27.2032049 40.3325629 26.9730246 39.2955969 26.7715815 39.180284 27.0306405M39.3577068 12.7070707C38.8501452 13.865741 39.0315032 15.0616455 39.0315032 15.6969697 40.2999392 15.1734857 40.3722951 14.5381615 40.4811634 13.603999 40.5901654 12.6698366 40.2274495 12.8564209 39.3577068 12.7070707M36.8732274 17.4143518C36.5272522 19.1060881 36.9166539 20.1303624 37.9550584 20.1745532 38.9933033 20.2189083 39.9019073 20.0853502 39.7286802 19.0615688 39.5557724 18.0376231 39.1665304 17.4588712 38.474101 17.1919192 38.7337022 18.3049036 38.6040612 19.4175595 38.084859 19.5958013 37.5656567 19.7740431 36.8299605 19.5511176 36.8732274 17.4143518"/>
      <path fill="#443D3D" d="M35.7038968 16.2569053C35.81193 17.6668996 35.6317418 17.9486012 35.3797972 18.472462 35.1279855 18.9961741 35.2720297 19.3183099 35.5601183 19.4391666 35.8480739 19.5600232 36.4601292 20.5674593 36.4961403 21.5744494 36.5322842 22.5812909 36.8563839 23.5484415 37.5764724 23.0245806 38.2965608 22.5008685 39.2329815 22.5010171 39.6289704 22.6621593 40.0250921 22.8230042 41.25 23.3871506 41.25 22.5008685 41.25 21.6145863 41.2139889 21.3727244 41.0339336 21.2520164 40.8540111 21.1311597 40.52938 21.05044 40.457225 21.4937297 40.3853357 21.9370194 40.3854686 22.5812909 39.989214 22.4604343 39.5929593 22.3395776 38.5847823 22.4201487 38.0446162 22.4604343 37.5045831 22.5008685 37.2882509 22.5815882 37.0001624 21.6953061 36.7123396 20.8088753 35.9919853 19.5197377 35.5958636 19.1974532 35.5239743 18.7947464 35.81193 18.3921882 36.1721736 18.0697551 36.5322842 17.7471734 37.2526385 17.062765 37.2885167 16.2569053 37.3243949 15.4510456 35.739775 15.5720509 35.7038968 16.2569053M33.326563 21.6767677L33.471487 24.1456082C33.8236056 23.7233191 34.0721779 23.1060291 34.2172039 22.7812405 34.3622298 22.4562922 34.6108021 22.5862395 34.4450873 23.3985306 34.2793724 24.2106618 34.0308001 25.3800284 33.3679407 25.4124753 32.7051832 25.445082 33.1194703 24.9901863 33.2229147 24.827792 33.326563 24.6653977 33.3472518 23.2685832 33.326563 21.6767677M27.75 11.959596C29.9996465 12.9442137 31.8318239 13.7711653 33.5351954 16.3485023 33.7396173 16.6578824 33.8856739 16.1515233 34.0900958 15.7858042 34.2946614 15.4200851 35.6971504 14.9699267 36.2230119 14.8292868 36.7490172 14.6885084 37.0703131 14.4072286 36.2523383 13.7040291 35.4342196 13.0005527 34.5284095 12.465955 33.6227432 12.0721356 34.7329751 12.7472348 35.6094589 13.731991 35.726333 14.1540491 35.8432071 14.5759688 34.6744662 14.998027 33.8563476 15.2793068 33.5934168 15.3919848 31.0224744 12.8597744 27.75 11.959596"/>
      <path fill="#443D3D" d="M34.4998922,20.6992014 C34.5171787,18.2941203 32.4552737,14.167963 28.0779765,12.7070707 C31.0729246,14.3113038 34.5286557,17.3476763 31.5912347,22.733034 C28.8843468,18.8373213 26.6392339,16.5232905 21.8576888,16.3163837 C19.2081863,16.2017956 17.6531143,17.8633931 17.25,19.123721 C18.0274651,17.5768525 20.0720836,16.4309717 22.2897083,16.7461242 C22.7792549,16.8321005 26.4652358,22.2174581 27.6748622,23.7643267 C28.8843468,25.3113361 28.7691511,25.4830068 29.0859748,25.7695475 C29.4026569,26.0559472 29.1722654,26.0846999 29.5466162,26.1419235 C29.9211087,26.1991471 31.5049441,26.1134527 31.9657272,26.1134527 C32.4265102,26.1134527 33.1464483,25.7407948 32.8872933,25.0246545 C32.6279965,24.3086553 33.3480763,24.337267 33.8376229,23.2773626 C34.0022692,22.9206314 34.4911073,21.919219 34.4998922,20.6992014"/>
      <path fill="#443D3D" d="M27,23.9192564 C27,24.3320612 26.6641292,24.6666667 26.25,24.6666667 C25.8358708,24.6666667 25.5,24.3320612 25.5,23.9192564 C25.5,23.5063226 25.8358708,23.1717172 26.25,23.1717172 C26.6641292,23.1717172 27,23.5063226 27,23.9192564"/>
      <path fill="#443D3D" d="M27.1850119,24.6296916 C26.18312,24.9981004 25.0954602,25.2876478 24.9237838,24.5507006 C24.7519665,23.8137533 24.6660578,23.0768061 25.2672775,22.5241281 C24.1794769,23.3663535 24.1794769,24.313857 24.2653855,24.9191094 C23.2922237,23.5769098 23.692896,22.2345807 24.7519665,20.9976593 C25.811037,19.7607379 25.0096924,20.2081377 24.5801492,20.5502594 C24.1508876,20.8925106 22.2903317,21.497763 22.5194684,24.0505969 C22.7483234,26.6035602 27.1276926,26.5245692 28.1581738,25.4717875 C29.0788046,24.531147 27.929178,24.3401442 27.1850119,24.6296916"/>
      <path fill="#443D3D" d="M29.25,25.5720314 C26.7126615,26.9860865 24.8480863,26.9553856 23.0138929,24.7729013 C21.1798499,22.5905681 22.861081,19.3631954 23.655823,18.6868687 C21.6995004,18.9327782 19.4984683,22.5290151 22.4026455,25.4490767 C25.3065218,28.3692895 28.5773872,26.0947025 29.25,25.5720314"/>
      <path fill="#443D3D" d="M21.75,17.9393939 C18.4676213,19.3825144 17.2051082,24.086607 21.4659734,25.4141414 C19.0041505,23.2786413 19.2566531,20.8543183 21.75,17.9393939"/>
      <path fill="#443D3D" d="M18.465215 23.9191919C17.0408698 22.0634225 16.5567914 20.2664974 18.75 17.9393939 18.237331 19.2649849 17.0694604 20.7378316 18.465215 23.9191919M30.75 18.6868687C27.0280293 15.5099248 26.8697812 14.6364118 18 14.874536 27.2258759 13.0875051 27.2656205 15.0333832 30.75 18.6868687M15.6843203 20.6128548C14.5720606 19.8624945 14.3601892 19.3901011 14.4131787 16.4444444 14.1483177 19.0566228 14.165952 19.5290162 14.7662977 20.2237284 15.3665566 20.9184407 15.9491813 21.1962709 15.6843203 20.6128548M15 20.7050628C14.7562731 20.5554943 14.4187269 20.4060483 14.25 20.1818182 14.4374539 20.6302785 14.4937269 20.8047342 14.6061808 20.9292929 14.5687269 20.6052687 14.6061808 20.6302785 15 20.7050628M15.4608305 23.1393192C14.5572203 23.3646008 14.3403432 22.3632122 14.25 21.7373751 14.6657034 21.6123555 15.2981949 21.6622401 15.75 22.0627956 15.1175084 22.1379305 14.7740975 22.2380694 14.6657034 22.0877995 15.0813178 22.538486 15.2620043 22.8389026 15.4608305 23.1393192M44.5440578 9.71717172C46.4972113 11.4124451 48.1380525 14.4080925 47.9907993 17.2086183 47.8373282 20.1268573 46.6838922 22.9177798 42.5524659 25.3314091 41.1353309 26.1593299 41.6333349 25.3314091 41.7483676 24.8189421 41.8631176 24.3061841 41.4035521 24.6613607 41.0971751 24.9370918 40.7907981 25.2129684 39.0671447 26.7903831 39.1435976 25.8834533 39.2201919 24.9765235 38.8373619 25.4892815 38.569282 25.8834533 38.3010608 26.2776251 37.458524 26.3566341 37.7266039 25.4102726 37.9948251 24.463911 37.8416366 23.675131 37.5352596 24.3850476 37.2285999 25.0946732 35.9267802 26.4749293 36.0032332 25.6468629 36.0798274 24.8189421 36.1184072 23.7937171 36.0416716 23.1628095 36.2714544 24.2273207 36.4245016 24.5033428 36.4627987 24.9765235 37.2670384 24.1483117 37.6498683 23.7935716 37.8030568 23.4386861 37.9563867 23.0838005 38.2626224 23.1235233 38.2626224 23.6359902 38.2626224 24.1483117 38.262905 24.9370918 38.2244666 25.2919774 39.1053005 24.7005014 39.5647247 24.0695938 39.7945075 23.8330034 40.0242902 23.596413 40.4847037 23.517404 40.4079681 24.2666069 40.3312325 25.0159553 40.484421 25.2919774 41.0588779 24.6610697 41.6333349 24.030162 42.3988534 23.596122 42.2458063 24.3850476 42.0929004 25.1738277 42.4757303 24.9370918 43.5097528 23.9512986 44.5436339 22.9655053 47.0712443 20.1265663 47.1859944 17.2086183 47.3010271 14.2909613 46.9572008 13.0688687 44.5440578 9.71717172"/>
      <path fill="#443D3D" d="M41.0614594,16.4444444 C43.8355672,17.3326842 45.2520893,20.5973535 43.4393914,23.8588878 C42.9244653,24.7857466 42.0920428,25.1336037 42.329836,23.7045538 C40.783449,24.5541744 40.030291,24.4766512 39,24.3223172 C43.6378449,23.7431729 43.9148316,19.3407359 41.0614594,16.4444444"/>
      <path fill="#443D3D" d="M44.0370861 20.9292929C44.6974354 17.3366579 44.8208509 15.1515004 43.5 12.7070707 45.3993802 15.2255781 45.3993802 18.5959799 44.0370861 20.9292929M19.401626 10.4646465C19.5805593 7.92643514 20.0457857 7.45801297 15 5.23232323 17.6480801 6.9505436 18.4353864 7.49086447 18.4353864 9.41037238 18.4353864 10.3475049 18.9721862 10.1913161 19.401626 10.4646465"/>
      <path fill="#443D3D" d="M4.5 7.23600545C12.5710864 7.54068106 14.598678 7.61695532 13.3119372 7.08387834 12.0251964 6.55080137 13.7017147 6.13234649 16.4310211 7.08387834L17.25 7.08387834C16.5871335 6.32240002 16.1192278 6.13192508 15.651322 5.97979798 16.2362042 6.35091507 16.4409489 6.636487 16.5287172 6.76487497 15.2711846 6.13684147 12.3395795 6.39375788 12.0251964 6.50795856 11.7109571 6.62215924 12.2079271 6.90773117 12.4931021 7.19316264 10.1390412 7.10761748 5.44055962 7.17883488 4.5 7.23600545M19.5 10.4646465C17.6119293 10.7520823 15.9440354 11.7583908 15 14.2020202 16.1957988 11.8158214 18.1154561 10.8958003 19.5 10.4646465M12.75 13.4135925C11.2072332 13.3776467 9.93670186 13.0366468 9.75511233 11.959596 9.63410226 13.5930568 11.6912735 13.5033247 12.75 13.4135925"/>
      <path fill="#443D3D" d="M8.25 10.4496288C9.00644344 9.52610331 10.6358604 9.92547895 11.246856 10.1251668 11.8578515 10.3248546 12.1060864 10.9000931 13.6327163 11.4729982 14.098264 11.6477557 13.9528162 12.5711584 13.8364293 12.9456038 13.7200423 13.3200491 14.2727729 13.5446672 15.7275378 13.419893 17.1823028 13.2951188 16.920468 12.3465403 17.5897286 11.5728421 18.2588461 10.7991439 18.1135414 10.8240742 17.1241809 10.6493166 16.1349637 10.4745591 13.0507817 10.3747151 11.4505689 9.92547895 9.85035601 9.47624276 8.57009983 9.80070477 8.25 10.4496288M6 8.22222222C8.00835872 8.35524012 9.80542759 8.25532345 11.25 9.71717172 9.62911435 9.05281783 8.39609183 8.55433787 6 8.22222222M34.5 10.4646465C35.6258384 9.16004837 36.5584454 8.23579646 37.2661695 7.80088585 37.9737354 7.36597524 38.1346825 6.87676768 38.0060198 5.97979798 38.6493335 7.63786124 37.9094832 8.1814995 37.0730963 8.56197942 36.2368677 8.94245933 35.4329235 9.83942903 34.5 10.4646465"/>
      <path fill="#443D3D" d="M36.0554312 8.22222222C36.499974 7.17297984 37.2936219 4.74299807 36.3412756 5.51617409 35.3887732 6.28921425 34.976095 6.62071126 34.5 6.92435708 35.166658 5.68192259 35.2617833 4.82587232 35.642753 4.41177278 36.0237227 3.99740151 36.5316824 3.61101729 37.1032151 3.77662994 37.6745916 3.94224258 37.5476017 5.37814091 37.230205 6.45509861 36.9126521 7.53192046 36.6269639 7.80798682 36.0554312 8.22222222M41.25 8.5951031C37.0287702 8.34651585 37.8444566 9.79660816 36 9.71374574 36.461245 9.21657123 36.6384658 8.22222222 37.7024445 8.22222222 38.7665541 8.22222222 40.04414 8.47096236 41.25 8.5951031M32.316291 5.23232323C32.2422248 3.3597871 32.1679762 1.87710473 32.4646057 1.64287576 32.7612352 1.40893471 32.8601116 1.8379466 32.9837072 2.11104578 33.1072116 2.38428893 33.5273455 2.73512852 33.4779985 1.99400328 33.4286514 1.253022 33.0084264-.385429116 33.3544941.0827409067 33.7004705.550766966 33.7250984 1.05766323 33.6263132.862736351 33.5275279.667809472 33.75 1.44794888 33.75 1.7990764 33.75 2.15020391 33.6016853 3.3597871 33.2061793 2.89161708 32.8105822 2.42344706 32.3904483.667809472 32.316291 5.23232323M35.25 1.49494949C35.7581154 2.66739951 35.7338287 3.69345554 35.2741676 4.48484848 35.6371582 2.75538014 35.3145264 1.84672777 35.25 1.49494949M27.75 11.2121212C25.5945512 10.6284492 24.3434693 9.89104976 23.9962056 8.3348476 23.9311965 8.04278079 23.8472607 8.38716726 23.8103674 8.59552262 23.7733369 8.80387798 23.5315415 9.2625983 23.3643557 9.45017968 23.1970327 9.63791493 23.1691913 10.0027676 23.5872244 10.2946806 24.0053946 10.5865935 24.9347227 11.1287175 27.75 11.2121212M30 9.71717172C26.6286871 9.4143376 23.5143485 6.05457255 27.0857022 4.48484848 26.7713725 5.80674991 27.8857248 8.45028177 30 9.71717172"/>
      <path fill="#443D3D" d="M29.25 9.67771058C25.7130241 10.0912586 21.9646609 7.16157836 25.2902497 5.23232323 22.790206 7.43562389 26.5973035 9.36754953 29.25 9.67771058M28.8094131 8.96969697C27.8324881 7.81673577 26.8365261 4.12164566 29.25 3.73737374 28.2923007 4.65369209 28.6370423 7.01852067 28.8094131 8.96969697M31.5 10.3963549C33.2382821 9.09866228 34.7408503 7.31421857 31.971428 5.23232323 35.0649933 6.63830099 36.2099314 8.92745466 34.3578512 9.80158464 33.3267111 10.2882027 32.6785701 10.6126591 31.5 10.3963549M30.75 10.4646465C31.2689958 9.16646198 31.9501378 7.66154357 31.090571 5.97979798 31.1879226 6.74677501 31.4474205 8.22222222 30.75 10.4646465M17.25 53.1842828C18.2015883 52.2186485 19.549379 51.4752622 20.4216682 51.5868661 21.2941038 51.6981958 20.897755 51.9211294 20.5804126 52.4413079 20.2630702 52.9616234 19.3909273 54.3361064 19.8667214 56.0824197 20.4614641 54.7450922 21.8888464 53.4816647 22.5627418 53.4072164 23.2366372 53.3330423 22.8797916 53.4074906 22.8006389 54.0018431 22.7213399 54.5960585 21.8092548 57.4202955 26.25 59.7979798 22.443647 58.8690898 21.4525555 56.8253946 21.6903063 54.5960585 20.8974624 55.1533925 20.5009673 55.4138931 20.5009673 57.1229136 18.7961846 57.0483282 18.3993969 55.0419257 19.0735849 52.4042894 18.6374403 52.6642415 17.8052395 53.1842828 17.25 53.1842828M47.25 38.3571574C48.0259586 40.1269651 51.80179 42.3699701 53.25 42.6060606 52.1121479 40.953427 51.3879793 40.2453007 50.7672633 38.1212121 49.2156006 38.7108576 48.129284 38.6520528 47.25 38.3571574M42.75 40.295661C43.1125146 41.904248 42.945253 43.1393069 43.809827 43.1679964 44.6742639 43.1966858 44.7858174 42.6510212 44.7858174 40.956366 46.0686142 42.7084001 46.8214975 44.6616843 47.0446046 45.0349296 47.2677116 45.4084575 47.8534705 45.3510787 47.769771 44.4031967 47.6862088 43.4553147 47.6582175 43.2828954 47.6582175 42.4212231 49.1362673 44.4605756 50.8372869 47.734987 51.0883852 48.2807929 51.3393463 48.8265988 51.924968 48.6541796 51.8969767 47.6489187 51.8692598 46.6435165 51.924968 46.4713799 51.8969767 46.1839203 54.2954459 48.5681113 55.0770066 48.1688617 57.1955629 48.0796842 58.5620592 48.0223053 57.2793996 45.7531547 56.6379325 44.8051314 57.3351077 44.7765833 57.2793996 45.0639017 57.8928753 45.4945258 58.506351 45.925574 59.4823414 46.7297262 59.8171391 47.0458753 60.1516625 47.3616004 60.0122549 47.534161 59.3149425 47.5627091 58.6180418 47.5916812 58.4226516 48.1948659 58.3390894 48.3670026 58.2555271 48.5395631 58.506351 48.4533535 59.3429338 48.1372044 60.1795166 47.8211966 61.6855576 48.1372044 62.0479351 47.9650678 62.4105869 47.7925072 62.2711793 47.3329109 61.7412658 46.9595243 61.2113523 46.586279 58.4809668 45.2042396 57.641777 44.5754746 57.3351077 44.3455352 56.1915813 44.4894063 55.8850492 44.5467852 56.0521737 45.5521874 56.1358731 46.8160771 55.6897963 47.5054715 54.0164935 47.0170445 51.924968 44.7765833 51.1162393 42.5072914 51.0325399 42.9668877 50.7537247 44.0584995 50.80957 45.8680538 49.2198295 42.9381982 48.1042944 41.5020306 47.1561581 41.0424343 47.128304 41.7893489 47.0724586 42.4499125 47.0446046 43.0245492 45.9013525 40.8126361 45.0366413 40.008484 44.6742639 39.721307 44.3117492 39.4338473 44.1166335 39.7786859 43.9770887 40.2382821 43.8376811 40.6978784 43.7819729 41.5882402 42.75 40.295661"/>
      <path fill="#443D3D" d="M43.1110101,43.3535354 C43.1477778,44.265394 42.8921549,45.1044278 42.5273064,45.9071165 C42.1624579,46.7098052 41.833569,47.7309685 41.7972054,48.0959004 C41.5418519,48.0959004 41.3593603,48.2054742 41.25,48.1323801 C41.5783502,48.4240834 41.4688552,48.9710101 41.6514815,49.0441042 C41.8338384,49.1173329 42.4909428,49.3728256 42.709798,48.5701369 C43.0016498,50.2480699 42.709798,50.5400424 43.3667677,50.5034281 C44.0236027,50.4669483 44.7903367,50.5034281 45.4102694,48.205205 C45.9577441,48.8252258 46.249596,49.9562321 46.8337037,50.8317456 C47.4179461,51.7072592 47.9651515,52.3637597 48.0382828,51.5613403 C48.1112795,50.7586516 48.5858923,49.6645289 48.6223906,48.8984545 C49.5347138,50.4669483 50.1553199,52.1084016 51.5056229,52.6557322 C52.8556566,53.2025243 53.6221212,53.3485779 53.5126263,52.2179754 C53.4031313,51.0869691 53.3663636,49.2267721 53.5126263,48.8618402 C54.5712121,50.1751105 55.6293939,50.5762529 56.25,50.7223064 C55.2283165,50.2114556 53.7320202,49.1173329 53.1115488,47.9863266 C53.2574074,48.7890153 53.0388215,49.1898885 52.783064,49.5914348 C52.5271717,49.9928464 52.089596,50.5034281 52.1259596,52.1447467 C50.4838047,51.59782 50.447037,49.773968 49.6440741,48.8618402 C48.8413805,47.9498469 48.5492593,47.147562 48.2207744,46.2720485 C47.7096633,47.2932117 47.3452189,48.3877383 47.4179461,50.5400424 C46.5784848,49.1173329 45.8852862,47.986192 45.9215152,46.6365766 C45.9577441,45.2869611 45.7755219,44.9952579 45.1551852,45.1776565 C44.5344444,45.359786 44.6807071,45.6879689 44.8265657,45.9799414 C44.9724242,46.2720485 44.4617172,47.8039279 43.6222559,49.2629826 C43.1842761,47.6215293 43.0380135,46.0164211 43.33,45.4693598 C43.6222559,44.9220292 43.33,44.4477927 43.1110101,43.3535354"/>
      <path fill="#443D3D" d="M54.75,49.3333333 C56.3124616,50.4287135 57.8749232,51.0610642 60.0385363,51.1030447 C62.2020015,51.1448697 64.2059383,52.0298809 62.1221634,52.1981139 C60.0385363,52.3671242 56.5927821,52.8727561 54.75,49.3333333"/>
      <path fill="#443D3D" d="M58.5 48.5858586C59.281873 49.5559647 59.4332393 49.2197934 59.4332393 51.4957638 59.8873383 51.6822962 60.0892531 51.5705144 59.9630214 50.8615537 59.8368828 50.1527306 59.4336117 48.9214792 58.5 48.5858586M41.393408 55.9107729C42.0795277 54.6195402 43.5280025 52.1508791 44.1378866 51.8090451 44.7476301 51.467211 45.1667848 51.467211 44.976196 52.0369344 44.7853259 52.6066578 44.8618427 54.1640418 45.2049025 55.0373373 45.5478217 55.9107729 46.0433525 57.0882012 46.4626479 57.5439799 47.4154512 56.3668319 48.3686765 54.961234 48.4828891 53.6321598 48.6733372 53.6321598 49.702376 53.328027 49.9309419 53.4423922 50.1597891 53.5561967 50.2357433 54.1257799 50.3884957 54.3158278 50.541248 54.5058758 51.1626659 55.7553429 52.86615 57.6960463 53.1328336 57.9997586 53.4758934 57.1263229 53.7809762 56.4045332 54.0860589 55.6828836 54.7426408 54.7828188 54.2383893 53.4423922 54.0096827 52.8345471 54.2763664 52.7587241 54.962486 52.7967057 55.648465 52.8345471 56.4490786 53.6700012 57.4781174 54.0116951 58.5072969 54.3539496 59.9943114 54.4297725 60.6418913 54.5058758 61.2896119 54.5815586 62.7386494 54.8091676 62.8146036 54.6576619 62.8905578 54.5058758 63.0807246 54.0879385 62.7762045 53.7079828 62.4714031 53.328027 61.6712115 52.5305545 61.5567175 52.1508791 61.4425049 51.7712037 61.7087666 51.9229897 62.4331447 52.41675 63.1576634 52.9103701 64.2252419 54.0116951 64.644256 54.2016029 65.0631293 54.3916508 66.0164953 55.2653668 64.0723489 55.2653668 62.1284839 55.2653668 58.7739805 54.9235328 57.6305884 54.8474295 56.4870557 54.7713262 55.5336898 54.2395844 55.1148164 54.0879385 54.6958024 53.9361524 54.7717566 54.2395844 54.7717566 54.8094479 54.7717566 55.3790311 54.4670958 56.1005406 54.1241766 56.9742566 53.7809762 57.8479725 53.7427177 58.3797143 53.7427177 58.7215483 53.7427177 59.0633824 52.9037051 59.2150283 52.4848317 58.7973713 52.0658177 58.3797143 49.81687 56.5565996 49.5881634 56.1008209 49.2069858 56.6705442 48.3301367 57.7718693 47.9872176 58.2276479 47.6440171 58.6834266 46.3858497 58.7592496 45.8526231 57.8858139 45.3192558 57.0123783 44.4428287 54.8097282 44.6329955 53.1383996 43.9849936 53.9739938 43.2224978 55.0753188 42.9558141 56.0245775 42.6892711 56.9742566 40.7077103 57.7338877 41.393408 55.9107729"/>
      <path fill="#443D3D" d="M36.6012953 59.3025645C37.2448744 59.5294705 37.6612586 60.0967356 38.6080436 59.5294705 39.5546889 58.9623449 40.5396192 58.1680343 42.5465072 57.8278148 42.9254448 58.9623449 44.5689049 61.7940653 45.1972538 62.6306592 45.4244486 62.9330611 45.5757722 63.0465141 46.1436196 62.0254369 46.7116068 61.0043597 48.6050371 59.1893905 49.286482 58.6977608 49.9680666 58.2059915 50.2708534 58.8112138 50.687517 59.1515729 51.104041 59.4917924 52.0128204 59.5674277 52.5808076 60.0211002 53.1487948 60.4749123 53.1861017 60.7774537 54.1330265 60.0967356 55.0798115 59.416157 57.0108282 57.3742818 57.5030837 57.0337832 57.9951995 56.6935637 58.6390581 56.9580083 58.9797106 57.1849143 59.3205029 57.4118203 60.4946226 57.6764045 61.0243248 57.7521794 61.5541667 57.8280938 61.8953782 57.8656324 62.2738965 58.0170427 62.6522752 58.1683134 63.5234683 58.6221254 64.0154444 58.0549999 64.5075603 57.4875952 64.8102073 57.0717404 64.3941026 56.4666576 63.9778581 55.8614353 63.6747919 55.7479823 63.5610547 55.483119 63.447597 55.2185349 63.7123782 55.3321274 64.0154444 55.3699451 64.3186504 55.4076232 65.3033012 55.7479823 65.5680824 55.9372102 65.8330034 56.126159 67.5372444 56.579692 67.4993786 57.6387264 67.4609539 58.6977608 67.5372444 59.3784789 65.4546247 59.4917924 63.3715859 59.6053849 62.8418837 59.1136156 62.3116226 58.5463505 61.7813615 57.9790854 61.1756483 58.1307748 60.8349957 58.0549999 60.4942034 57.9790854 59.7366077 57.7524585 59.2446316 57.6011878 58.752376 57.4497776 58.0327859 56.9956864 57.9190487 57.1849143 57.8057307 57.3742818 57.9196076 58.8490315 57.8437363 60.2104677 57.7678649 61.5719039 57.9574734 61.8745849 55.9127196 61.912263 53.8681055 61.9499411 53.6790559 62.0254369 52.3913388 60.9287244 51.1034821 59.832291 49.9680666 59.5675673 49.892335 59.1893905 49.8163239 58.8112138 49.7023073 59.0759375 49.5132577 59.4917924 49.3243478 59.9077868 48.3015517 61.6094425 47.9230333 62.5929811 47.5445149 63.5761011 47.1659965 64.445768 45.9165645 64.2568192 44.6669927 64.0675913 44.1744577 62.8953829 43.9472628 62.2526221 43.7200679 61.6094425 42.3193123 58.8867096 42.3193123 58.1304957 41.7511854 58.3194445 40.5017534 59.2273478 40.2745585 59.7566556 40.0470842 60.2861031 40.3882957 60.6642798 40.7668141 60.7777328 39.5168231 61.4206332 37.6992641 61.4581718 36.6390214 61.042317 35.5787787 60.6263226 36.0335876 60.4368155 36.6012953 59.3025645M26.9343225 53.0707071C26.9343225 54.4777176 26.8136007 55.3295487 27.2167012 56.3662573 28.1040284 55.8478347 29.072333 55.6628204 30 56.2551668 28.5881063 56.1809697 28.3459185 56.2179999 27.74097 57.3289056 27.1358727 57.477163 26.3290763 57.7729946 26.2887365 57.2918754 26.2486943 56.8106196 26.0871862 54.6257018 26.9343225 53.0707071M57.75 42.6060606C57.235638 40.9868449 54.0356005 38.5120052 51.75 38.1212121 54.4928893 38.3444243 57.5214259 39.9817718 57.75 42.6060606"/>
      <path fill="#443D3D" d="M39.0643917,61.2929293 C39.3875427,61.9359801 39.6296452,62.5794058 39.4277689,62.8841272 C39.2260417,63.1888486 38.9435639,63.3919962 38.6609372,63.4933201 C38.3781615,63.5951438 38.1764342,63.4933201 38.7820629,62.9517181 C37.2881788,63.6628596 35.6837469,64.9233492 37.6919313,65.0169271 C38.4186857,65.0511598 38.5398115,65.0169271 38.7415387,64.9153533 C38.4186857,64.4752001 38.7820629,63.6628596 39.3875427,63.3580133 C39.6299431,63.3919962 39.6299431,63.4933201 39.5086684,63.6967176 C39.3875427,63.8998652 38.943266,64.7461885 39.3066432,64.9153533 C39.6701694,65.0846429 40.1145951,65.0169271 40.2762451,65.0169271 C40.0745178,64.5768989 40.3978178,64.4077341 40.4782703,64.3059105 C40.5590208,64.2045866 40.760897,63.7307004 40.8012723,63.5275528 C40.8416475,63.3241554 40.922547,63.2904224 41.083899,63.1210078 C41.245251,62.9517181 41.5278777,62.3084174 41.8508797,62.7825534 C42.1738817,63.2565644 42.4973306,63.6628596 42.6585336,64.0011891 C42.8198856,64.3398933 42.7395821,64.6446147 43.0219109,64.6446147 C43.3043886,64.6446147 44.192793,64.6108817 44.353996,64.2385694 C44.515497,63.8660072 44.7979748,62.9181101 45,62.6133887 C44.7175223,62.4439741 44.4754198,61.9359801 44.353996,62.2408265 C44.2331683,62.5454229 43.7491123,63.1888486 43.4661876,63.4933201 C43.1832629,63.7980415 43.0223578,63.4933201 42.8605589,63.1548657 C42.6987599,62.8162864 42.4162822,62.6133887 42.0529049,62.1055197 C41.6895277,61.5976507 41.0432258,62.0039459 40.760897,62.2070935 C40.4782703,62.4102411 40.2360188,62.1391277 40.0745178,61.9023721 C39.9128678,61.6652416 39.5892699,61.428486 39.0643917,61.2929293"/>
      <path fill="#443D3D" d="M42.75 65.5539171C42.4660417 65.5539171 42.2336948 65.3298202 42.1563729 64.8494944 42.0788604 64.3696411 41.8983155 64.0491482 41.846704 64.4974602 41.7949973 64.9458903 41.6915839 65.521667 41.5626505 65.4578756 41.433717 65.3937298 41.382296 65.2657925 41.382296 65.0415774 41.382296 64.8177168 41.1756597 65.1379734 41.2788826 65.3937298 41.382296 65.6497224 41.3824865 65.7777778 41.6661591 65.7777778 41.9498318 65.7777778 41.8980298 65.1858169 41.9498318 64.7054911 42.1046662 65.1858169 42.3114929 65.8096735 42.75 65.5539171M10.2968866 27.6565657C7.14084087 28.9629451 6.57042044 30.1153492 6 30.8453848 7.52098084 31.2297558 8.5860463 31.1911911 9.30843852 30.9607954 7.97731718 32.6129811 6.9884481 34.4188585 6.60830814 35.8787879 8.54759729 34.6491125 9.99280272 33.6885394 11.2477277 33.266029 9.19435444 33.765527 7.78745769 34.4571397 7.25492496 35.0334835 7.90126113 32.9972103 8.50984991 32.0366372 9.49843834 30.9992183 10.4870268 29.9617993 13.1111011 28.886241 11.4758959 29.0782139 9.84069061 29.2703285 8.73801809 29.6162766 9.30843852 28.9629451 9.87885896 28.3096136 9.99280272 28.002372 10.2968866 27.6565657M10.6536533 35.1313131C8.84603448 36.7581419 7.69200273 39.0818154 6.38440285 39.8178264 5.07694491 40.5538374 4.88462994 40.6701926 4.5 40.8251422 5.99991484 41.715817 7.76907064 41.7932919 8.92296047 41.5608674 8.80757149 43.8463752 8.76910849 45.4343236 8.80757149 45.9766475 9.42297939 46.0542652 10.1151714 45.8218407 10.4228753 45.3955861 10.6536533 46.7901333 11.2690612 45.7829604 13.2115134 46.3641646 15.167165 46.9489424 15.4998486 46.0541223 15.4230645 44.466031 16.1538614 45.8218407 16.9421399 46.945083 17.4613194 47.8168894 15.3268361 49.617965 13.0191984 51.3028284 10.1920973 53.9176758 13.07668 52.5228428 15.1536817 51.361149 15.9612626 51.2449367 16.7689855 51.1287244 15.7304846 51.7097858 15.3268361 52.2325265 14.9229037 52.7555532 14.2305698 53.9758534 14.2883353 55.1958678 15.0382927 55.4282923 15.6152376 55.4864699 16.5382075 53.6849654 17.4613194 51.8840327 18.2114187 51.361149 18.5574437 50.8962999 18.9036107 50.4314509 18.8459872 49.8503896 17.8074863 50.1990263 16.7689855 50.5476631 14.0575573 51.8840327 13.2210227 52.2035092 12.384488 52.5228428 13.6536249 51.6516082 14.2593816 51.361149 14.8652802 51.0704039 17.7691653 49.617965 18.4230362 49.3080657 19.0767651 48.9983092 19.4612531 48.2625841 19.769099 47.138913 20.0769449 46.0153849 20.5000378 44.3498187 22.4999716 43.1103642 21.2690139 45.5120843 20.730532 47.1775075 20.8074579 47.681094 21.1536249 47.7585688 21.5383968 47.8359007 21.8845637 47.8747811 22.2307307 47.9135185 21.8842798 48.3396301 22.1921257 48.2234179 22.4999716 48.1072056 22.8078175 48.4561283 23.3076945 48.5334602 23.8075715 48.6107921 23.1923055 49.2693282 22.9229226 49.7729147 22.6536817 50.2767871 23.6151146 50.4699024 24.1535965 50.4314509 24.6923623 50.3928564 24.9613194 50.4314509 24.8459304 50.8962999 24.7305414 51.361149 25.4228753 51.4387668 25.8075053 51.1674619 26.1922771 50.8962999 25.9230362 52.29099 26.0382832 53.1430703 26.1536722 53.9951507 26.84629 55.4673156 26.769222 53.569182 26.6920122 51.6709054 26.269345 50.2767871 27 48.9595718 26.0768881 49.617965 25.8842893 49.7344632 25.7690423 50.0443625 25.8075053 48.8044792 25.9998202 48.145943 26.3458452 47.4486695 24.5768314 44.4272936 23.8458925 42.4130906 24.3843745 40.1278687 23.6538614 39.6630196 23.3460156 39.4690466 23.1538425 39.2755025 22.3459777 40.0889883 21.2304089 41.5996048 20.57668 42.91682 19.922951 44.2337494 18.884734 45.7059143 18.4614992 46.674064 16.6535965 44.4272936 15.6535587 42.7231329 15.0382927 40.8251422 14.0768598 41.2125165 13.038217 42.9942949 12.4612721 43.652831 12.3074201 42.8004648 12.3458831 41.715817 11.8075431 41.715817 11.2690612 41.715817 11.0381413 41.986979 10.8844312 42.2194035 10.7307212 42.451828 9.99978237 43.1103642 9.73054142 43.458858 9.5769733 42.3744961 9.61515243 41.8706238 9.76914634 41.250968 11.4613762 40.4763625 12.6538709 38.6173951 12.230778 37.8815271 11.8075431 37.145659 10.6921163 37.5714848 10.1153133 37.8815271 9.53836837 38.1917123 9.69236228 37.6879829 9.88453532 37.2618713 10.0767084 36.8356167 9.96146131 36.3707677 10.6536533 35.1313131"/>
      <g transform="translate(0 47.838)">
        <mask id="aksvb-logo-licorne-black-b" fill="#fff">
          <use xlink:href="#aksvb-logo-licorne-black-a"/>
        </mask>
        <path fill="#443D3D" d="M4.42104194,0.0848451791 C2.82359032,1.30023912 1.18884839,2.07339982 -5.48387097e-05,2.2208562 C2.30330806,2.44183691 3.93805,2.11050174 4.68111452,1.85269091 C4.12381613,2.69964775 3.67811452,2.9941528 3.12081613,3.25209954 C2.56351774,3.51004628 2.74942097,3.73075519 3.38088871,3.65709495 C4.01235645,3.58357062 5.20112258,3.25209954 6.20425968,2.62612342 C5.31258226,4.02553205 4.90403387,4.79882865 4.79257419,5.31445032 C4.68111452,5.82993609 4.75555806,5.90359633 5.38702581,5.90359633 C6.01863065,5.90359633 6.24127581,5.68275152 6.42717903,5.16726575 C6.61308226,4.65164408 8.3963,3.03098292 9.58506613,2.33121065 C9.3994371,3.21513352 9.17665484,3.69378916 8.73081613,4.20968264 C8.28497742,4.72516841 7.87629194,5.2776202 8.73081613,5.31445032 C9.58506613,5.35141635 9.5481871,4.72516841 9.84527581,4.31976529 C10.1423645,3.91504169 11.9627355,2.14706006 12.6687839,1.6682685 C11.5913403,2.0367056 10.1052113,2.84683232 9.69652581,3.21513352 C9.65937258,2.62612342 10.0681952,2.03643379 10.4025742,1.44728779 C9.13922742,2.11022994 7.83900161,2.84710413 6.98447742,3.3625899 C7.31885645,2.44183691 7.35587258,1.99987548 8.09907419,1.37376345 C7.65323548,1.44728779 5.86988065,1.70523453 4.97834032,2.25768632 C5.12695323,1.77889477 5.57279194,1.483982 6.01863065,1.22630707 C4.64396129,1.63171019 2.86088065,1.92648705 1.9319129,1.96318127 C2.86060645,1.48425381 3.97520323,0.600602755 4.42104194,0.0848451791" mask="url(#aksvb-logo-licorne-black-b)"/>
      </g>
      <path fill="#443D3D" d="M13.6972228,55.3131313 C13.8156438,57.8200047 14.170907,60.7692916 15.75,61.1011017 C14.4868421,61.5067834 12.9081861,61.3589041 12.2369878,59.7738614 C11.5657895,58.1888187 10.9736842,58.1518148 10.5,57.9306081 C11.5657895,58.3361538 12.5922509,58.8151629 13.2631579,59.5526547 C13.4211983,58.114947 13.420907,57.0827851 13.6972228,55.3131313"/>
      <path fill="#443D3D" d="M11.6695304 58.3763884C12.15787 58.8954101 12.4583867 59.5741307 12.5710804 59.9333061 12.6837742 60.2927761 13.0969846 60.412403 13.3223721 60.6519514 13.5477596 60.8914999 13.6603148 61.2908946 13.0218554 61.2908946 12.3832575 61.2908946 10.6552866 61.3705968 10.129521 60.5323245 9.6037554 59.6937576 8.51424381 57.5376742 7.5 56.0606061 9.26553552 57.4978968 10.7305543 59.2943629 11.5944012 60.1728545 11.8949179 60.1728545 11.8949179 59.5339113 11.6695304 58.3763884M5.96311364 56.1332311C5.59425002 57.3702732 4.85679502 58.5706672 6 59.7713297 4.45090893 59.9165798 3.4180908 59.5527834 3.08597744 56.5332729 2.34838632 57.2610001 1.8687275 57.6246622 1.5 58.1703569 2.20084087 56.8245786 2.86479538 56.2425043 3.27040924 56.0606061 3.34431808 56.67906 3.23365899 57.8429401 4.52454554 58.8617044 4.70897734 57.3702732 5.3361816 56.5332729 5.96311364 56.1332311M3.75 62.040404C4.06234899 64.4173171 5.4465031 65.9736426 7.5 65.7578495 6.83049247 64.5471438 6.42852436 63.6831743 6.56245881 62.8187262 6.07120107 62.7753444 5.62508237 63.3802985 5.75885208 64.2881284 4.86595572 64.1150793 4.41967228 63.6831743 3.75 62.040404"/>
      <path fill="#443D3D" d="M6 63.5353535C6.97766085 63.7809622 8.31715107 64.3957095 9.2223926 64.4938441 9.25873587 63.7809622 9.8741665 63.4369468 10.3086824 64.0021733 10.7431984 64.5678532 11.0328756 64.8870176 11.25 64.9854243 8.86029599 65.2066353 8.64330525 64.5922509 6 63.5353535M12.75 64.4118772C13.4605608 64.8342996 14.921158 65.6379628 15.5132921 65.8067445 15.0001092 65.0458227 14.8813911 64.6655178 14.7236344 64.1582366 14.5658776 63.6512674 14.7632556 63.0171659 15.5922433 64.2429395 16.4212309 65.4684011 17.76311 66.736916 18.75 67.2019238 15.9475237 67.5822287 15.7106701 66.3988846 12.75 64.4118772M18 70.2510711C16.5064715 69.505505 15.4612771 69.5841152 14.527684 68.9956247 13.5942287 68.407279 12.3006181 68.2520855 11.2420591 67.5440149 10.8313388 67.2692412 10.8688148 68.0145177 10.6447855 68.3285241 10.4207562 68.6426752 10.0847123 69.427474 9.63665375 69.1134676 9.1885952 68.7993165 7.95629641 68.1322158 7.43369922 67.9754298 6.91096425 67.8186438 6.79894961 68.1718828 6.57505811 68.4855996 6.35089106 68.7993165 5.90269473 67.9364866 5.75347966 67.5832476 5.60426459 67.230298 4.96951498 65.7391659 4.63333329 65.7785434 4.29742715 65.8179209 4.67108484 66.7987383 4.93217677 67.230298 5.19340647 67.661713 5.90297029 69.1920778 6.57505811 69.2310209 7.24700816 69.2701088 7.13526908 68.6816184 7.28448415 68.3285241 7.43369922 67.9754298 7.7325427 68.3679015 8.36715453 68.956392 9.00176636 69.5448825 9.59917776 69.3097759 9.93522167 69.7018133 10.2712656 70.0939955 10.8313388 69.4664171 10.9433534 68.956392 11.055368 68.4462222 11.1301823 68.210826 11.4288879 68.5639203 11.7274559 68.9170146 12.3248673 69.505505 12.623573 69.6625806 11.9514851 68.9170146 11.9889611 68.6426752 11.7274559 68.1325053 13.5196901 69.5841152 15.6103544 70.3686244 18 70.2510711"/>
      <path fill="#443D3D" d="M13.5 70.2954462C9.46816716 71.1702321 7.67044727 71.2277073 5.78836672 70.8553453 5.43618986 70.7857292 5.24045579 70.2255718 5.20116453 69.8754249 5.16201771 69.5254072 5.35789623 69.2103913 5.90595161 69.0003807 6.45386255 68.7903701 4.92742574 69.1405169 4.41837272 69.4554037 3.90946415 69.7705488 4.14448948 69.210133 4.53581316 68.9652498 4.92713683 68.7204957 3.79216816 68.8602445 3.12652788 69.2802657 2.46103206 69.7002869 1.95212349 69.2802657 3.51785156 68.020202 1.09103805 69.5254072.739150096 71.3331001 3.08738107 71.6953878 4.22263865 71.8702675 4.41822826 71.7655205 4.80984085 70.19057 5.12301535 70.6453347 5.00557491 71.0304833 6.37556892 71.1354886 7.74570738 71.2404939 8.7240888 71.5203789 13.5 70.2954462M4.64575514 53.8181818C5.69276161 55.7713204 5.19543724 56.0807327 4.53377188 58.3030303 4.26560532 56.393405 5.7154549 56.2523765 4.64575514 53.8181818M4.56940778 63.5353535C5.09045491 62.2221125 5.82969663 61.1054394 4.5 59.7979798 4.77450288 61.0056793 4.97451459 61.9229553 4.56940778 63.5353535M70.5 65.7777778C71.1345204 66.5681773 72.018989 68.0080073 71.9996895 68.4028598 71.9803899 68.7982679 71.4612885 68.8545167 70.9998019 68.6568821 70.5384099 68.4596642 70.6346239 68.2900845 70.9037771 68.0360622 71.1729303 67.7821788 70.7884528 66.5963712 70.5 65.7777778M72.7707052 65.7980231C73.3124231 66.4595486 73.8749487 68.4755893 72.75 69.5151515 73.2916154 69.4206036 73.6040385 69.0743412 73.8332308 68.948329 74.0625256 68.8223167 74.25 68.853781 74.25 68.2866485 74.25 67.7195159 73.9790898 65.5459986 72.7707052 65.7980231M75.9111909 65.6683439C76.6489416 66.3596202 77.2502212 67.6622541 75.228163 68.3267165 74.9000945 68.5927631 74.8455061 68.8318649 75.61082 68.7520771 76.3757305 68.6722893 77.0043043 68.7520771 78.3161749 68.1140362 78.5347976 68.2737426 78.8625972 68.4861613 79.4637424 67.9545914 80.065022 67.4230215 80.5840156 66.9708471 79.9830049 66.3063847 79.3817252 65.6417915 78.8898914 65.1900094 77.8242066 65.030303 78.7259916 65.5618729 79.8189706 66.2798324 79.7915419 66.7581668 79.7643822 67.2368936 79.5183308 67.8481205 78.6712687 67.9279083 78.64384 66.9444255 78.8625972 66.5988528 78.3707634 65.5618729 78.2065947 66.7581668 78.1793004 67.555914 76.7856816 68.2205072 77.3048097 66.997661 77.2776499 66.3063847 75.9111909 65.6683439M74.25 62.0438101C72.570952 63.4048187 72.4058979 63.9459577 72.3075782 64.7941467 72.274859 65.0774809 70.9908715 65.1059399 70.5956489 64.8791051 70.2007503 64.6519913 71.0896772 63.5178175 72.1430101 62.8375922 73.1965051 62.157088 73.6244469 62.0152116 74.25 62.0438101M63.75 63.5353535C64.674833 64.3416751 65.5453271 65.493563 65.7086116 65.7525606 65.8717624 66.0118417 66.3341789 65.5797066 66.6334447 65.2053785 66.9327104 64.8310503 67.9390519 64.1400593 69 64.6872414 67.8574096 64.7733851 67.4221626 65.8100842 67.0686917 66.674071 66.7150869 67.5379161 65.7629506 67.2787767 65.2460613 67.0483991 64.7293058 66.8180215 64.9740988 66.7315945 64.9467955 66.1268888 64.9197599 65.5221831 64.1853809 64.168821 63.75 63.5353535M69 58.3030303C68.2355654 59.2815207 67.3072562 60.4144562 67.1709179 61.7535298L65.2597643 61.7791228C64.4955983 61.2385015 64.6319366 60.6977535 63.9494393 61.2900677 63.266942 61.8822552 62.9939968 62.5518553 62.611578 62.7063005 62.2295622 62.8608723 61.8472777 62.7576132 61.2467177 62.7063005 60.6461577 62.654861 60.9191029 62.4485963 60.9736382 62.1911455 61.0283078 61.933568 59.9326316 60.8456103 59.25 60.2790158 60.0965062 60.7683244 60.8645675 61.5217987 61.2739853 61.6762439 62.8028545 60.4144562 64.0313766 59.9511208 65.6693164 60.7751661 66.8705708 59.3843997 67.771478 58.5603544 69 58.3030303"/>
      <path fill="#443D3D" d="M69.7647863 59.7979798C70.371891 60.9576377 71.3603979 62.3034428 72.75 62.7674829 71.6639502 63.0067306 69.5532382 61.0880292 69.7647863 59.7979798M27.3863112 58.3030303C27.3863112 59.7919671 27.6671584 60.8747053 28.3487086 61.1115816 29.0302588 61.3485827 29.9923602 60.874955 30.5539067 60.4688814 31.1154531 60.0628077 32.1981502 59.8933606 33 59.7919671 31.5966518 60.6041144 31.1153051 61.2132249 30.3133073 61.5855839 29.5114575 61.9576932 28.8296113 62.1944447 28.0277615 61.9237289 27.2259116 61.653138 26.5443615 61.2810287 27.3863112 58.3030303M28.8638663 64.2828283C28.6478202 65.4172864 28.468158 66.2021356 28.0002131 66.5509397 27.5324009 66.9000656 26.3807305 67.2490306 27.4244443 67.6414552 28.468158 68.0342018 29.6914012 68.121604 30.3391411 67.9031789 30.9867482 67.6849149 31.8146814 67.3797315 31.1669415 67.0306055 30.5192016 66.6816406 30.7351149 66.2457563 31.1308232 66.1148944 31.5265314 65.9837106 31.9225053 66.2021356 32.1385514 66.4638594 32.3543319 66.725905 32.7501729 67.4231911 33.6136934 67.205088 34.4773466 66.9873068 34.2614333 66.4638594 35.1250865 67.0306055 35.9887397 67.5978346 37.0681734 67.5107543 37.5 67.3800534 35.7726936 67.0306055 35.0889681 66.4638594 34.6932599 66.0274922 34.2975516 65.5914469 33.9736817 65.8964694 33.7577683 66.2457563 33.541855 66.5945603 33.1458812 66.4638594 32.5341269 66.1581931 31.9225053 65.8531707 31.2385143 65.2859416 30.7709677 65.6350676 30.3032883 65.9837106 29.7993578 66.3328365 29.4754879 66.2021356 29.1516179 66.0714347 29.0436613 65.3730219 28.8638663 64.2828283"/>
      <path fill="#443D3D" d="M39.75 67.0636118C37.7010872 68.1120431 37.0439399 68.6183802 35.7292173 68.4736172 34.4146374 68.3289876 33.2547139 68.0397283 32.3657246 68.0397283 31.47645 68.0397283 30.587318 67.8592081 30.0845418 68.0761526 29.5819083 68.293097 29.0022319 68.8353246 28.924761 68.2566727 28.8471474 67.6781543 28.8471474 67.2445323 28.8471474 66.9914304 28.8471474 66.7381952 28.6539695 66.2680155 28.6539695 66.7021712 28.6539695 67.1357932 28.6538269 67.5696821 28.3833207 67.9313895 28.1128146 68.293097 27.8421658 68.654671 27.8421658 69.0522691 27.8421658 69.4500005 27.4939034 69.8475985 28.151336 69.8475985 28.8087687 69.8475985 29.3111168 69.9200468 29.5431015 69.7752837 29.7750862 69.6306541 29.5819083 69.7752837 29.5819083 70.3899596 29.5819083 71.004502 29.3887304 71.6917595 29.8525571 72.0532002 30.3165265 72.4146408 30.6261248 72.5595372 31.0124806 72.4868222 31.3989791 72.4146408 31.9017552 72.1616724 31.9017552 72.1616724 31.9017552 72.1616724 31.3604576 72.5590036 31.0898088 71.9807519 30.8190173 71.4025003 30.7804959 70.8966969 30.8578241 70.3539356 30.9350097 69.811708 31.0898088 69.0158448 31.4377858 68.7628764 31.7857629 68.5100414 31.7084347 68.0399952 31.2058012 68.4014358 30.703025 68.7628764 30.0845418 69.3416617 30.0458777 69.0522691 30.0070709 68.7628764 29.813893 68.4374598 30.2778624 68.3289876 30.7418318 68.2205153 31.4763073 68.1120431 31.7469561 68.2566727 32.0177476 68.4014358 31.9790835 68.9439303 33.1003428 69.0161116 34.2214595 69.088293 34.4921083 69.088293 35.3040547 69.1244504 36.1160012 69.1608747 36.850334 69.088293 37.4302957 68.7628764 38.0102575 68.4374598 38.165342 68.1486008 38.6676901 67.8592081 39.1700383 67.5696821 39.4021656 67.388895 39.75 67.0636118M36.762259 70.2626263C37.0106828 71.1157224 37.3087914 72.4155286 36.6381387 73.2687747 36.3400301 72.7003437 36.4145573 71.5625823 36.0419215 70.7501098 36.1164487 71.8472475 35.9177096 73.3096981 36.0419215 73.5936138 36.1660418 73.8779792 36.5138351 74 36.762259 74 37.0106828 74 37.283949 73.7568578 37.4329117 73.0659564 37.5820576 72.3752048 37.5323729 70.7093363 36.762259 70.2626263"/>
      <path fill="#443D3D" d="M34.5,70.4382871 C34.2581144,71.6684892 33.9677803,72.166363 33.8951671,72.7228864 C33.8225538,73.2794099 33.7742243,72.781392 33.6531624,72.0787487 C33.5322197,71.3755291 33.3386636,70.643633 33,70.2626263 C33.1935561,71.4049259 33.096778,72.8400417 33.2661694,73.3965651 C33.4355607,73.9529445 34.0161098,74.3630599 34.1855012,73.5137204 C34.3548925,72.6643809 34.3548925,71.5514781 34.5,70.4382871"/>
      <path fill="#443D3D" d="M33.6121235 71.1607674C33.2448546 72.0021568 32.5667554 73.8473845 32.5949748 72.2614379 32.6231942 70.6750135 32.5667554 69.8012936 32.4537389 70.513361 32.3407223 71.2255877 32.0581115 72.6495632 32.4537389 73.4264509 32.8492272 74.2034978 33.4143098 73.9770251 33.6121235 73.944376 33.8097982 73.9120455 33.7815788 71.9376551 33.6121235 71.1607674M36.3481183 62.040404C36.1958585 63.2114109 36.176365 64.7165865 36.75 65.7777778 36.0482349 65.3931533 35.6878691 62.8849321 36.3481183 62.040404"/>
    </g>
    <path fill="#443D3D" d="M10.23 11.97625C11.3300055 12.982755 11.88 14.382491 11.88 16.1755 11.88 17.968509 11.3437554 19.3874948 10.27125 20.4325 9.19874464 21.4775052 7.562511 22 5.3625 22L1.419 22 1.419 10.4665 5.4945 10.4665C7.55151028 10.4665 9.1299945 10.969745 10.23 11.97625zM8.34075 18.832C8.97325316 18.237997 9.2895 17.3745057 9.2895 16.2415 9.2895 15.1084943 8.97325316 14.2367531 8.34075 13.62625 7.70824684 13.0157469 6.73750654 12.7105 5.4285 12.7105L3.993 12.7105 3.993 19.723 5.6265 19.723C6.80350588 19.723 7.70824684 19.426003 8.34075 18.832zM22.3245 22L21.252 19.5085 16.4175 19.5085 15.345 22 12.606 22 17.589 10.4665 20.0805 10.4665 25.0635 22 22.3245 22zM18.843 13.8985L17.391 17.248 20.2785 17.248 18.843 13.8985zM34.7985 10.4665L37.3725 10.4665 37.3725 22 34.7985 22 29.304 14.773 29.304 22 26.73 22 26.73 10.4665 29.139 10.4665 34.7985 17.8915 34.7985 10.4665zM43.23825 12.76825C42.9907488 12.971751 42.867 13.2412483 42.867 13.57675 42.867 13.9122517 43.0182485 14.178999 43.32075 14.377 43.6232515 14.575001 44.3217445 14.8087487 45.41625 15.07825 46.5107555 15.3477513 47.360497 15.7519973 47.9655 16.291 48.570503 16.8300027 48.873 17.6164948 48.873 18.6505 48.873 19.6845052 48.4852539 20.5232468 47.70975 21.16675 46.9342461 21.8102532 45.9140063 22.132 44.649 22.132 42.8229909 22.132 41.1785073 21.4555068 39.7155 20.1025L41.25 18.2215C42.4930062 19.3105054 43.6424947 19.855 44.6985 19.855 45.1715024 19.855 45.5427486 19.753251 45.81225 19.54975 46.0817513 19.346249 46.2165 19.0712517 46.2165 18.72475 46.2165 18.3782483 46.0735014 18.103251 45.7875 17.89975 45.5014986 17.696249 44.9350042 17.490001 44.088 17.281 42.7459933 16.9619984 41.7642531 16.5467526 41.14275 16.03525 40.5212469 15.5237474 40.2105 14.7207555 40.2105 13.62625 40.2105 12.5317445 40.6037461 11.687503 41.39025 11.0935 42.1767539 10.499497 43.1584941 10.2025 44.3355 10.2025 45.1055038 10.2025 45.8754961 10.3344987 46.6455 10.5985 47.4155038 10.8625013 48.0864971 11.2364976 48.6585 11.7205L47.355 13.6015C46.353995 12.8424962 45.3200053 12.463 44.253 12.463 43.8239978 12.463 43.4857512 12.564749 43.23825 12.76825zM59.7135 10.4665L59.7135 12.76 53.9715 12.76 53.9715 15.136 59.136 15.136 59.136 17.3305 53.9715 17.3305 53.9715 19.723 59.895 19.723 59.895 22 51.3975 22 51.3975 10.4665 59.7135 10.4665zM76.0155 11.97625C77.1155055 12.982755 77.6655 14.382491 77.6655 16.1755 77.6655 17.968509 77.1292554 19.3874948 76.05675 20.4325 74.9842446 21.4775052 73.348011 22 71.148 22L67.2045 22 67.2045 10.4665 71.28 10.4665C73.3370103 10.4665 74.9154945 10.969745 76.0155 11.97625zM74.12625 18.832C74.7587532 18.237997 75.075 17.3745057 75.075 16.2415 75.075 15.1084943 74.7587532 14.2367531 74.12625 13.62625 73.4937468 13.0157469 72.5230065 12.7105 71.214 12.7105L69.7785 12.7105 69.7785 19.723 71.412 19.723C72.5890059 19.723 73.4937468 19.426003 74.12625 18.832zM88.539 10.4665L88.539 12.76 82.797 12.76 82.797 15.136 87.9615 15.136 87.9615 17.3305 82.797 17.3305 82.797 19.723 88.7205 19.723 88.7205 22 80.223 22 80.223 10.4665 88.539 10.4665zM96.03 22L96.03 10.4665 98.604 10.4665 98.604 19.7065 103.521 19.7065 103.521 22 96.03 22zM105.732 10.4665L108.306 10.4665 108.306 22 105.732 22 105.732 10.4665zM116.7705 19.723C118.035506 19.723 119.069496 19.222505 119.8725 18.2215L121.5225 19.921C120.213493 21.3950074 118.670759 22.132 116.89425 22.132 115.117741 22.132 113.654756 21.5710056 112.50525 20.449 111.355744 19.3269944 110.781 17.9107586 110.781 16.20025 110.781 14.4897414 111.366744 13.0625057 112.53825 11.9185 113.709756 10.7744943 115.142492 10.2025 116.8365 10.2025 118.728509 10.2025 120.312494 10.9229928 121.5885 12.364L119.988 14.179C119.173996 13.1669949 118.162006 12.661 116.952 12.661 115.983995 12.661 115.156253 12.9772468 114.46875 13.60975 113.781247 14.2422532 113.4375 15.0947446 113.4375 16.16725 113.4375 17.2397554 113.761997 18.1004968 114.411 18.7495 115.060003 19.3985032 115.846495 19.723 116.7705 19.723zM131.472 13.5355C130.811997 12.8094964 130.000755 12.4465 129.03825 12.4465 128.075745 12.4465 127.264503 12.8094964 126.6045 13.5355 125.944497 14.2615036 125.6145 15.1387449 125.6145 16.16725 125.6145 17.1957551 125.944497 18.0702464 126.6045 18.79075 127.264503 19.5112536 128.075745 19.8715 129.03825 19.8715 130.000755 19.8715 130.811997 19.5112536 131.472 18.79075 132.132003 18.0702464 132.462 17.1957551 132.462 16.16725 132.462 15.1387449 132.132003 14.2615036 131.472 13.5355zM129.03 22.1155C127.324991 22.1155 125.889506 21.5462557 124.7235 20.40775 123.557494 19.2692443 122.9745 17.8530085 122.9745 16.159 122.9745 14.4649915 123.557494 13.0487557 124.7235 11.91025 125.889506 10.7717443 127.324991 10.2025 129.03 10.2025 130.735009 10.2025 132.170494 10.7717443 133.3365 11.91025 134.502506 13.0487557 135.0855 14.4649915 135.0855 16.159 135.0855 17.8530085 134.502506 19.2692443 133.3365 20.40775 132.170494 21.5462557 130.735009 22.1155 129.03 22.1155zM146.949 14.2945C146.949 16.1425092 146.217507 17.3359973 144.7545 17.875L147.675 22 144.507 22 141.9495 18.3205 140.1675 18.3205 140.1675 22 137.5935 22 137.5935 10.4665 141.966 10.4665C143.759009 10.4665 145.037746 10.768997 145.80225 11.374 146.566754 11.979003 146.949 12.9524933 146.949 14.2945zM143.847 15.664C144.166002 15.3779986 144.3255 14.9242531 144.3255 14.30275 144.3255 13.6812469 144.160502 13.2550012 143.8305 13.024 143.500498 12.7929988 142.923004 12.6775 142.098 12.6775L140.1675 12.6775 140.1675 16.093 142.0485 16.093C142.928504 16.093 143.527998 15.9500014 143.847 15.664zM157.9875 10.4665L160.5615 10.4665 160.5615 22 157.9875 22 152.493 14.773 152.493 22 149.919 22 149.919 10.4665 152.328 10.4665 157.9875 17.8915 157.9875 10.4665zM172.0455 10.4665L172.0455 12.76 166.3035 12.76 166.3035 15.136 171.468 15.136 171.468 17.3305 166.3035 17.3305 166.3035 19.723 172.227 19.723 172.227 22 163.7295 22 163.7295 10.4665 172.0455 10.4665zM10.23 32.08875C11.3300055 33.095255 11.88 34.494991 11.88 36.288 11.88 38.081009 11.3437554 39.4999948 10.27125 40.545 9.19874464 41.5900052 7.562511 42.1125 5.3625 42.1125L1.419 42.1125 1.419 30.579 5.4945 30.579C7.55151028 30.579 9.1299945 31.082245 10.23 32.08875zM8.34075 38.9445C8.97325316 38.350497 9.2895 37.4870057 9.2895 36.354 9.2895 35.2209943 8.97325316 34.3492531 8.34075 33.73875 7.70824684 33.128247 6.73750654 32.823 5.4285 32.823L3.993 32.823 3.993 39.8355 5.6265 39.8355C6.80350588 39.8355 7.70824684 39.538503 8.34075 38.9445zM22.3245 42.1125L21.252 39.621 16.4175 39.621 15.345 42.1125 12.606 42.1125 17.589 30.579 20.0805 30.579 25.0635 42.1125 22.3245 42.1125zM18.843 34.011L17.391 37.3605 20.2785 37.3605 18.843 34.011zM34.7985 30.579L37.3725 30.579 37.3725 42.1125 34.7985 42.1125 29.304 34.8855 29.304 42.1125 26.73 42.1125 26.73 30.579 29.139 30.579 34.7985 38.004 34.7985 30.579zM43.23825 32.88075C42.9907488 33.084251 42.867 33.3537483 42.867 33.68925 42.867 34.0247517 43.0182485 34.291499 43.32075 34.4895 43.6232515 34.687501 44.3217445 34.9212487 45.41625 35.19075 46.5107555 35.4602514 47.360497 35.8644973 47.9655 36.4035 48.570503 36.9425027 48.873 37.7289948 48.873 38.763 48.873 39.7970052 48.4852539 40.6357468 47.70975 41.27925 46.9342461 41.9227532 45.9140063 42.2445 44.649 42.2445 42.8229909 42.2445 41.1785073 41.5680068 39.7155 40.215L41.25 38.334C42.4930062 39.4230054 43.6424947 39.9675 44.6985 39.9675 45.1715024 39.9675 45.5427486 39.865751 45.81225 39.66225 46.0817513 39.458749 46.2165 39.1837517 46.2165 38.83725 46.2165 38.4907483 46.0735014 38.215751 45.7875 38.01225 45.5014986 37.808749 44.9350042 37.602501 44.088 37.3935 42.7459933 37.0744984 41.7642531 36.6592526 41.14275 36.14775 40.5212469 35.6362474 40.2105 34.8332555 40.2105 33.73875 40.2105 32.6442445 40.6037461 31.800003 41.39025 31.206 42.1767539 30.611997 43.1584941 30.315 44.3355 30.315 45.1055038 30.315 45.8754961 30.4469987 46.6455 30.711 47.4155038 30.9750013 48.0864971 31.3489976 48.6585 31.833L47.355 33.714C46.353995 32.9549962 45.3200053 32.5755 44.253 32.5755 43.8239978 32.5755 43.4857512 32.677249 43.23825 32.88075zM59.7135 30.579L59.7135 32.8725 53.9715 32.8725 53.9715 35.2485 59.136 35.2485 59.136 37.443 53.9715 37.443 53.9715 39.8355 59.895 39.8355 59.895 42.1125 51.3975 42.1125 51.3975 30.579 59.7135 30.579zM76.0155 32.08875C77.1155055 33.095255 77.6655 34.494991 77.6655 36.288 77.6655 38.081009 77.1292554 39.4999948 76.05675 40.545 74.9842446 41.5900052 73.348011 42.1125 71.148 42.1125L67.2045 42.1125 67.2045 30.579 71.28 30.579C73.3370103 30.579 74.9154945 31.082245 76.0155 32.08875zM74.12625 38.9445C74.7587532 38.350497 75.075 37.4870057 75.075 36.354 75.075 35.2209943 74.7587532 34.3492531 74.12625 33.73875 73.4937468 33.128247 72.5230065 32.823 71.214 32.823L69.7785 32.823 69.7785 39.8355 71.412 39.8355C72.5890059 39.8355 73.4937468 39.538503 74.12625 38.9445zM88.539 30.579L88.539 32.8725 82.797 32.8725 82.797 35.2485 87.9615 35.2485 87.9615 37.443 82.797 37.443 82.797 39.8355 88.7205 39.8355 88.7205 42.1125 80.223 42.1125 80.223 30.579 88.539 30.579zM104.841 32.08875C105.941005 33.095255 106.491 34.494991 106.491 36.288 106.491 38.081009 105.954755 39.4999948 104.88225 40.545 103.809745 41.5900052 102.173511 42.1125 99.9735 42.1125L96.03 42.1125 96.03 30.579 100.1055 30.579C102.16251 30.579 103.740994 31.082245 104.841 32.08875zM102.95175 38.9445C103.584253 38.350497 103.9005 37.4870057 103.9005 36.354 103.9005 35.2209943 103.584253 34.3492531 102.95175 33.73875 102.319247 33.128247 101.348507 32.823 100.0395 32.823L98.604 32.823 98.604 39.8355 100.2375 39.8355C101.414506 39.8355 102.319247 39.538503 102.95175 38.9445zM118.404 34.407C118.404 36.2550092 117.672507 37.4484973 116.2095 37.9875L119.13 42.1125 115.962 42.1125 113.4045 38.433 111.6225 38.433 111.6225 42.1125 109.0485 42.1125 109.0485 30.579 113.421 30.579C115.214009 30.579 116.492746 30.881497 117.25725 31.4865 118.021754 32.091503 118.404 33.0649933 118.404 34.407zM115.302 35.7765C115.621002 35.4904986 115.7805 35.0367531 115.7805 34.41525 115.7805 33.7937469 115.615502 33.3675012 115.2855 33.1365 114.955498 32.9054988 114.378004 32.79 113.553 32.79L111.6225 32.79 111.6225 36.2055 113.5035 36.2055C114.383504 36.2055 114.982998 36.0625014 115.302 35.7765zM129.591 42.1125L128.5185 39.621 123.684 39.621 122.6115 42.1125 119.8725 42.1125 124.8555 30.579 127.347 30.579 132.33 42.1125 129.591 42.1125zM126.1095 34.011L124.6575 37.3605 127.545 37.3605 126.1095 34.011zM141.4875 36.2385L144.078 36.2385 144.078 40.3305C142.933994 41.6065064 141.35001 42.2445 139.326 42.2445 137.631992 42.2445 136.210256 41.6835056 135.06075 40.5615 133.911244 39.4394944 133.3365 38.0232586 133.3365 36.31275 133.3365 34.6022415 133.922244 33.1750057 135.09375 32.031 136.265256 30.8869943 137.678742 30.315 139.33425 30.315 140.989758 30.315 142.427994 30.8594946 143.649 31.9485L142.3125 33.879C141.795497 33.4279977 141.319752 33.1172509 140.88525 32.94675 140.450748 32.7762492 139.980503 32.691 139.4745 32.691 138.495495 32.691 137.670503 33.0237467 136.9995 33.68925 136.328497 34.3547533 135.993 35.2319946 135.993 36.321 135.993 37.4100054 136.314747 38.2817467 136.95825 38.93625 137.601753 39.5907533 138.368996 39.918 139.26 39.918 140.151004 39.918 140.893497 39.7475017 141.4875 39.4065L141.4875 36.2385zM154.539 33.648C153.878997 32.9219964 153.067755 32.559 152.10525 32.559 151.142745 32.559 150.331503 32.9219964 149.6715 33.648 149.011497 34.3740036 148.6815 35.2512449 148.6815 36.27975 148.6815 37.3082551 149.011497 38.1827464 149.6715 38.90325 150.331503 39.6237536 151.142745 39.984 152.10525 39.984 153.067755 39.984 153.878997 39.6237536 154.539 38.90325 155.199003 38.1827464 155.529 37.3082551 155.529 36.27975 155.529 35.2512449 155.199003 34.3740036 154.539 33.648zM152.097 42.228C150.391991 42.228 148.956506 41.6587557 147.7905 40.52025 146.624494 39.3817443 146.0415 37.9655085 146.0415 36.2715 146.0415 34.5774915 146.624494 33.1612557 147.7905 32.02275 148.956506 30.8842443 150.391991 30.315 152.097 30.315 153.802009 30.315 155.237494 30.8842443 156.4035 32.02275 157.569506 33.1612557 158.1525 34.5774915 158.1525 36.2715 158.1525 37.9655085 157.569506 39.3817443 156.4035 40.52025 155.237494 41.6587557 153.802009 42.228 152.097 42.228zM168.729 30.579L171.303 30.579 171.303 42.1125 168.729 42.1125 163.2345 34.8855 163.2345 42.1125 160.6605 42.1125 160.6605 30.579 163.0695 30.579 168.729 38.004 168.729 30.579zM6.85875 60.874125L6.85875 62.49 2.81325 62.49 2.81325 64.164 6.451875 64.164 6.451875 65.710125 2.81325 65.710125 2.81325 67.39575 6.986625 67.39575 6.986625 69 .99975 69 .99975 60.874125 6.85875 60.874125zM4.591875 60.037125L2.9295 60.037125 4.405875 57.9795 6.20775 58.735125 4.591875 60.037125zM11.659875 67.546875C12.2411279 67.546875 12.7642477 67.2562529 13.22925 66.675L14.263875 67.8375C13.457871 68.6745042 12.5860047 69.093 11.64825 69.093 10.7104953 69.093 9.91806574 68.7965655 9.2709375 68.2036875 8.62380927 67.6108095 8.30025 66.8358173 8.30025 65.8786875 8.30025 64.9215577 8.62768423 64.1426905 9.2825625 63.5420625 9.93744078 62.9414345 10.7143705 62.641125 11.613375 62.641125 12.0628772 62.641125 12.5181852 62.7341241 12.9793125 62.920125 13.4404398 63.1061259 13.8453733 63.3812482 14.194125 63.7455L13.287375 64.93125C13.085874 64.6909988 12.839814 64.5050007 12.5491875 64.37325 12.258561 64.2414993 11.9698764 64.175625 11.683125 64.175625 11.2258727 64.175625 10.8325641 64.324811 10.5031875 64.6231875 10.1738109 64.921564 10.009125 65.3361848 10.009125 65.8670625 10.009125 66.3979402 10.1738109 66.8106235 10.5031875 67.105125 10.8325641 67.3996265 11.2181228 67.546875 11.659875 67.546875zM17.3851875 67.1225625C17.675814 67.4441891 18.0478102 67.605 18.5011875 67.605 18.9545648 67.605 19.3265611 67.4441891 19.6171875 67.1225625 19.907814 66.8009359 20.053125 66.3843776 20.053125 65.872875 20.053125 65.3613724 19.907814 64.9428766 19.6171875 64.617375 19.3265611 64.2918734 18.9545648 64.129125 18.5011875 64.129125 18.0478102 64.129125 17.675814 64.2918734 17.3851875 64.617375 17.0945611 64.9428766 16.94925 65.3613724 16.94925 65.872875 16.94925 66.3843776 17.0945611 66.8009359 17.3851875 67.1225625zM20.866875 68.163C20.2391219 68.7830031 19.4505673 69.093 18.5011875 69.093 17.5518078 69.093 16.7632531 68.7830031 16.1355 68.163 15.5077469 67.5429969 15.193875 66.7796295 15.193875 65.872875 15.193875 64.9661205 15.5077469 64.2008156 16.1355 63.5769375 16.7632531 62.9530594 17.5518078 62.641125 18.5011875 62.641125 19.4505673 62.641125 20.2391219 62.9530594 20.866875 63.5769375 21.4946281 64.2008156 21.8085 64.9661205 21.8085 65.872875 21.8085 66.7796295 21.4946281 67.5429969 20.866875 68.163zM25.075125 69L23.331375 69 23.331375 60.37425 25.075125 60.37425 25.075125 69zM32.375625 68.09325C31.6703715 68.7597533 30.8430673 69.093 29.8936875 69.093 28.9443078 69.093 28.1596281 68.8004404 27.539625 68.2153125 26.9196219 67.6301846 26.609625 66.8455049 26.609625 65.86125 26.609625 64.8769951 26.9254343 64.0942529 27.5570625 63.513 28.1886907 62.9317471 28.9346207 62.641125 29.794875 62.641125 30.6551293 62.641125 31.3855595 62.9007474 31.9861875 63.42 32.5868155 63.9392526 32.887125 64.6522455 32.887125 65.559L32.887125 66.489 28.330125 66.489C28.3843753 66.8300017 28.5626235 67.1089989 28.864875 67.326 29.1671265 67.5430011 29.5081231 67.6515 29.887875 67.6515 30.5001281 67.6515 31.003873 67.4461271 31.399125 67.035375L32.375625 68.09325zM30.701625 64.384875C30.4613738 64.183374 30.1688142 64.082625 29.8239375 64.082625 29.4790608 64.082625 29.1632514 64.187249 28.8765 64.3965 28.5897486 64.605751 28.4231252 64.8886232 28.376625 65.245125L31.120125 65.245125C31.0813748 64.8731231 30.9418762 64.586376 30.701625 64.384875zM37.851 60.874125L39.6645 60.874125 39.6645 64.2105 42.7335 60.874125 44.977125 60.874125 41.745375 64.46625C42.0243764 64.8537519 42.5397463 65.5764322 43.2915 66.6343125 44.0432538 67.6921928 44.6051232 68.4807474 44.977125 69L42.861375 69 40.47825 65.7915 39.6645 66.69825 39.6645 69 37.851 69 37.851 60.874125zM49.91775 66.117L49.91775 62.74575 51.673125 62.74575 51.673125 69 49.91775 69 49.91775 68.174625C49.4837478 68.7868781 48.9238159 69.093 48.2379375 69.093 47.5520591 69.093 46.9766273 68.8779397 46.511625 68.4478125 46.0466227 68.0176853 45.814125 67.3802542 45.814125 66.5355L45.814125 62.74575 47.5695 62.74575 47.5695 66.151875C47.5695 67.1128798 47.9221215 67.593375 48.627375 67.593375 48.9761268 67.593375 49.2783737 67.4674388 49.534125 67.2155625 49.7898763 66.9636862 49.91775 66.5975024 49.91775 66.117zM55.300125 65.5125L55.300125 69 53.556375 69 53.556375 62.74575 55.300125 62.74575 55.300125 63.44325C55.8271276 62.9084973 56.4199967 62.641125 57.07875 62.641125 57.7375033 62.641125 58.2896853 62.8736227 58.7353125 63.338625 59.1809397 63.8036273 59.40375 64.4236211 59.40375 65.198625L59.40375 69 57.66 69 57.66 65.466C57.66 64.5049952 57.3073785 64.0245 56.602125 64.0245 56.2533733 64.0245 55.9491888 64.1504362 55.6895625 64.4023125 55.4299362 64.6541888 55.300125 65.0242476 55.300125 65.5125zM65.181375 64.55925C64.9023736 64.2724986 64.5575021 64.129125 64.14675 64.129125 63.735998 64.129125 63.381439 64.2724986 63.0830625 64.55925 62.784686 64.8460014 62.6355 65.2373725 62.6355 65.733375 62.6355 66.2293775 62.7808111 66.630436 63.0714375 66.9365625 63.362064 67.242689 63.7166229 67.39575 64.135125 67.39575 64.5536271 67.39575 64.9023736 67.2446265 65.181375 66.942375 65.4603764 66.6401235 65.599875 66.239065 65.599875 65.7391875 65.599875 65.23931 65.4603764 64.8460014 65.181375 64.55925zM65.844 67.942125C65.2937473 68.5543781 64.6098166 68.8605 63.7921875 68.8605 62.9745584 68.8605 62.2848153 68.5834403 61.7229375 68.0293125 61.1610597 67.4751847 60.880125 66.7350671 60.880125 65.8089375 60.880125 64.8828079 61.1688096 64.1233155 61.7461875 63.5304375 62.3235654 62.9375595 62.9842463 62.641125 63.72825 62.641125 64.4722537 62.641125 65.0883726 62.9472469 65.576625 63.5595L65.576625 62.734125 67.320375 62.734125 67.320375 68.18625C67.320375 68.7442528 67.223501 69.2402478 67.02975 69.67425 66.835999 70.1082522 66.5763766 70.4492488 66.250875 70.69725 65.6076218 71.2087526 64.8481294 71.4645 63.972375 71.4645 63.5073727 71.4645 63.0326899 71.3889383 62.5483125 71.2378125 62.0639351 71.0866867 61.6396268 70.8716264 61.275375 70.592625L61.949625 69.279C62.5231279 69.7130022 63.1295593 69.93 63.7689375 69.93 64.4083157 69.93 64.9139982 69.7711266 65.286 69.453375 65.6580019 69.1356234 65.844 68.6318784 65.844 67.942125zM69.157125 66.27975L69.157125 64.733625 73.295625 64.733625 73.295625 66.27975 69.157125 66.27975zM80.88675 60.874125L80.88675 62.46675 77.12025 62.46675 77.12025 64.222125 80.70075 64.222125 80.70075 65.81475 77.12025 65.81475 77.12025 69 75.30675 69 75.30675 60.874125 80.88675 60.874125zM86.42025 66.117L86.42025 62.74575 88.175625 62.74575 88.175625 69 86.42025 69 86.42025 68.174625C85.9862479 68.7868781 85.426316 69.093 84.7404375 69.093 84.0545591 69.093 83.4791273 68.8779397 83.014125 68.4478125 82.5491227 68.0176853 82.316625 67.3802542 82.316625 66.5355L82.316625 62.74575 84.072 62.74575 84.072 66.151875C84.072 67.1128798 84.4246215 67.593375 85.129875 67.593375 85.4786268 67.593375 85.7808737 67.4674388 86.036625 67.2155625 86.2923763 66.9636862 86.42025 66.5975024 86.42025 66.117zM95.4354375 62.4958125C95.2610617 62.6391882 95.173875 62.8290613 95.173875 63.0654375 95.173875 63.3018137 95.2804365 63.4897493 95.4935625 63.62925 95.7066886 63.7687507 96.1988087 63.9334366 96.9699375 64.1233125 97.7410664 64.3131884 98.3397479 64.5979981 98.766 64.97775 99.1922522 65.3575019 99.405375 65.9116214 99.405375 66.640125 99.405375 67.3686286 99.1321903 67.9595602 98.5858125 68.4129375 98.0394348 68.8663148 97.3206295 69.093 96.429375 69.093 95.1428686 69.093 93.9842552 68.6163798 92.9535 67.663125L94.034625 66.337875C94.9103794 67.1051288 95.7202463 67.48875 96.46425 67.48875 96.7975017 67.48875 97.0590616 67.4170632 97.2489375 67.2736875 97.4388135 67.1303118 97.53375 66.9365637 97.53375 66.6924375 97.53375 66.4483113 97.433001 66.2545632 97.2315 66.1111875 97.029999 65.9678118 96.630878 65.8225007 96.034125 65.67525 95.0886203 65.4504989 94.3969397 65.1579393 93.9590625 64.7975625 93.5211853 64.4371857 93.30225 63.8714414 93.30225 63.1003125 93.30225 62.3291836 93.5793098 61.7343771 94.1334375 61.315875 94.6875653 60.8973729 95.3792459 60.688125 96.2085 60.688125 96.7510027 60.688125 97.2934973 60.7811241 97.836 60.967125 98.3785027 61.1531259 98.851248 61.4166233 99.25425 61.757625L98.335875 63.082875C97.6306215 62.5481223 96.9021288 62.28075 96.150375 62.28075 95.8481235 62.28075 95.6098134 62.3524368 95.4354375 62.4958125zM102.753375 65.62875L102.753375 69 101.009625 69 101.009625 60.37425 102.753375 60.37425 102.753375 63.44325C103.280378 62.9084973 103.871309 62.641125 104.526188 62.641125 105.181066 62.641125 105.733248 62.8736227 106.18275 63.338625 106.632252 63.8036273 106.857 64.4236211 106.857 65.198625L106.857 69 105.11325 69 105.11325 65.58225C105.11325 64.6212452 104.760629 64.14075 104.055375 64.14075 103.706623 64.14075 103.402439 64.2666862 103.142813 64.5185625 102.883186 64.7704388 102.753375 65.1404976 102.753375 65.62875zM113.983125 69L112.344 69 112.344 68.244375C111.894498 68.8101278 111.338441 69.093 110.675813 69.093 110.013184 69.093 109.457127 68.9011894 109.007625 68.5175625 108.558123 68.1339356 108.333375 67.6224407 108.333375 66.9830625 108.333375 66.3436843 108.565873 65.8651266 109.030875 65.547375 109.495877 65.2296234 110.131371 65.07075 110.937375 65.07075L112.239375 65.07075 112.239375 65.035875C112.239375 64.3693717 111.886754 64.036125 111.1815 64.036125 110.879249 64.036125 110.559564 64.0961869 110.222438 64.2163125 109.885311 64.3364381 109.600501 64.4856241 109.368 64.663875L108.589125 63.53625C109.410629 62.939497 110.34837 62.641125 111.402375 62.641125 112.161879 62.641125 112.781873 62.8309981 113.262375 63.21075 113.742877 63.5905019 113.983125 64.1911209 113.983125 65.012625L113.983125 69zM112.22775 66.616875L112.22775 66.314625 111.135 66.314625C110.437497 66.314625 110.08875 66.5316228 110.08875 66.965625 110.08875 67.1903761 110.172062 67.3628119 110.338688 67.4829375 110.505313 67.6030631 110.743623 67.663125 111.053625 67.663125 111.363627 67.663125 111.636811 67.5681884 111.873188 67.3783125 112.109564 67.1884366 112.22775 66.9346266 112.22775 66.616875zM117.639188 67.1225625C117.929814 67.4441891 118.30181 67.605 118.755188 67.605 119.208565 67.605 119.580561 67.4441891 119.871188 67.1225625 120.161814 66.8009359 120.307125 66.3843776 120.307125 65.872875 120.307125 65.3613724 120.161814 64.9428766 119.871188 64.617375 119.580561 64.2918734 119.208565 64.129125 118.755188 64.129125 118.30181 64.129125 117.929814 64.2918734 117.639188 64.617375 117.348561 64.9428766 117.20325 65.3613724 117.20325 65.872875 117.20325 66.3843776 117.348561 66.8009359 117.639188 67.1225625zM121.120875 68.163C120.493122 68.7830031 119.704567 69.093 118.755188 69.093 117.805808 69.093 117.017253 68.7830031 116.3895 68.163 115.761747 67.5429969 115.447875 66.7796295 115.447875 65.872875 115.447875 64.9661205 115.761747 64.2008156 116.3895 63.5769375 117.017253 62.9530594 117.805808 62.641125 118.755188 62.641125 119.704567 62.641125 120.493122 62.9530594 121.120875 63.5769375 121.748628 64.2008156 122.0625 64.9661205 122.0625 65.872875 122.0625 66.7796295 121.748628 67.5429969 121.120875 68.163zM125.329125 69L123.585375 69 123.585375 60.37425 125.329125 60.37425 125.329125 69zM128.956125 69L127.212375 69 127.212375 62.74575 128.956125 62.74575 128.956125 69zM127.06125 61.222875C127.06125 60.9361236 127.160062 60.6939385 127.357688 60.4963125 127.555314 60.2986865 127.797499 60.199875 128.08425 60.199875 128.371001 60.199875 128.613187 60.2986865 128.810813 60.4963125 129.008439 60.6939385 129.10725 60.9361236 129.10725 61.222875 129.10725 61.5096264 129.008439 61.7518115 128.810813 61.9494375 128.613187 62.1470635 128.371001 62.245875 128.08425 62.245875 127.797499 62.245875 127.555314 62.1470635 127.357688 61.9494375 127.160062 61.7518115 127.06125 61.5096264 127.06125 61.222875zM132.583125 65.5125L132.583125 69 130.839375 69 130.839375 62.74575 132.583125 62.74575 132.583125 63.44325C133.110128 62.9084973 133.702997 62.641125 134.36175 62.641125 135.020503 62.641125 135.572685 62.8736227 136.018313 63.338625 136.46394 63.8036273 136.68675 64.4236211 136.68675 65.198625L136.68675 69 134.943 69 134.943 65.466C134.943 64.5049952 134.590379 64.0245 133.885125 64.0245 133.536373 64.0245 133.232189 64.1504362 132.972563 64.4023125 132.712936 64.6541888 132.583125 65.0242476 132.583125 65.5125zM144.975375 66.04725L147.044625 60.874125 149.00925 60.874125 145.742625 69 144.208125 69 140.9415 60.874125 142.906125 60.874125 144.975375 66.04725zM153.787125 66.117L153.787125 62.74575 155.5425 62.74575 155.5425 69 153.787125 69 153.787125 68.174625C153.353123 68.7868781 152.793191 69.093 152.107313 69.093 151.421434 69.093 150.846002 68.8779397 150.381 68.4478125 149.915998 68.0176853 149.6835 67.3802542 149.6835 66.5355L149.6835 62.74575 151.438875 62.74575 151.438875 66.151875C151.438875 67.1128798 151.791497 67.593375 152.49675 67.593375 152.845502 67.593375 153.147749 67.4674388 153.4035 67.2155625 153.659251 66.9636862 153.787125 66.5975024 153.787125 66.117zM164.458875 69L160.901625 69 160.901625 60.874125 164.063625 60.874125C164.613878 60.874125 165.088561 60.9399993 165.487688 61.07175 165.886815 61.2035007 166.187124 61.3817489 166.388625 61.6065 166.752877 62.0250021 166.935 62.4977474 166.935 63.02475 166.935 63.6602532 166.729627 64.1329985 166.318875 64.443 166.179374 64.5515005 166.0825 64.6193124 166.02825 64.6464375 165.974 64.6735626 165.877126 64.7181247 165.737625 64.780125 166.241378 64.8886255 166.642436 65.1153108 166.940813 65.4601875 167.239189 65.8050642 167.388375 66.2332474 167.388375 66.74475 167.388375 67.3105028 167.194627 67.8103728 166.807125 68.244375 166.357623 68.7481275 165.574881 69 164.458875 69zM162.715125 64.164L163.575375 64.164C164.079128 64.164 164.453061 64.1097505 164.697188 64.00125 164.941314 63.8927495 165.063375 63.6583143 165.063375 63.2979375 165.063375 62.9375607 164.951001 62.6992506 164.72625 62.583 164.501499 62.4667494 164.121753 62.408625 163.587 62.408625L162.715125 62.408625 162.715125 64.164zM162.715125 67.4655L163.959 67.4655C164.478253 67.4655 164.867686 67.4015631 165.127313 67.2736875 165.386939 67.1458119 165.51675 66.8939394 165.51675 66.5180625 165.51675 66.1421856 165.379189 65.8941881 165.104063 65.7740625 164.828936 65.6539369 164.389128 65.593875 163.784625 65.593875L162.715125 65.593875 162.715125 67.4655zM174.282 69L172.642875 69 172.642875 68.244375C172.193373 68.8101278 171.637316 69.093 170.974688 69.093 170.312059 69.093 169.756002 68.9011894 169.3065 68.5175625 168.856998 68.1339356 168.63225 67.6224407 168.63225 66.9830625 168.63225 66.3436843 168.864748 65.8651266 169.32975 65.547375 169.794752 65.2296234 170.430246 65.07075 171.23625 65.07075L172.53825 65.07075 172.53825 65.035875C172.53825 64.3693717 172.185629 64.036125 171.480375 64.036125 171.178124 64.036125 170.858439 64.0961869 170.521313 64.2163125 170.184186 64.3364381 169.899376 64.4856241 169.666875 64.663875L168.888 63.53625C169.709504 62.939497 170.647245 62.641125 171.70125 62.641125 172.460754 62.641125 173.080748 62.8309981 173.56125 63.21075 174.041752 63.5905019 174.282 64.1911209 174.282 65.012625L174.282 69zM172.526625 66.616875L172.526625 66.314625 171.433875 66.314625C170.736372 66.314625 170.387625 66.5316228 170.387625 66.965625 170.387625 67.1903761 170.470937 67.3628119 170.637563 67.4829375 170.804188 67.6030631 171.042498 67.663125 171.3525 67.663125 171.662502 67.663125 171.935686 67.5681884 172.172063 67.3783125 172.408439 67.1884366 172.526625 66.9346266 172.526625 66.616875z"/>
    <path stroke="#2C2727" stroke-linecap="square" stroke-width=".75" d="M0.375,51.1212121 L170.625,51.1212121"/>
  </g>
</svg>
