<svg xmlns:xlink="http://www.w3.org/1999/xlink" width="365" height="110" viewBox="0 0 365 110">
  <defs>
    <filter id="aksvb-logo-licorne-en-a" width="200%" height="200%" x="-50%" y="-50%" filterUnits="objectBoundingBox">
      <feOffset in="SourceAlpha" result="shadowOffsetOuter1"/>
      <feGaussianBlur in="shadowOffsetOuter1" result="shadowBlurOuter1" stdDeviation="3"/>
      <feColorMatrix in="shadowBlurOuter1" result="shadowMatrixOuter1" values="0 0 0 0 0   0 0 0 0 0   0 0 0 0 0  0 0 0 0.5 0"/>
      <feMerge>
        <feMergeNode in="shadowMatrixOuter1"/>
        <feMergeNode in="SourceGraphic"/>
      </feMerge>
    </filter>
    <polygon id="aksvb-logo-licorne-en-b" points="0 .114 0 7.898 16.892 7.898 16.892 .114 0 .114"/>
    <path id="aksvb-logo-licorne-en-e" d="M1.892,30 L1.892,14.622 L5.324,14.622 L5.324,26.942 L11.88,26.942 L11.88,30 L1.892,30 Z M14.828,14.622 L18.26,14.622 L18.26,30 L14.828,30 L14.828,14.622 Z M32.934,18.714 C32.0539956,17.7459952 30.9723397,17.262 29.689,17.262 C28.4056602,17.262 27.3240044,17.7459952 26.444,18.714 C25.5639956,19.6820048 25.124,20.8516598 25.124,22.223 C25.124,23.5943402 25.5639956,24.7603285 26.444,25.721 C27.3240044,26.6816715 28.4056602,27.162 29.689,27.162 C30.9723397,27.162 32.0539956,26.6816715 32.934,25.721 C33.8140044,24.7603285 34.254,23.5943402 34.254,22.223 C34.254,20.8516598 33.8140044,19.6820048 32.934,18.714 Z M29.678,30.154 C27.4046553,30.154 25.4906744,29.3950076 23.936,27.877 C22.3813256,26.3589924 21.604,24.470678 21.604,22.212 C21.604,19.953322 22.3813256,18.0650076 23.936,16.547 C25.4906744,15.0289924 27.4046553,14.27 29.678,14.27 C31.9513447,14.27 33.8653256,15.0289924 35.42,16.547 C36.9746744,18.0650076 37.752,19.953322 37.752,22.212 C37.752,24.470678 36.9746744,26.3589924 35.42,27.877 C33.8653256,29.3950076 31.9513447,30.154 29.678,30.154 Z M51.854,14.622 L55.286,14.622 L55.286,30 L51.854,30 L44.528,20.364 L44.528,30 L41.096,30 L41.096,14.622 L44.308,14.622 L51.854,24.522 L51.854,14.622 Z M77.506,16.635 C78.972674,17.9770067 79.706,19.8433214 79.706,22.234 C79.706,24.6246786 78.9910071,26.5166597 77.561,27.91 C76.1309928,29.3033403 73.949348,30 71.016,30 L65.758,30 L65.758,14.622 L71.192,14.622 C73.9346804,14.622 76.039326,15.2929933 77.506,16.635 Z M74.987,25.776 C75.8303375,24.983996 76.252,23.8326742 76.252,22.322 C76.252,20.8113258 75.8303375,19.6490041 74.987,18.835 C74.1436624,18.0209959 72.849342,17.614 71.104,17.614 L69.19,17.614 L69.19,26.964 L71.368,26.964 C72.9373412,26.964 74.1436624,26.568004 74.987,25.776 Z M93.632,30 L92.202,26.678 L85.756,26.678 L84.326,30 L80.674,30 L87.318,14.622 L90.64,14.622 L97.284,30 L93.632,30 Z M88.99,19.198 L87.054,23.664 L90.904,23.664 L88.99,19.198 Z M110.264,14.622 L113.696,14.622 L113.696,30 L110.264,30 L102.938,20.364 L102.938,30 L99.506,30 L99.506,14.622 L102.718,14.622 L110.264,24.522 L110.264,14.622 Z M124.982,26.964 C126.668675,26.964 128.047328,26.2966733 129.118,24.962 L131.318,27.228 C129.572658,29.1933432 127.515678,30.176 125.147,30.176 C122.778321,30.176 120.827674,29.4280075 119.295,27.932 C117.762326,26.4359925 116.996,24.5476781 116.996,22.267 C116.996,19.9863219 117.776992,18.083341 119.339,16.558 C120.901008,15.032659 122.811322,14.27 125.07,14.27 C127.592679,14.27 129.704658,15.2306571 131.406,17.152 L129.272,19.572 C128.186661,18.2226599 126.837341,17.548 125.224,17.548 C123.933327,17.548 122.829671,17.9696625 121.913,18.813 C120.996329,19.6563376 120.538,20.7929929 120.538,22.223 C120.538,23.6530072 120.970662,24.8006623 121.836,25.666 C122.701338,26.5313377 123.749994,26.964 124.982,26.964 Z M145.552,14.622 L145.552,17.68 L137.896,17.68 L137.896,20.848 L144.782,20.848 L144.782,23.774 L137.896,23.774 L137.896,26.964 L145.794,26.964 L145.794,30 L134.464,30 L134.464,14.622 L145.552,14.622 Z M13.64,43.785 C15.106674,45.1270067 15.84,46.9933214 15.84,49.384 C15.84,51.7746786 15.1250072,53.6666597 13.695,55.06 C12.2649929,56.4533403 10.083348,57.15 7.15,57.15 L1.892,57.15 L1.892,41.772 L7.326,41.772 C10.0686804,41.772 12.173326,42.4429933 13.64,43.785 Z M11.121,52.926 C11.9643376,52.133996 12.386,50.9826742 12.386,49.472 C12.386,47.9613258 11.9643376,46.7990041 11.121,45.985 C10.2776625,45.1709959 8.98334206,44.764 7.238,44.764 L5.324,44.764 L5.324,54.114 L7.502,54.114 C9.07134118,54.114 10.2776625,53.718004 11.121,52.926 Z M31.724,46.876 C31.724,49.3400123 30.7486764,50.9313297 28.798,51.65 L32.692,57.15 L28.468,57.15 L25.058,52.244 L22.682,52.244 L22.682,57.15 L19.25,57.15 L19.25,41.772 L25.08,41.772 C27.4706786,41.772 29.1756616,42.1753293 30.195,42.982 C31.2143384,43.7886707 31.724,45.0866577 31.724,46.876 Z M27.588,48.702 C28.0133355,48.3206648 28.226,47.7156708 28.226,46.887 C28.226,46.0583292 28.0060022,45.4900015 27.566,45.182 C27.1259978,44.8739985 26.3560055,44.72 25.256,44.72 L22.682,44.72 L22.682,49.274 L25.19,49.274 C26.3633392,49.274 27.1626645,49.0833352 27.588,48.702 Z M46.64,57.15 L45.21,53.828 L38.764,53.828 L37.334,57.15 L33.682,57.15 L40.326,41.772 L43.648,41.772 L50.292,57.15 L46.64,57.15 Z M41.998,46.348 L40.062,50.814 L43.912,50.814 L41.998,46.348 Z M62.502,49.318 L65.956,49.318 L65.956,54.774 C64.430659,56.4753418 62.3186802,57.326 59.62,57.326 C57.361322,57.326 55.4656743,56.5780075 53.933,55.082 C52.4003257,53.5859925 51.634,51.6976781 51.634,49.417 C51.634,47.1363219 52.4149922,45.233341 53.977,43.708 C55.5390078,42.182659 57.4236556,41.42 59.631,41.42 C61.8383444,41.42 63.7559919,42.1459927 65.384,43.598 L63.602,46.172 C62.9126632,45.5706637 62.2783362,45.1563345 61.699,44.929 C61.1196638,44.7016655 60.49267,44.588 59.818,44.588 C58.5126601,44.588 57.4126711,45.0316622 56.518,45.919 C55.6233289,46.8063378 55.176,47.9759927 55.176,49.428 C55.176,50.8800073 55.6049957,52.042329 56.463,52.915 C57.3210043,53.787671 58.3439941,54.224 59.532,54.224 C60.7200059,54.224 61.709996,53.9966689 62.502,53.542 L62.502,49.318 Z M79.904,45.864 C79.0239956,44.8959952 77.9423397,44.412 76.659,44.412 C75.3756602,44.412 74.2940044,44.8959952 73.414,45.864 C72.5339956,46.8320048 72.094,48.0016598 72.094,49.373 C72.094,50.7443402 72.5339956,51.9103285 73.414,52.871 C74.2940044,53.8316715 75.3756602,54.312 76.659,54.312 C77.9423397,54.312 79.0239956,53.8316715 79.904,52.871 C80.7840044,51.9103285 81.224,50.7443402 81.224,49.373 C81.224,48.0016598 80.7840044,46.8320048 79.904,45.864 Z M76.648,57.304 C74.3746553,57.304 72.4606744,56.5450076 70.906,55.027 C69.3513256,53.5089924 68.574,51.620678 68.574,49.362 C68.574,47.103322 69.3513256,45.2150076 70.906,43.697 C72.4606744,42.1789924 74.3746553,41.42 76.648,41.42 C78.9213447,41.42 80.8353256,42.1789924 82.39,43.697 C83.9446744,45.2150076 84.722,47.103322 84.722,49.362 C84.722,51.620678 83.9446744,53.5089924 82.39,55.027 C80.8353256,56.5450076 78.9213447,57.304 76.648,57.304 Z M98.824,41.772 L102.256,41.772 L102.256,57.15 L98.824,57.15 L91.498,47.514 L91.498,57.15 L88.066,57.15 L88.066,41.772 L91.278,41.772 L98.824,51.672 L98.824,41.772 Z M124.476,43.785 C125.942674,45.1270067 126.676,46.9933214 126.676,49.384 C126.676,51.7746786 125.961007,53.6666597 124.531,55.06 C123.100993,56.4533403 120.919348,57.15 117.986,57.15 L112.728,57.15 L112.728,41.772 L118.162,41.772 C120.90468,41.772 123.009326,42.4429933 124.476,43.785 Z M121.957,52.926 C122.800338,52.133996 123.222,50.9826742 123.222,49.472 C123.222,47.9613258 122.800338,46.7990041 121.957,45.985 C121.113662,45.1709959 119.819342,44.764 118.074,44.764 L116.16,44.764 L116.16,54.114 L118.338,54.114 C119.907341,54.114 121.113662,53.718004 121.957,52.926 Z M140.602,57.15 L139.172,53.828 L132.726,53.828 L131.296,57.15 L127.644,57.15 L134.288,41.772 L137.61,41.772 L144.254,57.15 L140.602,57.15 Z M135.96,46.348 L134.024,50.814 L137.874,50.814 L135.96,46.348 Z M157.234,41.772 L160.666,41.772 L160.666,57.15 L157.234,57.15 L149.908,47.514 L149.908,57.15 L146.476,57.15 L146.476,41.772 L149.688,41.772 L157.234,51.672 L157.234,41.772 Z M171.952,54.114 C173.638675,54.114 175.017328,53.4466733 176.088,52.112 L178.288,54.378 C176.542658,56.3433432 174.485678,57.326 172.117,57.326 C169.748321,57.326 167.797674,56.5780075 166.265,55.082 C164.732326,53.5859925 163.966,51.6976781 163.966,49.417 C163.966,47.1363219 164.746992,45.233341 166.309,43.708 C167.871008,42.182659 169.781322,41.42 172.04,41.42 C174.562679,41.42 176.674658,42.3806571 178.376,44.302 L176.242,46.722 C175.156661,45.3726599 173.807341,44.698 172.194,44.698 C170.903327,44.698 169.799671,45.1196625 168.883,45.963 C167.966329,46.8063376 167.508,47.9429929 167.508,49.373 C167.508,50.8030072 167.940662,51.9506623 168.806,52.816 C169.671338,53.6813377 170.719994,54.114 171.952,54.114 Z M192.522,41.772 L192.522,44.83 L184.866,44.83 L184.866,47.998 L191.752,47.998 L191.752,50.924 L184.866,50.924 L184.866,54.114 L192.764,54.114 L192.764,57.15 L181.434,57.15 L181.434,41.772 L192.522,41.772 Z"/>
    <filter id="aksvb-logo-licorne-en-d" width="200%" height="200%" x="-50%" y="-50%" filterUnits="objectBoundingBox">
      <feOffset in="SourceAlpha" result="shadowOffsetOuter1"/>
      <feGaussianBlur in="shadowOffsetOuter1" result="shadowBlurOuter1" stdDeviation="3"/>
      <feColorMatrix in="shadowBlurOuter1" values="0 0 0 0 0   0 0 0 0 0   0 0 0 0 0  0 0 0 0.5 0"/>
    </filter>
    <path id="aksvb-logo-licorne-en-g" d="M3.36825,86.44675 C3.16574899,86.6132508 3.0645,86.8337486 3.0645,87.10825 C3.0645,87.3827514 3.18824876,87.6009992 3.43575,87.763 C3.68325124,87.9250008 4.25474552,88.1162489 5.15025,88.33675 C6.04575448,88.5572511 6.74099752,88.8879978 7.236,89.329 C7.73100247,89.7700022 7.9785,90.4134958 7.9785,91.2595 C7.9785,92.1055042 7.66125317,92.7917474 7.02675,93.31825 C6.39224683,93.8447526 5.55750517,94.108 4.5225,94.108 C3.02849253,94.108 1.68300598,93.5545055 0.486,92.4475 L1.7415,90.9085 C2.75850508,91.7995045 3.69899568,92.245 4.563,92.245 C4.95000193,92.245 5.2537489,92.1617508 5.47425,91.99525 C5.6947511,91.8287492 5.805,91.6037514 5.805,91.32025 C5.805,91.0367486 5.68800117,90.8117508 5.454,90.64525 C5.21999883,90.4787492 4.75650346,90.3100009 4.0635,90.139 C2.96549451,89.8779987 2.16225254,89.5382521 1.65375,89.11975 C1.14524746,88.7012479 0.891,88.0442545 0.891,87.14875 C0.891,86.2532455 1.21274678,85.5625024 1.85625,85.0765 C2.49975322,84.5904976 3.30299518,84.3475 4.266,84.3475 C4.89600315,84.3475 5.52599685,84.4554989 6.156,84.6715 C6.78600315,84.8875011 7.33499766,85.193498 7.803,85.5895 L6.7365,87.1285 C5.9174959,86.5074969 5.07150436,86.197 4.1985,86.197 C3.84749824,86.197 3.57075101,86.2802492 3.36825,86.44675 Z M13.2045,92.3125 C13.8795034,92.3125 14.4869973,91.9750034 15.027,91.3 L16.2285,92.65 C15.2924953,93.6220049 14.2800055,94.108 13.191,94.108 C12.1019946,94.108 11.1817538,93.7637534 10.43025,93.07525 C9.67874625,92.3867466 9.30300001,91.4867556 9.30300001,90.37525 C9.30300001,89.2637444 9.6832462,88.3592535 10.44375,87.66175 C11.2042538,86.9642465 12.1064948,86.6155 13.1505,86.6155 C13.6725026,86.6155 14.2012473,86.7234989 14.73675,86.9395 C15.2722527,87.1555011 15.742498,87.4749979 16.1475,87.898 L15.0945,89.275 C14.8604988,88.9959986 14.5747517,88.7800008 14.23725,88.627 C13.8997483,88.4739992 13.5645017,88.3975 13.2315,88.3975 C12.7004974,88.3975 12.2437519,88.5707483 11.86125,88.91725 C11.4787481,89.2637517 11.2875,89.7452469 11.2875,90.36175 C11.2875,90.9782531 11.4787481,91.4574983 11.86125,91.7995 C12.2437519,92.1415017 12.6914974,92.3125 13.2045,92.3125 Z M19.7535,90.085 L19.7535,94 L17.7285,94 L17.7285,83.983 L19.7535,83.983 L19.7535,87.547 C20.3655031,86.9259969 21.0517462,86.6155 21.81225,86.6155 C22.5727538,86.6155 23.2139974,86.8854973 23.736,87.4255 C24.2580026,87.9655027 24.519,88.6854955 24.519,89.5855 L24.519,94 L22.494,94 L22.494,90.031 C22.494,88.9149944 22.0845041,88.357 21.2655,88.357 C20.860498,88.357 20.5072515,88.5032485 20.20575,88.79575 C19.9042485,89.0882515 19.7535,89.5179972 19.7535,90.085 Z M28.63125,91.81975 C28.9687517,92.1932519 29.4007474,92.38 29.92725,92.38 C30.4537527,92.38 30.8857483,92.1932519 31.22325,91.81975 C31.5607517,91.4462481 31.7295,90.962503 31.7295,90.3685 C31.7295,89.774497 31.5607517,89.2885019 31.22325,88.9105 C30.8857483,88.5324981 30.4537527,88.3435 29.92725,88.3435 C29.4007474,88.3435 28.9687517,88.5324981 28.63125,88.9105 C28.2937483,89.2885019 28.125,89.774497 28.125,90.3685 C28.125,90.962503 28.2937483,91.4462481 28.63125,91.81975 Z M32.6745,93.028 C31.9454964,93.7480036 31.0297555,94.108 29.92725,94.108 C28.8247445,94.108 27.9090037,93.7480036 27.18,93.028 C26.4509964,92.3079964 26.0865,91.4215053 26.0865,90.3685 C26.0865,89.3154947 26.4509964,88.4267536 27.18,87.70225 C27.9090037,86.9777464 28.8247445,86.6155 29.92725,86.6155 C31.0297555,86.6155 31.9454964,86.9777464 32.6745,87.70225 C33.4035037,88.4267536 33.768,89.3154947 33.768,90.3685 C33.768,91.4215053 33.4035037,92.3079964 32.6745,93.028 Z M37.54275,91.81975 C37.8802517,92.1932519 38.3122474,92.38 38.83875,92.38 C39.3652527,92.38 39.7972483,92.1932519 40.13475,91.81975 C40.4722517,91.4462481 40.641,90.962503 40.641,90.3685 C40.641,89.774497 40.4722517,89.2885019 40.13475,88.9105 C39.7972483,88.5324981 39.3652527,88.3435 38.83875,88.3435 C38.3122474,88.3435 37.8802517,88.5324981 37.54275,88.9105 C37.2052483,89.2885019 37.0365,89.774497 37.0365,90.3685 C37.0365,90.962503 37.2052483,91.4462481 37.54275,91.81975 Z M41.586,93.028 C40.8569964,93.7480036 39.9412555,94.108 38.83875,94.108 C37.7362445,94.108 36.8205037,93.7480036 36.0915,93.028 C35.3624964,92.3079964 34.998,91.4215053 34.998,90.3685 C34.998,89.3154947 35.3624964,88.4267536 36.0915,87.70225 C36.8205037,86.9777464 37.7362445,86.6155 38.83875,86.6155 C39.9412555,86.6155 40.8569964,86.9777464 41.586,87.70225 C42.3150037,88.4267536 42.6795,89.3154947 42.6795,90.3685 C42.6795,91.4215053 42.3150037,92.3079964 41.586,93.028 Z M46.353,94 L44.328,94 L44.328,83.983 L46.353,83.983 L46.353,94 Z M54.26025,91.81975 C54.5977517,92.1932519 55.0297474,92.38 55.55625,92.38 C56.0827527,92.38 56.5147484,92.1932519 56.85225,91.81975 C57.1897517,91.4462481 57.3585,90.962503 57.3585,90.3685 C57.3585,89.774497 57.1897517,89.2885019 56.85225,88.9105 C56.5147484,88.5324981 56.0827527,88.3435 55.55625,88.3435 C55.0297474,88.3435 54.5977517,88.5324981 54.26025,88.9105 C53.9227484,89.2885019 53.754,89.774497 53.754,90.3685 C53.754,90.962503 53.9227484,91.4462481 54.26025,91.81975 Z M58.3035,93.028 C57.5744964,93.7480036 56.6587556,94.108 55.55625,94.108 C54.4537445,94.108 53.5380037,93.7480036 52.809,93.028 C52.0799964,92.3079964 51.7155,91.4215053 51.7155,90.3685 C51.7155,89.3154947 52.0799964,88.4267536 52.809,87.70225 C53.5380037,86.9777464 54.4537445,86.6155 55.55625,86.6155 C56.6587556,86.6155 57.5744964,86.9777464 58.3035,87.70225 C59.0325037,88.4267536 59.397,89.3154947 59.397,90.3685 C59.397,91.4215053 59.0325037,92.3079964 58.3035,93.028 Z M63.3405,86.3185 L63.3405,86.8045 L65.0955,86.8045 L65.0955,88.2625 L63.3405,88.2625 L63.3405,94 L61.302,94 L61.302,88.2625 L60.4515,88.2625 L60.4515,86.8045 L61.302,86.8045 L61.302,86.359 C61.302,85.566996 61.5427476,84.9392523 62.02425,84.47575 C62.5057525,84.0122477 63.1042465,83.7805 63.81975,83.7805 C64.5352536,83.7805 65.1854971,84.0504973 65.7705,84.5905 L65.0415,85.954 C64.7444986,85.6119983 64.4160018,85.441 64.056,85.441 C63.848999,85.441 63.6780007,85.5152493 63.543,85.66375 C63.4079994,85.8122507 63.3405,86.0304986 63.3405,86.3185 Z M70.4175001,84.5635 L72.5235001,84.5635 L72.5235001,88.438 L76.0875001,84.5635 L78.6930001,84.5635 L74.9400001,88.735 C75.2640017,89.1850022 75.8624957,90.0242439 76.7355001,91.25275 C77.6085044,92.4812561 78.2609979,93.396997 78.6930001,94 L76.2360001,94 L73.4685001,90.274 L72.5235001,91.327 L72.5235001,94 L70.4175001,94 L70.4175001,84.5635 Z M84.3105001,90.652 L84.3105001,86.737 L86.3490001,86.737 L86.3490001,94 L84.3105001,94 L84.3105001,93.0415 C83.8064975,93.7525036 83.156254,94.108 82.3597501,94.108 C81.5632461,94.108 80.8950028,93.8582525 80.3550001,93.35875 C79.8149974,92.8592475 79.5450001,92.1190049 79.5450001,91.138 L79.5450001,86.737 L81.5835001,86.737 L81.5835001,90.6925 C81.5835001,91.8085056 81.992996,92.3665 82.8120001,92.3665 C83.2170021,92.3665 83.5679986,92.2202515 83.8650001,91.92775 C84.1620016,91.6352485 84.3105001,91.2100028 84.3105001,90.652 Z M90.4410001,89.95 L90.4410001,94 L88.4160001,94 L88.4160001,86.737 L90.4410001,86.737 L90.4410001,87.547 C91.0530031,86.9259969 91.7414962,86.6155 92.5065001,86.6155 C93.2715039,86.6155 93.9127475,86.8854973 94.4302501,87.4255 C94.9477527,87.9655027 95.2065001,88.6854955 95.2065001,89.5855 L95.2065001,94 L93.1815001,94 L93.1815001,89.896 C93.1815001,88.7799944 92.7720042,88.222 91.9530001,88.222 C91.547998,88.222 91.1947516,88.3682485 90.8932501,88.66075 C90.5917486,88.9532515 90.4410001,89.3829972 90.4410001,89.95 Z M101.796,88.843 C101.471998,88.5099983 101.071502,88.3435 100.5945,88.3435 C100.117498,88.3435 99.7057518,88.5099983 99.3592501,88.843 C99.0127483,89.1760017 98.8395001,89.6304971 98.8395001,90.2065 C98.8395001,90.7825029 99.0082484,91.2482482 99.3457501,91.60375 C99.6832518,91.9592518 100.094998,92.137 100.581,92.137 C101.067003,92.137 101.471998,91.9615018 101.796,91.6105 C102.120002,91.2594982 102.282,90.7937529 102.282,90.21325 C102.282,89.6327471 102.120002,89.1760017 101.796,88.843 Z M102.5655,92.7715 C101.926497,93.4825036 101.132255,93.838 100.18275,93.838 C99.2332453,93.838 98.4322533,93.5162532 97.7797501,92.87275 C97.1272468,92.2292468 96.8010001,91.3697554 96.8010001,90.29425 C96.8010001,89.2187446 97.1362467,88.3367534 97.8067501,87.64825 C98.4772534,86.9597466 99.2444958,86.6155 100.1085,86.6155 C100.972504,86.6155 101.687997,86.9709964 102.255,87.682 L102.255,86.7235 L104.28,86.7235 L104.28,93.055 C104.28,93.7030032 104.167501,94.2789975 103.9425,94.783 C103.717499,95.2870025 103.416002,95.6829986 103.038,95.971 C102.290996,96.565003 101.409005,96.862 100.392,96.862 C99.8519974,96.862 99.3007529,96.7742509 98.7382501,96.59875 C98.1757473,96.4232491 97.6830022,96.1735016 97.2600001,95.8495 L98.0430001,94.324 C98.7090034,94.8280025 99.4132464,95.08 100.15575,95.08 C100.898254,95.08 101.485498,94.8955018 101.9175,94.5265 C102.349502,94.1574982 102.5655,93.572504 102.5655,92.7715 Z M106.293,90.841 L106.293,89.0455 L111.099,89.0455 L111.099,90.841 L106.293,90.841 Z M119.7945,84.5635 L119.7945,86.413 L115.4205,86.413 L115.4205,88.4515 L119.5785,88.4515 L119.5785,90.301 L115.4205,90.301 L115.4205,94 L113.3145,94 L113.3145,84.5635 L119.7945,84.5635 Z M126.1005,90.652 L126.1005,86.737 L128.139,86.737 L128.139,94 L126.1005,94 L126.1005,93.0415 C125.596498,93.7525036 124.946254,94.108 124.14975,94.108 C123.353246,94.108 122.685003,93.8582525 122.145,93.35875 C121.604997,92.8592475 121.335,92.1190049 121.335,91.138 L121.335,86.737 L123.3735,86.737 L123.3735,90.6925 C123.3735,91.8085056 123.782996,92.3665 124.602,92.3665 C125.007002,92.3665 125.357999,92.2202515 125.655,91.92775 C125.952002,91.6352485 126.1005,91.2100028 126.1005,90.652 Z M136.32975,86.44675 C136.127249,86.6132508 136.026,86.8337486 136.026,87.10825 C136.026,87.3827514 136.149749,87.6009992 136.39725,87.763 C136.644751,87.9250008 137.216246,88.1162489 138.11175,88.33675 C139.007255,88.5572511 139.702498,88.8879978 140.1975,89.329 C140.692503,89.7700022 140.94,90.4134958 140.94,91.2595 C140.94,92.1055042 140.622753,92.7917474 139.98825,93.31825 C139.353747,93.8447526 138.519005,94.108 137.484,94.108 C135.989993,94.108 134.644506,93.5545055 133.4475,92.4475 L134.703,90.9085 C135.720005,91.7995045 136.660496,92.245 137.5245,92.245 C137.911502,92.245 138.215249,92.1617508 138.43575,91.99525 C138.656251,91.8287492 138.7665,91.6037514 138.7665,91.32025 C138.7665,91.0367486 138.649501,90.8117508 138.4155,90.64525 C138.181499,90.4787492 137.718004,90.3100009 137.025,90.139 C135.926995,89.8779987 135.123753,89.5382521 134.61525,89.11975 C134.106748,88.7012479 133.8525,88.0442545 133.8525,87.14875 C133.8525,86.2532455 134.174247,85.5625024 134.81775,85.0765 C135.461253,84.5904976 136.264495,84.3475 137.2275,84.3475 C137.857503,84.3475 138.487497,84.4554989 139.1175,84.6715 C139.747503,84.8875011 140.296498,85.193498 140.7645,85.5895 L139.698,87.1285 C138.878996,86.5074969 138.033004,86.197 137.16,86.197 C136.808998,86.197 136.532251,86.2802492 136.32975,86.44675 Z M144.708,90.085 L144.708,94 L142.683,94 L142.683,83.983 L144.708,83.983 L144.708,87.547 C145.320003,86.9259969 146.006246,86.6155 146.76675,86.6155 C147.527254,86.6155 148.168498,86.8854973 148.6905,87.4255 C149.212503,87.9655027 149.4735,88.6854955 149.4735,89.5855 L149.4735,94 L147.4485,94 L147.4485,90.031 C147.4485,88.9149944 147.039004,88.357 146.22,88.357 C145.814998,88.357 145.461752,88.5032485 145.16025,88.79575 C144.858749,89.0882515 144.708,89.5179972 144.708,90.085 Z M157.629,94 L155.7255,94 L155.7255,93.1225 C155.203498,93.7795033 154.557754,94.108 153.78825,94.108 C153.018746,94.108 152.373003,93.8852522 151.851,93.43975 C151.328998,92.9942478 151.068,92.4002537 151.068,91.65775 C151.068,90.9152463 151.337997,90.3595018 151.878,89.9905 C152.418003,89.6214982 153.155995,89.437 154.092,89.437 L155.604,89.437 L155.604,89.3965 C155.604,88.6224961 155.194504,88.2355 154.3755,88.2355 C154.024498,88.2355 153.653252,88.3052493 153.26175,88.44475 C152.870248,88.5842507 152.539501,88.757499 152.2695,88.9645 L151.365,87.655 C152.319005,86.9619965 153.407994,86.6155 154.632,86.6155 C155.514005,86.6155 156.233997,86.8359978 156.792,87.277 C157.350003,87.7180022 157.629,88.4154952 157.629,89.3695 L157.629,94 Z M155.5905,91.2325 L155.5905,90.8815 L154.3215,90.8815 C153.511496,90.8815 153.1065,91.1334975 153.1065,91.6375 C153.1065,91.8985013 153.203249,92.0987493 153.39675,92.23825 C153.590251,92.3777507 153.866998,92.4475 154.227,92.4475 C154.587002,92.4475 154.904249,92.3372511 155.17875,92.11675 C155.453251,91.8962489 155.5905,91.6015018 155.5905,91.2325 Z M161.75475,91.81975 C162.092252,92.1932519 162.524247,92.38 163.05075,92.38 C163.577253,92.38 164.009248,92.1932519 164.34675,91.81975 C164.684252,91.4462481 164.853,90.962503 164.853,90.3685 C164.853,89.774497 164.684252,89.2885019 164.34675,88.9105 C164.009248,88.5324981 163.577253,88.3435 163.05075,88.3435 C162.524247,88.3435 162.092252,88.5324981 161.75475,88.9105 C161.417248,89.2885019 161.2485,89.774497 161.2485,90.3685 C161.2485,90.962503 161.417248,91.4462481 161.75475,91.81975 Z M165.798,93.028 C165.068996,93.7480036 164.153256,94.108 163.05075,94.108 C161.948245,94.108 161.032504,93.7480036 160.3035,93.028 C159.574496,92.3079964 159.21,91.4215053 159.21,90.3685 C159.21,89.3154947 159.574496,88.4267536 160.3035,87.70225 C161.032504,86.9777464 161.948245,86.6155 163.05075,86.6155 C164.153256,86.6155 165.068996,86.9777464 165.798,87.70225 C166.527004,88.4267536 166.8915,89.3154947 166.8915,90.3685 C166.8915,91.4215053 166.527004,92.3079964 165.798,93.028 Z M170.565,94 L168.54,94 L168.54,83.983 L170.565,83.983 L170.565,94 Z M174.657,94 L172.632,94 L172.632,86.737 L174.657,86.737 L174.657,94 Z M172.4565,84.9685 C172.4565,84.6354983 172.571249,84.3542511 172.80075,84.12475 C173.030251,83.8952489 173.311498,83.7805 173.6445,83.7805 C173.977502,83.7805 174.258749,83.8952489 174.48825,84.12475 C174.717751,84.3542511 174.8325,84.6354983 174.8325,84.9685 C174.8325,85.3015017 174.717751,85.5827489 174.48825,85.81225 C174.258749,86.0417511 173.977502,86.1565 173.6445,86.1565 C173.311498,86.1565 173.030251,86.0417511 172.80075,85.81225 C172.571249,85.5827489 172.4565,85.3015017 172.4565,84.9685 Z M178.749,89.95 L178.749,94 L176.724,94 L176.724,86.737 L178.749,86.737 L178.749,87.547 C179.361003,86.9259969 180.049496,86.6155 180.8145,86.6155 C181.579504,86.6155 182.220748,86.8854973 182.73825,87.4255 C183.255753,87.9655027 183.5145,88.6854955 183.5145,89.5855 L183.5145,94 L181.4895,94 L181.4895,89.896 C181.4895,88.7799944 181.080004,88.222 180.261,88.222 C179.855998,88.222 179.502752,88.3682485 179.20125,88.66075 C178.899749,88.9532515 178.749,89.3829972 178.749,89.95 Z M192.9,90.571 L195.303,84.5635 L197.5845,84.5635 L193.791,94 L192.009,94 L188.2155,84.5635 L190.497,84.5635 L192.9,90.571 Z M203.013,90.652 L203.013,86.737 L205.0515,86.737 L205.0515,94 L203.013,94 L203.013,93.0415 C202.508998,93.7525036 201.858754,94.108 201.06225,94.108 C200.265746,94.108 199.597503,93.8582525 199.0575,93.35875 C198.517497,92.8592475 198.2475,92.1190049 198.2475,91.138 L198.2475,86.737 L200.286,86.737 L200.286,90.6925 C200.286,91.8085056 200.695496,92.3665 201.5145,92.3665 C201.919502,92.3665 202.270499,92.2202515 202.5675,91.92775 C202.864502,91.6352485 203.013,91.2100028 203.013,90.652 Z M215.166,94 L211.035,94 L211.035,84.5635 L214.707,84.5635 C215.346003,84.5635 215.897248,84.6399992 216.36075,84.793 C216.824252,84.9460008 217.172999,85.1529987 217.407,85.414 C217.830002,85.9000024 218.0415,86.4489969 218.0415,87.061 C218.0415,87.7990037 217.803003,88.3479982 217.326,88.708 C217.163999,88.8340006 217.0515,88.9127498 216.9885,88.94425 C216.9255,88.9757502 216.813001,89.0274996 216.651,89.0995 C217.236003,89.2255006 217.701748,89.488748 218.04825,89.88925 C218.394752,90.289752 218.568,90.786997 218.568,91.381 C218.568,92.0380033 218.343002,92.6184975 217.893,93.1225 C217.370998,93.7075029 216.462007,94 215.166,94 Z M213.141,88.384 L214.14,88.384 C214.725003,88.384 215.159249,88.3210006 215.44275,88.195 C215.726252,88.0689994 215.868,87.7967521 215.868,87.37825 C215.868,86.9597479 215.737501,86.6830007 215.4765,86.548 C215.215499,86.4129993 214.774503,86.3455 214.1535,86.3455 L213.141,86.3455 L213.141,88.384 Z M213.141,92.218 L214.5855,92.218 C215.188503,92.218 215.640749,92.1437507 215.94225,91.99525 C216.243752,91.8467493 216.3945,91.5542522 216.3945,91.11775 C216.3945,90.6812478 216.234752,90.3932507 215.91525,90.25375 C215.595749,90.1142493 215.085004,90.0445 214.383,90.0445 L213.141,90.0445 L213.141,92.218 Z M226.4535,94 L224.55,94 L224.55,93.1225 C224.027998,93.7795033 223.382254,94.108 222.61275,94.108 C221.843246,94.108 221.197503,93.8852522 220.6755,93.43975 C220.153498,92.9942478 219.8925,92.4002537 219.8925,91.65775 C219.8925,90.9152463 220.162497,90.3595018 220.7025,89.9905 C221.242503,89.6214982 221.980495,89.437 222.9165,89.437 L224.4285,89.437 L224.4285,89.3965 C224.4285,88.6224961 224.019004,88.2355 223.2,88.2355 C222.848998,88.2355 222.477752,88.3052493 222.08625,88.44475 C221.694748,88.5842507 221.364002,88.757499 221.094,88.9645 L220.1895,87.655 C221.143505,86.9619965 222.232494,86.6155 223.4565,86.6155 C224.338505,86.6155 225.058497,86.8359978 225.6165,87.277 C226.174503,87.7180022 226.4535,88.4154952 226.4535,89.3695 L226.4535,94 Z M224.415,91.2325 L224.415,90.8815 L223.146,90.8815 C222.335996,90.8815 221.931,91.1334975 221.931,91.6375 C221.931,91.8985013 222.027749,92.0987493 222.22125,92.23825 C222.414751,92.3777507 222.691498,92.4475 223.0515,92.4475 C223.411502,92.4475 223.728749,92.3372511 224.00325,92.11675 C224.277752,91.8962489 224.415,91.6015018 224.415,91.2325 Z"/>
    <filter id="aksvb-logo-licorne-en-f" width="200%" height="200%" x="-50%" y="-50%" filterUnits="objectBoundingBox">
      <feOffset in="SourceAlpha" result="shadowOffsetOuter1"/>
      <feGaussianBlur in="shadowOffsetOuter1" result="shadowBlurOuter1" stdDeviation="3"/>
      <feColorMatrix in="shadowBlurOuter1" values="0 0 0 0 0   0 0 0 0 0   0 0 0 0 0  0 0 0 0.5 0"/>
    </filter>
    <path id="aksvb-logo-licorne-en-i" d="M0.5,70.5 L227.5,70.5"/>
    <filter id="aksvb-logo-licorne-en-h" width="200%" height="200%" x="-50%" y="-50%" filterUnits="objectBoundingBox">
      <feMorphology in="SourceAlpha" operator="dilate" radius=".5" result="shadowSpreadOuter1"/>
      <feOffset in="shadowSpreadOuter1" result="shadowOffsetOuter1"/>
      <feMorphology in="SourceAlpha" radius="1" result="shadowInner"/>
      <feOffset in="shadowInner" result="shadowInner"/>
      <feComposite in="shadowOffsetOuter1" in2="shadowInner" operator="out" result="shadowOffsetOuter1"/>
      <feGaussianBlur in="shadowOffsetOuter1" result="shadowBlurOuter1" stdDeviation="3"/>
      <feColorMatrix in="shadowBlurOuter1" values="0 0 0 0 0   0 0 0 0 0   0 0 0 0 0  0 0 0 0.5 0"/>
    </filter>
  </defs>
  <g fill="none" fill-rule="evenodd" transform="translate(6 5)">
    <g filter="url(#aksvb-logo-licorne-en-a)" transform="translate(246)">
      <path fill="#FFF" d="M32.0567452,53.8165599 C32.8163917,60.0917502 35.5509321,64.0139854 38.5895179,65.8966582 C41.6279169,67.7793311 45.4261491,68.7204746 48.6164774,67.3868181 C51.8068057,66.0533547 54.9218233,62.8374113 55.3777981,57.9740327 C55.8333991,53.1106541 56.0613864,56.8758069 55.9857021,58.2878115 C55.909644,59.6996232 56.1372577,63.3080795 52.9461819,65.9751994 C49.7558537,68.6419334 45.8058789,70.2893686 39.5009068,67.7005969 C33.1963084,65.1120182 30.5228761,58.6780088 31.0692983,53.9736423 C31.2970988,52.0124283 31.9048159,53.5811293 32.0567452,53.8165599"/>
      <path fill="#FFF" d="M42.6787988,57 C42.2382539,57.804968 42.5026242,58.2438124 40.1243753,57.6584466 C37.7461265,57.0730807 38.0102801,57.5122851 38.0102801,58.097651 C38.0102801,58.6828368 37.4819729,62.9265593 44,63 C39.8602218,61.8292683 38.9793487,61.3168032 38.6269995,57.8780488 C39.331698,58.0243902 42.9429524,59.3414634 42.6787988,57"/>
      <path fill="#FFF" d="M48.1489469,56 C46.8553662,56.5674105 46.1064863,56.6485831 45.4256103,56.3242915 C45.4256103,58.5943322 45.5617855,60.1344178 45.0170847,60.4585099 C44.4723839,60.7828015 43.7915079,60.7828015 43.5873288,59.3238885 C43.3829823,57.8645766 43.1788032,57.540285 43.1106319,58.7562786 C43.042628,59.9722721 42.7021063,60.3777362 41,59.1615432 C41.6128722,60.3777362 41.9872283,60.6615412 42.9404548,60.296763 C43.2809765,60.9046601 44.3022068,61.1886645 44.9830828,60.8643729 C45.6639588,60.5400814 46.3533772,60.1041028 46.3533772,59.8607844 C46.3533772,59.6178649 48.6936477,59.2832024 49,57.9052626 C48.4554667,58.1481821 47.7404213,58.715792 47.0597127,59.2429153 C46.6511871,59.4860342 46.4042963,59.4557191 46.4128387,59.1210567 C46.4272434,58.5522501 46.3446673,57.783404 45.8341359,57.1348209 C46.3788367,57.0538477 47.6042461,57.1348209 48.1489469,56"/>
      <path fill="#FFF" d="M49.2083047 54C49.366138 56.6914977 49.8396379 60.8036971 44 62 46.8409994 61.8506461 51.9702904 60.7288362 49.2083047 54M55.9997385 71.5662197C56.01641 69.9903269 55.2374982 68.1387519 53.2553245 66 54.2550379 67.431739 55.5296386 69.4316133 55.4625645 71.5658428 55.3885117 73.9218618 53.7137931 76.4195848 49 78 52.3236545 77.0271034 55.9638752 74.9203857 55.9997385 71.5662197"/>
      <path fill="#FFF" d="M52.680441,69 C54.1892646,72.154891 55.1193411,74.4104024 51.3732513,76.5512009 C49.1111288,77.8447272 47.8547651,79.086146 47,81 C47.7540408,78.4654366 49.1613982,77.4826467 51.2224432,76.0343248 C53.2836736,74.5860029 54.440797,73.2926674 52.680441,69"/>
      <path fill="#FFF" d="M48.3894794 77C45.8389406 80.2665646 43.7036771 82.8592281 51 84 45.7793967 82.5484911 45.7198527 81.1480702 48.3894794 77M50.9120469 70C51.4131315 74.6967287 49.8601574 77.1739441 44 78 49.7601623 76.7612018 51.2124019 73.7676301 50.9120469 70M35.4722048 64.5264926C36.0345561 67.4886931 36.0743736 68.6535796 40.0746167 70.8331357 41.3019769 71.5018832 41.1485569 72.0754228 40.5348768 73.174369 39.9211967 74.2731389 38.3866191 76.0886129 36.9550763 78 39.869868 73.3177098 41.5065369 71.8366977 39.6656854 71.1679502 37.8246451 70.4988501 34.5007333 68.8270696 35.0632734 64.2877676 35.1653647 63.8097886 35.420876 63.9531294 35.4722048 64.5264926"/>
      <path fill="#FFF" d="M38.5875175,84 C37.2874405,81.1502188 36.9163326,79.4501292 39.1911247,77.7002214 C41.4659167,75.9501292 43.7408801,74.9498919 44.6696778,73.300174 C45.5983042,71.650087 44.2982272,70.1001898 44.066242,70 C44.9020057,71.1002425 45.1804223,72.749776 43.5090661,74.1000316 C44.066242,72.3503084 44.2053646,70.9498656 42.7195623,70.0501871 C44.066242,71.2498814 43.9266053,73.9502082 41.8837986,75.0500817 C42.5341797,73.5998208 43.3697722,71.5498972 40.8160495,70 C43.0447529,71.650087 42.4879197,74.3502293 40.5840643,75.8003058 C38.6802088,77.2500132 34.8267519,79.7003268 38.5875175,84"/>
      <path fill="#FFF" d="M49.5956353 70C52.0445892 72.3846179 51.6570016 75.1615536 45.4800162 77.2564744 39.6448616 79.2356661 40.5303916 85.1726793 41.8850257 87 39.1759498 84.3107038 38.6547444 79.4894086 45.3237123 76.8506736 52.1718625 74.1413401 50.7416719 71.8269462 49.5956353 70M62 42.1081045C61.1263926 42.7297387 59.3791777 43.7566651 58 44 58.5055703 43.32438 60.1147995 42.216342 60.6669683 42 60.0229599 42.3784323 59.7010688 43.0540523 59.4712436 43.2432684 60.2527852 43.0810451 61.264152 42.4595439 62 42.1081045M30 40C32.1543003 41.6429931 34.4571794 42.9999121 35.2371721 44.2856641 36.016982 45.571416 37.8743076 45.9286572 38.9885568 45.8214673 40.1029887 45.7142773 42.1829083 45.7856201 43 46 40.5485422 44.9642993 38.6172013 44.3571826 37.4656704 44.1071314 36.3143223 43.8570801 35.0514944 43.0355835 30 40M23.5543684 37C21.5302634 37.5002191 20.8034701 37.9000623 20.2848519 38.850128 19.7660421 39.8003783 19.7143335 40.6502526 22.2572482 39.1501488 21.6861553 40.8002629 21.2713373 41.900339 22.5684575 45.6004105 22.9315668 43.800286 23.0357501 43.8501049 23.2433506 43.4000738 23.7102603 47.5501764 24.1254613 47.2505247 26.253175 48.4504232 25.837974 47.2505247 25.8896826 46.5504763 25.9417742 46.3504624 27.7580872 50.4507461 29.1595821 51.4502618 33 53 31.7543969 51.800286 29.1595821 50.3005512 28.1734797 49.2004751 27.1873773 48.100399 26.045766 45.8502433 26.045766 44.3503241 25.5786648 45.4002122 25.3189727 46.7503056 25.4746731 47.5003575 23.8140605 45.8004244 23.5026598 44.3505086 23.8659607 41.2502941 22.568649 42.4501926 22.4129486 42.9000392 22.4648487 43.5502687 22.0494562 41.3501165 22.2568652 40.050211 23.4505681 38.4000969 22.6720662 38.5501072 21.5302634 38.850497 21.1152539 39.0503264 21.6344467 38.2500865 22.2047736 37.6496759 23.5543684 37M35 54.5228318C38.2007631 56.455715 41.4013326 57.1005138 42.5032346 56.1630373 43.6051367 55.225777 46.6479043 53.4100514 52 53 47.4351708 54.3470955 45.5984738 55.7525536 44.6019021 56.3973524 43.6051367 57.0417188 39.1975285 57.9204004 35 54.5228318"/>
      <path fill="#FFF" d="M52 52.484882C55.6442824 52.9939081 59.2648168 52.0626986 60.8967987 48.257221 61.4648318 46.9329637 62.2685995 46.8818355 62.3635918 47.1874768 63.1682326 45.506638 63.3571696 44.0805003 63.3100226 43.3165852 63.2630503 42.5524822 63.6882457 42.8577475 63.925028 43.2143289 63.8778811 40.6165665 63.1209111 38.6298985 61.6064472 37 65.5814565 41.6861228 65.2980512 44.2840731 64.5403827 45.4049456 63.783238 46.5256301 63.8305596 44.7940391 63.8305596 44.2333209 63.8305596 43.6727907 63.5464557 43.265833 63.4991342 44.0805003 63.4519873 44.8953556 63.7360911 47.8498874 61.7485864 49.6837347 59.7610818 51.5168301 56.0701763 54.1149685 52 52.484882M18 39C18.6443113 40.8419826 21.1409183 43.6841983 22 44L21.8658676 43.2631293C20.0940116 42.105578 18.536926 39.7895044 18 39M50.5655053 46.87005C49.1257504 47.060923 46.5620397 47.0247699 44 46.87005 48.9556903 46.7647006 52.7289436 46.2641935 56 45 53.9371867 46.1852786 52.0661551 46.6710134 50.5655053 46.87005"/>
      <path fill="#FFF" d="M55 42C55.984556 42.7098943 56.784238 43.1612557 59 42.0647523 57.2770838 43.2905222 56.6007268 43.3545603 55 42M22 34C22.8587436 34.6671007 22.8212711 34.9830321 24.4267083 34.8075338 24.0532697 34.3511693 24.3892359 34.5266675 24.949302 34.5967977 25.5093681 34.6671007 25.9572006 34.7724687 26.5920279 34.7021658 25.5466569 35.1234652 25.6214181 35.5447647 27.5251653 35.720263 26.6666054 35.825631 26.8719691 36.1064973 26.9092579 36.2819956 26.9467303 36.4574938 27.2266716 36.5277968 27.6746877 36.7032951 28.1225202 36.8787933 28.4211976 36.9314773 30.1759735 37.0192265 28.7198751 37.1596596 28.8693975 37.1772785 29.2426525 37.3878419 29.6159074 37.598578 29.9520573 38.1777568 31.893277 37.9321283 33.8346804 37.6863271 35.0106539 37.2474088 36 36.9140312 35.2907788 37.6687082 33.8510287 37.8780624 33.2933505 38.1777568 32.9013593 38.3884929 33.4052168 38.476242 34.413299 38.31819 35.5968038 38.1328458 33.4612417 39.5820884 32.9386481 39.7575866 32.4158707 39.9332576 30.8106172 40.3193193 31.3706833 39.4767203 31.9305658 38.6342941 32.3041881 37.8618254 31.2213446 38.4586231 30.1386848 39.0554209 28.7325496 39.2074272 29.4292799 38.5289261 29.9520573 38.0198775 29.7279574 38.0725615 29.3919912 37.8618254 29.056025 37.651262 28.7946363 37.3703957 28.6080088 37.475591 28.4211976 37.5809591 27.786554 37.9671935 26.8534166 37.8267603 27.4880602 37.6863271 28.1599927 37.5108289 28.4959589 37.1947247 27.8240265 37.1245945 26.9279941 36.7383602 26.7413666 36.6331648 26.5545555 36.5277968 26.0692506 36.8437282 25.5466569 36.8787933 25.0240632 36.9140312 23.6800147 37.3000928 22.11205 35.7555008 23.6427259 36.8086631 24.1994857 36.8245547 25.6026819 36.5103506 26.7786554 36.2469305 26.2373255 35.9135529 26.050698 35.9135529 25.8640705 35.9135529 25.0799045 35.7378819 24.893277 35.4922534 24.7066495 35.2464522 24.6506245 35.1410842 24.3892359 35.1410842 24.1280309 35.1410842 23.0080823 35.4043316 22 34M35.4038691 38.8776198C36.0496816 37.8429632 37.0644672 36.3514748 37.1535372 37.3057456 37.2426073 38.2602236 37.6573191 37.6142365 37.8947662 37.3337149 38.1322134 37.0531933 39.2883731 36.7724644 38.9325306 37.5585051 38.576907 38.3443386 37.2421696 39.9723586 35.9671769 40.6461078 34.6921842 41.319857 33.535368 40.9270438 34.1879647 40.3374097 34.8405613 39.7481899 35.0187014 39.495016 35.4038691 38.8776198M18.9341227 28C19.7523913 30.0352619 20.5706598 35.0877662 17 36 21.9097945 35.9299079 21.9842824 28.9824985 18.9341227 28M15.143417 29C14.7541122 34.5299943 14.5108565 34.6857769 14.608063 29.7789129 13.6836437 33.4395162 13.8782961 35.0753291 14.7541122 34.997342 15.630048 34.9195465 16.8465657 33.6732859 15.143417 29M47.2645772 35.1763828C45.6886029 36.2073266 45.5426892 39.109965 47.1213068 39.3789663 48.0524762 39.5373629 48.5897842 37.1188877 48.4822873 36.2467307 49.9507647 36.1279332 51.0252045 39.0615877 48.4107402 39.8149472 45.7960998 40.5681117 44.112805 38.8635919 44.0053081 37.5550638 43.8978113 36.2467307 45.4380119 34.4230232 47.2645772 35.1763828M41.4523481 39.0010019C42.6415699 39.5056019 42.8333251 40.3129619 41.107151 40.6409209 39.380977 40.9688798 38.1151286 39.7578399 38 39.3289609 38.4222011 40.7418409 39.5729209 41.1203219 41.644292 40.9688798 43.7156631 40.8175619 45.7870342 38.950604 41.4523481 39.0010019M61.8069339 33.7230128C62.0303484 35.6495528 61.8439558 36.9210845 60.5403074 37.1138901 59.2366591 37.3065062 58.7896468 35.8036836 58.8638739 34.4936667 58.9386509 33.1836498 59.1992706 32.5671266 58.4170449 33.3377806 57.6348192 34.1084345 56.5175634 35.8808438 57.2250121 36.8056286 57.9328274 37.7302237 59.1248602 38 60.1678888 38 61.2107342 38 62.9613949 37.6917384 62.9989667 35.9962997 63.0359886 34.3010506 62.0675536 33.9543037 61.8069339 33.7230128"/>
      <path fill="#FFF" d="M55 35C57.6910025 37.0474402 58.862306 38.2787174 58.1325205 39.9832702 57.9998915 40.292325 57.9998915 40.8718502 58.5295395 40.6013797 59.0587533 40.3309093 59.3678593 39.4037451 59.5441192 39.0175217 59.7205962 38.6311082 61 38.82441 61 39.9061016 61 40.9876031 60.3824391 41.1035462 60.1616801 40.7559071 59.9413552 40.408268 59.8530082 40.5242111 59.2795123 40.7944914 58.7055823 41.0649619 57.8234145 41.1421305 57.7355016 40.5627954 57.6469375 39.9832702 57.6030896 37.0860245 55 35M48.8336193 40C49.0438427 40.6947857 49.3319041 41.5695979 50.0377565 41.5437714 50.8678225 41.5135137 50.8631237 41.0357219 50.8267585 40 51.7818554 40.7204857 52.902843 41.801151 50.8267585 41.9554775 48.7506739 42.1099306 48.0446172 41.8525509 48.0031446 41.3380449 47.9616719 40.8234122 48.3353344 40.3603062 48.8336193 40"/>
      <path fill="#FFF" d="M52.2403786 36.1626136C53.5846568 38.8570281 54.6106677 41.8605227 51.8949122 44.2072219 50.7816375 45.1696886 48.6147752 45.7247831 46.6356622 43.6299691 45.9447293 42.898555 45.9847724 42.4114506 46.3668821 41.1664179 46.5204437 40.6660564 46.597319 39.3958352 45.9447293 40.4351932 45.2919506 41.4743618 43.948428 43.5913341 41.7604108 44.0916956 39.5720158 44.5920571 38.2668363 44.2072219 37 42.1673303 38.2284931 44.6306921 39.4953294 45.6700501 44.9464842 44.2072219 47.3265951 45.8238327 50.7047623 47.5559698 54.2376243 43.5144428 57.7691642 39.4727265 55.0050548 36.7014208 54.3908082 36.3934769 53.7767505 36.085533 52.3941292 35.8160347 52.2403786 36.1626136M52.4769424 17C51.8001936 18.550113 52.0420042 20.1500392 52.0420042 21 53.7332522 20.2996633 53.8297268 19.4497025 53.9748845 18.1999447 54.1202206 16.9501868 53.6365993 17.1998063 52.4769424 17M49.1643032 23.2975788C48.7030029 25.5608476 49.2222052 26.9311605 50.6067446 26.9902806 51.9910711 27.0496206 53.202543 26.8709414 52.9715736 25.5012879 52.7410299 24.1314147 52.2220405 23.3571385 51.2988014 23 51.6449362 24.4889927 51.4720817 25.9775458 50.779812 26.2160044 50.0875423 26.454463 49.106614 26.1562249 49.1643032 23.2975788"/>
      <path fill="#FFF" d="M47.6051957 21.749103C47.74924 23.6354468 47.508989 24.0123178 47.1730629 24.7131586 46.8373139 25.4138005 47.029373 25.8447659 47.413491 26.0064526 47.7974319 26.1681392 48.6135056 27.5159253 48.6615204 28.8631148 48.7097123 30.2101054 49.1418452 31.503996 50.1019631 30.8031552 51.0620811 30.1025132 52.310642 30.1027121 52.8386272 30.3182942 53.3667895 30.5334786 55 31.288215 55 30.1025132 55 28.9168114 54.9519852 28.5932394 54.7119115 28.4317516 54.4720148 28.270065 54.0391733 28.1620751 53.9429666 28.7551248 53.8471143 29.3481746 53.8472915 30.2101054 53.3189519 30.0484188 52.7906124 29.8867322 51.4463764 29.9945233 50.726155 30.0484188 50.0061108 30.1025132 49.7176679 30.2105032 49.3335498 29.0248014 48.9497861 27.8389007 47.9893138 26.1142436 47.4611514 25.6830793 47.3652991 25.1443229 47.74924 24.6057653 48.2295647 24.1744021 48.7097123 23.7428401 49.6701847 22.8272126 49.7180223 21.749103 49.7658598 20.6709935 47.6530333 20.8328789 47.6051957 21.749103M44.4354173 29L44.6286493 32.3029082C45.0981408 31.737954 45.4295705 30.91212 45.6229385 30.4776056 45.8163064 30.0428773 46.1477361 30.2167259 45.926783 31.3034396 45.7058299 32.3899394 45.3744002 33.9543624 44.4905876 33.997771 43.6069109 34.0413935 44.1592938 33.4328168 44.2972196 33.2155596 44.4354173 32.9983024 44.4630024 31.129591 44.4354173 29M37 16C39.9995286 17.3172589 42.4424319 18.423586 44.7135939 21.8716449 44.9861563 22.2855453 45.1808986 21.6081191 45.453461 21.1188462 45.7262151 20.6295733 47.5962005 20.0273343 48.2973492 19.8391809 48.9986896 19.6508424 49.4270841 19.2745356 48.336451 18.3337687 47.2456262 17.3926314 46.0378794 16.6774263 44.8303242 16.1505597 46.3106335 17.053733 47.4792785 18.3711771 47.6351106 18.9358225 47.7909428 19.5002826 46.2326216 20.064928 45.1417968 20.4412347 44.7912224 20.5919797 41.3632992 17.2042928 37 16"/>
      <path fill="#FFF" d="M45.9998563,27.6921748 C46.0229049,24.4745663 43.2736983,18.9544369 37.437302,17 C41.4305661,19.1462037 46.0382077,23.2083778 42.1216462,30.413113 C38.5124624,25.2012812 35.5189785,22.1054833 29.143585,21.8286754 C25.610915,21.6753752 23.5374858,23.8983233 23,25.5844376 C24.0366202,23.5149783 26.7627782,21.9819757 29.7196111,22.4035986 C30.3723398,22.5186209 35.2869811,29.7233561 36.8998162,31.7928154 C38.5124624,33.8624632 38.3588681,34.0921308 38.7812998,34.4754757 C39.2035425,34.8586321 38.8963538,34.8970986 39.3954882,34.9736544 C39.8948116,35.0502103 42.0065922,34.9355651 42.6209696,34.9355651 C43.235347,34.9355651 44.1952644,34.4370092 43.8497243,33.4789297 C43.5039954,32.5210388 44.4641017,32.5593167 45.1168305,31.1413364 C45.3363589,30.664088 45.9881431,29.3243606 45.9998563,27.6921748"/>
      <path fill="#FFF" d="M36,32.0000863 C36,32.5523522 35.5521723,33 35,33 C34.4478277,33 34,32.5523522 34,32.0000863 C34,31.4476478 34.4478277,31 35,31 C35.5521723,31 36,31.4476478 36,32.0000863"/>
      <path fill="#FFF" d="M36.2466826,32.9505333 C34.9108266,33.4434046 33.4606136,33.830772 33.2317117,32.8448562 C33.002622,31.8589403 32.8880771,30.8730244 33.6897033,30.1336308 C32.2393025,31.2603918 32.2393025,32.5279979 32.3538474,33.3377275 C31.0562983,31.5420821 31.590528,29.7462634 33.002622,28.0914631 C34.414716,26.4366628 33.3462565,27.0352113 32.7735322,27.4929146 C32.2011835,27.9507912 29.7204423,28.7605208 30.0259579,32.1757985 C30.3310979,35.5912495 36.1702568,35.4855723 37.5442317,34.0771211 C38.7717395,32.8186967 37.238904,32.5631659 36.2466826,32.9505333"/>
      <path fill="#FFF" d="M39,34.2112312 C35.6168821,36.1030076 33.1307817,36.0619348 30.6851905,33.1421247 C28.2397998,30.2225168 30.4814414,25.9048154 31.5410973,25 C28.9326672,25.328987 25.9979578,30.1401689 29.870194,34.0467377 C33.7420291,37.9535089 38.103183,34.9104803 39,34.2112312"/>
      <path fill="#FFF" d="M29,24 C24.623495,25.9306611 22.9401443,32.2239742 28.6212978,34 C25.3388674,31.1430471 25.6755375,27.899696 29,24"/>
      <path fill="#FFF" d="M24.6202867 32C22.7211597 29.5172815 22.0757218 27.1132871 25 24 24.3164413 25.7734258 22.7592805 27.7438557 24.6202867 32M41 25C36.0373724 20.7497642 35.826375 19.5811455 24 19.8997171 36.3011678 17.5089595 36.3541607 20.1122289 41 25M20.9124271 27.5766571C19.4294141 26.5727967 19.1469189 25.9408109 19.2175716 22 18.8644237 25.494671 18.887936 26.1266568 19.688397 27.0560691 20.4887422 27.9854815 21.2655751 28.3571733 20.9124271 27.5766571M20 27.7000164C19.6750308 27.499918 19.2249692 27.2999836 19 27 19.2499385 27.5999672 19.3249692 27.8333607 19.4749077 28 19.4249692 27.5665081 19.4749077 27.5999672 20 27.7000164M20.6144407 30.9566567C19.4096271 31.258047 19.1204576 29.9183514 19 29.0810829 19.5542711 28.9138269 20.3975932 28.9805645 21 29.5164427 20.1566779 29.6169611 19.6987966 29.7509307 19.5542711 29.5498939 20.1084237 30.1528393 20.349339 30.554748 20.6144407 30.9566567M59.3920771 13C61.9962818 15.2680008 64.18407 19.2756913 63.9877324 23.0223407 63.7831042 26.9264713 62.2451896 30.660273 56.7366212 33.8893176 54.8471078 34.9969414 55.5111131 33.8893176 55.6644901 33.2037199 55.8174902 32.5177328 55.2047361 32.9929015 54.7962334 33.361785 54.3877307 33.7308631 52.0895262 35.8411882 52.1914635 34.6278632 52.2935892 33.4145382 51.7831492 34.1005253 51.4257094 34.6278632 51.0680811 35.1552011 49.9446987 35.2609023 50.3021385 33.9948241 50.6597668 32.7287459 50.4555155 31.673486 50.0470128 32.6232393 49.6381333 33.5726034 47.9023737 35.4191621 48.0043109 34.3113437 48.1064366 33.2037199 48.1578763 31.8321351 48.0555622 30.9880829 48.3619392 32.4122263 48.5660021 32.7814991 48.6170649 33.4145382 49.6893845 32.3065251 50.1998245 31.8319404 50.4040758 31.3571611 50.6085156 30.8823818 51.0168298 30.9355243 51.0168298 31.6211221 51.0168298 32.3065251 51.0172067 33.361785 50.9659554 33.8365643 52.1404007 33.0452654 52.7529663 32.2012133 53.0593433 31.8846937 53.3657203 31.5681741 53.9796049 31.462473 53.8772908 32.4647849 53.7749767 33.4672915 53.979228 33.8365643 54.7451706 32.9925122 55.5111131 32.14846 56.5318046 31.5677848 56.3277417 32.6232393 56.1238672 33.6784992 56.6343071 33.361785 58.0130037 32.0429535 59.3915119 30.724122 62.7616591 26.9260819 62.9146591 23.0223407 63.0680361 19.1189888 62.6096011 17.4840271 59.3920771 13"/>
      <path fill="#FFF" d="M54.7486125,22 C58.4474229,23.1883207 60.336119,27.5559189 57.9191885,31.9193228 C57.2326204,33.1593097 56.1227238,33.624686 56.4397814,31.712849 C54.377932,32.8495036 53.3737213,32.7457901 52,32.5393162 C58.1837932,31.7645151 58.5531088,25.8747682 54.7486125,22"/>
      <path fill="#FFF" d="M58.7161148 28C59.5965805 23.1936369 59.7611345 20.2702505 58 17 60.532507 20.3693545 60.532507 24.8784056 58.7161148 28M25.8688347 14C26.1074123 10.6042848 26.7277143 9.97761194 20 7 23.5307735 9.29870023 24.5805152 10.0215619 24.5805152 12.5895522 24.5805152 13.8432836 25.2962482 13.6343284 25.8688347 14"/>
      <path fill="#FFF" d="M6 9.68060188C16.7614485 10.0882084 19.464904 10.190251 17.7492496 9.47708049 16.0335951 8.76390995 18.268953 8.20408517 21.9080281 9.47708049L23 9.47708049C22.116178 8.45834597 21.4923037 8.2035214 20.8684294 8 21.6482723 8.49649448 21.9212653 8.87854342 22.0382897 9.05030571 20.3615794 8.21009873 16.4527727 8.55381122 16.0335951 8.70659321 15.6146094 8.8593752 16.2772361 9.24142414 16.6574695 9.62328515 13.5187216 9.5088396 7.25407949 9.60411693 6 9.68060188M26 14C23.4825723 14.3845426 21.2587138 15.7308202 20 19 21.5943984 15.807653 24.1539414 14.5768139 26 14M17 17.9452116C14.9429776 17.8971219 13.2489358 17.4409194 13.0068164 16 12.8454697 18.1853057 15.5883647 18.0652587 17 17.9452116"/>
      <path fill="#FFF" d="M11 13.9799088C12.0085912 12.7443815 14.1811472 13.2786813 14.9958079 13.5458312 15.8104687 13.8129812 16.1414485 14.5825569 18.1769551 15.3490111 18.7976854 15.5828083 18.6037549 16.8181714 18.4485723 17.3191185 18.2933898 17.8200657 19.0303638 18.1205683 20.9700505 17.9536407 22.9097371 17.786713 22.5606241 16.5176688 23.4529715 15.482586 24.3451281 14.4475033 24.1513885 14.480856 22.8322413 14.2470587 21.5132849 14.0132614 17.4010423 13.8796865 15.2674252 13.2786813 13.133808 12.6776761 11.4267998 13.1117537 11 13.9799088M8 11C10.6778116 11.1779564 13.0739035 11.0442841 15 13 12.8388191 12.1112022 11.1947891 11.4443169 8 11M46 14C47.5011179 12.2546593 48.7445939 11.0181601 49.6882261 10.4363203 50.6316472 9.85448039 50.8462434 9.2 50.6746931 8 51.5324446 10.2182198 50.5459776 10.9455196 49.4307951 11.45454 48.3158236 11.9635605 47.243898 13.1635605 46 14"/>
      <path fill="#FFF" d="M48.0739082 11C48.666632 9.59628384 49.7248292 6.34536228 48.4550342 7.37974641 47.1850309 8.41394879 46.6347934 8.85743803 46 9.26366691 46.8888773 7.60149103 47.015711 6.45623459 47.5236707 5.90223655 48.0316303 5.347875 48.7089099 4.83095557 49.4709535 5.05251843 50.2327888 5.2740813 50.0634689 7.1950804 49.6402733 8.63587517 49.2168695 10.0764882 48.8359518 10.4458202 48.0739082 11M55 11.4988541C49.3716936 11.1662847 50.4592755 13.1062731 48 12.9954166 48.6149934 12.3302777 48.8512877 11 50.269926 11 51.6887387 11 53.3921867 11.332774 55 11.4988541M43.088388 7C42.9896331 4.49485031 42.890635 2.51126174 43.2861409 2.19790135 43.6816469 1.88492617 43.8134822 2.45887451 43.9782763 2.82423692 44.1429488 3.18979194 44.7031273 3.65915842 44.6373313 2.66765303 44.5715352 1.67634024 44.0112352-.515641656 44.4726587.110693916 44.9339607.736836887 44.9667979 1.41498189 44.8350842 1.15420133 44.7033705.89342078 45 1.9371208 45 2.40687248 45 2.87662416 44.802247 4.49485031 44.2749058 3.86851474 43.7474429 3.24217917 43.1872644.89342078 43.088388 7M47 2C47.6774872 3.568548 47.645105 4.94124457 47.0322235 6 47.516211 3.68625181 47.0860352 2.47062229 47 2M37 15C34.1260683 14.2191415 32.457959 13.2326206 31.9949407 11.1506745 31.908262 10.7599365 31.7963476 11.2206697 31.7471565 11.4994154 31.6977825 11.7781611 31.3753886 12.3918545 31.1524742 12.6428079 30.929377 12.8939673 30.892255 13.382081 31.4496325 13.7726132 32.0071928 14.1631454 33.246297 14.8884194 37 15M40 13C35.5049161 12.5948571 31.3524647 8.10003625 36.1142697 6 35.6951633 7.76848975 37.1809665 11.3051067 40 13"/>
      <path fill="#FFF" d="M39 12.9472074C34.2840321 13.5004676 29.2862146 9.5810305 33.7203329 7 30.3869413 9.94765899 35.4630714 12.5322622 39 12.9472074M38.4125508 12C37.1099842 10.4575249 35.7820348 5.51409351 39 5 37.7230676 6.22588536 38.182723 9.38964252 38.4125508 12M42 13.9086369C44.3177095 12.1725347 46.3211337 9.78523836 42.6285707 7 46.7533244 8.88097024 48.2799085 11.9434866 45.8104683 13.1129308 44.4356149 13.7639469 43.5714268 14.198017 42 13.9086369M41 14C41.6919944 12.2632397 42.6001837 10.2499029 41.4540947 8 41.5838968 9.0260909 41.929894 11 41 14M23 71.1519459C24.2687843 69.8600837 26.0658387 68.8655535 27.228891 69.0148614 28.3921384 69.1638025 27.8636733 69.4620515 27.4405501 70.1579659 27.0174269 70.8540637 25.8545697 72.6928991 26.4889619 75.0291831 27.2819521 73.2400558 29.1851286 71.5497947 30.0836558 71.4501949 30.9821829 71.350962 30.5063888 71.4505617 30.4008518 72.245709 30.2951198 73.0406729 29.0790064 76.819044 35 80 29.9248626 78.7572958 28.6034074 76.023163 28.9204084 73.0406729 27.8632832 73.7862954 27.334623 74.1348029 27.334623 76.4211952 25.0615795 76.321412 24.5325292 73.6371709 25.4314465 70.1084412 24.8499203 70.4562149 23.7403193 71.1519459 23 71.1519459M63 51.3156566C64.0346115 53.6833722 69.0690533 56.6841492 71 57 69.4828639 54.7890443 68.5173057 53.8416861 67.6896844 51 65.6208008 51.78885 64.1723787 51.7101787 63 51.3156566M57 53.90906C57.4833528 56.0610885 57.2603373 57.7133971 58.4131027 57.7517789 59.5656851 57.7901607 59.7144232 57.06015 59.7144232 54.7929761 61.4248189 57.1369137 62.4286634 59.7500911 62.7261394 60.2494328 63.0236155 60.7491527 63.8046273 60.672389 63.693028 59.4042767 63.5816117 58.1361643 63.54429 57.9054953 63.54429 56.7527174 65.5150231 59.4810403 67.7830492 63.8616718 68.117847 64.5918716 68.4524618 65.3220714 69.2332907 65.0914024 69.1959689 63.7465264 69.1590131 62.4014613 69.2332907 62.1711704 69.1959689 61.786596 72.3939279 64.9762569 73.4360088 64.4421258 76.2607505 64.3228208 78.0827456 64.2460572 76.3725327 61.2103016 75.5172434 59.9420002 76.4468103 59.9038074 76.3725327 60.2881928 77.1905004 60.8642981 78.008468 61.4409706 79.3097885 62.5167958 79.7561855 62.939752 80.2022166 63.362141 80.0163399 63.5929991 79.08659 63.6311919 78.157389 63.6699518 77.8968688 64.4769152 77.7854525 64.7072061 77.6740362 64.9380642 78.008468 64.8227297 79.1239117 64.3997735 80.2393554 63.9770063 82.2474102 64.3997735 82.7305801 64.1694826 83.2141159 63.9386245 83.0282391 63.3237592 82.3216877 62.8242285 81.6151364 62.3248868 77.9746224 60.4759422 76.8557026 59.6347566 76.4468103 59.3271349 74.9221084 59.5196112 74.513399 59.5963748 74.7362316 60.9414399 74.8478308 62.6323194 74.2530617 63.5546173 72.0219914 62.9011812 69.2332907 59.9038074 68.1549857 56.8678628 68.0433865 57.4827281 67.6716329 58.9431277 67.7460934 61.3640179 65.6264394 57.4443463 64.1390591 55.5229868 62.8748774 54.9081215 62.8377387 55.9073722 62.7632782 56.7910992 62.7261394 57.5598699 61.2018034 54.6006889 60.048855 53.5248637 59.5656851 53.1406675 59.0823323 52.756093 58.822178 53.2174311 58.6361182 53.8322964 58.4502414 54.4471616 58.3759639 55.6383213 57 53.90906"/>
      <path fill="#FFF" d="M57.4813468,58 C57.5303704,59.219919 57.1895398,60.3424102 56.7030752,61.4162775 C56.2166105,62.4901448 55.778092,63.8562957 55.7296072,64.3445154 C55.3891358,64.3445154 55.1458137,64.4911074 55,64.3933194 C55.4378002,64.783571 55.291807,65.5152703 55.5353086,65.6130583 C55.7784512,65.7110264 56.6545903,66.0528343 56.9463973,64.978967 C57.3355331,67.2237692 56.9463973,67.6143811 57.8223569,67.565397 C58.6981369,67.516593 59.7204489,67.565397 60.5470258,64.4907472 C61.2769921,65.3202345 61.6661279,66.8333375 62.4449383,68.0046327 C63.2239282,69.1759278 63.9535354,70.0542191 64.0510438,68.980712 C64.1483726,67.9068447 64.7811897,66.4430859 64.8298541,65.4182026 C66.0462851,67.516593 66.8737598,69.7125914 68.6741639,70.4448309 C70.4742088,71.1763501 71.4961616,71.3717461 71.3501684,69.8591833 C71.2041751,68.3460803 71.1551515,65.8574383 71.3501684,65.3692186 C72.7616162,67.1261613 74.1725253,67.6628248 75,67.8582208 C73.6377553,67.1747852 71.6426936,65.7110264 70.8153984,64.1979234 C71.0098765,65.2717907 70.7184287,65.8080941 70.3774186,66.3452979 C70.036229,66.8823216 69.4527946,67.565397 69.5012795,69.7612152 C67.3117396,69.0295159 67.262716,66.5894978 66.1920988,65.3692186 C65.1218406,64.1491195 64.7323457,63.0757924 64.2943659,61.9044973 C63.6128844,63.2706481 63.1269585,64.7349471 63.2239282,67.6143811 C62.1046465,65.7110264 61.1803816,64.1977433 61.2286869,62.3921767 C61.2769921,60.5866101 61.0340292,60.1963585 60.2069136,60.4403783 C59.3792593,60.684038 59.5742761,61.1230936 59.7687542,61.5137054 C59.9632323,61.9044973 59.2822896,63.9539036 58.1630079,65.9058821 C57.5790348,63.7098838 57.384018,61.5625093 57.7733333,60.83063 C58.1630079,60.0983904 57.7733333,59.4639389 57.4813468,58"/>
      <path fill="#FFF" d="M73,66 C75.0832821,67.465441 77.1665643,68.3114237 80.0513817,68.3675868 C82.936002,68.4235419 85.6079178,69.6075433 82.8295512,69.8326118 C80.0513817,70.0587203 75.4570428,70.7351736 73,66"/>
      <path fill="#FFF" d="M78 65C79.0424974 66.2978446 79.2443191 65.8481019 79.2443191 68.8929813 79.8497843 69.1425314 80.1190041 68.9929855 79.9506952 68.044511 79.7825104 67.0962207 79.2448156 65.449006 78 65M55.1912107 74.7995476C56.1060369 73.0720875 58.0373366 69.7694193 58.8505155 69.3121008 59.6635068 68.8547823 60.2223797 68.8547823 59.9682613 69.6169798 59.7137678 70.3791773 59.8157903 72.4627045 60.2732034 73.6310323 60.7304289 74.7995476 61.3911367 76.3747557 61.9501972 76.9845137 63.2206016 75.4096806 64.4915686 73.5292185 64.6438521 71.7511327 64.8977829 71.7511327 66.2698347 71.3442524 66.5745892 71.4972544 66.8797188 71.6495064 66.9809911 72.4115164 67.1846609 72.6657697 67.3883307 72.920023 68.2168879 74.5916074 70.4882 77.1879538 70.8437782 77.5942716 71.3011913 76.4257564 71.7079682 75.4601187 72.1147452 74.4946686 72.9901877 73.2905279 72.3178523 71.4972544 72.0129103 70.6840563 72.3684885 70.5826174 73.2833147 70.6334306 74.1979533 70.6840563 75.2654381 71.8017584 76.6374899 72.2588894 78.0097292 72.7167704 79.9924152 72.8182092 80.8558551 72.920023 81.7194826 73.0212743 83.6515325 73.3257783 83.7528047 73.1230882 83.854077 72.920023 84.1076328 72.3608907 83.701606 71.8525715 83.2952041 71.3442524 82.228282 70.2773634 82.0756234 69.7694193 81.9233399 69.2614752 82.2783555 69.4645403 83.2441929 70.1251115 84.2102178 70.7854951 85.6336559 72.2588894 86.1923413 72.5129552 86.7508391 72.7672085 88.0219937 73.9360988 85.4297986 73.9360988 82.8379785 73.9360988 78.3653074 73.4787803 76.8407846 73.3769665 75.3160742 73.2751527 74.0449197 72.5637684 73.4864219 72.3608907 72.9277365 72.1578255 73.0290088 72.5637684 73.0290088 73.3261533 73.0290088 74.0881633 72.6227944 75.0534259 72.1655689 76.2223162 71.7079682 77.3912065 71.656957 78.1025908 71.656957 78.5599093 71.656957 79.0172278 70.5382735 79.2201054 69.9797756 78.6613481 69.4210903 78.1025908 66.4224933 75.6635589 66.1175512 75.0538009 65.6093144 75.8159984 64.4401823 77.2893927 63.9829567 77.8991506 63.5253561 78.5089086 61.8477997 78.6103474 61.1368308 77.4418321 60.4256744 76.2733169 59.2571049 73.3265283 59.5106607 71.0905616 58.6466581 72.2084512 57.629997 73.6818455 57.2744188 74.9517996 56.9190282 76.2223162 54.2769471 77.2385795 55.1912107 74.7995476"/>
      <path fill="#FFF" d="M48.8017271 79.3372146C49.6598325 79.6407781 50.2150114 80.3996868 51.4773915 79.6407781 52.7395852 78.8820561 54.0528256 77.8193972 56.7286763 77.3642387 57.2339264 78.8820561 59.4252065 82.6704387 60.263005 83.7896657 60.5659315 84.1942304 60.7676962 84.3460121 61.5248261 82.9799764 62.2821424 81.6139407 64.8067161 79.1858063 65.7153093 78.5280854 66.6240888 77.8701778 67.0278045 78.6798671 67.583356 79.1352123 68.1387213 79.5903709 69.3504273 79.6915587 70.1077435 80.298499 70.8650597 80.9056259 70.9148023 81.3103773 72.1773686 80.3996868 73.4397486 79.489183 76.0144375 76.7574851 76.6707783 76.3019532 77.3269327 75.8467946 78.1854107 76.2005786 78.6396142 76.5041421 79.0940039 76.8077056 80.6594968 77.1616763 81.3657663 77.2630508 82.0722222 77.364612 82.5271709 77.4148326 83.0318621 77.6173949 83.5363669 77.8197706 84.6979578 78.4268975 85.3539259 77.6681755 86.0100804 76.9090801 86.4136097 76.3527338 85.8588034 75.5432311 85.3038108 74.7335418 84.8997225 74.5817601 84.7480729 74.227416 84.596796 73.8734453 84.9498376 74.0254137 85.3539259 74.0760076 85.7582005 74.1264148 87.0710683 74.5817601 87.4241099 74.8349163 87.7773379 75.0876992 90.0496592 75.6944528 89.9991714 77.1112691 89.9479385 78.5280854 90.0496592 79.4387758 87.272833 79.5903709 84.4954479 79.7423393 83.7891783 79.0844317 83.0821635 78.325523 82.3751487 77.5666143 81.567531 77.76955 81.1133276 77.6681755 80.6589379 77.5666143 79.6488103 77.2634242 78.9928421 77.0610486 78.3365014 76.8584862 77.3770479 76.2509859 77.2253983 76.5041421 77.0743077 76.7574851 77.2261435 78.730461 77.1249817 80.5518419 77.0238199 82.3732228 77.2766313 82.7781608 74.5502928 82.8285681 71.8241407 82.8789753 71.5720745 82.9799764 69.8551184 81.5127529 68.1379761 80.0459028 66.6240888 79.6917454 66.5231133 79.1858063 66.4217652 78.6798671 66.2697431 79.0340245 66.0176769 79.5903709 65.7657971 80.1469039 64.4020689 82.4234434 63.8973778 83.7392585 63.3926866 85.0545136 62.8879954 86.2179869 61.222086 85.965204 59.5559902 85.7120478 58.8992769 84.1438231 58.5963504 83.2839133 58.2934239 82.4234434 56.4257498 78.7808682 56.4257498 77.7691767 55.6682473 78.0219595 54.0023378 79.2365869 53.6994113 79.944715 53.3961122 80.6530298 53.8510609 81.1589689 54.3557521 81.3107506 52.6890975 82.1708472 50.2656855 82.2210677 48.8520285 81.6647213 47.4383715 81.1081883 48.0447834 80.8546586 48.8017271 79.3372146M35.9124299 71C35.9124299 72.882352 35.7514676 74.0219637 36.2889349 75.4089118 37.4720379 74.7153464 38.7631106 74.4678273 40 75.2602907 38.117475 75.1610271 37.794558 75.2105675 36.98796 76.6967792 36.1811636 76.8951235 35.105435 77.2908982 35.0516486 76.6472388 34.9982591 76.0033965 34.7829149 73.0803307 35.9124299 71M77 57C76.314184 54.8337519 72.0474673 51.5228178 69 51 72.6571857 51.2986217 76.6952345 53.4891271 77 57"/>
      <path fill="#FFF" d="M52.0858556,82 C52.5167236,82.8602978 52.8395269,83.7210969 52.5703586,84.1287647 C52.3013889,84.5364326 51.9247519,84.8082111 51.5479163,84.9437661 C51.170882,85.0799896 50.9019123,84.9437661 51.7094173,84.2191904 C49.7175717,85.1705825 47.5783292,86.8569132 50.2559084,86.9821051 C51.2249143,87.027903 51.3864153,86.9821051 51.6553849,86.8462158 C51.2249143,86.2573623 51.7094173,85.1705825 52.5167236,84.7627475 C52.8399242,84.8082111 52.8399242,84.9437661 52.6782245,85.2158789 C52.5167236,85.4876574 51.9243546,86.6199009 52.4088576,86.8462158 C52.8935592,87.072698 53.4861268,86.9821051 53.7016601,86.9821051 C53.4326904,86.3934188 53.863757,86.1671038 53.971027,86.0308802 C54.0786944,85.8953253 54.3478627,85.2613425 54.4016963,84.9895639 C54.45553,84.7174511 54.563396,84.6723218 54.778532,84.4456726 C54.993668,84.2191904 55.3705036,83.3585584 55.8011729,83.9928755 C56.2318422,84.6270254 56.6631075,85.1705825 56.8780448,85.6232124 C57.0931808,86.0763438 56.9861095,86.4840116 57.3625478,86.4840116 C57.7391848,86.4840116 58.923724,86.4388823 59.1386614,85.9407888 C59.353996,85.442361 59.730633,84.1742283 60,83.7665605 C59.623363,83.5399112 59.3005597,82.8602978 59.1386614,83.2681327 C58.9775577,83.6756334 58.3321497,84.5364326 57.9549168,84.9437661 C57.5776838,85.3514339 57.3631438,84.9437661 57.1474118,84.490969 C56.9316799,84.0380048 56.5550429,83.7665605 56.0705399,83.0871142 C55.5860369,82.4076678 54.724301,82.9512249 54.3478627,83.2230034 C53.971027,83.494782 53.6480251,83.1320763 53.4326904,82.8153356 C53.2171571,82.4980935 52.7856932,82.1813528 52.0858556,82"/>
      <path fill="#FFF" d="M57 87.7005107C56.6213889 87.7005107 56.3115931 87.4007054 56.2084971 86.7581073 56.1051472 86.1161414 55.8644207 85.6873739 55.7956054 86.2871427 55.7266631 86.8870695 55.5887786 87.6573653 55.4168673 87.5720227 55.2449561 87.486206 55.1763947 87.3150467 55.1763947 87.0150833 55.1763947 86.7155941 54.9008796 87.1440455 55.0385102 87.486206 55.1763947 87.8286827 55.1766486 88 55.5548788 88 55.933109 88 55.8640398 87.2080524 55.933109 86.5654543 56.1395549 87.2080524 56.4153239 88.0426713 57 87.7005107M13.7291822 37C9.52112116 38.7477238 8.76056058 40.2894537 8 41.2661229 10.0279744 41.780349 11.4480617 41.7287557 12.4112514 41.4205235 10.6364229 43.6308801 9.31793081 46.0468513 8.81107752 48 11.3967964 46.3548938 13.323737 45.0698027 14.9969702 44.5045524 12.2591392 45.1727997 10.3832769 46.0980653 9.67323328 46.8691199 10.5350148 44.1449165 11.3464666 42.8598255 12.6645845 41.4719272 13.9827024 40.0840288 17.4814681 38.6451062 15.3011945 38.9019347 13.1209208 39.158953 11.6506908 39.6217754 12.4112514 38.7477238 13.1718119 37.8736722 13.323737 37.4626328 13.7291822 37M14.204871 47C11.7947126 49.176433 10.2560036 52.2851314 8.51253714 53.2697947 6.76925988 54.2544581 6.51283992 54.4101225 6 54.61742 7.99988646 55.8089985 10.3587609 55.9126472 11.8972806 55.6017009 11.7434286 58.6593398 11.6921447 60.7837572 11.7434286 61.5092986 12.5639725 61.6131386 13.4868951 61.3021923 13.8971671 60.7319328 14.204871 62.5976108 15.0254149 61.2501767 17.6153511 62.0277337 20.2228867 62.8100716 20.6664648 61.6129474 20.5640861 59.4883388 21.5384819 61.3021923 22.5895199 62.8049083 23.2817592 63.9712439 20.4357815 66.3807911 17.3589312 68.6348651 13.5894631 72.1331068 17.4355733 70.2670464 20.2049089 68.7128885 21.2816835 68.5574153 22.3586473 68.4019422 20.9739795 69.179308 20.4357815 69.8786504 19.8972049 70.5783752 18.9740931 72.210939 19.0511137 73.8431204 20.0510569 74.1540667 20.8203168 74.2318989 22.0509434 71.821778 23.2817592 69.4124221 24.2818916 68.7128885 24.7432583 68.0909958 25.2048143 67.4691032 25.1279829 66.6917374 23.7433151 67.1581569 22.3586473 67.6245764 18.7434097 69.4124221 17.6280302 69.8398299 16.5126507 70.2670464 18.2048332 69.1014758 19.0125088 68.7128885 19.8203736 68.3239187 23.6922204 66.3807911 24.5640482 65.966196 25.4356868 65.5517921 25.9483375 64.5675112 26.3587987 63.0642215 26.7692599 61.561123 27.3333838 59.3328656 29.9999622 57.6746764 28.3586852 60.8877884 27.6407093 63.1158546 27.7432773 63.7895717 28.2048332 63.8932205 28.7178623 63.996678 29.1794183 64.0486936 29.6409742 64.100518 29.1790398 64.6705863 29.589501 64.5151131 29.9999622 64.3596399 30.4104233 64.8264419 31.076926 64.9298994 31.7434286 65.033357 30.923074 65.9143716 30.5638968 66.5880886 30.2049089 67.2621881 31.4868194 67.5205451 32.2047953 67.4691032 32.9231497 67.41747 33.2817592 67.4691032 33.1279072 68.0909958 32.9740552 68.7128885 33.8971671 68.8167285 34.410007 68.4537666 34.9230362 68.0909958 34.5640482 69.956865 34.717711 71.0968103 34.8715629 72.2367556 35.7950533 74.2062736 35.692296 71.6668786 35.5893496 69.1272924 35.0257934 67.2621881 36 65.4999677 34.7691842 66.3807911 34.5123857 66.5366467 34.358723 66.9512418 34.410007 65.2924789 34.666427 64.4114643 35.1277937 63.4786254 32.7691085 59.4365144 31.7945234 56.7418374 32.5124993 53.6845811 31.5384819 53.0626884 31.1280207 52.803184 30.87179 52.5442533 29.7946369 53.6325654 28.3072119 55.6535253 27.4355733 57.4157457 26.5639347 59.1775837 25.1796454 61.1471016 24.6153322 62.4423288 22.2047953 59.4365144 20.8714115 57.1566238 20.0510569 54.61742 18.7691463 55.1356639 17.3842893 57.5193945 16.6150294 58.4004091 16.4098935 57.2600813 16.4611775 55.8089985 15.7433908 55.8089985 15.0254149 55.8089985 14.7175217 56.1717692 14.512575 56.4827155 14.3076283 56.7936618 13.3330432 57.6746764 12.9740552 58.1409047 12.7692977 56.6902043 12.8202032 56.0161048 13.0255285 55.1871058 15.2818349 54.1508093 16.8718279 51.6638124 16.307704 50.6793403 15.7433908 49.6948682 14.256155 50.2645539 13.4870844 50.6793403 12.7178245 51.0943178 12.9231497 50.4204096 13.1793804 49.8503413 13.4356112 49.2800818 13.2819484 48.6581892 14.204871 47"/>
      <g transform="translate(0 64)">
        <mask id="aksvb-logo-licorne-en-c" fill="#fff">
          <use xlink:href="#aksvb-logo-licorne-en-b"/>
        </mask>
        <path fill="#FFF" d="M5.89472258,0.113509091 C3.7647871,1.73950909 1.58513118,2.77387273 -7.31182796e-05,2.97114545 C3.07107742,3.26678182 5.25073333,2.82350909 6.24148602,2.4786 C5.49842151,3.61169091 4.90415269,4.00569091 4.16108817,4.35078182 C3.41802366,4.69587273 3.66589462,4.99114545 4.50785161,4.8926 C5.3498086,4.79423636 6.93483011,4.35078182 8.27234624,3.51332727 C7.08344301,5.38550909 6.53871183,6.42005455 6.39009892,7.10987273 C6.24148602,7.79950909 6.34074409,7.89805455 7.18270108,7.89805455 C8.02484086,7.89805455 8.32170108,7.6026 8.56957204,6.91296364 C8.81744301,6.22314545 11.1950667,4.05496364 12.7800882,3.11878182 C12.5325828,4.30132727 12.2355398,4.94169091 11.6410882,5.63187273 C11.0466366,6.32150909 10.5017226,7.0606 11.6410882,7.10987273 C12.7800882,7.15932727 12.7309161,6.32150909 13.1270344,5.77914545 C13.5231527,5.23769091 15.950314,2.87241818 16.8917118,2.23187273 C15.4551204,2.72478182 13.4736151,3.8086 12.9287011,4.30132727 C12.8791634,3.51332727 13.4242602,2.72441818 13.8700989,1.93623636 C12.1856366,2.82314545 10.4520022,3.80896364 9.31263656,4.4986 C9.75847527,3.26678182 9.80783011,2.67550909 10.7987656,1.83787273 C10.204314,1.93623636 7.82650753,2.28132727 6.6377871,3.02041818 C6.83593763,2.37987273 7.43038925,1.98532727 8.02484086,1.6406 C6.19194839,2.18296364 3.81450753,2.57732727 2.57588387,2.62641818 C3.81414194,1.98569091 5.30027097,0.803509091 5.89472258,0.113509091" mask="url(#aksvb-logo-licorne-en-c)"/>
      </g>
      <path fill="#FFF" d="M18.2629637,74 C18.4208584,77.3537901 18.8945426,81.2994577 21,81.7433658 C19.3157895,82.2861021 17.2109147,82.0882636 16.3159837,79.9677335 C15.4210526,77.8472033 14.6315789,77.7976982 14,77.5017595 C15.4210526,78.0443138 16.7896679,78.6851504 17.6842105,79.6717948 C17.8949311,77.7483751 17.8945426,76.3675097 18.2629637,74"/>
      <path fill="#FFF" d="M15.5593738 78.0981413C16.2104933 78.7925081 16.6111822 79.7005262 16.7614406 80.1810446 16.9116989 80.6619572 17.4626462 80.8219986 17.7631628 81.1424756 18.0636795 81.4629526 18.213753 81.997278 17.3624739 81.997278 16.51101 81.997278 14.2070488 82.1039065 13.506028 80.9824342 12.8050072 79.8605676 11.3523251 76.9760777 10 75 12.3540474 76.9228619 14.3074058 79.3262422 15.4592016 80.5015216 15.8598905 80.5015216 15.8598905 79.6467192 15.5593738 78.0981413M7.95081818 75.0971605C7.45900003 76.7521223 6.47572669 78.3580548 8 79.9643465 5.93454523 80.1586676 4.5574544 79.6719669 4.11463658 75.6323516 3.13118175 76.6059325 2.49163667 77.0924535 2 77.8225045 2.93445449 76.0220713 3.81972717 75.2433503 4.36054566 75 4.45909077 75.8273911 4.31154533 77.3844739 6.03272738 78.7474153 6.27863646 76.7521223 7.1149088 75.6323516 7.95081818 75.0971605M5 83C5.41646532 86.1799243 7.26200413 88.2620353 10 87.9733392 9.10732329 86.3536113 8.57136581 85.1977602 8.74994509 84.0412689 8.09493476 83.983231 7.50010983 84.7925615 7.67846945 86.0070907 6.48794096 85.7755791 5.89289637 85.1977602 5 83"/>
      <path fill="#FFF" d="M8 85C9.3035478 85.3285846 11.0895348 86.1510168 12.2965235 86.282305 12.3449812 85.3285846 13.1655553 84.8683478 13.7449099 85.6245291 14.3242645 86.3813172 14.7105009 86.8083073 15 86.9399595 11.813728 87.235904 11.524407 86.4139572 8 85M17 86.1726466C17.9474144 86.7377792 19.8948774 87.8129502 20.6843894 88.0387528 20.0001457 87.0207628 19.8418548 86.5119765 19.6315125 85.8333166 19.4211702 85.155074 19.6843409 84.306749 20.7896577 85.9466353 21.8949745 87.5861041 23.6841466 89.2831715 25 89.9052765 21.2633649 90.4140627 20.9475601 88.8309402 17 86.1726466M24 93.9845411C22.0086287 92.9870946 20.6150362 93.0922622 19.3702454 92.3049574 18.1256383 91.5178462 16.4008241 91.3102224 14.9894121 90.3629388 14.441785 89.9953362 14.491753 90.9923953 14.1930473 91.4124849 13.8943416 91.8327682 13.4462831 92.8827016 12.8488717 92.4626121 12.2514603 92.0423288 10.6083952 91.1498563 9.91159896 90.940102 9.21461899 90.7303477 9.06526614 91.2029243 8.76674415 91.6226265 8.46785475 92.0423288 7.87025964 90.8880024 7.67130621 90.4154258 7.47235279 89.9432366 6.62601997 87.9483436 6.17777772 88.0010243 5.72990287 88.0537049 6.22811312 89.3658797 6.57623569 89.9432366 6.92454196 90.5203998 7.87062705 92.5677797 8.76674415 92.6198793 9.66267754 92.6721727 9.51369211 91.8848678 9.71264553 91.4124849 9.91159896 90.940102 10.3100569 91.4651656 11.156206 92.2524704 12.0023551 93.0397753 12.7989037 92.7252407 13.2469622 93.2497232 13.6950208 93.7743994 14.441785 92.9348013 14.5911379 92.2524704 14.7404907 91.5699459 14.840243 91.2550239 15.2385173 91.7274068 15.6366078 92.1997897 16.4331564 92.9870946 16.8314306 93.1972362 15.9353135 92.1997897 15.9852815 91.8327682 15.6366078 91.1502436 18.0262534 93.0922622 20.8138059 94.1418084 24 93.9845411"/>
      <path fill="#FFF" d="M18 94.0439077C12.6242229 95.2142294 10.227263 95.2911219 7.7178223 94.792962 7.24825314 94.699827 6.98727439 93.9504271 6.93488603 93.4819874 6.88269028 93.0137205 7.14386164 92.5922803 7.87460215 92.3113201 8.60515006 92.03036 6.56990099 92.4987997 5.89116362 92.9200671 5.21261886 93.3416801 5.52598597 92.5919347 6.04775087 92.2643207 6.56951578 91.9368794 5.05622421 92.1238406 4.16870384 92.6857609 3.28137608 93.2476812 2.60283132 92.6857609 4.69046875 91 1.45471741 93.0137205.985533461 95.4321204 4.11650809 95.9168026 5.63018487 96.1507632 5.89097102 96.0106287 6.41312113 93.9036004 6.83068714 94.5120018 6.67409988 95.0272682 8.50075856 95.1677483 10.3276098 95.3082284 11.6321184 95.6826691 18 94.0439077M6.19434019 72C7.59034881 74.6129827 6.92724966 75.0269262 6.04502917 78 5.68747377 75.445231 7.62060654 75.2565577 6.19434019 72M6.0925437 85C6.78727321 83.2430965 7.77292884 81.7491689 6 80 6.36600384 81.6157062 6.63268612 82.8428727 6.0925437 85M94 88C94.8460272 89.0574264 96.0253187 90.9836854 95.999586 91.5119341 95.9738532 92.040926 95.281718 92.1161778 94.6664025 91.8517747 94.0512132 91.5879291 94.1794985 91.361059 94.5383695 91.0212184 94.8972404 90.6815636 94.3846037 89.0951452 94 88M97.0276069 88.027085C97.7498975 88.9120988 98.4999317 91.6092344 97 93 97.7221539 92.8735102 98.1387181 92.4102673 98.4443078 92.2416833 98.7500342 92.0730994 99 92.1151935 99 91.3564622 99 90.5977308 98.6387864 87.6899171 97.0276069 88.027085M101.214921 87.8535952C102.198589 88.7784108 103.000295 90.5211238 100.304217 91.4100667 99.8667927 91.7659938 99.7940081 92.0858733 100.814427 91.9791301 101.834307 91.872387 102.672406 91.9791301 104.421567 91.125535 104.713063 91.3391962 105.15013 91.623378 105.951656 90.9122237 106.753363 90.2010694 107.445354 89.5961332 106.644006 88.7071903 105.8423 87.8180724 105.186522 87.2136613 103.765609 87 104.967989 87.7111543 106.425294 88.6716676 106.388723 89.3116015 106.35251 89.9520604 106.024441 90.7697828 104.895025 90.876526 104.858453 89.5607855 105.15013 89.0984652 104.494351 87.7111543 104.27546 89.3116015 104.239067 90.3788579 102.380909 91.2679758 103.07308 89.6320059 103.036867 88.7071903 101.214921 87.8535952M99 83.0045567C96.7612693 84.8253655 96.5411972 85.5493218 96.4101043 86.6840611 96.3664786 87.0631163 94.6544954 87.1011898 94.1275319 86.7977217 93.6010004 86.4938803 94.7862362 84.9765397 96.1906802 84.0665085 97.5953401 83.1561042 98.1659292 82.9662966 99 83.0045567M85 85C86.2331107 86.0787275 87.3937694 87.6197667 87.6114822 87.9662636 87.8290165 88.3131396 88.4455718 87.7350129 88.8445929 87.2342226 89.2436139 86.7334322 90.5854025 85.8089982 92 86.5410392 90.4765462 86.6562855 89.8962168 88.0432208 89.4249222 89.199095 88.9534492 90.3547796 87.6839341 90.0080932 86.9947484 89.6998853 86.3057411 89.3916775 86.6321317 89.2760521 86.5957273 88.4670539 86.5596798 87.6580557 85.5805078 85.8474768 85 85M92 78C90.9807539 79.3090615 89.7430083 80.8247455 89.5612239 82.6162088L87.013019 82.6504481C85.9941311 81.9271844 86.1759155 81.2037513 85.265919 81.9961716 84.3559226 82.7884225 83.9919957 83.6842389 83.482104 83.8908614 82.9727496 84.0976535 82.4630369 83.9595096 81.6622902 83.8908614 80.8615435 83.8220437 81.2254705 83.546095 81.2981842 83.2016676 81.3710771 82.8570707 79.9101755 81.4015597 79 80.6435482 80.128675 81.2981637 81.1527567 82.3061902 81.6986471 82.5128128 83.7371394 80.8247455 85.3751688 80.2048779 87.5590885 81.3073168 89.160761 79.4466968 90.3619706 78.3442579 92 78"/>
      <path fill="#FFF" d="M93.0197151 80C93.8291881 81.5514343 95.1471972 83.3519031 97 83.9727136 95.5519337 84.2927882 92.7376509 81.7258769 93.0197151 80M36.5150816 78C36.5150816 79.9919559 36.8895445 81.4404841 37.7982781 81.7573862 38.7070117 82.0744553 39.9898136 81.4408182 40.7385422 80.8975575 41.4872708 80.3542968 42.9308669 80.127604 44 79.9919559 42.128869 81.0784773 41.4870735 81.8933684 40.4177431 82.3915244 39.3486099 82.8893464 38.4394818 83.2060814 37.3703487 82.8439076 36.3012155 82.4819008 35.3924819 81.9840789 36.5150816 78M38.4851551 86C38.1970936 87.517721 37.9575441 88.567722 37.3336175 89.0343652 36.7098679 89.5014391 35.1743074 89.9682976 36.5659257 90.4932982 37.9575441 91.0187294 39.5885349 91.1356594 40.4521881 90.8434421 41.3156643 90.5514401 42.4195752 90.1431543 41.555922 89.6760804 40.6922688 89.2092218 40.9801532 88.6260793 41.5077642 88.4510074 42.0353753 88.2755047 42.5633404 88.567722 42.8514018 88.9178659 43.1391092 89.2684405 43.6668973 90.2012962 44.8182578 89.9095096 45.9697954 89.6181537 45.681911 88.9178659 46.8334486 89.6760804 47.9849862 90.4349409 49.4242312 90.3184416 50 90.1435849 47.6969248 89.6760804 46.7852908 88.9178659 46.2576798 88.3340774 45.7300688 87.7507195 45.2982422 88.1587901 45.0103578 88.6260793 44.7224734 89.0927225 44.1945083 88.9178659 43.3788358 88.508934 42.5633404 88.1008635 41.6513523 87.342003 41.0279569 87.8090769 40.4043844 88.2755047 39.7324771 88.7425786 39.3006505 88.567722 38.8688239 88.3928654 38.7248817 87.4585023 38.4851551 86"/>
      <path fill="#FFF" d="M53 89.7202374C50.2681163 91.1228685 49.3919199 91.8002654 47.6389564 91.6065959 45.8861832 91.413105 44.3396186 91.026123 43.1542995 91.026123 41.9686 91.026123 40.7830906 90.7846163 40.1127224 91.0748528 39.4425444 91.3650892 38.6696426 92.0905019 38.566348 91.3163595 38.4628633 90.5423956 38.4628633 89.9622797 38.4628633 89.6236705 38.4628633 89.2848828 38.2052927 88.6558586 38.2052927 89.2366885 38.2052927 89.8168044 38.2051025 90.3972774 37.8444276 90.8811833 37.4837528 91.3650892 37.1228877 91.8488167 37.1228877 92.3807383 37.1228877 92.9128385 36.6585379 93.4447602 37.5351147 93.4447602 38.4116916 93.4447602 39.0814891 93.5416842 39.390802 93.3480147 39.7001149 93.1545237 39.4425444 93.3480147 39.4425444 94.1703513 39.4425444 94.9925095 39.1849739 95.9119486 39.8034095 96.3954975 40.4220353 96.8790465 40.834833 97.0728944 41.3499741 96.9756134 41.8653054 96.8790465 42.5356736 96.5406158 42.5356736 96.5406158 42.5356736 96.5406158 41.8139435 97.0721804 41.4530784 96.2985735 41.0920231 95.5249666 41.0406612 94.8482837 41.1437655 94.1221571 41.2466796 93.3967444 41.4530784 92.3320086 41.9170478 91.9935779 42.3810172 91.6553257 42.2779129 91.02648 41.6077349 91.510029 40.9373666 91.9935779 40.1127224 92.7678988 40.0611703 92.3807383 40.0094279 91.9935779 39.7518573 91.5582232 40.3704832 91.413105 40.989109 91.2679867 41.9684097 91.1228685 42.3292748 91.3163595 42.6903301 91.510029 42.638778 92.2357986 44.1337904 92.3323656 45.6286127 92.4289326 45.9894777 92.4289326 47.072073 92.4773053 48.1546682 92.5260351 49.1337787 92.4289326 49.907061 91.9935779 50.6803433 91.5582232 50.8871226 91.1717767 51.5569201 90.7846163 52.2267177 90.3972774 52.5362208 90.1554136 53 89.7202374M49.0163453 94C49.3475771 95.1413043 49.7450552 96.8802342 48.8508516 98.0217391 48.4533735 97.2612707 48.552743 95.7391304 48.0558954 94.6521739 48.1552649 96.1199663 47.8902795 98.076488 48.0558954 98.4563212 48.221389 98.836756 48.6851135 99 49.0163453 99 49.3475771 99 49.711932 98.6747152 49.9105489 97.7504011 50.1094102 96.8262875 50.0431638 94.5976255 49.0163453 94"/>
      <path fill="#FFF" d="M46,94.2350057 C45.6774859,95.8808167 45.2903738,96.546891 45.1935561,97.2914292 C45.0967384,98.0359673 45.032299,97.3697001 44.8708833,96.4296774 C44.7096262,95.4888835 44.4515515,94.5097252 44,94 C44.2580748,95.5282117 44.1290374,97.4481639 44.3548925,98.192702 C44.5807476,98.9370474 45.3548131,99.4857153 45.5806682,98.3494367 C45.8065233,97.2131582 45.8065233,95.7242747 46,94.2350057"/>
      <path fill="#FFF" d="M44.8161647 95.2015672C44.3264727 96.3272098 43.4223405 98.7958252 43.4599664 96.6740859 43.4975922 94.5517073 43.4223405 93.3828117 43.2716518 94.3354424 43.1209631 95.2882862 42.7441487 97.1933346 43.2716518 98.2326843 43.7989696 99.2722471 44.5524131 98.9692633 44.8161647 98.9255841 45.0797309 98.8823312 45.0421051 96.2409169 44.8161647 95.2015672M48.4641578 83C48.2611447 84.5666173 48.2351534 86.5802982 49 88 48.0643133 87.4854348 47.5838255 84.1298415 48.4641578 83"/>
    </g>
    <use fill="#000" filter="url(#aksvb-logo-licorne-en-d)" xlink:href="#aksvb-logo-licorne-en-e"/>
    <use fill="#FFF" xlink:href="#aksvb-logo-licorne-en-e"/>
    <use fill="#000" filter="url(#aksvb-logo-licorne-en-f)" xlink:href="#aksvb-logo-licorne-en-g"/>
    <use fill="#FFF" xlink:href="#aksvb-logo-licorne-en-g"/>
    <g>
      <use fill="#000" filter="url(#aksvb-logo-licorne-en-h)" xlink:href="#aksvb-logo-licorne-en-i"/>
      <use stroke="#FFF" stroke-linecap="square" xlink:href="#aksvb-logo-licorne-en-i"/>
    </g>
  </g>
</svg>
