<svg xmlns:xlink="http://www.w3.org/1999/xlink" width="68" height="58" viewBox="0 0 68 58">
  <defs>
    <path id="and-b" d="M720.824514,375.692969 C716.742462,378.798453 712.426099,380.351172 707.875295,380.351172 C704.769811,380.351172 702.255187,379.433212 700.33135,377.597266 C698.407512,375.761319 697.445607,373.368765 697.445607,370.419531 C697.445607,364.735909 701.47877,360.019159 709.545217,356.269141 C708.295211,353.105062 707.670217,350.566025 707.670217,348.651953 C707.670217,345.761314 708.661418,343.358994 710.64385,341.444922 C712.626281,339.53085 715.121374,338.573828 718.129201,338.573828 C722.504223,338.573828 724.691701,340.507403 724.691701,344.374609 C724.691701,347.948846 721.185877,351.679277 714.174123,355.566016 C714.388968,356.034768 714.51592,356.317968 714.554982,356.415625 L715.345998,358.026953 C716.010064,359.394147 716.508106,360.3707 716.840139,360.956641 C719.789372,357.851156 724.349873,356.298438 730.521779,356.298438 L734.535451,356.298438 L736.644826,356.269141 C740.101875,356.269141 742.562788,355.84434 744.027639,354.994727 C745.49249,354.145113 746.224904,352.714463 746.224904,350.702734 C746.224904,349.530854 745.648738,348.35899 744.496389,347.187109 L747.748342,343.905859 C748.568658,344.999615 748.978811,346.38632 748.978811,348.066016 C748.978811,351.776972 747.401678,354.735926 744.247365,356.942969 C741.093053,359.150011 736.879227,360.253516 731.605764,360.253516 L731.07842,360.253516 C730.082321,364.843382 727.738595,368.993731 724.04717,372.704688 C726.019836,375.458608 727.84599,376.835547 729.525686,376.835547 C730.873348,376.835547 732.279584,375.819932 733.744436,373.788672 C734.056937,374.062111 734.213186,374.384373 734.213186,374.755469 C734.213186,375.771099 733.378233,376.95761 731.708303,378.315039 C730.038372,379.672468 728.578426,380.351172 727.32842,380.351172 C725.492473,380.351172 723.324526,378.798453 720.824514,375.692969 Z M720.033498,374.696875 L719.330373,373.730078 C716.166295,369.2574 713.314761,364.179325 710.775686,358.495703 L710.277639,357.382422 C705.179957,359.862903 702.631154,363.583569 702.631154,368.544531 C702.631154,371.239857 703.519817,373.456632 705.29717,375.194922 C707.074523,376.933212 709.330359,377.802344 712.064748,377.802344 C714.721011,377.802344 717.377235,376.767198 720.033498,374.696875 Z M713.73467,354.511328 C718.324537,351.816002 720.619436,348.739861 720.619436,345.282813 C720.619436,343.93515 720.15069,342.773052 719.213186,341.796484 C718.275681,340.819917 717.162411,340.331641 715.873342,340.331641 C712.904577,340.331641 711.420217,342.187091 711.420217,345.898047 C711.420217,347.890244 712.191693,350.761309 713.73467,354.511328 Z M723.197561,371.65 C725.814761,367.860919 727.27959,364.062128 727.592092,360.253516 L726.742482,360.253516 C722.543243,360.253516 719.428039,360.810151 717.396779,361.923438 C717.748344,362.567972 717.95342,362.948828 718.012014,363.066016 L720.004201,366.49375 C721.469052,369.013294 722.533495,370.732027 723.197561,371.65 Z"/>
    <filter id="and-a" width="200%" height="200%" x="-50%" y="-50%" filterUnits="objectBoundingBox">
      <feOffset in="SourceAlpha" result="shadowOffsetOuter1"/>
      <feGaussianBlur in="shadowOffsetOuter1" result="shadowBlurOuter1" stdDeviation="4"/>
      <feColorMatrix in="shadowBlurOuter1" values="0 0 0 0 0   0 0 0 0 0   0 0 0 0 0  0 0 0 0.5 0"/>
    </filter>
  </defs>
  <g fill="none" fill-rule="evenodd" transform="translate(-689 -330)">
    <use fill="#000" filter="url(#and-a)" xlink:href="#and-b"/>
    <use fill="#FFF" xlink:href="#and-b"/>
  </g>
</svg>
