<svg width="25" height="59" viewBox="0 0 25 59">
  <g fill="#FFF" fill-rule="evenodd">
    <path d="M13.8140162,1.42108547e-14 L11.1859838,1.42108547e-14 C5.05390836,1.42108547e-14 2.13162821e-14,5.05119454 2.13162821e-14,11.331058 L2.13162821e-14,28.668942 C2.13162821e-14,34.8805461 4.98652291,40 11.1859838,40 L13.8140162,40 C19.9460916,40 25,34.9488055 25,28.668942 L25,11.2627986 C25,5.05119454 20.0134771,1.42108547e-14 13.8140162,1.42108547e-14 Z M22.8036466,29.623841 C22.8036466,34.0501545 18.9449104,37.7133106 14.100965,37.7133106 L10.899035,37.7133106 C6.13719033,37.7133106 2.19635338,34.1264703 2.19635338,29.623841 L2.19635338,10.2396402 C2.19635338,5.81332669 6.05508956,2.15017065 10.899035,2.15017065 L14.100965,2.15017065 C18.8628097,2.15017065 22.8036466,5.73701094 22.8036466,10.2396402 L22.8036466,29.623841 Z" transform="rotate(-180 12.5 20)"/>
    <path d="M13,7 C11.8666667,7 11,7.85628743 11,8.9760479 L11,16.0239521 C11,17.1437126 11.8666667,18 13,18 C14.1333333,18 15,17.1437126 15,16.0239521 L15,8.9760479 C15,7.92215569 14.1333333,7 13,7 Z" transform="rotate(-180 13 12.5)"/>
    <polygon points="13 52.023 19.957 59 21 58.023 13 50 5 58.023 6.043 59" transform="rotate(-180 13 54.5)"/>
    <polygon points="13 44.953 19.957 52 21 50.953 13 43 5 50.953 6.043 52" transform="rotate(-180 13 47.5)"/>
  </g>
</svg>
