<svg width="37" height="27" viewBox="0 0 37 27">
  <path fill="#FFF" fill-rule="evenodd" d="M3.87209302,0 C1.73442233,0 0,1.75558677 0,3.91933054 L0,23.0806477 C0,25.2443915 1.73442233,27 3.87209302,27 L33.127907,27 C35.2655777,27 37,25.2443915 37,23.0806477 L37,3.91933054 C37,1.75558677 35.2655777,0 33.127907,0 L3.87209302,0 Z M4.52595889,1.43548359 L32.4740411,1.43548359 C34.0749895,1.43548359 35.3510496,2.72711399 35.3510496,4.34758543 L35.3510496,22.6523938 C35.3510496,24.2728652 34.0749895,25.5645164 32.4740411,25.5645164 L4.52595889,25.5645164 C2.92501054,25.5645164 1.64895043,24.2728652 1.64895043,22.6523938 L1.64895043,4.34758543 C1.64895043,2.72711399 2.92501054,1.43548359 4.52595889,1.43548359 Z M14.3580747,6.0102745 C14.1434073,6.0638877 13.9928369,6.28660579 14.0004553,6.53925169 L14.0004553,20.4793515 C13.9998482,20.4949433 13.9998482,20.5105586 14.0004553,20.5261504 C14.0153339,20.7084281 14.1119901,20.868464 14.2552615,20.9480392 C14.3985329,21.0276144 14.5675374,21.0151305 14.7007933,20.9151291 L25.1760619,13.9450767 C25.3089786,13.8495796 25.3897404,13.6819849 25.3897404,13.5016569 C25.3897404,13.321329 25.3089786,13.1537343 25.1760619,13.0582371 L14.7007933,6.08818972 C14.6001283,6.01072971 14.4767545,5.98273511 14.3580747,6.01042385 L14.3580747,6.0102745 Z M15.4749273,8.17892617 L23.703125,13.4999652 L15.4749273,18.8210521 L15.4749273,8.17892617 Z"/>
</svg>
