<svg xmlns:xlink="http://www.w3.org/1999/xlink" width="373" height="110" viewBox="0 0 373 110">
  <defs>
    <filter id="logo-a" width="116.5%" height="118%" x="-8.3%" y="-9%" filterUnits="objectBoundingBox">
      <feOffset in="SourceAlpha" result="shadowOffsetOuter1"/>
      <feGaussianBlur in="shadowOffsetOuter1" result="shadowBlurOuter1" stdDeviation="3"/>
      <feColorMatrix in="shadowBlurOuter1" result="shadowMatrixOuter1" values="0 0 0 0 0   0 0 0 0 0   0 0 0 0 0  0 0 0 0.5 0"/>
      <feMerge>
        <feMergeNode in="shadowMatrixOuter1"/>
        <feMergeNode in="SourceGraphic"/>
      </feMerge>
    </filter>
    <path id="logo-c" d="M13.64,14.635 C15.106674,15.9770067 15.84,17.8433214 15.84,20.234 C15.84,22.6246786 15.1250072,24.5166597 13.695,25.91 C12.2649929,27.3033403 10.083348,28 7.15,28 L1.892,28 L1.892,12.622 L7.326,12.622 C10.0686804,12.622 12.173326,13.2929933 13.64,14.635 Z M11.121,23.776 C11.9643375,22.983996 12.386,21.8326742 12.386,20.322 C12.386,18.8113258 11.9643375,17.6490041 11.121,16.835 C10.2776624,16.0209959 8.98334206,15.614 7.238,15.614 L5.324,15.614 L5.324,24.964 L7.502,24.964 C9.07134118,24.964 10.2776624,24.568004 11.121,23.776 Z M29.766,28 L28.336,24.678 L21.89,24.678 L20.46,28 L16.808,28 L23.452,12.622 L26.774,12.622 L33.418,28 L29.766,28 Z M25.124,17.198 L23.188,21.664 L27.038,21.664 L25.124,17.198 Z M46.398,12.622 L49.83,12.622 L49.83,28 L46.398,28 L39.072,18.364 L39.072,28 L35.64,28 L35.64,12.622 L38.852,12.622 L46.398,22.522 L46.398,12.622 Z M57.651,15.691 C57.3209983,15.9623347 57.156,16.3216644 57.156,16.769 C57.156,17.2163356 57.3576646,17.5719987 57.761,17.836 C58.1643353,18.1000013 59.0956594,18.4116649 60.555,18.771 C62.0143406,19.1303351 63.1473293,19.6693297 63.954,20.388 C64.7606707,21.1066703 65.164,22.1553264 65.164,23.534 C65.164,24.9126736 64.6470052,26.0309957 63.613,26.889 C62.5789948,27.7470043 61.2186751,28.176 59.532,28.176 C57.0973212,28.176 54.9046764,27.274009 52.954,25.47 L55,22.962 C56.6573416,24.4140073 58.189993,25.14 59.598,25.14 C60.2286698,25.14 60.7236649,25.0043347 61.083,24.733 C61.4423351,24.4616653 61.622,24.0950023 61.622,23.633 C61.622,23.1709977 61.4313352,22.8043347 61.05,22.533 C60.6686648,22.2616653 59.913339,21.9866681 58.784,21.708 C56.9946577,21.2826645 55.6856708,20.7290034 54.857,20.047 C54.0283292,19.3649966 53.614,18.2943406 53.614,16.835 C53.614,15.3756594 54.1383281,14.250004 55.187,13.458 C56.2356719,12.665996 57.5446588,12.27 59.114,12.27 C60.1406718,12.27 61.1673282,12.4459982 62.194,12.798 C63.2206718,13.1500018 64.1153295,13.6486634 64.878,14.294 L63.14,16.802 C61.8053267,15.7899949 60.4266738,15.284 59.004,15.284 C58.4319971,15.284 57.9810016,15.4196653 57.651,15.691 Z M79.618,12.622 L79.618,15.68 L71.962,15.68 L71.962,18.848 L78.848,18.848 L78.848,21.774 L71.962,21.774 L71.962,24.964 L79.86,24.964 L79.86,28 L68.53,28 L68.53,12.622 L79.618,12.622 Z M101.354,14.635 C102.820674,15.9770067 103.554,17.8433214 103.554,20.234 C103.554,22.6246786 102.839007,24.5166597 101.409,25.91 C99.9789928,27.3033403 97.797348,28 94.864,28 L89.606,28 L89.606,12.622 L95.04,12.622 C97.7826804,12.622 99.887326,13.2929933 101.354,14.635 Z M98.835,23.776 C99.6783375,22.983996 100.1,21.8326742 100.1,20.322 C100.1,18.8113258 99.6783375,17.6490041 98.835,16.835 C97.9916624,16.0209959 96.697342,15.614 94.952,15.614 L93.038,15.614 L93.038,24.964 L95.216,24.964 C96.7853412,24.964 97.9916624,24.568004 98.835,23.776 Z M118.052,12.622 L118.052,15.68 L110.396,15.68 L110.396,18.848 L117.282,18.848 L117.282,21.774 L110.396,21.774 L110.396,24.964 L118.294,24.964 L118.294,28 L106.964,28 L106.964,12.622 L118.052,12.622 Z M128.04,28 L128.04,12.622 L131.472,12.622 L131.472,24.942 L138.028,24.942 L138.028,28 L128.04,28 Z M140.976,12.622 L144.408,12.622 L144.408,28 L140.976,28 L140.976,12.622 Z M155.694,24.964 C157.380675,24.964 158.759328,24.2966733 159.83,22.962 L162.03,25.228 C160.284658,27.1933432 158.227678,28.176 155.859,28.176 C153.490321,28.176 151.539674,27.4280075 150.007,25.932 C148.474326,24.4359925 147.708,22.5476781 147.708,20.267 C147.708,17.9863219 148.488992,16.083341 150.051,14.558 C151.613008,13.032659 153.523322,12.27 155.782,12.27 C158.304679,12.27 160.416658,13.2306571 162.118,15.152 L159.984,17.572 C158.898661,16.2226599 157.549341,15.548 155.936,15.548 C154.645327,15.548 153.541671,15.9696625 152.625,16.813 C151.708329,17.6563376 151.25,18.7929929 151.25,20.223 C151.25,21.6530072 151.682662,22.8006623 152.548,23.666 C153.413338,24.5313377 154.461994,24.964 155.694,24.964 Z M175.296,16.714 C174.415996,15.7459952 173.33434,15.262 172.051,15.262 C170.76766,15.262 169.686004,15.7459952 168.806,16.714 C167.925996,17.6820048 167.486,18.8516598 167.486,20.223 C167.486,21.5943402 167.925996,22.7603285 168.806,23.721 C169.686004,24.6816715 170.76766,25.162 172.051,25.162 C173.33434,25.162 174.415996,24.6816715 175.296,23.721 C176.176004,22.7603285 176.616,21.5943402 176.616,20.223 C176.616,18.8516598 176.176004,17.6820048 175.296,16.714 Z M172.04,28.154 C169.766655,28.154 167.852674,27.3950076 166.298,25.877 C164.743326,24.3589924 163.966,22.470678 163.966,20.212 C163.966,17.953322 164.743326,16.0650076 166.298,14.547 C167.852674,13.0289924 169.766655,12.27 172.04,12.27 C174.313345,12.27 176.227326,13.0289924 177.782,14.547 C179.336674,16.0650076 180.114,17.953322 180.114,20.212 C180.114,22.470678 179.336674,24.3589924 177.782,25.877 C176.227326,27.3950076 174.313345,28.154 172.04,28.154 Z M195.932,17.726 C195.932,20.1900123 194.956676,21.7813297 193.006,22.5 L196.9,28 L192.676,28 L189.266,23.094 L186.89,23.094 L186.89,28 L183.458,28 L183.458,12.622 L189.288,12.622 C191.678679,12.622 193.383662,13.0253293 194.403,13.832 C195.422338,14.6386707 195.932,15.9366577 195.932,17.726 Z M191.796,19.552 C192.221335,19.1706648 192.434,18.5656708 192.434,17.737 C192.434,16.9083292 192.214002,16.3400015 191.774,16.032 C191.333998,15.7239985 190.564005,15.57 189.464,15.57 L186.89,15.57 L186.89,20.124 L189.398,20.124 C190.571339,20.124 191.370665,19.9333352 191.796,19.552 Z M210.65,12.622 L214.082,12.622 L214.082,28 L210.65,28 L203.324,18.364 L203.324,28 L199.892,28 L199.892,12.622 L203.104,12.622 L210.65,22.522 L210.65,12.622 Z M229.394,12.622 L229.394,15.68 L221.738,15.68 L221.738,18.848 L228.624,18.848 L228.624,21.774 L221.738,21.774 L221.738,24.964 L229.636,24.964 L229.636,28 L218.306,28 L218.306,12.622 L229.394,12.622 Z M13.64,41.785 C15.106674,43.1270067 15.84,44.9933214 15.84,47.384 C15.84,49.7746786 15.1250072,51.6666597 13.695,53.06 C12.2649929,54.4533403 10.083348,55.15 7.15,55.15 L1.892,55.15 L1.892,39.772 L7.326,39.772 C10.0686804,39.772 12.173326,40.4429933 13.64,41.785 Z M11.121,50.926 C11.9643375,50.133996 12.386,48.9826742 12.386,47.472 C12.386,45.9613258 11.9643375,44.7990041 11.121,43.985 C10.2776624,43.1709959 8.98334206,42.764 7.238,42.764 L5.324,42.764 L5.324,52.114 L7.502,52.114 C9.07134118,52.114 10.2776624,51.718004 11.121,50.926 Z M29.766,55.15 L28.336,51.828 L21.89,51.828 L20.46,55.15 L16.808,55.15 L23.452,39.772 L26.774,39.772 L33.418,55.15 L29.766,55.15 Z M25.124,44.348 L23.188,48.814 L27.038,48.814 L25.124,44.348 Z M46.398,39.772 L49.83,39.772 L49.83,55.15 L46.398,55.15 L39.072,45.514 L39.072,55.15 L35.64,55.15 L35.64,39.772 L38.852,39.772 L46.398,49.672 L46.398,39.772 Z M57.651,42.841 C57.3209983,43.1123347 57.156,43.4716644 57.156,43.919 C57.156,44.3663356 57.3576646,44.7219987 57.761,44.986 C58.1643353,45.2500013 59.0956594,45.5616649 60.555,45.921 C62.0143406,46.2803351 63.1473293,46.8193297 63.954,47.538 C64.7606707,48.2566703 65.164,49.3053264 65.164,50.684 C65.164,52.0626736 64.6470052,53.1809957 63.613,54.039 C62.5789948,54.8970043 61.2186751,55.326 59.532,55.326 C57.0973212,55.326 54.9046764,54.424009 52.954,52.62 L55,50.112 C56.6573416,51.5640073 58.189993,52.29 59.598,52.29 C60.2286698,52.29 60.7236649,52.1543347 61.083,51.883 C61.4423351,51.6116653 61.622,51.2450023 61.622,50.783 C61.622,50.3209977 61.4313352,49.9543347 61.05,49.683 C60.6686648,49.4116653 59.913339,49.1366681 58.784,48.858 C56.9946577,48.4326645 55.6856708,47.8790034 54.857,47.197 C54.0283292,46.5149966 53.614,45.4443406 53.614,43.985 C53.614,42.5256594 54.1383281,41.400004 55.187,40.608 C56.2356719,39.815996 57.5446588,39.42 59.114,39.42 C60.1406718,39.42 61.1673282,39.5959982 62.194,39.948 C63.2206718,40.3000018 64.1153295,40.7986634 64.878,41.444 L63.14,43.952 C61.8053267,42.9399949 60.4266738,42.434 59.004,42.434 C58.4319971,42.434 57.9810016,42.5696653 57.651,42.841 Z M79.618,39.772 L79.618,42.83 L71.962,42.83 L71.962,45.998 L78.848,45.998 L78.848,48.924 L71.962,48.924 L71.962,52.114 L79.86,52.114 L79.86,55.15 L68.53,55.15 L68.53,39.772 L79.618,39.772 Z M101.354,41.785 C102.820674,43.1270067 103.554,44.9933214 103.554,47.384 C103.554,49.7746786 102.839007,51.6666597 101.409,53.06 C99.9789928,54.4533403 97.797348,55.15 94.864,55.15 L89.606,55.15 L89.606,39.772 L95.04,39.772 C97.7826804,39.772 99.887326,40.4429933 101.354,41.785 Z M98.835,50.926 C99.6783375,50.133996 100.1,48.9826742 100.1,47.472 C100.1,45.9613258 99.6783375,44.7990041 98.835,43.985 C97.9916624,43.1709959 96.697342,42.764 94.952,42.764 L93.038,42.764 L93.038,52.114 L95.216,52.114 C96.7853412,52.114 97.9916624,51.718004 98.835,50.926 Z M118.052,39.772 L118.052,42.83 L110.396,42.83 L110.396,45.998 L117.282,45.998 L117.282,48.924 L110.396,48.924 L110.396,52.114 L118.294,52.114 L118.294,55.15 L106.964,55.15 L106.964,39.772 L118.052,39.772 Z M139.788,41.785 C141.254674,43.1270067 141.988,44.9933214 141.988,47.384 C141.988,49.7746786 141.273007,51.6666597 139.843,53.06 C138.412993,54.4533403 136.231348,55.15 133.298,55.15 L128.04,55.15 L128.04,39.772 L133.474,39.772 C136.21668,39.772 138.321326,40.4429933 139.788,41.785 Z M137.269,50.926 C138.112338,50.133996 138.534,48.9826742 138.534,47.472 C138.534,45.9613258 138.112338,44.7990041 137.269,43.985 C136.425662,43.1709959 135.131342,42.764 133.386,42.764 L131.472,42.764 L131.472,52.114 L133.65,52.114 C135.219341,52.114 136.425662,51.718004 137.269,50.926 Z M157.872,44.876 C157.872,47.3400123 156.896676,48.9313297 154.946,49.65 L158.84,55.15 L154.616,55.15 L151.206,50.244 L148.83,50.244 L148.83,55.15 L145.398,55.15 L145.398,39.772 L151.228,39.772 C153.618679,39.772 155.323662,40.1753293 156.343,40.982 C157.362338,41.7886707 157.872,43.0866577 157.872,44.876 Z M153.736,46.702 C154.161335,46.3206648 154.374,45.7156708 154.374,44.887 C154.374,44.0583292 154.154002,43.4900015 153.714,43.182 C153.273998,42.8739985 152.504005,42.72 151.404,42.72 L148.83,42.72 L148.83,47.274 L151.338,47.274 C152.511339,47.274 153.310665,47.0833352 153.736,46.702 Z M172.788,55.15 L171.358,51.828 L164.912,51.828 L163.482,55.15 L159.83,55.15 L166.474,39.772 L169.796,39.772 L176.44,55.15 L172.788,55.15 Z M168.146,44.348 L166.21,48.814 L170.06,48.814 L168.146,44.348 Z M188.65,47.318 L192.104,47.318 L192.104,52.774 C190.578659,54.4753418 188.46668,55.326 185.768,55.326 C183.509322,55.326 181.613674,54.5780075 180.081,53.082 C178.548326,51.5859925 177.782,49.6976781 177.782,47.417 C177.782,45.1363219 178.562992,43.233341 180.125,41.708 C181.687008,40.182659 183.571656,39.42 185.779,39.42 C187.986344,39.42 189.903992,40.1459927 191.532,41.598 L189.75,44.172 C189.060663,43.5706637 188.426336,43.1563345 187.847,42.929 C187.267664,42.7016655 186.64067,42.588 185.966,42.588 C184.66066,42.588 183.560671,43.0316622 182.666,43.919 C181.771329,44.8063378 181.324,45.9759927 181.324,47.428 C181.324,48.8800073 181.752996,50.042329 182.611,50.915 C183.469004,51.787671 184.491994,52.224 185.68,52.224 C186.868006,52.224 187.857996,51.9966689 188.65,51.542 L188.65,47.318 Z M206.052,43.864 C205.171996,42.8959952 204.09034,42.412 202.807,42.412 C201.52366,42.412 200.442004,42.8959952 199.562,43.864 C198.681996,44.8320048 198.242,46.0016598 198.242,47.373 C198.242,48.7443402 198.681996,49.9103285 199.562,50.871 C200.442004,51.8316715 201.52366,52.312 202.807,52.312 C204.09034,52.312 205.171996,51.8316715 206.052,50.871 C206.932004,49.9103285 207.372,48.7443402 207.372,47.373 C207.372,46.0016598 206.932004,44.8320048 206.052,43.864 Z M202.796,55.304 C200.522655,55.304 198.608674,54.5450076 197.054,53.027 C195.499326,51.5089924 194.722,49.620678 194.722,47.362 C194.722,45.103322 195.499326,43.2150076 197.054,41.697 C198.608674,40.1789924 200.522655,39.42 202.796,39.42 C205.069345,39.42 206.983326,40.1789924 208.538,41.697 C210.092674,43.2150076 210.87,45.103322 210.87,47.362 C210.87,49.620678 210.092674,51.5089924 208.538,53.027 C206.983326,54.5450076 205.069345,55.304 202.796,55.304 Z M224.972,39.772 L228.404,39.772 L228.404,55.15 L224.972,55.15 L217.646,45.514 L217.646,55.15 L214.214,55.15 L214.214,39.772 L217.426,39.772 L224.972,49.672 L224.972,39.772 Z"/>
    <filter id="logo-b" width="107.9%" height="141.8%" x="-4%" y="-20.9%" filterUnits="objectBoundingBox">
      <feOffset in="SourceAlpha" result="shadowOffsetOuter1"/>
      <feGaussianBlur in="shadowOffsetOuter1" result="shadowBlurOuter1" stdDeviation="3"/>
      <feColorMatrix in="shadowBlurOuter1" values="0 0 0 0 0   0 0 0 0 0   0 0 0 0 0  0 0 0 0.5 0"/>
    </filter>
    <path id="logo-e" d="M8.96799989,81.3752001 L8.96799989,83.4880001 L3.67839995,83.4880001 L3.67839995,85.6768001 L8.43599989,85.6768001 L8.43599989,87.6984001 L3.67839995,87.6984001 L3.67839995,89.9024 L9.13519989,89.9024 L9.13519989,92 L1.30719998,92 L1.30719998,81.3752001 L8.96799989,81.3752001 Z M6.00399992,80.2808001 L3.83039995,80.2808001 L5.76079993,77.5904002 L8.1167999,78.5784002 L6.00399992,80.2808001 Z M15.2455998,90.1 C16.0056036,90.1 16.6895968,89.7200038 17.2975998,88.96 L18.6503998,90.48 C17.5965279,91.5744055 16.4565393,92.1216 15.2303998,92.1216 C14.0042604,92.1216 12.9681374,91.7340039 12.1219999,90.9588 C11.2758623,90.1835961 10.8527999,89.170273 10.8527999,87.9188001 C10.8527999,86.6673271 11.2809289,85.6489373 12.1371999,84.8636001 C12.9934708,84.0782628 14.0093273,83.6856001 15.1847998,83.6856001 C15.7725361,83.6856001 16.3678635,83.8071989 16.9707998,84.0504001 C17.5737362,84.2936013 18.1031975,84.653331 18.5591998,85.1296001 L17.3735998,86.6800001 C17.1101318,86.3658652 16.7884017,86.1226676 16.4083998,85.9504001 C16.0283979,85.7781326 15.650935,85.6920001 15.2759998,85.6920001 C14.6781302,85.6920001 14.1638687,85.8870648 13.7331999,86.2772001 C13.302531,86.6673354 13.0871999,87.2094633 13.0871999,87.9036001 C13.0871999,88.5977368 13.302531,89.1373314 13.7331999,89.5224 C14.1638687,89.9074686 14.667997,90.1 15.2455998,90.1 Z M22.7315998,89.5452 C23.1116017,89.9657355 23.5979968,90.176 24.1907997,90.176 C24.7836027,90.176 25.2699978,89.9657355 25.6499997,89.5452 C26.0300016,89.1246646 26.2199997,88.5800034 26.2199997,87.9112001 C26.2199997,87.2423967 26.0300016,86.6952022 25.6499997,86.2696001 C25.2699978,85.8439979 24.7836027,85.6312001 24.1907997,85.6312001 C23.5979968,85.6312001 23.1116017,85.8439979 22.7315998,86.2696001 C22.3515979,86.6952022 22.1615998,87.2423967 22.1615998,87.9112001 C22.1615998,88.5800034 22.3515979,89.1246646 22.7315998,89.5452 Z M27.2839997,90.9056 C26.4631956,91.7162707 25.4321393,92.1216 24.1907997,92.1216 C22.9494602,92.1216 21.9184039,91.7162707 21.0975998,90.9056 C20.2767957,90.0949293 19.8663998,89.096806 19.8663998,87.9112001 C19.8663998,86.7255941 20.2767957,85.7249375 21.0975998,84.9092001 C21.9184039,84.0934627 22.9494602,83.6856001 24.1907997,83.6856001 C25.4321393,83.6856001 26.4631956,84.0934627 27.2839997,84.9092001 C28.1048038,85.7249375 28.5151997,86.7255941 28.5151997,87.9112001 C28.5151997,89.096806 28.1048038,90.0949293 27.2839997,90.9056 Z M32.7863997,92 L30.5063997,92 L30.5063997,80.7216001 L32.7863997,80.7216001 L32.7863997,92 Z M42.3319996,90.8144 C41.4098616,91.685871 40.3281391,92.1216 39.0867996,92.1216 C37.8454601,92.1216 36.8194704,91.7390705 36.0087996,90.974 C35.1981289,90.2089295 34.7927997,89.1829398 34.7927997,87.8960001 C34.7927997,86.6090603 35.2057289,85.5856039 36.0315996,84.8256001 C36.8574704,84.0655963 37.832794,83.6856001 38.9575996,83.6856001 C40.0824052,83.6856001 41.0374623,84.0250634 41.8227996,84.7040001 C42.6081368,85.3829368 43.0007996,86.3151941 43.0007996,87.5008001 L43.0007996,88.7168 L37.0423996,88.7168 C37.1133333,89.1626689 37.3463977,89.5274653 37.7415996,89.8112 C38.1368016,90.0949348 38.5826638,90.2368 39.0791996,90.2368 C39.8797369,90.2368 40.538397,89.9682694 41.0551996,89.4312 L42.3319996,90.8144 Z M40.1431996,85.9656001 C39.8290647,85.7021321 39.4465352,85.5704001 38.9955996,85.5704001 C38.544664,85.5704001 38.1317348,85.7071987 37.7567996,85.9808001 C37.3818644,86.2544014 37.1639999,86.6242644 37.1031996,87.0904001 L40.6903996,87.0904001 C40.6397327,86.6039976 40.4573345,86.2290681 40.1431996,85.9656001 Z M49.4911995,81.3752001 L51.8623995,81.3752001 L51.8623995,85.7376001 L55.8751994,81.3752001 L58.8087994,81.3752001 L54.5831995,86.0720001 C54.9480013,86.5786693 55.6218612,87.5235931 56.6047994,88.9068 C57.5877377,90.2900069 58.322397,91.3210633 58.8087994,92 L56.0423994,92 L52.9263995,87.8048001 L51.8623995,88.9904 L51.8623995,92 L49.4911995,92 L49.4911995,81.3752001 Z M65.2687993,88.2304 L65.2687993,83.8224001 L67.5639993,83.8224001 L67.5639993,92 L65.2687993,92 L65.2687993,90.9208 C64.7013299,91.7213373 63.9692038,92.1216 63.0723994,92.1216 C62.1755949,92.1216 61.4232024,91.8404028 60.8151994,91.278 C60.2071964,90.7155972 59.9031994,89.8821389 59.9031994,88.7776 L59.9031994,83.8224001 L62.1983994,83.8224001 L62.1983994,88.276 C62.1983994,89.5325396 62.6594614,90.1608 63.5815994,90.1608 C64.0376016,90.1608 64.4327977,89.996135 64.7671994,89.6668 C65.101601,89.3374651 65.2687993,88.8586698 65.2687993,88.2304 Z M72.3063993,87.4400001 L72.3063993,92 L70.0263993,92 L70.0263993,83.8224001 L72.3063993,83.8224001 L72.3063993,84.7344001 C72.9954694,84.0351966 73.7706616,83.6856001 74.6319993,83.6856001 C75.4933369,83.6856001 76.2153297,83.9895971 76.7979992,84.5976001 C77.3806688,85.2056031 77.6719992,86.0162617 77.6719992,87.0296001 L77.6719992,92 L75.3919992,92 L75.3919992,87.3792001 C75.3919992,86.1226605 74.9309372,85.4944001 74.0087993,85.4944001 C73.552797,85.4944001 73.1550676,85.6590651 72.8155993,85.9884001 C72.4761309,86.3177351 72.3063993,86.8015969 72.3063993,87.4400001 Z M85.2263991,86.1936001 C84.8615973,85.8186649 84.4106685,85.6312001 83.8735992,85.6312001 C83.3365298,85.6312001 82.8729345,85.8186649 82.4827992,86.1936001 C82.0926639,86.5685353 81.8975992,87.0802635 81.8975992,87.7288001 C81.8975992,88.3773366 82.0875973,88.9017314 82.4675992,89.302 C82.8476011,89.7022687 83.3111964,89.9024 83.8583992,89.9024 C84.4056019,89.9024 84.8615973,89.704802 85.2263991,89.3096 C85.591201,88.9143981 85.7735991,88.3900033 85.7735991,87.7364001 C85.7735991,87.0827968 85.591201,86.5685353 85.2263991,86.1936001 Z M86.0927991,90.6168 C85.3733289,91.4173373 84.4790712,91.8176 83.4099992,91.8176 C82.3409272,91.8176 81.4390695,91.455337 80.7043992,90.7308 C79.9697289,90.0062631 79.6023992,89.0385394 79.6023992,87.8276001 C79.6023992,86.6166607 79.9798621,85.623604 80.7347992,84.8484001 C81.4897363,84.0731962 82.3535943,83.6856001 83.3263992,83.6856001 C84.299204,83.6856001 85.104796,84.0858628 85.7431991,84.8864001 L85.7431991,83.8072001 L88.0231991,83.8072001 L88.0231991,90.936 C88.0231991,91.6656037 87.8965337,92.3141305 87.6431991,92.8816 C87.3898645,93.4490695 87.0504013,93.8949317 86.6247991,94.2192 C85.7837283,94.8880033 84.7906715,95.2224 83.6455992,95.2224 C83.0375961,95.2224 82.4169357,95.1236009 81.7835992,94.926 C81.1502627,94.728399 80.5954683,94.4472018 80.1191992,94.0824 L81.0007992,92.3648 C81.7506696,92.9322695 82.543595,93.216 83.3795992,93.216 C84.2156033,93.216 84.8767967,93.0082687 85.3631991,92.5928 C85.8496016,92.1773313 86.0927991,91.5186712 86.0927991,90.6168 Z M90.4247991,88.4432 L90.4247991,86.4216001 L95.835999,86.4216001 L95.835999,88.4432 L90.4247991,88.4432 Z M105.761599,81.3752001 L105.761599,83.4576001 L100.836799,83.4576001 L100.836799,85.7528001 L105.518399,85.7528001 L105.518399,87.8352001 L100.836799,87.8352001 L100.836799,92 L98.465599,92 L98.465599,81.3752001 L105.761599,81.3752001 Z M112.996799,88.2304 L112.996799,83.8224001 L115.291999,83.8224001 L115.291999,92 L112.996799,92 L112.996799,90.9208 C112.429329,91.7213373 111.697203,92.1216 110.800399,92.1216 C109.903594,92.1216 109.151202,91.8404028 108.543199,91.278 C107.935196,90.7155972 107.631199,89.8821389 107.631199,88.7776 L107.631199,83.8224001 L109.926399,83.8224001 L109.926399,88.276 C109.926399,89.5325396 110.387461,90.1608 111.309599,90.1608 C111.765601,90.1608 112.160797,89.996135 112.495199,89.6668 C112.829601,89.3374651 112.996799,88.8586698 112.996799,88.2304 Z M124.784399,83.4956001 C124.556398,83.6830677 124.442399,83.9313319 124.442399,84.2404001 C124.442399,84.5494683 124.581731,84.7951992 124.860399,84.9776001 C125.139067,85.160001 125.782527,85.3753322 126.790799,85.6236001 C127.79907,85.871868 128.581863,86.2442643 129.139199,86.7408001 C129.696535,87.2373359 129.975199,87.961862 129.975199,88.9144 C129.975199,89.8669381 129.618002,90.6395971 128.903599,91.2324 C128.189195,91.825203 127.249338,92.1216 126.083999,92.1216 C124.401857,92.1216 122.886939,91.4984062 121.539199,90.252 L122.952799,88.5192 C124.097871,89.522405 125.156794,90.024 126.129599,90.024 C126.565334,90.024 126.907331,89.9302676 127.155599,89.7428 C127.403867,89.5553324 127.527999,89.3020016 127.527999,88.9828 C127.527999,88.6635984 127.396267,88.4102676 127.132799,88.2228 C126.869331,88.0353324 126.347469,87.8453343 125.567199,87.6528001 C124.330926,87.3589319 123.426535,86.9764024 122.853999,86.5052001 C122.281463,86.0339977 121.995199,85.2942718 121.995199,84.2860001 C121.995199,83.2777284 122.357462,82.5000029 123.081999,81.9528001 C123.806536,81.4055974 124.710927,81.1320001 125.795199,81.1320001 C126.504536,81.1320001 127.213862,81.2535989 127.923199,81.4968001 C128.632536,81.7400013 129.250663,82.0845312 129.777599,82.5304001 L128.576799,84.2632001 C127.654661,83.5639966 126.702137,83.2144001 125.719199,83.2144001 C125.323997,83.2144001 125.0124,83.3081325 124.784399,83.4956001 Z M134.352799,87.5920001 L134.352799,92 L132.072799,92 L132.072799,80.7216001 L134.352799,80.7216001 L134.352799,84.7344001 C135.041869,84.0351966 135.814528,83.6856001 136.670799,83.6856001 C137.52707,83.6856001 138.249062,83.9895971 138.836799,84.5976001 C139.424535,85.2056031 139.718399,86.0162617 139.718399,87.0296001 L139.718399,92 L137.438399,92 L137.438399,87.5312001 C137.438399,86.2746605 136.977337,85.6464001 136.055199,85.6464001 C135.599196,85.6464001 135.201467,85.8110651 134.861999,86.1404001 C134.52253,86.469735 134.352799,86.9535969 134.352799,87.5920001 Z M149.035999,92 L146.892799,92 L146.892799,91.012 C146.305062,91.751737 145.578003,92.1216 144.711599,92.1216 C143.845194,92.1216 143.118135,91.8708025 142.530399,91.3692 C141.942662,90.8675975 141.648799,90.1988042 141.648799,89.3628 C141.648799,88.5267959 141.952796,87.9010688 142.560799,87.4856001 C143.168802,87.0701313 143.999727,86.8624001 145.053599,86.8624001 L146.755999,86.8624001 L146.755999,86.8168001 C146.755999,85.9453291 146.294936,85.5096001 145.372799,85.5096001 C144.977597,85.5096001 144.559601,85.5881326 144.118799,85.7452001 C143.677996,85.9022675 143.3056,86.0973322 143.001599,86.3304001 L141.983199,84.8560001 C143.057337,84.0757295 144.283458,83.6856001 145.661599,83.6856001 C146.65467,83.6856001 147.465329,83.9338643 148.093599,84.4304001 C148.721868,84.9269359 149.035999,85.7122614 149.035999,86.7864001 L149.035999,92 Z M146.740799,88.884 L146.740799,88.4888 L145.311999,88.4888 C144.399994,88.4888 143.943999,88.7725305 143.943999,89.34 C143.943999,89.6338682 144.052931,89.8593326 144.270799,90.0164 C144.488666,90.1734675 144.800263,90.252 145.205599,90.252 C145.610934,90.252 145.96813,90.1278679 146.277199,89.8796 C146.586267,89.6313321 146.740799,89.2994688 146.740799,88.884 Z M153.816398,89.5452 C154.1964,89.9657355 154.682796,90.176 155.275598,90.176 C155.868401,90.176 156.354797,89.9657355 156.734798,89.5452 C157.1148,89.1246646 157.304798,88.5800034 157.304798,87.9112001 C157.304798,87.2423967 157.1148,86.6952022 156.734798,86.2696001 C156.354797,85.8439979 155.868401,85.6312001 155.275598,85.6312001 C154.682796,85.6312001 154.1964,85.8439979 153.816398,86.2696001 C153.436397,86.6952022 153.246398,87.2423967 153.246398,87.9112001 C153.246398,88.5800034 153.436397,89.1246646 153.816398,89.5452 Z M158.368798,90.9056 C157.547994,91.7162707 156.516938,92.1216 155.275598,92.1216 C154.034259,92.1216 153.003203,91.7162707 152.182398,90.9056 C151.361594,90.0949293 150.951199,89.096806 150.951199,87.9112001 C150.951199,86.7255941 151.361594,85.7249375 152.182398,84.9092001 C153.003203,84.0934627 154.034259,83.6856001 155.275598,83.6856001 C156.516938,83.6856001 157.547994,84.0934627 158.368798,84.9092001 C159.189603,85.7249375 159.599998,86.7255941 159.599998,87.9112001 C159.599998,89.096806 159.189603,90.0949293 158.368798,90.9056 Z M163.871198,92 L161.591198,92 L161.591198,80.7216001 L163.871198,80.7216001 L163.871198,92 Z M168.613598,92 L166.333598,92 L166.333598,83.8224001 L168.613598,83.8224001 L168.613598,92 Z M166.135998,81.8312001 C166.135998,81.4562649 166.265197,81.1396014 166.523598,80.8812001 C166.782,80.6227989 167.098663,80.4936001 167.473598,80.4936001 C167.848534,80.4936001 168.165197,80.6227989 168.423598,80.8812001 C168.682,81.1396014 168.811198,81.4562649 168.811198,81.8312001 C168.811198,82.2061353 168.682,82.5227988 168.423598,82.7812001 C168.165197,83.0396014 167.848534,83.1688001 167.473598,83.1688001 C167.098663,83.1688001 166.782,83.0396014 166.523598,82.7812001 C166.265197,82.5227988 166.135998,82.2061353 166.135998,81.8312001 Z M173.355998,87.4400001 L173.355998,92 L171.075998,92 L171.075998,83.8224001 L173.355998,83.8224001 L173.355998,84.7344001 C174.045068,84.0351966 174.820261,83.6856001 175.681598,83.6856001 C176.542936,83.6856001 177.264929,83.9895971 177.847598,84.5976001 C178.430268,85.2056031 178.721598,86.0162617 178.721598,87.0296001 L178.721598,92 L176.441598,92 L176.441598,87.3792001 C176.441598,86.1226605 175.980536,85.4944001 175.058398,85.4944001 C174.602396,85.4944001 174.204667,85.6590651 173.865198,85.9884001 C173.52573,86.3177351 173.355998,86.8015969 173.355998,87.4400001 Z M189.559198,88.1392 L192.264798,81.3752001 L194.833598,81.3752001 L190.562398,92 L188.555998,92 L184.284798,81.3752001 L186.853598,81.3752001 L189.559198,88.1392 Z M201.080798,88.2304 L201.080798,83.8224001 L203.375998,83.8224001 L203.375998,92 L201.080798,92 L201.080798,90.9208 C200.513329,91.7213373 199.781203,92.1216 198.884398,92.1216 C197.987594,92.1216 197.235201,91.8404028 196.627198,91.278 C196.019195,90.7155972 195.715198,89.8821389 195.715198,88.7776 L195.715198,83.8224001 L198.010398,83.8224001 L198.010398,88.276 C198.010398,89.5325396 198.47146,90.1608 199.393598,90.1608 C199.8496,90.1608 200.244796,89.996135 200.579198,89.6668 C200.9136,89.3374651 201.080798,88.8586698 201.080798,88.2304 Z M215.034398,92 L210.383198,92 L210.383198,81.3752001 L214.517598,81.3752001 C215.237068,81.3752001 215.857729,81.4613326 216.379598,81.6336001 C216.901467,81.8058677 217.29413,82.038932 217.557598,82.3328001 C218.033867,82.8800029 218.271998,83.49813 218.271998,84.1872001 C218.271998,85.0181376 218.003467,85.6362647 217.466398,86.0416001 C217.283997,86.1834674 217.157332,86.2721332 217.086398,86.3076001 C217.015464,86.3430669 216.888799,86.401333 216.706398,86.4824001 C217.365068,86.6242674 217.889463,86.9206645 218.279598,87.3716001 C218.669733,87.8225356 218.864798,88.3823967 218.864798,89.0512 C218.864798,89.7909371 218.611467,90.4445305 218.104798,91.012 C217.517062,91.67067 216.493605,92 215.034398,92 Z M212.754398,85.6768001 L213.879198,85.6768001 C214.537868,85.6768001 215.026796,85.6058675 215.345998,85.4640001 C215.665199,85.3221327 215.824798,85.0156024 215.824798,84.5444001 C215.824798,84.0731977 215.677866,83.7616009 215.383998,83.6096001 C215.09013,83.4575993 214.593601,83.3816001 213.894398,83.3816001 L212.754398,83.3816001 L212.754398,85.6768001 Z M212.754398,89.9936 L214.380798,89.9936 C215.059735,89.9936 215.56893,89.9100009 215.908398,89.7428 C216.247866,89.5755992 216.417598,89.2462692 216.417598,88.7548 C216.417598,88.2633309 216.237733,87.9390675 215.877998,87.7820001 C215.518263,87.6249326 214.943202,87.5464001 214.152798,87.5464001 L212.754398,87.5464001 L212.754398,89.9936 Z M227.878398,92 L225.735198,92 L225.735198,91.012 C225.147462,91.751737 224.420402,92.1216 223.553998,92.1216 C222.687593,92.1216 221.960534,91.8708025 221.372798,91.3692 C220.785062,90.8675975 220.491198,90.1988042 220.491198,89.3628 C220.491198,88.5267959 220.795195,87.9010688 221.403198,87.4856001 C222.011201,87.0701313 222.842126,86.8624001 223.895998,86.8624001 L225.598398,86.8624001 L225.598398,86.8168001 C225.598398,85.9453291 225.137336,85.5096001 224.215198,85.5096001 C223.819996,85.5096001 223.402,85.5881326 222.961198,85.7452001 C222.520396,85.9022675 222.147999,86.0973322 221.843998,86.3304001 L220.825598,84.8560001 C221.899737,84.0757295 223.125858,83.6856001 224.503998,83.6856001 C225.497069,83.6856001 226.307728,83.9338643 226.935998,84.4304001 C227.564268,84.9269359 227.878398,85.7122614 227.878398,86.7864001 L227.878398,92 Z M225.583198,88.884 L225.583198,88.4888 L224.154398,88.4888 C223.242393,88.4888 222.786398,88.7725305 222.786398,89.34 C222.786398,89.6338682 222.89533,89.8593326 223.113198,90.0164 C223.331066,90.1734675 223.642662,90.252 224.047998,90.252 C224.453333,90.252 224.81053,90.1278679 225.119598,89.8796 C225.428666,89.6313321 225.583198,89.2994688 225.583198,88.884 Z"/>
    <filter id="logo-d" width="107.9%" height="202.1%" x="-4%" y="-51%" filterUnits="objectBoundingBox">
      <feOffset in="SourceAlpha" result="shadowOffsetOuter1"/>
      <feGaussianBlur in="shadowOffsetOuter1" result="shadowBlurOuter1" stdDeviation="3"/>
      <feColorMatrix in="shadowBlurOuter1" values="0 0 0 0 0   0 0 0 0 0   0 0 0 0 0  0 0 0 0.5 0"/>
    </filter>
    <path id="logo-g" d="M0.5,68.5 L227.5,68.5"/>
    <filter id="logo-f" width="108.3%" height="733.3%" x="-4.2%" y="-316.7%" filterUnits="objectBoundingBox">
      <feMorphology in="SourceAlpha" operator="dilate" radius=".5" result="shadowSpreadOuter1"/>
      <feOffset in="shadowSpreadOuter1" result="shadowOffsetOuter1"/>
      <feMorphology in="SourceAlpha" radius="1" result="shadowInner"/>
      <feOffset in="shadowInner" result="shadowInner"/>
      <feComposite in="shadowOffsetOuter1" in2="shadowInner" operator="out" result="shadowOffsetOuter1"/>
      <feGaussianBlur in="shadowOffsetOuter1" result="shadowBlurOuter1" stdDeviation="3"/>
      <feColorMatrix in="shadowBlurOuter1" values="0 0 0 0 0   0 0 0 0 0   0 0 0 0 0  0 0 0 0.5 0"/>
    </filter>
  </defs>
  <g fill="none" fill-rule="evenodd" transform="translate(6 5)">
    <g fill="#FFF" fill-rule="nonzero" filter="url(#logo-a)" transform="translate(253)">
      <path d="M51.8376346,57.2297435 C51.431312,55.8203302 50.3227816,54.3512783 48.1807314,52.9047968 C49.3551251,53.9496243 50.8975875,55.4363042 51.4106882,57.3547867 C51.9771781,59.4721193 51.3100639,62.0869888 47.9841398,64.5893358 C50.3663577,62.9512532 52.6986792,60.22798 51.8376346,57.2297435 Z"/>
      <path d="M52.8440439 57.4051994C54.4031384 60.1737781 55.3899218 62.165079 52.3346022 64.4053131 50.4905996 65.7590418 49.5096374 66.9890453 48.9301745 68.8029133 49.3727551 66.4290692 50.5054022 65.4247695 52.1642894 63.9450091 53.8221786 62.4639307 54.7134937 61.1937288 52.8440439 57.4051994zM47.3961945 66.4707503C45.800842 69.6126464 44.4521438 72.1138403 49.8762093 72.6841955 45.9435456 71.6970295 45.7857068 70.424686 47.3961945 66.4707503zM48.6273037 58.3806683C49.4466017 62.644329 48.3059713 65.0313529 43.3036962 66.2320314 48.1858874 64.6603419 49.19712 61.8087306 48.6273037 58.3806683zM35.1211945 53.2428583C34.631545 57.0381424 34.0299614 56.366138 36.77925 59.6207214 37.4748051 60.4439637 37.2233275 60.9097044 36.5169616 61.7395367 35.8112609 62.5693689 34.2784452 63.8357816 32.7950268 65.2066441 36.0136738 61.7316288 37.5351797 60.7746116 36.4081876 59.8299505 35.2816944 58.8834771 33.3633462 56.7733934 34.8938335 52.954221 35.0841049 52.5606397 35.2288043 52.7375783 35.1211945 53.2428583zM40.8797318 67.0345156C39.4237564 64.4463352 38.9349385 62.8697033 40.9093369 61.0298052 42.8845669 59.1871064 44.922999 58.0556218 45.650654 56.4203399 46.3771448 54.7835753 45.0324383 53.4258926 44.8075721 53.3499441 45.6807582 54.3212943 46.0802616 55.8583868 44.6352634 57.2712598 45.0059933 55.5715617 45.0176357 54.2366142 43.5546749 53.5081015 44.9138513 54.5308529 45.0113155 57.0948154 43.1982486 58.3035665 43.6822432 56.8794907 44.2883175 54.8727036 41.773708 53.6163405 43.9924321 54.9939576 43.7020354 57.5918581 42.0483042 59.1190658 40.3932424 60.6457792 37.0041162 63.2776177 40.8797318 67.0345156z"/>
      <path d="M45.6815898 56.1168753C48.3615225 57.5381505 48.9353305 60.0942052 44.7385488 63.6515941 40.7727873 67.0134279 43.3484366 71.9980229 44.9923549 73.2326393 42.0100503 71.6139969 40.0747374 67.5103059 44.4872376 63.3362677 48.2058459 59.8203951 48.7473876 58.7950078 45.6815898 56.1168753zM32.041093 52.4487762C29.3618256 53.8741701 28.8109699 56.4063364 32.9922837 59.9831655 36.1964607 62.7217602 34.0657204 67.2135959 32.423798 68.4488713 35.4037741 66.8280872 36.6237398 62.918139 33.2437613 59.6680039 29.5552571 56.1201703 28.9772911 55.1297094 32.041093 52.4487762zM56.8031527 38.6098365C56.0951235 39.4617449 54.6744082 40.870005 53.5534036 41.2034536 53.9642169 40.2777384 55.2706696 38.7584386 55.7205683 38.4620581 55.1969893 38.9815065 54.9351998 39.9070569 54.7484211 40.1668634 55.3837679 39.9428071 56.2052281 39.0913929 56.8031527 38.6098365zM24.21219 37.9172388C26.3821821 39.6203966 28.7003663 41.025197 29.4862338 42.3576733 30.2721012 43.6914676 32.1423826 44.0605016 33.2628882 43.9483087 34.3845581 43.8369395 36.4785414 43.9092636 37.3019974 44.1321667 34.8331262 43.0590027 32.888333 42.4309859 31.7297398 42.1721678 30.5709804 41.913185 29.2984572 41.0611119 24.21219 37.9172388zM20.0371964 33.2341314C18.0932348 33.7280439 17.3951849 34.1237669 16.8978847 35.0623324 16.3995865 36.0008979 16.3505217 36.8402855 18.7929479 35.3573949 18.2449197 36.9870754 15.500787 42.7858516 16.7483619 46.438794 17.3371388 42.3402101 17.9284105 41.885178 19.1753202 40.51794 18.7828023 43.3814132 18.1940254 47.0882279 21.3463102 48.9735962 20.9473058 47.7892277 20.7540406 44.3557288 21.6072681 43.4438524 23.3536402 47.4916941 25.1565615 48.5814976 29.1188304 49.0286218 25.7458374 47.0839445 25.1164781 46.3498304 24.1696118 45.2641456 23.2225792 44.1779665 22.3938009 41.4772636 22.3928029 39.9953615 21.945399 41.0332696 20.4711283 42.1837001 20.6221479 42.9239099 20.0955752 40.5826857 19.9640151 40.2579687 20.8807773 37.3953192 19.765095 37.5905448 18.4027585 38.9007803 18.4528211 39.5423063 18.0519871 37.3701129 18.7937795 36.2465362 19.9392333 34.6165262 19.191786 34.7647988 18.094399 35.0618382 17.6958936 35.2598645 18.1933601 34.4690773 18.741222 33.8761517 20.0371964 33.2341314zM29.8767559 47.3516589C33.0621386 49.3324159 36.3672726 50.23276 37.6095252 49.57097 37.2055312 49.7859653 43.7605805 47.8002658 47.8783596 47.9902195 42.9577483 48.6052212 40.9000229 49.5765714 39.7936546 50.0044202 38.6879516 50.43161 33.9750754 50.6708231 29.8767559 47.3516589z"/>
      <path d="M47.471538 47.483951C51.3110619 47.9747332 55.1241406 47.069282 56.8414065 43.3799304 57.4388321 42.0965488 58.2855731 42.0472894 58.3861974 42.3416928 59.2326057 40.7126713 59.4308606 39.3296175 59.3817958 38.5890783 59.3299036 37.8488686 59.7793034 38.1455785 60.0289514 38.4899004 59.9772255 35.9717376 59.1782187 34.0468299 57.5836978 32.4680564 61.772995 37.008822 61.4752802 39.5268201 60.6781029 40.6128344 59.8819235 41.700661 59.930323 40.0207326 59.9299903 39.4782196 59.9296577 38.9340592 59.6296143 38.5394894 59.580217 39.3294528 59.5318175 40.1199104 59.8331914 42.9840426 57.7388755 44.7623252 55.6467217 46.5397841 51.75963 49.0604181 47.471538 47.483951zM14.754005 34.4216301C15.3534264 36.1493353 17.6732739 38.8146174 18.4701185 39.1101741L18.3458766 38.4188944C16.6999625 37.3337037 15.2533011 35.1621693 14.754005 34.4216301z"/>
      <path d="M47.1259227 43.7478112C45.6992198 43.928539 43.1593295 43.8950953 40.6202708 43.7514356 45.5304039 43.6504455 49.2688044 43.1791035 52.5090731 41.9929227 50.4666494 43.1039787 48.6134991 43.560823 47.1259227 43.7478112zM51.5956373 39.4521896C52.392981 39.9947025 53.0409682 40.3401776 54.8355734 39.4998015 53.43964 40.438367 52.8931087 40.487956 51.5956373 39.4521896zM18.0290348 29.567515C18.8899131 30.2708213 18.8523245 30.6049289 20.4589869 30.4182702 20.0859285 29.9377022 20.4213983 30.1232077 20.9823995 30.1963555 21.5437334 30.2693386 21.9918026 30.3808725 22.6286463 30.3065715 21.5803241 30.7512245 21.6561665 31.1952186 23.5630386 31.3799003 22.7031582 31.4911047 22.9090638 31.7878147 22.9463197 31.9734849 22.9840746 32.1580019 23.2641595 32.2311497 23.712395 32.4158315 24.161961 32.6018312 24.4606738 32.6576805 26.2180231 32.748621 24.7600519 32.8978821 24.9099073 32.9158396 25.2831319 33.1380837 25.6571882 33.3595041 25.9939885 33.9712109 27.9372849 33.7105807 29.8824108 33.4504446 31.0601309 32.9863514 32.0495754 32.6349454 31.3400494 33.4305102 29.8982113 33.6524249 29.3398712 33.9693987 28.9480185 34.1921371 29.4526369 34.2850546 30.4623726 34.1168475 31.6467456 33.9204687 29.5098514 35.4501476 28.9862724 35.6356531 28.4633587 35.8214881 26.8560311 36.2294025 27.4162007 35.3402612 27.9768693 34.4509551 28.3499277 33.6364444 27.2656801 34.2664381 26.1824304 34.8961024 24.7745218 35.0582137 25.4709085 34.3418924 25.9943212 33.8043219 25.7699539 33.8598417 25.432821 33.6380918 25.0958543 33.4166714 24.8350627 33.1199615 24.6481178 33.2319897 24.4611728 33.3431941 23.8263249 33.7504495 22.8916001 33.6030007 23.5267806 33.4542338 24.1985517 33.2680693 24.5365163 32.9356093 23.8630819 32.861473 22.9649477 32.4545471 22.7776701 32.3435074 22.5915567 32.2318087 22.1054 32.5664105 21.5814883 32.6036434 21.0594062 32.6413705 19.7133691 33.0482964 18.1418006 31.4205929 19.6756142 32.5303308 20.2327901 32.5474646 21.6383702 32.2148397 22.8150923 31.9365815 22.2727191 31.584187 22.0856078 31.5843517 21.8999934 31.5843517 21.1142922 31.39967 20.9271809 31.1408519 20.7402359 30.8825281 20.6838531 30.7708295 20.4217309 30.7709942 20.1607731 30.7708295 19.0386042 31.0490877 18.0290348 29.567515zM30.7055342 35.0791367C31.2479075 34.1684135 32.100137 32.8570248 32.1766448 33.6959181 32.250824 34.5359647 32.5986015 33.9674217 32.7986859 33.7199713 32.9981049 33.4726855 33.9700858 33.226553 33.6707077 33.9175033 33.3734918 34.6091125 32.2518219 36.0422495 31.1800484 36.6355046 30.1087739 37.227936 29.1366267 36.8827903 29.6843223 36.363342 30.2321842 35.8453764 30.3823722 35.6223086 30.7055342 35.0791367zM14.4744191 24.0522689C15.2967109 26.2002445 16.1229944 31.5319621 12.5352808 32.4978756 17.4706947 32.4192911 17.5408822 25.0883648 14.4744191 24.0522689z"/>
      <path d="M12.8300019 25.461188C12.2345722 30.7197578 11.8610149 30.8685246 12.0072112 26.2022215 10.589656 29.6838266 10.8896993 31.2393708 12.2347385 31.1647403 13.5801103 31.089286 15.4490611 29.9037643 12.8300019 25.461188zM43.3946739 30.0568146C41.7431049 31.0079008 41.5702972 33.7179943 43.2167103 33.9812605 44.1876932 34.1357935 44.7649939 31.8813911 44.6582157 31.0655624 46.1921957 30.9663845 47.2942397 33.7146993 44.5587557 34.3974122 41.8246022 35.0822669 40.0790617 33.476969 39.9764416 32.2543791 39.8739877 31.0309655 41.4937895 29.3398342 43.3946739 30.0568146z"/>
      <path d="M43.3946739 30.0568146C41.7431049 31.0079008 41.5702972 33.7179943 43.2167103 33.9812605 44.1876932 34.1357935 44.7649939 31.8813911 44.6582157 31.0655624 46.1921957 30.9663845 47.2942397 33.7146993 44.5587557 34.3974122 41.8246022 35.0822669 40.0790617 33.476969 39.9764416 32.2543791 39.8739877 31.0309655 41.4937895 29.3398342 43.3946739 30.0568146zM37.3143052 33.3087619C38.4677424 34.057209 38.6465376 35.2440487 36.9612054 35.7135786 35.2747089 36.1817905 34.0529137 34.396259 33.9463018 33.76643 34.3424788 35.84307 35.4591591 36.4058468 37.4796284 36.1981005 39.5007631 35.9915073 41.5391951 33.2651039 37.3143052 33.3087619zM56.0936266 28.832083C56.2684302 30.3606086 56.1056017 31.366391 55.0263438 31.5120277 53.9449236 31.6570053 53.5835078 30.462752 53.6533627 29.4261618 53.7225523 28.3877594 53.9414309 27.9004369 53.2904499 28.506707 52.6383047 29.1123182 51.7029145 30.5111877 52.2822111 31.2482672 52.8628382 31.9855115 53.8481247 32.2059434 54.7121631 32.212698 55.5753699 32.2179699 57.0250251 31.9848525 57.066439 30.6413381 57.1081857 29.2973294 56.3076819 29.0170942 56.0936266 28.832083zM50.7232829 30.1466019C52.9882444 32.1255467 53.9733646 33.3128806 53.3418431 34.9430554 53.2282458 35.2382826 53.2242541 35.7943048 53.6744854 35.5377932 54.1248831 35.2825996 54.3926602 34.3954353 54.5455093 34.0264013 54.6980258 33.6572025 55.7804439 33.8497921 55.7741237 34.8863823 55.7653087 35.9231372 55.2405654 36.0305524 55.0564479 35.6952916 54.8728294 35.3620078 54.7966543 35.472059 54.3103312 35.7272526 53.8205154 35.9834347 53.0727355 36.0526286 53.0012174 35.4961121 52.9313625 34.9395957 52.9143978 32.1621206 50.7232829 30.1466019zM44.2562175 34.9143893C44.4390044 35.9158883 44.6878209 37.1771938 45.3243319 37.1440796 46.0726108 37.1058582 46.0726108 36.4173791 46.0508227 34.9272396 46.903385 35.9704197 47.9009792 37.5327185 46.0298663 37.7419476 44.1597512 37.950353 43.5264003 37.5757176 43.4943003 36.8341899 43.4626993 36.0939802 43.8044892 35.42906 44.2562175 34.9143893z"/>
      <path d="M48.1720827 32.2893055C49.4619033 34.890501 50.4405369 37.7879121 47.7798974 40.026334 46.6878328 40.9441413 44.5735583 41.4627659 42.661364 39.4332436 41.9934182 38.7258186 42.0363291 38.2576067 42.4163729 37.0618707 42.5695547 36.581138 42.6532142 35.3598661 42.010383 36.3554342 41.3678843 37.3501785 40.0446333 39.378218 37.9095686 39.8432997 35.7751692 40.3095346 34.5069705 39.9301215 33.2878364 37.9587551 34.4672197 40.3375417 35.6930066 41.3462895 41.0122897 39.9770745 43.3179999 41.5490935 46.5955245 43.238742 50.0651501 39.375582 53.5324472 35.5120926 50.8614958 32.826876 50.2640702 32.5268712 49.6684741 32.226372 48.3244329 31.9561864 48.1720827 32.2893055zM47.8908337 11.8683808C47.1816403 13.3942705 47.4196458 14.9768332 47.4136583 15.8162209 49.1628578 15.1364734 49.2691371 14.298898 49.4278074 13.0649406 49.5863115 11.8324659 49.0860175 12.0749739 47.8908337 11.8683808zM45.947371 18.4712887C45.5345619 20.3444657 45.9751466 21.4840229 47.1708294 21.541355 48.3681754 21.5996756 49.4154997 21.4586519 49.2237314 20.3214011 49.0336263 19.1848093 48.5893825 18.5399883 47.7945337 18.2373475 48.0839325 19.4745999 47.9250958 20.7074041 47.326506 20.9011469 46.7259203 21.0935718 45.8810088 20.8415084 45.947371 18.4712887z"/>
      <path d="M42.824026 16.2274302C42.960742 17.9561238 42.7094308 18.2994572 42.355333 18.9395006 42.0014016 19.5780612 42.1984922 19.9751022 42.5958334 20.1260108 42.9943389 20.2770841 43.8315996 21.5177961 43.8731799 22.7522478 43.9139286 23.9866995 44.353349 25.1755162 45.3546024 24.541239 46.356521 23.9054791 47.6529944 23.9148697 48.200191 24.1165204 48.746556 24.3186654 50.4370442 25.0226307 50.4451939 23.9352983 50.4521794 22.8491193 50.4052769 22.5524093 50.157292 22.4021598 49.9093072 22.2522397 49.4602401 22.1500964 49.3572873 22.6931035 49.2535029 23.2351222 49.247349 24.0249209 48.7003187 23.8733533 48.1522905 23.7211268 46.7558581 23.8095961 46.0085772 23.8532542 45.2594667 23.8974065 44.9599223 23.9941131 44.5685686 22.9046391 44.1787118 21.816483 43.1939243 20.2291426 42.6478919 19.8296303 42.5519246 19.3360474 42.9539229 18.8451004 43.4557138 18.4530017 43.9565068 18.0617268 44.9604213 17.2300824 45.0168041 16.2420927 45.0745176 15.2552562 42.8802426 15.3880426 42.824026 16.2274302zM41.5283843 24.6359687L41.7688846 27.4524889C42.4093874 26.9752159 42.8624462 26.2748751 43.1262316 25.9069943 43.3906822 25.5377955 43.8392504 25.6893631 43.5328868 26.6144193 43.2271885 27.5366748 42.7684748 28.8673389 41.5716278 28.8955107 40.3749471 28.9248357 41.1258871 28.4109888 41.3144953 28.2268013 41.5041014 28.0434375 41.5523345 26.4514842 41.5283843 24.6359687zM35.7420713 10.4991658C38.0529374 11.4914389 39.934196 12.3252251 41.6709215 14.8926474 41.8786566 15.2012191 42.0328363 14.699893 42.2463927 14.3389316 42.459949 13.9784645 43.90844 13.5423783 44.4506469 13.4064618 44.9946834 13.2715337 45.3268268 12.994923 44.4884018 12.2916167 43.6516401 11.5878161 42.7222375 11.0510693 41.7921696 10.6540283 42.9304716 11.3314693 43.8271089 12.314846 43.9448643 12.7342927 44.0612891 13.1529157 42.8544628 13.5626422 42.009385 13.8354638 41.7381152 13.9458445 39.1067483 11.4158199 35.7420713 10.4991658z"/>
      <path d="M41.9155799,22.8249014 C41.9609856,19.7156252 39.3227994,14.3619962 33.6540756,12.4321461 C37.5275289,14.5341572 41.9844369,18.4918821 38.1202975,25.4265911 C34.6426885,20.3644002 31.7506963,17.3521601 25.5452541,17.0402934 C22.1063979,16.8669793 20.0722902,19.0001276 19.537235,20.6256894 C20.5609417,18.6330706 23.1302709,16.9496824 26.1268791,17.804721 C30.8262833,19.1734418 32.3446291,23.4029997 33.4478373,26.6020632 C33.8601475,27.7943396 34.4307954,28.955314 34.8387812,29.3283019 C35.2469333,29.7016193 34.9483868,29.7362163 35.4337119,29.813318 C35.919037,29.8910788 37.9760971,29.7948663 38.5745206,29.7993145 C39.1727778,29.8035979 40.1099975,29.3286314 39.7813469,28.4012687 C39.4511994,27.4729176 40.3855916,27.5160814 41.0317493,26.1513146 C41.2484658,25.6915048 41.8924613,24.4007095 41.9155799,22.8249014 Z"/>
      <path d="M32.6308678,26.7694465 C32.6260445,27.478519 32.082507,28.0485447 31.4173887,28.0449203 C30.7519378,28.0394836 30.2170489,27.4612205 30.2218723,26.7523128 C30.2266956,26.0438993 30.7702331,25.4723909 31.4363493,25.478157 C32.101135,25.4824404 32.6355248,26.0618568 32.6308678,26.7694465 Z"/>
      <path d="M32.9116179,27.1290899 C31.5990114,27.6379944 30.1754687,28.0352002 29.9587522,26.9967978 C29.7412041,25.9585602 29.6364218,24.9213111 30.4277778,24.1484814 C28.9984139,25.3232945 28.9889335,26.6562651 29.0942148,27.5094915 C27.8368269,25.6109433 28.3745432,23.7265635 29.7704766,21.9952339 C31.1665764,20.2652223 30.1152604,20.8874729 29.5506001,21.3644164 C28.9864387,21.8426779 26.5503328,22.6758051 26.8232658,26.2704269 C27.0953672,29.8638954 32.8166486,29.7950311 34.1736629,28.322849 C35.3856451,27.0083301 33.8860936,26.7287539 32.9116179,27.1290899 Z"/>
      <path d="M33.7947833,29.0983146 C30.6784238,30.7789021 28.3979945,30.7258534 26.1751123,28.0805057 C23.9505669,25.4358169 26.0355688,21.5614542 27.0133709,20.7543571 C24.6190116,21.0331095 21.8950037,25.3461944 25.4213448,28.890074 C28.9471869,32.4334594 32.9666703,29.7215538 33.7947833,29.0983146 Z"/>
      <path d="M24.5165577,19.5881108 C20.6151624,21.4120284 19.0751949,27.4373322 24.1100688,29.1767344 C21.2144176,26.415075 21.536249,23.3056341 24.5165577,19.5881108 Z"/>
      <path d="M20.5359936 27.0767003C18.6841739 24.7306984 18.0649602 22.4670702 20.9652685 19.5625749 20.279859 21.2235574 18.7337376 23.064444 20.5359936 27.0767003zM35.8621552 20.6701712C31.2054956 16.6860867 31.0143926 15.5984249 19.8464261 15.8142439 31.4767654 13.6754942 31.5093643 16.0951381 35.8621552 20.6701712z"/>
      <path d="M18.8157339 22.1021549C16.4674455 21.0848402 16.023867 20.4530342 16.16524 16.5282588 15.5789579 20.004592 15.6110579 20.6349153 16.8755976 21.5696916 18.1396384 22.5043031 19.3704149 22.8842104 18.8157339 22.1021549zM17.466703 22.6843719C16.9818768 22.4588328 16.3099394 22.2323053 15.9761328 21.8965502 16.3453658 22.5657539 16.4548051 22.8258899 16.6778418 23.0125486 16.6068226 22.5306627 16.6811682 22.5683898 17.466703 22.6843719zM18.7144443 25.6941407C16.8433313 26.0137505 16.4055741 24.5285534 16.2252819 23.6018498 17.0873245 23.4221104 18.3942761 23.5059668 19.3250093 24.1054823 18.0148975 24.2074609 17.3043736 24.3504616 17.0810043 24.12657 17.9362276 24.7987391 18.3071238 25.2456985 18.7144443 25.6941407zM55.1926649 8.7619053C57.7194159 10.9031262 59.8270375 14.6695795 59.6109864 18.1749083 59.3831264 21.8273564 57.8554666 25.311927 52.4560167 28.2951715 50.6051949 29.3180876 51.2596686 28.2864398 51.414181 27.646067 51.5695249 27.0047057 50.9659455 27.4449105 50.5666084 27.787585 50.1644438 28.1304241 47.9061352 30.0899288 48.0149092 28.9541607 48.1221864 27.8190517 47.6195639 28.4577771 47.2666304 28.9493831 46.9136969 29.4401653 45.8166426 29.5304469 46.1740667 28.3485496 46.5309919 27.1658286 46.3403879 26.1761914 45.9345643 27.0623672 45.5292396 27.9485431 43.8217866 29.6642217 43.9287311 28.627961 44.0361746 27.5918651 44.0967155 26.3091425 44.0015798 25.5181906 44.2911449 26.8531382 44.4880692 27.2005903 44.5324769 27.7936806 45.5867867 26.7635156 46.0889103 26.3233108 46.2918221 25.8807995 46.4944013 25.4371349 46.8934057 25.4898541 46.8885824 26.1318744 46.8837591 26.7734004 46.8769399 27.7610606 46.8235508 28.2050547 47.9754911 27.4729176 48.5799022 26.6872376 48.8807772 26.3931636 49.1816521 26.0982659 49.7820715 26.0045247 49.675127 26.9416075 49.5686815 27.878855 49.7652731 28.2266366 50.5183752 27.4417803 51.2721427 26.6565946 52.2725644 26.1205068 52.0656609 27.1066843 51.860088 28.0928617 52.360881 27.8014237 53.7152341 26.5761979 55.0695873 25.3517958 58.3860311 21.820437 58.5638284 18.1673299 58.7392972 14.5155407 58.3023715 12.9814137 55.1926649 8.7619053z"/>
      <path d="M49.6510104,16.7206836 C53.1307816,17.8814933 54.8829749,22.0685464 52.5721088,26.2216617 C51.9154729,27.4017467 50.8644896,27.8396451 51.1783376,26.0152333 C49.2250619,27.0874088 48.2786946,26.9806526 46.9832191,26.7743889 C52.8220895,26.0756955 53.2131106,20.4497393 49.6510104,16.7206836 Z"/>
      <path d="M54.0344044 23.863798C54.8681724 19.0787121 55.0379863 16.1671326 53.4674156 12.8967336 55.7350382 16.2707587 55.7031046 20.7637477 54.0344044 23.863798zM23.4346386 9.27278674C23.7074053 6.0648269 24.3590516 5.47766745 17.3517751 2.61205254 21.0243125 4.81142928 22.1162109 5.50270904 22.0977492 7.92943708 22.0887679 9.11446457 22.8385436 8.92319293 23.4346386 9.27278674zM2.03293159 4.57518162C12.3483358 5.04487623 14.9401184 5.16217633 13.3000255 4.45936425 11.6592673 3.75589319 13.8081366 3.22870176 17.2877414 4.48803029L18.3340678 4.49494968C17.4953102 3.50201757 16.8988826 3.25094265 16.3024549 3.04846819 17.0460768 3.53579077 17.3052052 3.90779022 17.416973 4.07533825 15.8143024 3.24962467 12.0639267 3.55490146 11.6609305 3.70119708 11.2585996 3.84568048 11.891618 4.22031589 12.2530338 4.59313908 9.24361887 4.46117647 3.23693042 4.51010643 2.03293159 4.57518162zM22.6457774 9.68696151C20.4004418 10.0410035 18.4090787 11.3220787 17.2634586 14.4618331 18.7079578 11.3993452 20.9968695 10.2302982 22.6457774 9.68696151zM13.7186558 13.6588547C11.8122828 13.5707149 10.2476997 12.8557115 10.0396319 10.6324464 9.86449573 14.0015291 12.4093757 13.8339811 13.7186558 13.6588547z"/>
      <path d="M6.94422892 9.64692791C7.92535741 8.28430281 10.015349 8.89156144 10.79789 9.19370803 11.58093 9.49536037 11.8927822 10.3520464 13.8492179 11.2158166 14.4451466 11.4785886 14.2480561 12.8476389 14.0948743 13.4018489 13.9410272 13.9567178 14.6480584 14.2957678 16.5191714 14.1234421 18.3901181 13.9517754 18.0642949 12.5421973 18.931826 11.4004984 19.8001888 10.259129 19.6132438 10.2940554 18.3440471 10.0258467 17.0746841 9.7582971 13.1132468 9.58185272 11.062507 8.89946931 9.01027029 8.2174154 7.36169502 8.68743951 6.94422892 9.64692791zM5.06380197 5.97965254C7.90356934 6.19744849 10.4471187 6.0676276 12.4747399 8.25547203 10.188822 7.25100761 8.44960168 6.49712387 5.06380197 5.97965254zM33.4455089 10.332771C30.5606684 9.62023884 28.8884756 8.73521623 28.4367473 6.8892225 28.3517572 6.54292363 28.2359977 6.94984951 28.1849371 7.19598201 28.1337102 7.44227925 27.8058912 7.98248572 27.5791955 8.20324713 27.3529987 8.42400854 27.312749 8.85581127 27.8705901 9.20589933 28.4284313 9.55565789 29.670185 10.2069041 33.4455089 10.332771zM35.5867274 9.07673743C31.1775536 8.63735632 27.1361159 4.08983601 31.8242102 2.01369027 31.4009229 3.78703044 32.8322828 7.35298621 35.5867274 9.07673743z"/>
      <path d="M35.3495534 9.11199336C30.7594222 9.67098102 25.9297886 5.43845758 30.261623 2.70546427 26.9974041 5.83846408 31.9135247 8.64279298 35.3495534 9.11199336zM35.1847292 7.70340376C33.288668 6.24506047 31.3791348 1.60248095 36.093009 1.15585097 34.2160748 2.28947728 34.8668894 5.25707078 35.1847292 7.70340376zM22.1388273 67.7793363C23.4403957 66.403426 25.2842014 65.3439283 26.4770576 65.5014888 27.6709065 65.6605022 27.1291655 65.9770762 26.6951439 66.71887 26.2622806 67.4603408 25.0685971 69.4185471 25.7218633 71.9049686 26.5339784 69.9993901 28.4850072 68.1989058 29.4066619 68.0930045 30.328482 67.9864574 29.8413453 68.092843 29.7331295 68.9387623 29.6255755 69.7861345 28.3801007 73.8073184 34.4565683 77.1906726 29.2494676 75.8704574 27.8911439 72.9612377 28.214964 69.7869417 27.1306547 70.5810404 26.5885827 70.9520179 26.5900719 73.3851659 24.2581367 73.2803946 23.7142446 70.423157 24.6342446 66.6673722 24.0375683 67.037704 22.8999784 67.778852 22.1388273 67.7793363zM61.623705 48.4683229C62.8446906 50.8460987 68.7853094 53.8600897 71.0624748 54.1753722 69.2719496 51.9543498 68.1318777 51.0036592 67.1544604 48.1470673 64.7148058 48.9418117 63.0063525 48.864 61.623705 48.4683229zM54.6970647 50.8170404C55.2278849 53.0395157 54.984482 54.745722 56.2460072 54.7830135 57.5065396 54.8233722 57.6682014 54.069148 57.6667122 51.7272108 59.5393094 54.1474439 60.6390072 56.8451839 60.9643165 57.3601614 61.2902878 57.8761076 62.1454245 57.7970045 62.0221511 56.4869596 61.899705 55.1773991 61.8580072 54.9402511 61.8571799 53.7498296 64.015705 56.5650942 66.4995396 61.0872108 66.8650576 61.8411121 67.2322302 62.5954978 68.0853813 62.356574 68.0436835 60.9672646 68.0033094 59.5802152 68.0835612 59.3412915 68.0425252 58.9448072 71.5434892 62.2361435 72.6828993 61.6833901 75.7726763 61.5584395 77.7650719 61.4780448 75.8923094 58.3449148 74.9560935 57.0356771 75.9733885 56.9953184 75.891482 57.3919641 76.7864964 57.9866906 77.6823381 58.5812556 79.1061871 59.692574 79.5939856 60.128287 80.082777 60.5635157 79.8790863 60.8027623 78.8624532 60.8427982 77.8458201 60.883157 77.5628705 61.7166457 77.4400935 61.9550852 77.3193022 62.1941704 77.6843237 62.0742242 78.9038201 61.6367354 80.1246403 61.1990852 82.3202302 61.6347982 82.8498921 61.3971659 83.3785612 61.1584036 83.1737122 60.5221883 82.4009784 60.0081794 81.6279137 59.4928789 77.6442806 57.5855247 76.4198201 56.718296 75.973223 56.3999462 74.3046475 56.5996413 73.8582158 56.6790673 74.1021151 58.0678924 74.2248921 59.8141345 73.5759281 60.7670852 71.1347842 60.0929327 68.0824029 57 66.9011295 53.8660628 66.7796763 54.5014709 66.3736187 56.0091121 66.4566835 58.5089327 64.1366619 54.4630493 62.507964 52.4794978 61.1249856 51.8455426 61.0846115 52.8772735 61.0040288 53.7895426 60.9628273 54.5841256 59.2935899 51.5294529 58.0327266 50.4191031 57.5040576 50.0213274 56.9753885 49.6258117 56.6902878 50.1015605 56.4877554 50.7369686 56.2838993 51.3715695 56.2033165 52.601704 54.6970647 50.8170404z"/>
      <path d="M57.039259,57.4757489 C57.0936978,58.7979013 53.8940504,62.3654529 53.8404388,62.8949596 C53.4610216,62.8951211 52.4812878,62.4984753 52.3178058,62.392574 C52.8069281,62.8150493 52.6444388,63.6083408 52.9151439,63.7144036 C53.1868417,63.8198206 54.1635971,64.1898296 54.4880791,63.0255605 C54.9225971,65.4601614 54.4897338,65.8818296 55.4654964,65.830009 C56.4415899,65.7759283 57.5805036,65.8288789 58.5001727,62.4939552 C59.3144388,63.3934709 59.7484604,65.0336502 60.6171655,66.302852 C61.4853741,67.5718924 62.2999712,68.5240359 62.4075252,67.3594439 C62.5154101,66.1950135 63.2193094,64.6087534 63.2729209,63.4964664 C64.6305827,65.7714081 65.5535612,68.1520897 67.5601871,68.9444126 C69.5673094,69.736574 70.7060576,69.9490224 70.5425755,68.3073901 C70.3787626,66.6672108 70.3223381,63.9693094 70.5395971,63.4393184 C72.1131942,65.3447354 73.6864604,65.9244484 74.608446,66.1372197 C73.0897842,65.3959103 70.8649065,63.8101345 69.942259,62.1701166 C70.1601799,63.3347085 69.8361942,63.9160359 69.4552878,64.4981704 C69.075705,65.0811121 68.4259137,65.8230673 68.4820072,68.202296 C66.0418561,67.4098117 65.9841079,64.7656682 64.7917482,63.4425471 C63.5980647,62.1207175 63.1627194,60.9572556 62.6740935,59.6880538 C61.915259,61.1701883 61.3756691,62.7577399 61.4842158,65.878278 C60.2369209,63.8161076 59.2053957,62.1754439 59.2591727,60.2191749 C59.311295,58.26113 59.0409209,57.8386547 58.1184388,58.1032466 C57.1961223,58.3684843 57.4145396,58.8432646 57.6303094,59.2676771 C57.8480647,59.6907982 57.090554,61.9132735 55.8442518,64.0301704 C55.1913165,61.6496502 57.3645683,59.0623318 57.039259,57.4757489 Z"/>
      <path d="M72.8715324,63.5972018 C74.9875324,64.9729507 77.1032014,65.7651121 80.0309856,65.8166099 C82.9597626,65.8664933 85.6732662,66.9758744 82.8532014,67.1897758 C80.0318129,67.4020628 75.3679424,68.0400538 72.8715324,63.5972018 Z"/>
      <path d="M78.1314173 62.2195157C79.8140576 63.5934888 80.1380432 63.1175785 80.1400288 66.3448251 81.1162878 66.6089327 81.5499784 66.4500807 81.2777842 65.4459552 81.0064173 64.4398924 80.1395324 62.6933274 78.1314173 62.2195157zM53.6797698 72.3907265C54.6556978 70.5920179 56.7132878 67.1510314 57.5811655 66.6743139 58.4483813 66.197435 59.0460504 66.1969507 58.7751799 66.990565 58.5033165 67.7853094 58.613518 69.9556413 59.1026403 71.1706009 59.5907698 72.3876592 60.2963237 74.0275157 60.8931655 74.6614709 62.2476835 73.0209686 63.6036906 71.0629238 63.7643597 69.2112646 64.0355612 69.2111031 65.4989568 68.7871749 65.8250935 68.9455426 66.1505683 69.1039103 66.2584532 69.8976861 66.4773669 70.1621166 66.6937986 70.42687 67.5793813 72.1664933 70.0039784 74.8692377 70.3838921 75.2915516 70.8710288 74.0748161 71.3053813 73.0690762 71.7385755 72.0633363 72.6718129 70.8086637 71.9533525 68.9421525 71.6277122 68.0959103 72.0061367 67.9896861 72.9828921 68.0416682 73.9584892 68.0946188 75.0983957 69.2575964 76.5626187 69.7330224 78.0266763 70.2086099 80.144 70.3135426 81.0646619 70.4189596 81.9861511 70.5234081 84.0480432 70.8406278 84.156259 70.6285022 84.263482 70.4171839 84.5331942 69.8353722 84.1003309 69.3052197 83.6663094 68.7773274 82.5280576 67.6658475 82.3640791 67.137148 82.2014245 66.6084484 82.5808417 66.8191211 83.612036 67.5066726 84.6435612 68.1937399 86.1618921 69.7278565 86.7592302 69.9916413 87.3550791 70.2570404 88.7120791 71.4736143 85.9469496 71.4749058 83.1798345 71.4765202 78.4075827 71.0023857 76.7800432 70.8969686 75.1539928 70.7920359 73.7968273 70.0518565 73.2011439 69.8416682 72.604964 69.6298655 72.7128489 70.0525022 72.7133453 70.8470852 72.7138417 71.6410224 72.280482 72.646278 71.7938417 73.8625291 71.3068705 75.0810404 71.2524317 75.8204126 71.2525971 76.29713 71.2529281 76.7725561 70.0592446 76.9850045 69.4627338 76.4035157 68.866223 75.821704 65.6655827 73.2839462 65.3389496 72.649991 64.798036 73.4436054 63.5509065 74.9785291 63.0632734 75.6136143 62.5759712 76.2482152 60.7846187 76.3558924 60.0252878 75.1385112 59.2676115 73.9224215 58.0176691 70.855157 58.2875468 68.5266188 57.3658921 69.6907265 56.2820791 71.2258117 55.9024964 72.5489327 55.5252302 73.8710852 52.7059928 74.9300987 53.6797698 72.3907265z"/>
      <path d="M46.6859496 76.9975964C47.6084317 77.3141704 48.2051079 78.1082691 49.5607842 77.3132018 50.916295 76.5189417 52.3254173 75.4064933 55.1989281 74.9286457 55.7429856 76.5161973 58.0989137 80.4778117 59.0000504 81.6466009 59.326518 82.0695605 59.5427842 82.2290583 60.3544029 80.7993901 61.1678417 79.3705291 63.8775396 76.8295426 64.8536331 76.1415067 65.8303885 75.453148 66.2635827 76.2993901 66.860259 76.7744933 67.4579281 77.2512108 68.7593309 77.3561435 69.5727698 77.9904215 70.3876978 78.6253453 70.4398201 79.0484664 71.7964892 78.0950314 73.1513381 77.1424036 75.9166331 74.2833901 76.6202014 73.8063498 77.3257554 73.330278 78.2469137 73.7009327 78.7355396 74.0173453 79.2238345 74.3340807 80.9048201 74.7034439 81.6639856 74.8090224 82.4226547 74.9141166 82.9121079 74.9672287 83.4538489 75.1793543 83.9964173 75.3895426 85.2428849 76.0236592 85.9489353 75.229722 86.6523381 74.4365919 87.0848705 73.8539731 86.4890216 73.0072466 85.8921799 72.1611659 85.4583237 72.0023139 85.2951727 71.633435 85.1323525 71.2621345 85.5112734 71.4198565 85.9467842 71.4744215 86.3793165 71.526565 87.7907554 72.0011839 88.1703381 72.2654529 88.5499209 72.5303677 90.9908993 73.1633543 90.9374532 74.6445202 90.8833453 76.1269776 90.9932158 77.0794439 88.0095036 77.2395874 85.0276115 77.4003767 84.2672878 76.7112108 83.5086187 75.9187265 82.7481295 75.1252735 81.8812446 75.3385291 81.393777 75.2319821 80.9049856 75.1262422 79.8203453 74.8098296 79.1146259 74.5989955 78.4094029 74.3873543 77.3795324 73.7522691 77.2153885 74.0176682 77.0533957 74.2824215 77.2178705 76.3460448 77.1103165 78.2503318 77.0024317 80.1555874 77.2754532 80.5798386 74.3458489 80.6337578 71.4175683 80.6871928 71.1463669 80.7929327 69.3018993 79.2602691 67.4569353 77.7269596 65.8313813 77.357435 65.7213453 76.8280897 65.6119712 76.2995516 65.4499784 76.669722 65.1789424 77.2521794 64.9080719 77.833991 63.4450072 80.2154798 62.9039281 81.5926816 62.3626835 82.9677848 61.8214388 84.1851659 60.0320719 83.9213812 58.2425396 83.6571121 57.5353309 82.0179013 57.2096906 81.1198386 56.8838849 80.2193543 54.8756043 76.4109417 54.8749424 75.3535426 54.0616691 75.6181345 52.2723022 76.8886278 51.9474892 77.62913 51.6221799 78.3706009 52.1103094 78.9004305 52.6535396 79.0581525 50.8643381 79.9586368 48.260705 80.0125561 46.7410504 79.4312287 45.2220576 78.8503857 45.8733381 78.5853094 46.6859496 76.9975964zM38.0933813 70.2373453C38.0945396 72.2496323 38.1284604 73.4666906 38.6705324 74.946565 39.8638849 74.205417 40.970036 73.9408251 42.2179928 74.7859372 40.3190863 74.6816502 39.9932806 74.734278 39.1806691 76.321991 38.3678921 76.5336323 37.2829209 76.9569148 37.2283165 76.2701704 37.1745396 75.5819731 36.9554604 72.4599821 38.0933813 70.2373453zM74.8065108 54.4693453C74.0733237 52.1684126 70.4082158 48.7009507 67.1544604 48.1470673 71.0591655 48.463157 74.4800432 50.7392287 74.8065108 54.4693453z"/>
      <path d="M50.5491835,81.792348 C50.9831359,82.8115371 51.3084351,83.8315451 51.0384533,84.3140344 C50.7684714,84.7975064 50.389341,85.1193298 50.010706,85.2804871 C49.6319058,85.4414807 49.3607681,85.2808147 50.1718694,84.4216364 C48.1707014,85.5499016 46.0209196,87.5499558 48.7139676,87.6963731 C49.6873883,87.7496009 49.8495425,87.695718 50.1195243,87.5347244 C49.6867278,86.8371949 50.1723648,85.5487551 50.9842918,85.0652831 C51.3090956,85.1188384 51.3090956,85.279832 51.1469414,85.6028018 C50.9847872,85.9244613 50.3896713,87.2661289 50.8769596,87.5343969 C51.364413,87.80332 51.9601894,87.6947353 52.1770005,87.6945716 C51.9056976,86.9980247 52.3403106,86.7292653 52.4473125,86.5679442 C52.5554704,86.4076058 52.825122,85.6563571 52.8794486,85.3333873 C52.9331147,85.0110727 53.041933,84.957026 53.2579185,84.6884304 C53.4747296,84.4198349 53.8522088,83.4001544 54.2859961,84.152222 C54.719288,84.9028156 55.1530753,85.5461347 55.3692259,86.0829982 C55.5855416,86.6198618 55.4785396,87.1026787 55.8575049,87.1023511 C56.2356446,87.1021873 57.4258764,87.0483044 57.6425223,86.459032 C57.8591683,85.8663202 58.2358218,84.3641504 58.5071247,83.8813336 C58.1286547,83.6129018 57.8025299,82.8076064 57.6405408,83.2915698 C57.4787169,83.7729127 56.8305954,84.7942309 56.4504742,85.276884 C56.0720042,85.7601922 55.856349,85.2772116 55.6392077,84.7414944 C55.4230571,84.2041396 55.0424405,83.8831351 54.5566384,83.0780036 C54.0686896,82.272872 53.2012801,82.9173376 52.8236358,83.239816 C52.4454961,83.5618031 52.1208574,83.1325416 51.9032207,82.757818 C51.6874004,82.381948 51.2536131,82.0070607 50.5491835,81.792348 Z"/>
      <path d="M55.4787047 87.157708C54.8835889 87.1580356 54.3959703 86.7815104 54.2334858 85.9760513 54.070506 85.1720662 53.690715 84.6350389 53.5830526 85.3857962 53.4760506 86.1386827 53.2587441 87.1038251 52.9890926 86.9975333 52.7184502 86.8900951 52.6106226 86.6755462 52.6104575 86.3000038 52.6102924 85.9238062 52.1765051 86.4621438 52.3938115 86.8902589 52.611118 87.3195204 52.6112831 87.5337418 53.2057385 87.5334142 53.8013498 87.5329229 53.6908802 86.5412484 53.800359 85.7356256 54.1248326 86.5409209 54.5591153 87.5868058 55.4787047 87.157708zM12.4330344 33.1449433C7.94208908 34.9731947 7.13131798 36.5826389 6.31988638 37.603302 8.48485987 38.1396742 10.0013816 38.0844811 11.0286335 37.7621664 9.13512801 40.0715969 6.01935616 43.3612373 5.47906226 45.4005982 8.23799576 43.6809316 10.5375473 42.1070271 12.3223996 41.5170996 9.40032116 42.2164307 8.86729283 42.6479851 8.1098576 43.453608 9.02829117 40.608788 9.892233 39.2656464 11.2984502 37.815558 12.7048326 36.365142 16.4381775 34.8608431 14.1120406 35.1300938 11.7847478 35.3993444 10.2150553 35.8839629 11.0269823 34.9717207 11.838579 34.0578407 12.0010635 33.6284153 12.4330344 33.1449433zM10.4650568 43.0697129C6.26126647 45.0124449 4.63840327 49.772646 2.80021512 50.7936367.960045448 51.8149549.6898985 51.9751296.148778973 52.1906611 2.26008635 53.4230889 4.74837752 53.5295444 6.37206635 53.2069022 6.21189365 56.3738731 3.08654446 61.3340469 3.14186184 62.0861144 4.0072898 62.1920787 8.96570823 59.3749371 9.3986699 58.7850096 9.72479473 60.7169322 8.81692925 59.9194982 11.5512589 60.7226644 14.3037525 61.5313991 14.201374 59.2360536 14.0920603 57.0361904 15.121624 58.9142302 17.6607741 60.6628856 18.3919542 61.8692727 15.3896243 64.36672 12.1442281 66.7033376 8.16864263 70.3288862 12.226296 68.3941793 15.1475489 66.7819509 16.2841145 66.6216124 17.4208453 66.4584898 15.9598061 67.2647678 15.3916058 67.9889931 14.8230753 68.7143649 13.8499849 70.4066807 13.9330435 72.0975224 14.9882018 72.4178718 15.8006241 72.4979591 17.0975276 70.0023133 18.3950917 67.5038833 19.4495895 66.7794942 19.9357219 66.1365027 20.4233404 65.4905631 20.3414377 64.6864142 18.8807287 65.1698862 17.4201848 65.6531944 13.6046069 67.5068313 12.4290714 67.9513242 11.2517194 68.3948344 13.0373974 67.1853356 13.889285 66.782606 14.7416679 66.3800402 18.8264021 64.3647547 19.7451659 63.9350018 20.665581 63.5055764 21.2058749 62.4850771 21.6380109 60.927878 22.0701469 59.3716616 22.6646023 57.0619036 25.4770368 55.3435471 23.747667 58.6721667 22.990562 60.9807782 23.100206 61.6779802 23.5871641 61.7859098 24.1281185 61.8915464 24.6145811 61.9459207 25.1025299 62.0004587 24.6149114 62.5898949 25.0482033 62.4280824 25.4808347 62.2680716 25.9147872 62.7517073 26.6174004 62.8576716 27.3216649 62.9642909 26.4557416 63.877352 26.0780973 64.5747178 25.6988017 65.2733938 27.0525087 65.5398602 27.8096137 65.4863049 28.5673792 65.4325858 28.9461794 65.4856498 28.7848508 66.1312618 28.6223663 66.7742533 29.5966126 66.8818553 30.1380624 66.5059853 30.6788517 66.1301153 30.3010423 68.062038 30.4641872 69.2422207 30.6268368 70.4238773 31.6028996 72.4629107 31.4927602 69.8324758 31.3821254 67.2015496 30.7873398 65.270282 31.8142615 63.4451424 30.516037 64.357876 30.2447341 64.5195247 30.0825799 64.9486224 30.136246 63.2304298 30.4057325 62.319334 30.8921951 61.3510798 28.400106 57.1659024 27.3693865 54.3752929 28.1261612 51.208322 27.0977534 50.5643478 26.665122 50.2967349 26.3941494 50.0284669 25.2580791 51.1562407 23.6890471 53.2507947 22.7706135 55.0767531 21.8516846 56.9017289 20.3921315 58.9432189 19.7973459 60.2850502 17.2519209 57.172126 16.3244054 53.5529647 15.4573262 50.9228573 14.1046099 51.4610311 12.1642085 55.1892684 11.3526117 56.1028209 11.1358006 54.921328 11.1888062 53.417848 10.4307105 53.4181756 9.67261476 53.4186669 9.34797606 53.7956833 9.13265111 54.1170153 8.91600515 54.4399851 7.88842297 55.3530462 7.50978791 55.8365182 7.2928117 54.333202 7.3458173 53.6355087 7.56279352 52.7763304 9.94259658 51.7022758 12.529138 47.5798253 11.9336919 46.5606362 11.338576 45.5412833 10.2036616 46.9076813 9.39140433 47.3385807 8.58013786 47.7684973 8.04545826 47.3469333 8.31510983 46.7571696 8.58608241 46.1660956 9.49295713 44.7883969 10.4650568 43.0697129z"/>
      <path d="M7.6324769 61.0833031C5.61908953 63.0286556 3.01686108 66.7025187 1.42570217 67.0516929 4.5700409 67.1117993 4.86578246 66.3174771 5.8395334 65.8597182 5.18959552 67.1515973 4.62156037 67.6304836 3.89913195 68.0666238 3.17620815 68.5045656 3.45527193 68.8052616 4.30088471 68.6270713 5.14732313 68.4488811 6.71519921 67.8329129 7.99658082 66.8104482 6.96140282 68.9431624 6.50268141 70.1135184 6.41681563 70.87443 6.32896834 71.6358329 6.43811695 71.7336082 7.29248144 71.66302 8.14816694 71.5912853 8.4221118 71.2470244 8.61002575 70.4767776 8.79893047 69.7071858 11.0144327 67.1515973 12.5365687 66.0015498 12.3943948 67.3048933 12.151824 68.0258431 11.6111998 68.8258976 11.0717316 69.6248056 10.5860945 70.4738296 11.7474292 70.4299371 12.9084336 70.3875187 12.7814513 69.4826464 13.1343266 68.8597996 13.4865414 68.2387542 15.7337479 65.4651776 16.6308802 64.6906724 15.2175625 65.3475851 13.3044069 66.6908904 12.7968081 67.2723016 12.6741191 66.4211484 13.1549674 65.5188967 13.5352537 64.6253251 11.9069414 65.7300062 10.2375125 66.9475302 9.14354946 67.7918047 9.48271928 66.417054 9.4790865 65.7709507 10.4077579 64.777966 9.81363278 64.9351927 7.43151795 65.5107078 6.29198 66.4137784 6.43349341 65.7018364 7.00152856 65.2224589 7.57303136 64.798602 5.76093319 65.5421531 3.38443266 66.1713873 2.13128768 66.3294329 3.32994092 65.5288871 7.09234813 61.8825387 7.6324769 61.0833031zM17.2075019 72.9693116C17.3714725 76.6192631 18.070453 81.4927984 20.1885305 82.1488922 18.4137509 82.597152 16.2743721 82.2083436 15.545834 79.8335658 14.8184517 77.4591156 14.0142857 77.3397216 13.3929147 76.9669633 14.8019391 77.6726818 16.1460688 78.4819078 16.9750038 79.6258956 17.3627208 77.5578736 16.8291971 75.5456998 17.2075019 72.9693116zM12.997767 77.1505582C13.6415952 77.9031171 13.9985987 78.8466409 14.1211226 79.3414136 14.2429859 79.8355311 14.8229102 80.0453304 15.1194774 80.3922118 15.4176958 80.7404033 15.5351007 81.2879124 14.6183184 81.213066 13.701371 81.1396936 11.2112634 81.0437198 10.5482806 79.8602616 9.88562794 78.6750018 7.9004772 75.8722727 6.43696107 73.8879411 8.982386 75.8187173 11.547461 78.2719447 12.6916225 79.5500664 13.1237585 79.584296 13.1941024 78.7285571 12.997767 77.1505582z"/>
      <path d="M7.70298591 74.6504904C7.16236176 76.4769402 6.59052871 77.6897147 8.11712316 79.5906833 5.83408423 79.6209822 3.97145735 79.6994318 3.48169217 75.2436936 2.40044387 76.3188947 2.33604454 75.9438436 1.73052568 76.7027898 2.91861082 74.8065707 3.15672322 74.8150871 3.75233449 74.5468191 3.86148311 75.4584062 4.30616876 76.4271518 6.07087562 78.0781956 6.52101045 75.9068298 6.78356158 75.2417282 7.70298591 74.6504904zM1.72359037 82.0730631C1.85833359 85.0459573 3.37204817 87.1085747 5.87387972 87.0410982 5.18976064 85.4781669 4.79147553 84.3685724 5.04164218 83.3117144 4.4534616 83.2106636 3.8527314 83.9157269 3.92043327 85.0523447 2.86015604 84.7509936 2.36428117 84.1717116 1.72359037 82.0730631zM5.54114983 83.1908464C6.95364187 83.8444836 8.83856082 85.3437053 10.168985 85.6663476 10.3514498 84.1191389 11.3299894 83.4438831 11.875072 84.7269182 12.4211453 86.0112636 12.7956522 86.7400747 13.1011362 86.9795178 9.50187396 87.1734307 9.28919103 85.8103082 5.54114983 83.1908464zM13.1219421 85.4211722C14.048632 86.03452 15.9603015 87.2127373 16.752083 87.492306 16.129391 86.4724618 16.0073625 85.9780167 15.8447129 85.3184836 15.6825587 84.6600969 16.0182609 83.8793682 17.0217346 85.5220593 18.0271898 87.1644229 20.1465884 88.1307118 21.4989744 88.7199842 17.6564808 89.2057491 16.9598121 88.2630442 13.1219421 85.4211722z"/>
      <path d="M22.3135434 93.1744122C20.1489002 92.1558782 17.8802272 92.9159709 16.596699 92.0045476 15.314822 91.0923053 13.4630935 90.7287187 12.0132828 89.6394327 11.4510271 89.2167222 11.4216346 90.2380404 11.0624845 90.6388047 10.7036646 91.0403878 10.1293546 92.0728429 9.51822148 91.5916638 8.90642781 91.110976 7.19968035 90.057066 6.46338131 89.781428 5.72559612 89.5071002 5.52463718 89.9753409 5.16614755 90.3770878 4.8068323 90.7799811 4.25630056 89.5495187 4.07978034 89.050324 3.90425087 88.5519482 3.15507196 86.4441282 2.66497652 86.4580493 2.17488108 86.4729531 2.6050356 87.8532722 2.93297682 88.4721884 3.26273443 89.0912684 4.11561279 91.2618153 5.08176791 91.3931651 6.04924405 91.5259889 5.95247993 90.7108669 6.20826087 90.2467207 6.46321618 89.781428 6.85142857 90.3523573 7.70199515 91.2284047 8.55256173 92.1052709 9.44242842 91.855346 9.88298591 92.4297147 10.3245342 93.0034282 11.2046584 92.2125453 11.4239464 91.5313936 11.6429041 90.8479489 11.7771519 90.5359522 12.1686669 91.0529987 12.5610074 91.5682436 13.358073 92.440524 13.7717149 92.6902851 12.8843251 91.5954307 12.9693652 91.224474 12.6490198 90.4991022 15.0743978 92.6883198 18.8501803 93.3376987 22.3135434 93.1744122zM4.25349341 67.9690122C5.23269353 70.7170396 4.66647478 70.5450729 3.52379942 73.567428 3.3834419 70.8785244 4.90772459 71.332844 4.25349341 67.9690122zM3.05335404 83.02019C3.75811392 80.9554436 4.65722769 79.2234936 3.47640812 77.0156053 3.59711559 78.9761891 3.67934858 80.4662393 3.05335404 83.02019z"/>
      <path d="M18.5468429 91.548754C17.4053234 92.8720784 15.890453 95.193956 16.021068 95.7440856 16.1510226 96.29356 17.2463066 96.200698 18.1622633 95.7694711 19.079541 95.3372616 18.8402727 95.1313929 18.2208832 94.8626336 17.601824 94.5950207 18.1328708 92.7970682 18.5468429 91.548754zM14.3186138 92.346188C13.4125648 93.3463789 12.7426466 96.0624696 15.1191471 97.0285947 14.0578791 97.0774004 13.3859794 96.7351049 12.919497 96.6463373 12.4526844 96.5578973 12.0986532 96.6543624 11.9825693 95.9398 11.8666505 95.2232722 11.9432692 92.3971229 14.3186138 92.346188z"/>
      <path d="M10.5467944 92.6617878C9.63232389 93.8670284 9.06676564 95.9551951 12.1932707 96.4764998 12.7378579 96.7979956 12.876399 97.1427478 11.7347144 97.2025267 10.5936903 97.2621418 9.69127405 97.5276256 7.61299197 96.8793931 7.33095592 97.1710813 6.90179215 97.565622 5.891218 96.9105109 4.88113922 96.2572013 4.01009696 95.7023222 4.73087411 94.5676698 5.45165126 93.4331811 6.06212392 92.6429533 7.58657173 92.1548956 6.3935328 93.1614738 4.96403272 94.4895478 5.11991213 95.1987056 5.27678231 95.9075358 5.78537191 96.7647487 7.04693834 96.6859716 6.84895167 95.2083684 6.44373125 94.7420931 6.91434177 93.0776196 7.44439782 94.828404 7.67805181 96.0139913 9.88315104 96.6815496 8.82502045 94.9751489 8.6975428 93.9346687 10.5467944 92.6617878zM93.6990486 87.4711787C95.038885 88.5976422 96.9076216 90.6494502 96.8673307 91.2120269 96.8268747 91.7768964 95.7314255 91.8573113 94.756849 91.57676 93.7835934 91.2960449 93.9852128 91.0536538 94.5544039 90.6903947 95.121118 90.3276269 94.3082003 88.6374402 93.6990486 87.4711787zM98.0017497 87.5892624C99.0570732 88.4338644 100.155164 91.0099251 97.9636055 92.3398007 99.0195895 92.2177862 99.6277503 91.7754224 100.074087 91.6129549 100.520589 91.4524527 100.885849 91.492742 100.885519 90.7668789 100.885023 90.0438 100.355958 87.2661289 98.0017497 87.5892624z"/>
      <path d="M101.776211 87.3052718C102.872486 88.3514842 103.766976 90.3227136 100.764811 91.3314209 100.277193 91.734478 100.196446 92.0974096 101.333177 91.9763778 102.469577 91.8537082 103.402542 91.9752313 105.350044 91.0071409 105.675013 91.2490407 106.161806 91.5703727 107.055801 90.7637671 107.946658 89.959782 108.717634 89.2740444 107.825455 88.2689402 106.931295 87.2626896 106.200776 86.5792449 104.617047 86.3380002 105.956554 87.1416578 107.582059 88.2284871 107.540942 88.9532038 107.499991 89.6777567 107.134896 90.6037562 105.878284 90.7246242 105.836672 89.2350653 106.160155 88.7121229 105.429965 87.1419853 105.186404 88.9543502 105.146773 90.1620476 103.077573 91.1689533 103.847393 89.3172818 103.805781 88.2709056 101.776211 87.3052718zM99.2169156 82.3552522C97.148376 84.2884851 96.9442797 85.0575856 96.8239024 86.2613522 96.7844372 86.6640818 95.2010392 86.7053538 94.7130904 86.3840218 94.2262975 86.0613796 95.3210862 84.4509527 96.6186502 83.4838449 97.9177003 82.5169009 98.4457749 82.3151267 99.2169156 82.3552522zM85.7414377 84.4969742C87.1223905 85.623274 88.4225966 87.2315718 88.6663233 87.5943396 88.9102151 87.9569436 89.5994531 87.352276 90.0466157 86.8285147 90.4926223 86.3054084 91.9937873 85.3381369 93.5763596 86.1033067 91.8715937 86.2245022 91.2238025 87.6726253 90.6970489 88.8811416 90.1698 90.0891664 88.7487214 89.7277089 87.9774155 89.4063769 87.2061097 89.0850449 87.5712044 88.9640131 87.5295925 88.1179371 87.4896319 87.2733351 86.3926966 85.3817018 85.7414377 84.4969742z"/>
      <path d="M93.4102424 77.9707573C92.274007 79.4996229 90.8945402 81.2731724 90.6940767 83.3660887L87.852745 83.4075244C86.7150235 82.5629224 86.9173034 81.7173378 85.9035919 82.6444838 84.8890547 83.5701558 84.4849902 84.6178422 83.9154689 84.8594144 83.3480942 85.1009867 82.7787381 84.9403207 81.8865596 84.8605609 80.9938858 84.7806373 81.3986108 84.4586502 81.4800182 84.0559207 81.5609302 83.6530273 79.9317922 81.9528502 78.9157688 81.0673038 80.1741978 81.8323098 81.3172035 83.0087256 81.92619 83.2502978 84.1981654 81.2769393 86.023804 80.5514038 88.45975 81.8375507 90.2449326 79.6615991 91.5841085 78.3738144 93.4102424 77.9707573zM93.3400636 78.6946551C94.1287078 80.2507078 95.4137222 82.0565216 97.2172338 82.6778944 95.807714 83.0005367 93.0656234 80.4261138 93.3400636 78.6946551zM32.0556764 78.043966C32.0569974 80.4071156 32.4369535 82.1243256 33.3580291 82.4992129 34.2767929 82.874264 35.5753477 82.122524 36.3322875 81.4787136 37.0907135 80.8340842 38.5514225 80.563032 39.6336616 80.4028573 37.7404863 81.6914609 37.091374 82.657586 36.0096304 83.2496427 34.9280518 83.8410442 34.0074716 84.2164229 32.924572 83.7869976 31.842333 83.3593738 30.922083 82.7697738 32.0556764 78.043966zM34.1166202 84.7537778C33.7921466 86.1496558 33.5224951 87.1151258 32.8190562 87.5447149 32.1147917 87.9756142 30.3841009 88.406186 31.9541236 88.8876927 33.5238161 89.3693631 35.3634904 89.4766376 36.3367459 89.2075507 37.3103318 88.9373173 38.5562112 88.5622662 37.5814695 88.1321858 36.6078837 87.7035793 36.9316967 87.1681898 37.5268126 87.0063773 38.1219285 86.8439098 38.7172095 87.1121778 39.0430041 87.43482 39.3678079 87.7556607 39.9624284 88.6145113 41.2613134 88.3459158 42.5613543 88.0763376 42.2357249 87.4330184 43.5351053 88.1287464 44.8339903 88.8261122 47.4936828 88.7990889 48.1442812 88.637604 45.5456855 88.20867 43.4801182 87.4323633 42.884672 86.8954998 42.2895561 86.3588 41.8022678 86.7348338 41.4779594 87.1654056 41.1531556 87.5941758 40.5568838 87.4338373 39.6374595 87.0581311 38.7170444 86.68308 37.6879761 85.9852229 36.9848674 86.4161222 36.2824193 86.8447287 35.5254795 87.2746453 35.0370353 87.1139793 34.5494168 86.9534771 34.3872625 86.094954 34.1166202 84.7537778z"/>
      <path d="M50.0296955 90.1117678C47.1629344 91.6704409 46.2430147 92.4218533 44.4025148 92.2087784 42.563501 91.9945571 40.9389865 91.5657869 39.6934374 91.566442 38.4490441 91.5670971 37.2048159 91.2999756 36.5010468 91.6232729 35.7976079 91.9454238 34.9871671 92.7512104 34.8783487 91.8915409 34.7685396 91.0321989 34.7682094 90.3892073 34.7680442 90.0133373 34.7678791 89.636976 34.4974019 88.9387913 34.4977322 89.5834207 34.4980624 90.2287051 34.4983927 90.8713691 34.120253 91.4090516 33.7416179 91.9464064 33.3636434 92.4831062 33.3639736 93.0738527 33.3643039 93.6641078 32.8766854 94.2538716 33.7966051 94.2533802 34.7166899 94.2527251 35.4202939 94.3606547 35.7447675 94.1464333 36.0690759 93.9312293 35.7987638 94.1464333 35.7994243 95.0572016 35.7999197 95.9709178 35.5307635 96.9914171 36.1795455 97.527298 36.8299788 98.0621962 37.2632707 98.2782191 37.8037297 98.1704533 38.3443539 98.0613773 39.0486184 97.68649 39.0486184 97.68649 39.0486184 97.68649 38.2913483 98.2767451 37.9122178 97.4185496 37.5320967 96.5601902 37.4774398 95.808614 37.5852674 95.0041376 37.6940857 94.197532 37.9097409 93.016858 38.3960385 92.6398416 38.8828314 92.2654456 38.7756643 91.5674247 38.0712347 92.1049433 37.368126 92.6404967 36.5022027 93.5013127 36.4482063 93.0720511 36.3935495 92.6408242 36.122742 92.1601364 36.7723496 91.9976689 37.421627 91.8360202 38.4490441 91.6750267 38.8281745 91.8890842 39.2078003 92.1041244 39.1542993 92.9090922 40.7231662 93.0150564 42.2931889 93.1220033 42.6724845 93.1218396 43.808885 93.1750673 44.9444599 93.2286227 45.9727026 93.120038 46.7842993 92.635092 47.5963915 92.1537491 47.811221 91.7231773 48.5163112 91.2935882 49.2182639 90.8631802 49.5437282 90.595076 50.0296955 90.1117678zM47.2010786 93.762702C47.7421982 94.8914584 48.3932919 96.6076858 46.9327481 97.735132 46.2831404 96.9851936 46.4441388 95.4815498 45.631221 94.4091329 45.7950265 95.8584024 45.363551 97.7909802 45.6333677 98.1658676 45.9048356 98.5419013 46.6619406 98.7015847 47.2038858 98.7014209 47.7443448 98.7010933 48.3397909 98.3797613 48.6637691 97.4670278 48.9887381 96.5536391 48.8785987 94.3532847 47.2010786 93.762702z"/>
      <path d="M44.6710105 94.4214162C44.2667808 96.113732 43.7794925 96.7979956 43.6586199 97.5639842 43.5370868 98.3284989 43.4556794 97.6439078 43.2517482 96.6776189 43.0488078 95.7103473 42.7230132 94.7049156 42.1544827 94.1821369 42.4801121 95.7519469 42.3186184 97.7251416 42.603957 98.4899838 42.8874792 99.2543347 43.8620557 99.8175664 44.1459082 98.6499947 44.4297606 97.4819316 44.428935 95.9525747 44.6710105 94.4214162zM41.708476 94.9887424C41.181062 96.0344636 40.208632 98.3304642 40.2484275 96.3579247 40.2878927 94.38473 40.2056597 93.2979007 40.0435055 94.1834471 39.8823421 95.0693211 39.4777822 96.8409053 40.045487 97.8068667 40.6146781 98.7729918 41.4266051 98.4906389 41.7104575 98.4505133 41.9948053 98.4090776 41.9523678 95.9540487 41.708476 94.9887424zM47.356958 82.0424367C47.0689774 83.761612 48.1314013 87.8565478 49.2194198 89.4126004 46.3904727 87.1279004 46.10629 83.2828896 47.356958 82.0424367zM45.9015331 73.7539709C45.6132222 75.4716722 45.5780503 77.6831636 46.6652431 79.2401989 45.3358097 78.676312 44.6511953 74.9936049 45.9015331 73.7539709zM38.6906241 78.127984C40.1024557 78.780966 41.9883654 80.2810067 43.3199455 80.6031576 43.5012544 79.0564402 44.4796288 78.3816758 45.0261975 79.6648747 45.5719406 80.9479098 46.6601242 81.6092444 46.9657734 81.8491789 43.3666763 82.0416178 42.4396561 80.7479371 38.6906241 78.127984zM21.4676638 69C21.4690062 71.7873132 21.0852455 73.8166473 20.1514334 74.2596397 19.2156076 74.7051457 17.8966923 73.8201278 17.1256471 73.0586683 16.3547696 72.2979822 13.0997673 71.9354285 12 71.7463204 13.9250122 73.2665325 16.3562798 74.4520349 17.4565505 75.1491048 18.5566534 75.845208 19.4926469 76.2893605 20.5914074 75.7802384 21.6910068 75.2726632 22.6261614 74.5759799 21.4676638 69zM54.8492116 54.7578159C54.6031392 53.8943211 54.0338619 52.964362 53 52 53.5778674 52.6792322 54.3436447 53.6398116 54.6620176 54.8138332 55.0143933 56.1094357 54.8280941 57.6472995 53.4370246 59 54.4401051 58.1238968 55.3735695 56.5959396 54.8492116 54.7578159zM36.0354822 1.47418928C35.8317316 1.85407279 36.5719734 3.12990796 36.5719734 3.12990796 36.5719734 3.12990796 38.3439773 3.2497898 40 4 39.5225965 1.69427717 36.7293316.183456713 36.0354822 1.47418928zM43.7070937 6.80716667C42.86525 4.89583333 42.395 4.6535 45.4566094 1.65766667 44.0030625 3.65333333 43.58025 4.27 44.1171875 5.7495 44.3799844 6.47116667 43.9434219 6.4875 43.7070937 6.80716667zM53.9379531.136C48.6158437 2.25566667 47.2795156 2.78766667 47.9890156 2.067 48.6974844 1.34466667 47.453625 1.4055 45.8978125 2.79266667L45.3490156 2.98316667C45.5746875 2.2275 45.8335312 1.967 46.1042344 1.7385 45.8175469 2.168 45.7635781 2.44116667 45.7414062 2.563 46.403125 1.77433333 48.4419062 1.295 48.6845937 1.31116667 48.9286563 1.32933333 48.6782344 1.6705 48.5677187 1.96333333 50.1212969 1.34633333 53.2913594.310666667 53.9379531.136zM44.2110313 6.92C45.4689844 6.73666667 46.7944844 7.166 48.0787344 8.88133333 46.6537188 7.266 45.1963906 6.9595 44.2110313 6.92zM49.7687813 7.76033333C50.7524219 7.36766667 51.4194688 6.65366667 51.0454688 5.25833333 51.8702969 7.28566667 50.4958125 7.635 49.7687813 7.76033333z"/>
      <path d="M52.4581094 4.1055C51.6461719 3.44833333 50.6800625 4.19033333 50.3337344 4.51416667 49.9882656 4.83783333 50.0087187 5.4165 49.1687656 6.2915 48.9125 6.55783333 49.3134844 7.359 49.5152656 7.67033333 49.7158437 7.98166667 49.4183281 8.314 48.3975625 8.54183333 47.3764531 8.76833333 47.2411875 7.85 46.5368437 7.30683333 45.8318125 6.76366667 45.9380312 6.75233333 46.5471562 6.36283333 47.1554219 5.97333333 49.2003906 5.1615 50.1309219 4.38116667 51.0609375 3.6005 52.029625 3.59466667 52.4581094 4.1055zM52.6500937 1.53233333C51.2041094 2.17016667 49.8382187 2.54266667 49.2471406 4.23866667 50.2312969 3.21866667 50.9820469 2.45066667 52.6500937 1.53233333z"/>
    </g>
    <use fill="#000" filter="url(#logo-b)" xlink:href="#logo-c"/>
    <use fill="#FFF" xlink:href="#logo-c"/>
    <use fill="#000" filter="url(#logo-d)" xlink:href="#logo-e"/>
    <use fill="#FFF" xlink:href="#logo-e"/>
    <g stroke-linecap="square">
      <use fill="#000" filter="url(#logo-f)" xlink:href="#logo-g"/>
      <use stroke="#FFF" xlink:href="#logo-g"/>
    </g>
  </g>
</svg>
