<svg xmlns:xlink="http://www.w3.org/1999/xlink" width="373" height="110" viewBox="0 0 373 110">
  <defs>
    <filter id="logo-en-a" width="116.5%" height="118%" x="-8.3%" y="-9%" filterUnits="objectBoundingBox">
      <feOffset in="SourceAlpha" result="shadowOffsetOuter1"/>
      <feGaussianBlur in="shadowOffsetOuter1" result="shadowBlurOuter1" stdDeviation="3"/>
      <feColorMatrix in="shadowBlurOuter1" result="shadowMatrixOuter1" values="0 0 0 0 0   0 0 0 0 0   0 0 0 0 0  0 0 0 0.5 0"/>
      <feMerge>
        <feMergeNode in="shadowMatrixOuter1"/>
        <feMergeNode in="SourceGraphic"/>
      </feMerge>
    </filter>
    <path id="logo-en-c" d="M1.892,28 L1.892,12.622 L5.324,12.622 L5.324,24.942 L11.88,24.942 L11.88,28 L1.892,28 Z M14.828,12.622 L18.26,12.622 L18.26,28 L14.828,28 L14.828,12.622 Z M32.934,16.714 C32.0539956,15.7459952 30.9723397,15.262 29.689,15.262 C28.4056602,15.262 27.3240044,15.7459952 26.444,16.714 C25.5639956,17.6820048 25.124,18.8516598 25.124,20.223 C25.124,21.5943402 25.5639956,22.7603285 26.444,23.721 C27.3240044,24.6816715 28.4056602,25.162 29.689,25.162 C30.9723397,25.162 32.0539956,24.6816715 32.934,23.721 C33.8140044,22.7603285 34.254,21.5943402 34.254,20.223 C34.254,18.8516598 33.8140044,17.6820048 32.934,16.714 Z M29.678,28.154 C27.4046553,28.154 25.4906744,27.3950076 23.936,25.877 C22.3813256,24.3589924 21.604,22.470678 21.604,20.212 C21.604,17.953322 22.3813256,16.0650076 23.936,14.547 C25.4906744,13.0289924 27.4046553,12.27 29.678,12.27 C31.9513447,12.27 33.8653256,13.0289924 35.42,14.547 C36.9746744,16.0650076 37.752,17.953322 37.752,20.212 C37.752,22.470678 36.9746744,24.3589924 35.42,25.877 C33.8653256,27.3950076 31.9513447,28.154 29.678,28.154 Z M51.854,12.622 L55.286,12.622 L55.286,28 L51.854,28 L44.528,18.364 L44.528,28 L41.096,28 L41.096,12.622 L44.308,12.622 L51.854,22.522 L51.854,12.622 Z M77.506,14.635 C78.972674,15.9770067 79.706,17.8433214 79.706,20.234 C79.706,22.6246786 78.9910071,24.5166597 77.561,25.91 C76.1309928,27.3033403 73.949348,28 71.016,28 L65.758,28 L65.758,12.622 L71.192,12.622 C73.9346804,12.622 76.039326,13.2929933 77.506,14.635 Z M74.987,23.776 C75.8303375,22.983996 76.252,21.8326742 76.252,20.322 C76.252,18.8113258 75.8303375,17.6490041 74.987,16.835 C74.1436624,16.0209959 72.849342,15.614 71.104,15.614 L69.19,15.614 L69.19,24.964 L71.368,24.964 C72.9373412,24.964 74.1436624,24.568004 74.987,23.776 Z M93.632,28 L92.202,24.678 L85.756,24.678 L84.326,28 L80.674,28 L87.318,12.622 L90.64,12.622 L97.284,28 L93.632,28 Z M88.99,17.198 L87.054,21.664 L90.904,21.664 L88.99,17.198 Z M110.264,12.622 L113.696,12.622 L113.696,28 L110.264,28 L102.938,18.364 L102.938,28 L99.506,28 L99.506,12.622 L102.718,12.622 L110.264,22.522 L110.264,12.622 Z M124.982,24.964 C126.668675,24.964 128.047328,24.2966733 129.118,22.962 L131.318,25.228 C129.572658,27.1933432 127.515678,28.176 125.147,28.176 C122.778321,28.176 120.827674,27.4280075 119.295,25.932 C117.762326,24.4359925 116.996,22.5476781 116.996,20.267 C116.996,17.9863219 117.776992,16.083341 119.339,14.558 C120.901008,13.032659 122.811322,12.27 125.07,12.27 C127.592679,12.27 129.704658,13.2306571 131.406,15.152 L129.272,17.572 C128.186661,16.2226599 126.837341,15.548 125.224,15.548 C123.933327,15.548 122.829671,15.9696625 121.913,16.813 C120.996329,17.6563376 120.538,18.7929929 120.538,20.223 C120.538,21.6530072 120.970662,22.8006623 121.836,23.666 C122.701338,24.5313377 123.749994,24.964 124.982,24.964 Z M145.552,12.622 L145.552,15.68 L137.896,15.68 L137.896,18.848 L144.782,18.848 L144.782,21.774 L137.896,21.774 L137.896,24.964 L145.794,24.964 L145.794,28 L134.464,28 L134.464,12.622 L145.552,12.622 Z M13.64,41.635 C15.106674,42.9770067 15.84,44.8433214 15.84,47.234 C15.84,49.6246786 15.1250071,51.5166597 13.695,52.91 C12.2649928,54.3033403 10.083348,55 7.15,55 L1.892,55 L1.892,39.622 L7.326,39.622 C10.0686804,39.622 12.173326,40.2929933 13.64,41.635 Z M11.121,50.776 C11.9643375,49.983996 12.386,48.8326742 12.386,47.322 C12.386,45.8113258 11.9643375,44.6490041 11.121,43.835 C10.2776624,43.0209959 8.98334206,42.614 7.238,42.614 L5.324,42.614 L5.324,51.964 L7.502,51.964 C9.07134118,51.964 10.2776624,51.568004 11.121,50.776 Z M31.724,44.726 C31.724,47.1900123 30.7486764,48.7813297 28.798,49.5 L32.692,55 L28.468,55 L25.058,50.094 L22.682,50.094 L22.682,55 L19.25,55 L19.25,39.622 L25.08,39.622 C27.4706786,39.622 29.1756616,40.0253293 30.195,40.832 C31.2143384,41.6386707 31.724,42.9366577 31.724,44.726 Z M27.588,46.552 C28.0133355,46.1706648 28.226,45.5656708 28.226,44.737 C28.226,43.9083292 28.0060022,43.3400015 27.566,43.032 C27.1259978,42.7239985 26.3560055,42.57 25.256,42.57 L22.682,42.57 L22.682,47.124 L25.19,47.124 C26.3633392,47.124 27.1626645,46.9333352 27.588,46.552 Z M46.64,55 L45.21,51.678 L38.764,51.678 L37.334,55 L33.682,55 L40.326,39.622 L43.648,39.622 L50.292,55 L46.64,55 Z M41.998,44.198 L40.062,48.664 L43.912,48.664 L41.998,44.198 Z M62.502,47.168 L65.956,47.168 L65.956,52.624 C64.430659,54.3253418 62.3186802,55.176 59.62,55.176 C57.361322,55.176 55.4656743,54.4280075 53.933,52.932 C52.4003257,51.4359925 51.634,49.5476781 51.634,47.267 C51.634,44.9863219 52.4149922,43.083341 53.977,41.558 C55.5390078,40.032659 57.4236556,39.27 59.631,39.27 C61.8383444,39.27 63.7559919,39.9959927 65.384,41.448 L63.602,44.022 C62.9126632,43.4206637 62.2783362,43.0063345 61.699,42.779 C61.1196638,42.5516655 60.49267,42.438 59.818,42.438 C58.5126601,42.438 57.4126711,42.8816622 56.518,43.769 C55.6233289,44.6563378 55.176,45.8259927 55.176,47.278 C55.176,48.7300073 55.6049957,49.892329 56.463,50.765 C57.3210043,51.637671 58.3439941,52.074 59.532,52.074 C60.7200059,52.074 61.709996,51.8466689 62.502,51.392 L62.502,47.168 Z M79.904,43.714 C79.0239956,42.7459952 77.9423397,42.262 76.659,42.262 C75.3756602,42.262 74.2940044,42.7459952 73.414,43.714 C72.5339956,44.6820048 72.094,45.8516598 72.094,47.223 C72.094,48.5943402 72.5339956,49.7603285 73.414,50.721 C74.2940044,51.6816715 75.3756602,52.162 76.659,52.162 C77.9423397,52.162 79.0239956,51.6816715 79.904,50.721 C80.7840044,49.7603285 81.224,48.5943402 81.224,47.223 C81.224,45.8516598 80.7840044,44.6820048 79.904,43.714 Z M76.648,55.154 C74.3746553,55.154 72.4606744,54.3950076 70.906,52.877 C69.3513256,51.3589924 68.574,49.470678 68.574,47.212 C68.574,44.953322 69.3513256,43.0650076 70.906,41.547 C72.4606744,40.0289924 74.3746553,39.27 76.648,39.27 C78.9213447,39.27 80.8353256,40.0289924 82.39,41.547 C83.9446744,43.0650076 84.722,44.953322 84.722,47.212 C84.722,49.470678 83.9446744,51.3589924 82.39,52.877 C80.8353256,54.3950076 78.9213447,55.154 76.648,55.154 Z M98.824,39.622 L102.256,39.622 L102.256,55 L98.824,55 L91.498,45.364 L91.498,55 L88.066,55 L88.066,39.622 L91.278,39.622 L98.824,49.522 L98.824,39.622 Z M124.476,41.635 C125.942674,42.9770067 126.676,44.8433214 126.676,47.234 C126.676,49.6246786 125.961007,51.5166597 124.531,52.91 C123.100993,54.3033403 120.919348,55 117.986,55 L112.728,55 L112.728,39.622 L118.162,39.622 C120.90468,39.622 123.009326,40.2929933 124.476,41.635 Z M121.957,50.776 C122.800338,49.983996 123.222,48.8326742 123.222,47.322 C123.222,45.8113258 122.800338,44.6490041 121.957,43.835 C121.113662,43.0209959 119.819342,42.614 118.074,42.614 L116.16,42.614 L116.16,51.964 L118.338,51.964 C119.907341,51.964 121.113662,51.568004 121.957,50.776 Z M140.602,55 L139.172,51.678 L132.726,51.678 L131.296,55 L127.644,55 L134.288,39.622 L137.61,39.622 L144.254,55 L140.602,55 Z M135.96,44.198 L134.024,48.664 L137.874,48.664 L135.96,44.198 Z M157.234,39.622 L160.666,39.622 L160.666,55 L157.234,55 L149.908,45.364 L149.908,55 L146.476,55 L146.476,39.622 L149.688,39.622 L157.234,49.522 L157.234,39.622 Z M171.952,51.964 C173.638675,51.964 175.017328,51.2966733 176.088,49.962 L178.288,52.228 C176.542658,54.1933432 174.485678,55.176 172.117,55.176 C169.748321,55.176 167.797674,54.4280075 166.265,52.932 C164.732326,51.4359925 163.966,49.5476781 163.966,47.267 C163.966,44.9863219 164.746992,43.083341 166.309,41.558 C167.871008,40.032659 169.781322,39.27 172.04,39.27 C174.562679,39.27 176.674658,40.2306571 178.376,42.152 L176.242,44.572 C175.156661,43.2226599 173.807341,42.548 172.194,42.548 C170.903327,42.548 169.799671,42.9696625 168.883,43.813 C167.966329,44.6563376 167.508,45.7929929 167.508,47.223 C167.508,48.6530072 167.940662,49.8006623 168.806,50.666 C169.671338,51.5313377 170.719994,51.964 171.952,51.964 Z M192.522,39.622 L192.522,42.68 L184.866,42.68 L184.866,45.848 L191.752,45.848 L191.752,48.774 L184.866,48.774 L184.866,51.964 L192.764,51.964 L192.764,55 L181.434,55 L181.434,39.622 L192.522,39.622 Z"/>
    <filter id="logo-en-b" width="109.4%" height="142%" x="-4.7%" y="-21%" filterUnits="objectBoundingBox">
      <feOffset in="SourceAlpha" result="shadowOffsetOuter1"/>
      <feGaussianBlur in="shadowOffsetOuter1" result="shadowBlurOuter1" stdDeviation="3"/>
      <feColorMatrix in="shadowBlurOuter1" values="0 0 0 0 0   0 0 0 0 0   0 0 0 0 0  0 0 0 0.5 0"/>
    </filter>
    <path id="logo-en-e" d="M3.36825,84.44675 C3.16574899,84.6132508 3.0645,84.8337486 3.0645,85.10825 C3.0645,85.3827514 3.18824876,85.6009992 3.43575,85.763 C3.68325124,85.9250008 4.25474552,86.1162489 5.15025,86.33675 C6.04575448,86.5572511 6.74099753,86.8879978 7.236,87.329 C7.73100247,87.7700022 7.9785,88.4134958 7.9785,89.2595 C7.9785,90.1055042 7.66125317,90.7917474 7.02675,91.31825 C6.39224683,91.8447526 5.55750518,92.108 4.5225,92.108 C3.02849253,92.108 1.68300598,91.5545055 0.486,90.4475 L1.7415,88.9085 C2.75850509,89.7995045 3.69899568,90.245 4.563,90.245 C4.95000193,90.245 5.2537489,90.1617508 5.47425,89.99525 C5.6947511,89.8287492 5.805,89.6037514 5.805,89.32025 C5.805,89.0367486 5.68800117,88.8117508 5.454,88.64525 C5.21999883,88.4787492 4.75650346,88.3100009 4.0635,88.139 C2.96549451,87.8779987 2.16225254,87.5382521 1.65375,87.11975 C1.14524746,86.7012479 0.891,86.0442545 0.891,85.14875 C0.891,84.2532455 1.21274678,83.5625024 1.85625,83.0765 C2.49975322,82.5904976 3.30299518,82.3475 4.266,82.3475 C4.89600315,82.3475 5.52599685,82.4554989 6.156,82.6715 C6.78600315,82.8875011 7.33499766,83.193498 7.803,83.5895 L6.7365,85.1285 C5.91749591,84.5074969 5.07150437,84.197 4.1985,84.197 C3.84749825,84.197 3.57075101,84.2802492 3.36825,84.44675 Z M13.3245,90.3125 C13.9995034,90.3125 14.6069973,89.9750034 15.147,89.3 L16.3485,90.65 C15.4124954,91.6220049 14.4000055,92.108 13.311,92.108 C12.2219946,92.108 11.3017538,91.7637534 10.55025,91.07525 C9.79874628,90.3867466 9.42300004,89.4867556 9.42300004,88.37525 C9.42300004,87.2637444 9.80324624,86.3592535 10.56375,85.66175 C11.3242538,84.9642465 12.2264948,84.6155 13.2705,84.6155 C13.7925027,84.6155 14.3212474,84.7234989 14.85675,84.9395 C15.3922527,85.1555011 15.862498,85.4749979 16.2675,85.898 L15.2145,87.275 C14.9804989,86.9959986 14.6947517,86.7800008 14.35725,86.627 C14.0197484,86.4739992 13.6845017,86.3975 13.3515,86.3975 C12.8204974,86.3975 12.363752,86.5707483 11.98125,86.91725 C11.5987481,87.2637517 11.4075,87.7452469 11.4075,88.36175 C11.4075,88.9782531 11.5987481,89.4574983 11.98125,89.7995 C12.363752,90.1415017 12.8114975,90.3125 13.3245,90.3125 Z M19.9935001,88.085 L19.9935001,92 L17.9685001,92 L17.9685001,81.983 L19.9935001,81.983 L19.9935001,85.547 C20.6055031,84.9259969 21.2917463,84.6155 22.0522501,84.6155 C22.8127539,84.6155 23.4539975,84.8854973 23.9760001,85.4255 C24.4980027,85.9655027 24.7590001,86.6854955 24.7590001,87.5855 L24.7590001,92 L22.7340001,92 L22.7340001,88.031 C22.7340001,86.9149944 22.3245042,86.357 21.5055001,86.357 C21.1004981,86.357 20.7472516,86.5032485 20.4457501,86.79575 C20.1442486,87.0882515 19.9935001,87.5179972 19.9935001,88.085 Z M28.9912501,89.81975 C29.3287518,90.1932519 29.7607475,90.38 30.2872501,90.38 C30.8137528,90.38 31.2457484,90.1932519 31.5832501,89.81975 C31.9207518,89.4462481 32.0895001,88.962503 32.0895001,88.3685 C32.0895001,87.774497 31.9207518,87.2885019 31.5832501,86.9105 C31.2457484,86.5324981 30.8137528,86.3435 30.2872501,86.3435 C29.7607475,86.3435 29.3287518,86.5324981 28.9912501,86.9105 C28.6537484,87.2885019 28.4850001,87.774497 28.4850001,88.3685 C28.4850001,88.962503 28.6537484,89.4462481 28.9912501,89.81975 Z M33.0345001,91.028 C32.3054965,91.7480036 31.3897556,92.108 30.2872501,92.108 C29.1847446,92.108 28.2690038,91.7480036 27.5400001,91.028 C26.8109965,90.3079964 26.4465001,89.4215053 26.4465001,88.3685 C26.4465001,87.3154947 26.8109965,86.4267536 27.5400001,85.70225 C28.2690038,84.9777464 29.1847446,84.6155 30.2872501,84.6155 C31.3897556,84.6155 32.3054965,84.9777464 33.0345001,85.70225 C33.7635038,86.4267536 34.1280001,87.3154947 34.1280001,88.3685 C34.1280001,89.4215053 33.7635038,90.3079964 33.0345001,91.028 Z M38.0227502,89.81975 C38.3602518,90.1932519 38.7922475,90.38 39.3187502,90.38 C39.8452528,90.38 40.2772485,90.1932519 40.6147502,89.81975 C40.9522518,89.4462481 41.1210002,88.962503 41.1210002,88.3685 C41.1210002,87.774497 40.9522518,87.2885019 40.6147502,86.9105 C40.2772485,86.5324981 39.8452528,86.3435 39.3187502,86.3435 C38.7922475,86.3435 38.3602518,86.5324981 38.0227502,86.9105 C37.6852485,87.2885019 37.5165002,87.774497 37.5165002,88.3685 C37.5165002,88.962503 37.6852485,89.4462481 38.0227502,89.81975 Z M42.0660002,91.028 C41.3369965,91.7480036 40.4212557,92.108 39.3187502,92.108 C38.2162446,92.108 37.3005038,91.7480036 36.5715002,91.028 C35.8424965,90.3079964 35.4780002,89.4215053 35.4780002,88.3685 C35.4780002,87.3154947 35.8424965,86.4267536 36.5715002,85.70225 C37.3005038,84.9777464 38.2162446,84.6155 39.3187502,84.6155 C40.4212557,84.6155 41.3369965,84.9777464 42.0660002,85.70225 C42.7950038,86.4267536 43.1595002,87.3154947 43.1595002,88.3685 C43.1595002,89.4215053 42.7950038,90.3079964 42.0660002,91.028 Z M46.9530002,92 L44.9280002,92 L44.9280002,81.983 L46.9530002,81.983 L46.9530002,92 Z M55.1002503,89.81975 C55.437752,90.1932519 55.8697477,90.38 56.3962503,90.38 C56.9227529,90.38 57.3547486,90.1932519 57.6922503,89.81975 C58.029752,89.4462481 58.1985003,88.962503 58.1985003,88.3685 C58.1985003,87.774497 58.029752,87.2885019 57.6922503,86.9105 C57.3547486,86.5324981 56.9227529,86.3435 56.3962503,86.3435 C55.8697477,86.3435 55.437752,86.5324981 55.1002503,86.9105 C54.7627486,87.2885019 54.5940003,87.774497 54.5940003,88.3685 C54.5940003,88.962503 54.7627486,89.4462481 55.1002503,89.81975 Z M59.1435003,91.028 C58.4144966,91.7480036 57.4987558,92.108 56.3962503,92.108 C55.2937448,92.108 54.3780039,91.7480036 53.6490003,91.028 C52.9199966,90.3079964 52.5555003,89.4215053 52.5555003,88.3685 C52.5555003,87.3154947 52.9199966,86.4267536 53.6490003,85.70225 C54.3780039,84.9777464 55.2937448,84.6155 56.3962503,84.6155 C57.4987558,84.6155 58.4144966,84.9777464 59.1435003,85.70225 C59.8725039,86.4267536 60.2370003,87.3154947 60.2370003,88.3685 C60.2370003,89.4215053 59.8725039,90.3079964 59.1435003,91.028 Z M64.3005003,84.3185 L64.3005003,84.8045 L66.0555003,84.8045 L66.0555003,86.2625 L64.3005003,86.2625 L64.3005003,92 L62.2620003,92 L62.2620003,86.2625 L61.4115003,86.2625 L61.4115003,84.8045 L62.2620003,84.8045 L62.2620003,84.359 C62.2620003,83.566996 62.5027479,82.9392523 62.9842503,82.47575 C63.4657527,82.0122477 64.0642467,81.7805 64.7797503,81.7805 C65.4952539,81.7805 66.1454974,82.0504973 66.7305003,82.5905 L66.0015003,83.954 C65.7044988,83.6119983 65.3760021,83.441 65.0160003,83.441 C64.8089993,83.441 64.638001,83.5152493 64.5030003,83.66375 C64.3679996,83.8122507 64.3005003,84.0304986 64.3005003,84.3185 Z M71.6175004,82.5635 L73.7235004,82.5635 L73.7235004,86.438 L77.2875004,82.5635 L79.8930004,82.5635 L76.1400004,86.735 C76.464002,87.1850022 77.062496,88.0242439 77.9355004,89.25275 C78.8085048,90.4812561 79.4609982,91.396997 79.8930004,92 L77.4360004,92 L74.6685004,88.274 L73.7235004,89.327 L73.7235004,92 L71.6175004,92 L71.6175004,82.5635 Z M85.6305004,88.652 L85.6305004,84.737 L87.6690004,84.737 L87.6690004,92 L85.6305004,92 L85.6305004,91.0415 C85.1264979,91.7525036 84.4762544,92.108 83.6797504,92.108 C82.8832465,92.108 82.2150031,91.8582525 81.6750004,91.35875 C81.1349977,90.8592475 80.8650004,90.1190049 80.8650004,89.138 L80.8650004,84.737 L82.9035004,84.737 L82.9035004,88.6925 C82.9035004,89.8085056 83.3129964,90.3665 84.1320004,90.3665 C84.5370025,90.3665 84.887999,90.2202515 85.1850004,89.92775 C85.4820019,89.6352485 85.6305004,89.2100028 85.6305004,88.652 Z M91.8810005,87.95 L91.8810005,92 L89.8560005,92 L89.8560005,84.737 L91.8810005,84.737 L91.8810005,85.547 C92.4930035,84.9259969 93.1814967,84.6155 93.9465005,84.6155 C94.7115043,84.6155 95.3527479,84.8854973 95.8702505,85.4255 C96.3877531,85.9655027 96.6465005,86.6854955 96.6465005,87.5855 L96.6465005,92 L94.6215005,92 L94.6215005,87.896 C94.6215005,86.7799944 94.2120046,86.222 93.3930005,86.222 C92.9879985,86.222 92.634752,86.3682485 92.3332505,86.66075 C92.031749,86.9532515 91.8810005,87.3829972 91.8810005,87.95 Z M103.356001,86.843 C103.031999,86.5099983 102.631503,86.3435 102.154501,86.3435 C101.677498,86.3435 101.265752,86.5099983 100.919251,86.843 C100.572749,87.1760017 100.399501,87.6304971 100.399501,88.2065 C100.399501,88.7825029 100.568249,89.2482482 100.905751,89.60375 C101.243252,89.9592518 101.654998,90.137 102.141001,90.137 C102.627003,90.137 103.031999,89.9615018 103.356001,89.6105 C103.680002,89.2594982 103.842001,88.7937529 103.842001,88.21325 C103.842001,87.6327471 103.680002,87.1760017 103.356001,86.843 Z M104.125501,90.7715 C103.486497,91.4825036 102.692255,91.838 101.742751,91.838 C100.793246,91.838 99.9922538,91.5162532 99.3397505,90.87275 C98.6872473,90.2292468 98.3610005,89.3697554 98.3610005,88.29425 C98.3610005,87.2187446 98.6962472,86.3367534 99.3667505,85.64825 C100.037254,84.9597466 100.804496,84.6155 101.668501,84.6155 C102.532505,84.6155 103.247998,84.9709964 103.815001,85.682 L103.815001,84.7235 L105.840001,84.7235 L105.840001,91.055 C105.840001,91.7030032 105.727502,92.2789975 105.502501,92.783 C105.277499,93.2870025 104.976002,93.6829986 104.598001,93.971 C103.850997,94.565003 102.969006,94.862 101.952001,94.862 C101.411998,94.862 100.860753,94.7742509 100.298251,94.59875 C99.7357477,94.4232491 99.2430026,94.1735016 98.8200005,93.8495 L99.6030005,92.324 C100.269004,92.8280025 100.973247,93.08 101.715751,93.08 C102.458254,93.08 103.045498,92.8955018 103.477501,92.5265 C103.909503,92.1574982 104.125501,91.572504 104.125501,90.7715 Z M118.543501,82.5635 L118.543501,84.413 L114.169501,84.413 L114.169501,86.4515 L118.327501,86.4515 L118.327501,88.301 L114.169501,88.301 L114.169501,92 L112.063501,92 L112.063501,82.5635 L118.543501,82.5635 Z M124.969501,88.652 L124.969501,84.737 L127.008001,84.737 L127.008001,92 L124.969501,92 L124.969501,91.0415 C124.465498,91.7525036 123.815255,92.108 123.018751,92.108 C122.222247,92.108 121.554003,91.8582525 121.014001,91.35875 C120.473998,90.8592475 120.204001,90.1190049 120.204001,89.138 L120.204001,84.737 L122.242501,84.737 L122.242501,88.6925 C122.242501,89.8085056 122.651997,90.3665 123.471001,90.3665 C123.876003,90.3665 124.226999,90.2202515 124.524001,89.92775 C124.821002,89.6352485 124.969501,89.2100028 124.969501,88.652 Z M135.438751,84.44675 C135.23625,84.6132508 135.135001,84.8337486 135.135001,85.10825 C135.135001,85.3827514 135.258749,85.6009992 135.506251,85.763 C135.753752,85.9250008 136.325246,86.1162489 137.220751,86.33675 C138.116255,86.5572511 138.811498,86.8879978 139.306501,87.329 C139.801503,87.7700022 140.049001,88.4134958 140.049001,89.2595 C140.049001,90.1055042 139.731754,90.7917474 139.097251,91.31825 C138.462748,91.8447526 137.628006,92.108 136.593001,92.108 C135.098993,92.108 133.753507,91.5545055 132.556501,90.4475 L133.812001,88.9085 C134.829006,89.7995045 135.769496,90.245 136.633501,90.245 C137.020503,90.245 137.32425,90.1617508 137.544751,89.99525 C137.765252,89.8287492 137.875501,89.6037514 137.875501,89.32025 C137.875501,89.0367486 137.758502,88.8117508 137.524501,88.64525 C137.2905,88.4787492 136.827004,88.3100009 136.134001,88.139 C135.035995,87.8779987 134.232753,87.5382521 133.724251,87.11975 C133.215748,86.7012479 132.961501,86.0442545 132.961501,85.14875 C132.961501,84.2532455 133.283248,83.5625024 133.926751,83.0765 C134.570254,82.5904976 135.373496,82.3475 136.336501,82.3475 C136.966504,82.3475 137.596498,82.4554989 138.226501,82.6715 C138.856504,82.8875011 139.405498,83.193498 139.873501,83.5895 L138.807001,85.1285 C137.987997,84.5074969 137.142005,84.197 136.269001,84.197 C135.917999,84.197 135.641252,84.2802492 135.438751,84.44675 Z M143.937001,88.085 L143.937001,92 L141.912001,92 L141.912001,81.983 L143.937001,81.983 L143.937001,85.547 C144.549004,84.9259969 145.235247,84.6155 145.995751,84.6155 C146.756255,84.6155 147.397498,84.8854973 147.919501,85.4255 C148.441503,85.9655027 148.702501,86.6854955 148.702501,87.5855 L148.702501,92 L146.677501,92 L146.677501,88.031 C146.677501,86.9149944 146.268005,86.357 145.449001,86.357 C145.043999,86.357 144.690752,86.5032485 144.389251,86.79575 C144.087749,87.0882515 143.937001,87.5179972 143.937001,88.085 Z M156.978001,92 L155.074501,92 L155.074501,91.1225 C154.552498,91.7795033 153.906755,92.108 153.137251,92.108 C152.367747,92.108 151.722003,91.8852522 151.200001,91.43975 C150.677998,90.9942478 150.417001,90.4002537 150.417001,89.65775 C150.417001,88.9152463 150.686998,88.3595018 151.227001,87.9905 C151.767004,87.6214982 152.504996,87.437 153.441001,87.437 L154.953001,87.437 L154.953001,87.3965 C154.953001,86.6224961 154.543505,86.2355 153.724501,86.2355 C153.373499,86.2355 153.002253,86.3052493 152.610751,86.44475 C152.219249,86.5842507 151.888502,86.757499 151.618501,86.9645 L150.714001,85.655 C151.668006,84.9619965 152.756995,84.6155 153.981001,84.6155 C154.863005,84.6155 155.582998,84.8359978 156.141001,85.277 C156.699004,85.7180022 156.978001,86.4154952 156.978001,87.3695 L156.978001,92 Z M154.939501,89.2325 L154.939501,88.8815 L153.670501,88.8815 C152.860497,88.8815 152.455501,89.1334975 152.455501,89.6375 C152.455501,89.8985013 152.55225,90.0987493 152.745751,90.23825 C152.939252,90.3777507 153.215999,90.4475 153.576001,90.4475 C153.936003,90.4475 154.253249,90.3372511 154.527751,90.11675 C154.802252,89.8962489 154.939501,89.6015018 154.939501,89.2325 Z M161.223751,89.81975 C161.561253,90.1932519 161.993248,90.38 162.519751,90.38 C163.046253,90.38 163.478249,90.1932519 163.815751,89.81975 C164.153253,89.4462481 164.322001,88.962503 164.322001,88.3685 C164.322001,87.774497 164.153253,87.2885019 163.815751,86.9105 C163.478249,86.5324981 163.046253,86.3435 162.519751,86.3435 C161.993248,86.3435 161.561253,86.5324981 161.223751,86.9105 C160.886249,87.2885019 160.717501,87.774497 160.717501,88.3685 C160.717501,88.962503 160.886249,89.4462481 161.223751,89.81975 Z M165.267001,91.028 C164.537997,91.7480036 163.622256,92.108 162.519751,92.108 C161.417245,92.108 160.501504,91.7480036 159.772501,91.028 C159.043497,90.3079964 158.679001,89.4215053 158.679001,88.3685 C158.679001,87.3154947 159.043497,86.4267536 159.772501,85.70225 C160.501504,84.9777464 161.417245,84.6155 162.519751,84.6155 C163.622256,84.6155 164.537997,84.9777464 165.267001,85.70225 C165.996004,86.4267536 166.360501,87.3154947 166.360501,88.3685 C166.360501,89.4215053 165.996004,90.3079964 165.267001,91.028 Z M170.154001,92 L168.129001,92 L168.129001,81.983 L170.154001,81.983 L170.154001,92 Z M174.366001,92 L172.341001,92 L172.341001,84.737 L174.366001,84.737 L174.366001,92 Z M172.165501,82.9685 C172.165501,82.6354983 172.28025,82.3542511 172.509751,82.12475 C172.739252,81.8952489 173.020499,81.7805 173.353501,81.7805 C173.686503,81.7805 173.96775,81.8952489 174.197251,82.12475 C174.426752,82.3542511 174.541501,82.6354983 174.541501,82.9685 C174.541501,83.3015017 174.426752,83.5827489 174.197251,83.81225 C173.96775,84.0417511 173.686503,84.1565 173.353501,84.1565 C173.020499,84.1565 172.739252,84.0417511 172.509751,83.81225 C172.28025,83.5827489 172.165501,83.3015017 172.165501,82.9685 Z M178.578001,87.95 L178.578001,92 L176.553001,92 L176.553001,84.737 L178.578001,84.737 L178.578001,85.547 C179.190004,84.9259969 179.878497,84.6155 180.643501,84.6155 C181.408505,84.6155 182.049748,84.8854973 182.567251,85.4255 C183.084754,85.9655027 183.343501,86.6854955 183.343501,87.5855 L183.343501,92 L181.318501,92 L181.318501,87.896 C181.318501,86.7799944 180.909005,86.222 180.090001,86.222 C179.684999,86.222 179.331752,86.3682485 179.030251,86.66075 C178.728749,86.9532515 178.578001,87.3829972 178.578001,87.95 Z M192.969001,88.571 L195.372001,82.5635 L197.653501,82.5635 L193.860001,92 L192.078001,92 L188.284501,82.5635 L190.566001,82.5635 L192.969001,88.571 Z M203.202001,88.652 L203.202001,84.737 L205.240501,84.737 L205.240501,92 L203.202001,92 L203.202001,91.0415 C202.697999,91.7525036 202.047755,92.108 201.251251,92.108 C200.454747,92.108 199.786504,91.8582525 199.246501,91.35875 C198.706498,90.8592475 198.436501,90.1190049 198.436501,89.138 L198.436501,84.737 L200.475001,84.737 L200.475001,88.6925 C200.475001,89.8085056 200.884497,90.3665 201.703501,90.3665 C202.108503,90.3665 202.4595,90.2202515 202.756501,89.92775 C203.053503,89.6352485 203.202001,89.2100028 203.202001,88.652 Z M215.595001,92 L211.464001,92 L211.464001,82.5635 L215.136001,82.5635 C215.775004,82.5635 216.326249,82.6399992 216.789751,82.793 C217.253253,82.9460008 217.602,83.1529987 217.836001,83.414 C218.259003,83.9000024 218.470501,84.4489969 218.470501,85.061 C218.470501,85.7990037 218.232004,86.3479982 217.755001,86.708 C217.593,86.8340006 217.480501,86.9127498 217.417501,86.94425 C217.354501,86.9757502 217.242002,87.0274996 217.080001,87.0995 C217.665004,87.2255006 218.130749,87.488748 218.477251,87.88925 C218.823753,88.289752 218.997001,88.786997 218.997001,89.381 C218.997001,90.0380033 218.772003,90.6184975 218.322001,91.1225 C217.799999,91.7075029 216.891008,92 215.595001,92 Z M213.570001,86.384 L214.569001,86.384 C215.154004,86.384 215.58825,86.3210006 215.871751,86.195 C216.155253,86.0689994 216.297001,85.7967521 216.297001,85.37825 C216.297001,84.9597479 216.166502,84.6830007 215.905501,84.548 C215.6445,84.4129993 215.203504,84.3455 214.582501,84.3455 L213.570001,84.3455 L213.570001,86.384 Z M213.570001,90.218 L215.014501,90.218 C215.617504,90.218 216.06975,90.1437507 216.371251,89.99525 C216.672753,89.8467493 216.823501,89.5542522 216.823501,89.11775 C216.823501,88.6812478 216.663753,88.3932507 216.344251,88.25375 C216.02475,88.1142493 215.514005,88.0445 214.812001,88.0445 L213.570001,88.0445 L213.570001,90.218 Z M227.002501,92 L225.099001,92 L225.099001,91.1225 C224.576999,91.7795033 223.931255,92.108 223.161751,92.108 C222.392247,92.108 221.746504,91.8852522 221.224501,91.43975 C220.702499,90.9942478 220.441501,90.4002537 220.441501,89.65775 C220.441501,88.9152463 220.711499,88.3595018 221.251501,87.9905 C221.791504,87.6214982 222.529497,87.437 223.465501,87.437 L224.977501,87.437 L224.977501,87.3965 C224.977501,86.6224961 224.568005,86.2355 223.749001,86.2355 C223.397999,86.2355 223.026753,86.3052493 222.635251,86.44475 C222.243749,86.5842507 221.913003,86.757499 221.643001,86.9645 L220.738501,85.655 C221.692506,84.9619965 222.781495,84.6155 224.005501,84.6155 C224.887506,84.6155 225.607498,84.8359978 226.165501,85.277 C226.723504,85.7180022 227.002501,86.4154952 227.002501,87.3695 L227.002501,92 Z M224.964001,89.2325 L224.964001,88.8815 L223.695001,88.8815 C222.884997,88.8815 222.480001,89.1334975 222.480001,89.6375 C222.480001,89.8985013 222.57675,90.0987493 222.770251,90.23825 C222.963752,90.3777507 223.240499,90.4475 223.600501,90.4475 C223.960503,90.4475 224.27775,90.3372511 224.552251,90.11675 C224.826753,89.8962489 224.964001,89.6015018 224.964001,89.2325 Z"/>
    <filter id="logo-en-d" width="107.9%" height="237.6%" x="-4%" y="-68.8%" filterUnits="objectBoundingBox">
      <feOffset in="SourceAlpha" result="shadowOffsetOuter1"/>
      <feGaussianBlur in="shadowOffsetOuter1" result="shadowBlurOuter1" stdDeviation="3"/>
      <feColorMatrix in="shadowBlurOuter1" values="0 0 0 0 0   0 0 0 0 0   0 0 0 0 0  0 0 0 0.5 0"/>
    </filter>
    <path id="logo-en-g" d="M0.5,68.5 L227.5,68.5"/>
    <filter id="logo-en-f" width="108.3%" height="733.3%" x="-4.2%" y="-316.7%" filterUnits="objectBoundingBox">
      <feMorphology in="SourceAlpha" operator="dilate" radius=".5" result="shadowSpreadOuter1"/>
      <feOffset in="shadowSpreadOuter1" result="shadowOffsetOuter1"/>
      <feMorphology in="SourceAlpha" radius="1" result="shadowInner"/>
      <feOffset in="shadowInner" result="shadowInner"/>
      <feComposite in="shadowOffsetOuter1" in2="shadowInner" operator="out" result="shadowOffsetOuter1"/>
      <feGaussianBlur in="shadowOffsetOuter1" result="shadowBlurOuter1" stdDeviation="3"/>
      <feColorMatrix in="shadowBlurOuter1" values="0 0 0 0 0   0 0 0 0 0   0 0 0 0 0  0 0 0 0.5 0"/>
    </filter>
  </defs>
  <g fill="none" fill-rule="evenodd" transform="translate(6 5)">
    <g fill="#FFF" fill-rule="nonzero" filter="url(#logo-en-a)" transform="translate(253)">
      <path d="M51.8376346,57.2297435 C51.431312,55.8203302 50.3227816,54.3512783 48.1807314,52.9047968 C49.3551251,53.9496243 50.8975875,55.4363042 51.4106882,57.3547867 C51.9771781,59.4721193 51.3100639,62.0869888 47.9841398,64.5893358 C50.3663577,62.9512532 52.6986792,60.22798 51.8376346,57.2297435 Z"/>
      <path d="M52.8440439 57.4051994C54.4031384 60.1737781 55.3899218 62.165079 52.3346022 64.4053131 50.4905996 65.7590418 49.5096374 66.9890453 48.9301745 68.8029133 49.3727551 66.4290692 50.5054022 65.4247695 52.1642894 63.9450091 53.8221786 62.4639307 54.7134937 61.1937288 52.8440439 57.4051994zM47.3961945 66.4707503C45.800842 69.6126464 44.4521438 72.1138403 49.8762093 72.6841955 45.9435456 71.6970295 45.7857068 70.424686 47.3961945 66.4707503zM48.6273037 58.3806683C49.4466017 62.644329 48.3059713 65.0313529 43.3036962 66.2320314 48.1858874 64.6603419 49.19712 61.8087306 48.6273037 58.3806683zM35.1211945 53.2428583C34.631545 57.0381424 34.0299614 56.366138 36.77925 59.6207214 37.4748051 60.4439637 37.2233275 60.9097044 36.5169616 61.7395367 35.8112609 62.5693689 34.2784452 63.8357816 32.7950268 65.2066441 36.0136738 61.7316288 37.5351797 60.7746116 36.4081876 59.8299505 35.2816944 58.8834771 33.3633462 56.7733934 34.8938335 52.954221 35.0841049 52.5606397 35.2288043 52.7375783 35.1211945 53.2428583zM40.8797318 67.0345156C39.4237564 64.4463352 38.9349385 62.8697033 40.9093369 61.0298052 42.8845669 59.1871064 44.922999 58.0556218 45.650654 56.4203399 46.3771448 54.7835753 45.0324383 53.4258926 44.8075721 53.3499441 45.6807582 54.3212943 46.0802616 55.8583868 44.6352634 57.2712598 45.0059933 55.5715617 45.0176357 54.2366142 43.5546749 53.5081015 44.9138513 54.5308529 45.0113155 57.0948154 43.1982486 58.3035665 43.6822432 56.8794907 44.2883175 54.8727036 41.773708 53.6163405 43.9924321 54.9939576 43.7020354 57.5918581 42.0483042 59.1190658 40.3932424 60.6457792 37.0041162 63.2776177 40.8797318 67.0345156z"/>
      <path d="M45.6815898 56.1168753C48.3615225 57.5381505 48.9353305 60.0942052 44.7385488 63.6515941 40.7727873 67.0134279 43.3484366 71.9980229 44.9923549 73.2326393 42.0100503 71.6139969 40.0747374 67.5103059 44.4872376 63.3362677 48.2058459 59.8203951 48.7473876 58.7950078 45.6815898 56.1168753zM32.041093 52.4487762C29.3618256 53.8741701 28.8109699 56.4063364 32.9922837 59.9831655 36.1964607 62.7217602 34.0657204 67.2135959 32.423798 68.4488713 35.4037741 66.8280872 36.6237398 62.918139 33.2437613 59.6680039 29.5552571 56.1201703 28.9772911 55.1297094 32.041093 52.4487762zM56.8031527 38.6098365C56.0951235 39.4617449 54.6744082 40.870005 53.5534036 41.2034536 53.9642169 40.2777384 55.2706696 38.7584386 55.7205683 38.4620581 55.1969893 38.9815065 54.9351998 39.9070569 54.7484211 40.1668634 55.3837679 39.9428071 56.2052281 39.0913929 56.8031527 38.6098365zM24.21219 37.9172388C26.3821821 39.6203966 28.7003663 41.025197 29.4862338 42.3576733 30.2721012 43.6914676 32.1423826 44.0605016 33.2628882 43.9483087 34.3845581 43.8369395 36.4785414 43.9092636 37.3019974 44.1321667 34.8331262 43.0590027 32.888333 42.4309859 31.7297398 42.1721678 30.5709804 41.913185 29.2984572 41.0611119 24.21219 37.9172388zM20.0371964 33.2341314C18.0932348 33.7280439 17.3951849 34.1237669 16.8978847 35.0623324 16.3995865 36.0008979 16.3505217 36.8402855 18.7929479 35.3573949 18.2449197 36.9870754 15.500787 42.7858516 16.7483619 46.438794 17.3371388 42.3402101 17.9284105 41.885178 19.1753202 40.51794 18.7828023 43.3814132 18.1940254 47.0882279 21.3463102 48.9735962 20.9473058 47.7892277 20.7540406 44.3557288 21.6072681 43.4438524 23.3536402 47.4916941 25.1565615 48.5814976 29.1188304 49.0286218 25.7458374 47.0839445 25.1164781 46.3498304 24.1696118 45.2641456 23.2225792 44.1779665 22.3938009 41.4772636 22.3928029 39.9953615 21.945399 41.0332696 20.4711283 42.1837001 20.6221479 42.9239099 20.0955752 40.5826857 19.9640151 40.2579687 20.8807773 37.3953192 19.765095 37.5905448 18.4027585 38.9007803 18.4528211 39.5423063 18.0519871 37.3701129 18.7937795 36.2465362 19.9392333 34.6165262 19.191786 34.7647988 18.094399 35.0618382 17.6958936 35.2598645 18.1933601 34.4690773 18.741222 33.8761517 20.0371964 33.2341314zM29.8767559 47.3516589C33.0621386 49.3324159 36.3672726 50.23276 37.6095252 49.57097 37.2055312 49.7859653 43.7605805 47.8002658 47.8783596 47.9902195 42.9577483 48.6052212 40.9000229 49.5765714 39.7936546 50.0044202 38.6879516 50.43161 33.9750754 50.6708231 29.8767559 47.3516589z"/>
      <path d="M47.471538 47.483951C51.3110619 47.9747332 55.1241406 47.069282 56.8414065 43.3799304 57.4388321 42.0965488 58.2855731 42.0472894 58.3861974 42.3416928 59.2326057 40.7126713 59.4308606 39.3296175 59.3817958 38.5890783 59.3299036 37.8488686 59.7793034 38.1455785 60.0289514 38.4899004 59.9772255 35.9717376 59.1782187 34.0468299 57.5836978 32.4680564 61.772995 37.008822 61.4752802 39.5268201 60.6781029 40.6128344 59.8819235 41.700661 59.930323 40.0207326 59.9299903 39.4782196 59.9296577 38.9340592 59.6296143 38.5394894 59.580217 39.3294528 59.5318175 40.1199104 59.8331914 42.9840426 57.7388755 44.7623252 55.6467217 46.5397841 51.75963 49.0604181 47.471538 47.483951zM14.754005 34.4216301C15.3534264 36.1493353 17.6732739 38.8146174 18.4701185 39.1101741L18.3458766 38.4188944C16.6999625 37.3337037 15.2533011 35.1621693 14.754005 34.4216301z"/>
      <path d="M47.1259227 43.7478112C45.6992198 43.928539 43.1593295 43.8950953 40.6202708 43.7514356 45.5304039 43.6504455 49.2688044 43.1791035 52.5090731 41.9929227 50.4666494 43.1039787 48.6134991 43.560823 47.1259227 43.7478112zM51.5956373 39.4521896C52.392981 39.9947025 53.0409682 40.3401776 54.8355734 39.4998015 53.43964 40.438367 52.8931087 40.487956 51.5956373 39.4521896zM18.0290348 29.567515C18.8899131 30.2708213 18.8523245 30.6049289 20.4589869 30.4182702 20.0859285 29.9377022 20.4213983 30.1232077 20.9823995 30.1963555 21.5437334 30.2693386 21.9918026 30.3808725 22.6286463 30.3065715 21.5803241 30.7512245 21.6561665 31.1952186 23.5630386 31.3799003 22.7031582 31.4911047 22.9090638 31.7878147 22.9463197 31.9734849 22.9840746 32.1580019 23.2641595 32.2311497 23.712395 32.4158315 24.161961 32.6018312 24.4606738 32.6576805 26.2180231 32.748621 24.7600519 32.8978821 24.9099073 32.9158396 25.2831319 33.1380837 25.6571882 33.3595041 25.9939885 33.9712109 27.9372849 33.7105807 29.8824108 33.4504446 31.0601309 32.9863514 32.0495754 32.6349454 31.3400494 33.4305102 29.8982113 33.6524249 29.3398712 33.9693987 28.9480185 34.1921371 29.4526369 34.2850546 30.4623726 34.1168475 31.6467456 33.9204687 29.5098514 35.4501476 28.9862724 35.6356531 28.4633587 35.8214881 26.8560311 36.2294025 27.4162007 35.3402612 27.9768693 34.4509551 28.3499277 33.6364444 27.2656801 34.2664381 26.1824304 34.8961024 24.7745218 35.0582137 25.4709085 34.3418924 25.9943212 33.8043219 25.7699539 33.8598417 25.432821 33.6380918 25.0958543 33.4166714 24.8350627 33.1199615 24.6481178 33.2319897 24.4611728 33.3431941 23.8263249 33.7504495 22.8916001 33.6030007 23.5267806 33.4542338 24.1985517 33.2680693 24.5365163 32.9356093 23.8630819 32.861473 22.9649477 32.4545471 22.7776701 32.3435074 22.5915567 32.2318087 22.1054 32.5664105 21.5814883 32.6036434 21.0594062 32.6413705 19.7133691 33.0482964 18.1418006 31.4205929 19.6756142 32.5303308 20.2327901 32.5474646 21.6383702 32.2148397 22.8150923 31.9365815 22.2727191 31.584187 22.0856078 31.5843517 21.8999934 31.5843517 21.1142922 31.39967 20.9271809 31.1408519 20.7402359 30.8825281 20.6838531 30.7708295 20.4217309 30.7709942 20.1607731 30.7708295 19.0386042 31.0490877 18.0290348 29.567515zM30.7055342 35.0791367C31.2479075 34.1684135 32.100137 32.8570248 32.1766448 33.6959181 32.250824 34.5359647 32.5986015 33.9674217 32.7986859 33.7199713 32.9981049 33.4726855 33.9700858 33.226553 33.6707077 33.9175033 33.3734918 34.6091125 32.2518219 36.0422495 31.1800484 36.6355046 30.1087739 37.227936 29.1366267 36.8827903 29.6843223 36.363342 30.2321842 35.8453764 30.3823722 35.6223086 30.7055342 35.0791367zM14.4744191 24.0522689C15.2967109 26.2002445 16.1229944 31.5319621 12.5352808 32.4978756 17.4706947 32.4192911 17.5408822 25.0883648 14.4744191 24.0522689z"/>
      <path d="M12.8300019 25.461188C12.2345722 30.7197578 11.8610149 30.8685246 12.0072112 26.2022215 10.589656 29.6838266 10.8896993 31.2393708 12.2347385 31.1647403 13.5801103 31.089286 15.4490611 29.9037643 12.8300019 25.461188zM43.3946739 30.0568146C41.7431049 31.0079008 41.5702972 33.7179943 43.2167103 33.9812605 44.1876932 34.1357935 44.7649939 31.8813911 44.6582157 31.0655624 46.1921957 30.9663845 47.2942397 33.7146993 44.5587557 34.3974122 41.8246022 35.0822669 40.0790617 33.476969 39.9764416 32.2543791 39.8739877 31.0309655 41.4937895 29.3398342 43.3946739 30.0568146z"/>
      <path d="M43.3946739 30.0568146C41.7431049 31.0079008 41.5702972 33.7179943 43.2167103 33.9812605 44.1876932 34.1357935 44.7649939 31.8813911 44.6582157 31.0655624 46.1921957 30.9663845 47.2942397 33.7146993 44.5587557 34.3974122 41.8246022 35.0822669 40.0790617 33.476969 39.9764416 32.2543791 39.8739877 31.0309655 41.4937895 29.3398342 43.3946739 30.0568146zM37.3143052 33.3087619C38.4677424 34.057209 38.6465376 35.2440487 36.9612054 35.7135786 35.2747089 36.1817905 34.0529137 34.396259 33.9463018 33.76643 34.3424788 35.84307 35.4591591 36.4058468 37.4796284 36.1981005 39.5007631 35.9915073 41.5391951 33.2651039 37.3143052 33.3087619zM56.0936266 28.832083C56.2684302 30.3606086 56.1056017 31.366391 55.0263438 31.5120277 53.9449236 31.6570053 53.5835078 30.462752 53.6533627 29.4261618 53.7225523 28.3877594 53.9414309 27.9004369 53.2904499 28.506707 52.6383047 29.1123182 51.7029145 30.5111877 52.2822111 31.2482672 52.8628382 31.9855115 53.8481247 32.2059434 54.7121631 32.212698 55.5753699 32.2179699 57.0250251 31.9848525 57.066439 30.6413381 57.1081857 29.2973294 56.3076819 29.0170942 56.0936266 28.832083zM50.7232829 30.1466019C52.9882444 32.1255467 53.9733646 33.3128806 53.3418431 34.9430554 53.2282458 35.2382826 53.2242541 35.7943048 53.6744854 35.5377932 54.1248831 35.2825996 54.3926602 34.3954353 54.5455093 34.0264013 54.6980258 33.6572025 55.7804439 33.8497921 55.7741237 34.8863823 55.7653087 35.9231372 55.2405654 36.0305524 55.0564479 35.6952916 54.8728294 35.3620078 54.7966543 35.472059 54.3103312 35.7272526 53.8205154 35.9834347 53.0727355 36.0526286 53.0012174 35.4961121 52.9313625 34.9395957 52.9143978 32.1621206 50.7232829 30.1466019zM44.2562175 34.9143893C44.4390044 35.9158883 44.6878209 37.1771938 45.3243319 37.1440796 46.0726108 37.1058582 46.0726108 36.4173791 46.0508227 34.9272396 46.903385 35.9704197 47.9009792 37.5327185 46.0298663 37.7419476 44.1597512 37.950353 43.5264003 37.5757176 43.4943003 36.8341899 43.4626993 36.0939802 43.8044892 35.42906 44.2562175 34.9143893z"/>
      <path d="M48.1720827 32.2893055C49.4619033 34.890501 50.4405369 37.7879121 47.7798974 40.026334 46.6878328 40.9441413 44.5735583 41.4627659 42.661364 39.4332436 41.9934182 38.7258186 42.0363291 38.2576067 42.4163729 37.0618707 42.5695547 36.581138 42.6532142 35.3598661 42.010383 36.3554342 41.3678843 37.3501785 40.0446333 39.378218 37.9095686 39.8432997 35.7751692 40.3095346 34.5069705 39.9301215 33.2878364 37.9587551 34.4672197 40.3375417 35.6930066 41.3462895 41.0122897 39.9770745 43.3179999 41.5490935 46.5955245 43.238742 50.0651501 39.375582 53.5324472 35.5120926 50.8614958 32.826876 50.2640702 32.5268712 49.6684741 32.226372 48.3244329 31.9561864 48.1720827 32.2893055zM47.8908337 11.8683808C47.1816403 13.3942705 47.4196458 14.9768332 47.4136583 15.8162209 49.1628578 15.1364734 49.2691371 14.298898 49.4278074 13.0649406 49.5863115 11.8324659 49.0860175 12.0749739 47.8908337 11.8683808zM45.947371 18.4712887C45.5345619 20.3444657 45.9751466 21.4840229 47.1708294 21.541355 48.3681754 21.5996756 49.4154997 21.4586519 49.2237314 20.3214011 49.0336263 19.1848093 48.5893825 18.5399883 47.7945337 18.2373475 48.0839325 19.4745999 47.9250958 20.7074041 47.326506 20.9011469 46.7259203 21.0935718 45.8810088 20.8415084 45.947371 18.4712887z"/>
      <path d="M42.824026 16.2274302C42.960742 17.9561238 42.7094308 18.2994572 42.355333 18.9395006 42.0014016 19.5780612 42.1984922 19.9751022 42.5958334 20.1260108 42.9943389 20.2770841 43.8315996 21.5177961 43.8731799 22.7522478 43.9139286 23.9866995 44.353349 25.1755162 45.3546024 24.541239 46.356521 23.9054791 47.6529944 23.9148697 48.200191 24.1165204 48.746556 24.3186654 50.4370442 25.0226307 50.4451939 23.9352983 50.4521794 22.8491193 50.4052769 22.5524093 50.157292 22.4021598 49.9093072 22.2522397 49.4602401 22.1500964 49.3572873 22.6931035 49.2535029 23.2351222 49.247349 24.0249209 48.7003187 23.8733533 48.1522905 23.7211268 46.7558581 23.8095961 46.0085772 23.8532542 45.2594667 23.8974065 44.9599223 23.9941131 44.5685686 22.9046391 44.1787118 21.816483 43.1939243 20.2291426 42.6478919 19.8296303 42.5519246 19.3360474 42.9539229 18.8451004 43.4557138 18.4530017 43.9565068 18.0617268 44.9604213 17.2300824 45.0168041 16.2420927 45.0745176 15.2552562 42.8802426 15.3880426 42.824026 16.2274302zM41.5283843 24.6359687L41.7688846 27.4524889C42.4093874 26.9752159 42.8624462 26.2748751 43.1262316 25.9069943 43.3906822 25.5377955 43.8392504 25.6893631 43.5328868 26.6144193 43.2271885 27.5366748 42.7684748 28.8673389 41.5716278 28.8955107 40.3749471 28.9248357 41.1258871 28.4109888 41.3144953 28.2268013 41.5041014 28.0434375 41.5523345 26.4514842 41.5283843 24.6359687zM35.7420713 10.4991658C38.0529374 11.4914389 39.934196 12.3252251 41.6709215 14.8926474 41.8786566 15.2012191 42.0328363 14.699893 42.2463927 14.3389316 42.459949 13.9784645 43.90844 13.5423783 44.4506469 13.4064618 44.9946834 13.2715337 45.3268268 12.994923 44.4884018 12.2916167 43.6516401 11.5878161 42.7222375 11.0510693 41.7921696 10.6540283 42.9304716 11.3314693 43.8271089 12.314846 43.9448643 12.7342927 44.0612891 13.1529157 42.8544628 13.5626422 42.009385 13.8354638 41.7381152 13.9458445 39.1067483 11.4158199 35.7420713 10.4991658z"/>
      <path d="M41.9155799,22.8249014 C41.9609856,19.7156252 39.3227994,14.3619962 33.6540756,12.4321461 C37.5275289,14.5341572 41.9844369,18.4918821 38.1202975,25.4265911 C34.6426885,20.3644002 31.7506963,17.3521601 25.5452541,17.0402934 C22.1063979,16.8669793 20.0722902,19.0001276 19.537235,20.6256894 C20.5609417,18.6330706 23.1302709,16.9496824 26.1268791,17.804721 C30.8262833,19.1734418 32.3446291,23.4029997 33.4478373,26.6020632 C33.8601475,27.7943396 34.4307954,28.955314 34.8387812,29.3283019 C35.2469333,29.7016193 34.9483868,29.7362163 35.4337119,29.813318 C35.919037,29.8910788 37.9760971,29.7948663 38.5745206,29.7993145 C39.1727778,29.8035979 40.1099975,29.3286314 39.7813469,28.4012687 C39.4511994,27.4729176 40.3855916,27.5160814 41.0317493,26.1513146 C41.2484658,25.6915048 41.8924613,24.4007095 41.9155799,22.8249014 Z"/>
      <path d="M32.6308678,26.7694465 C32.6260445,27.478519 32.082507,28.0485447 31.4173887,28.0449203 C30.7519378,28.0394836 30.2170489,27.4612205 30.2218723,26.7523128 C30.2266956,26.0438993 30.7702331,25.4723909 31.4363493,25.478157 C32.101135,25.4824404 32.6355248,26.0618568 32.6308678,26.7694465 Z"/>
      <path d="M32.9116179,27.1290899 C31.5990114,27.6379944 30.1754687,28.0352002 29.9587522,26.9967978 C29.7412041,25.9585602 29.6364218,24.9213111 30.4277778,24.1484814 C28.9984139,25.3232945 28.9889335,26.6562651 29.0942148,27.5094915 C27.8368269,25.6109433 28.3745432,23.7265635 29.7704766,21.9952339 C31.1665764,20.2652223 30.1152604,20.8874729 29.5506001,21.3644164 C28.9864387,21.8426779 26.5503328,22.6758051 26.8232658,26.2704269 C27.0953672,29.8638954 32.8166486,29.7950311 34.1736629,28.322849 C35.3856451,27.0083301 33.8860936,26.7287539 32.9116179,27.1290899 Z"/>
      <path d="M33.7947833,29.0983146 C30.6784238,30.7789021 28.3979945,30.7258534 26.1751123,28.0805057 C23.9505669,25.4358169 26.0355688,21.5614542 27.0133709,20.7543571 C24.6190116,21.0331095 21.8950037,25.3461944 25.4213448,28.890074 C28.9471869,32.4334594 32.9666703,29.7215538 33.7947833,29.0983146 Z"/>
      <path d="M24.5165577,19.5881108 C20.6151624,21.4120284 19.0751949,27.4373322 24.1100688,29.1767344 C21.2144176,26.415075 21.536249,23.3056341 24.5165577,19.5881108 Z"/>
      <path d="M20.5359936 27.0767003C18.6841739 24.7306984 18.0649602 22.4670702 20.9652685 19.5625749 20.279859 21.2235574 18.7337376 23.064444 20.5359936 27.0767003zM35.8621552 20.6701712C31.2054956 16.6860867 31.0143926 15.5984249 19.8464261 15.8142439 31.4767654 13.6754942 31.5093643 16.0951381 35.8621552 20.6701712z"/>
      <path d="M18.8157339 22.1021549C16.4674455 21.0848402 16.023867 20.4530342 16.16524 16.5282588 15.5789579 20.004592 15.6110579 20.6349153 16.8755976 21.5696916 18.1396384 22.5043031 19.3704149 22.8842104 18.8157339 22.1021549zM17.466703 22.6843719C16.9818768 22.4588328 16.3099394 22.2323053 15.9761328 21.8965502 16.3453658 22.5657539 16.4548051 22.8258899 16.6778418 23.0125486 16.6068226 22.5306627 16.6811682 22.5683898 17.466703 22.6843719zM18.7144443 25.6941407C16.8433313 26.0137505 16.4055741 24.5285534 16.2252819 23.6018498 17.0873245 23.4221104 18.3942761 23.5059668 19.3250093 24.1054823 18.0148975 24.2074609 17.3043736 24.3504616 17.0810043 24.12657 17.9362276 24.7987391 18.3071238 25.2456985 18.7144443 25.6941407zM55.1926649 8.7619053C57.7194159 10.9031262 59.8270375 14.6695795 59.6109864 18.1749083 59.3831264 21.8273564 57.8554666 25.311927 52.4560167 28.2951715 50.6051949 29.3180876 51.2596686 28.2864398 51.414181 27.646067 51.5695249 27.0047057 50.9659455 27.4449105 50.5666084 27.787585 50.1644438 28.1304241 47.9061352 30.0899288 48.0149092 28.9541607 48.1221864 27.8190517 47.6195639 28.4577771 47.2666304 28.9493831 46.9136969 29.4401653 45.8166426 29.5304469 46.1740667 28.3485496 46.5309919 27.1658286 46.3403879 26.1761914 45.9345643 27.0623672 45.5292396 27.9485431 43.8217866 29.6642217 43.9287311 28.627961 44.0361746 27.5918651 44.0967155 26.3091425 44.0015798 25.5181906 44.2911449 26.8531382 44.4880692 27.2005903 44.5324769 27.7936806 45.5867867 26.7635156 46.0889103 26.3233108 46.2918221 25.8807995 46.4944013 25.4371349 46.8934057 25.4898541 46.8885824 26.1318744 46.8837591 26.7734004 46.8769399 27.7610606 46.8235508 28.2050547 47.9754911 27.4729176 48.5799022 26.6872376 48.8807772 26.3931636 49.1816521 26.0982659 49.7820715 26.0045247 49.675127 26.9416075 49.5686815 27.878855 49.7652731 28.2266366 50.5183752 27.4417803 51.2721427 26.6565946 52.2725644 26.1205068 52.0656609 27.1066843 51.860088 28.0928617 52.360881 27.8014237 53.7152341 26.5761979 55.0695873 25.3517958 58.3860311 21.820437 58.5638284 18.1673299 58.7392972 14.5155407 58.3023715 12.9814137 55.1926649 8.7619053z"/>
      <path d="M49.6510104,16.7206836 C53.1307816,17.8814933 54.8829749,22.0685464 52.5721088,26.2216617 C51.9154729,27.4017467 50.8644896,27.8396451 51.1783376,26.0152333 C49.2250619,27.0874088 48.2786946,26.9806526 46.9832191,26.7743889 C52.8220895,26.0756955 53.2131106,20.4497393 49.6510104,16.7206836 Z"/>
      <path d="M54.0344044 23.863798C54.8681724 19.0787121 55.0379863 16.1671326 53.4674156 12.8967336 55.7350382 16.2707587 55.7031046 20.7637477 54.0344044 23.863798zM23.4346386 9.27278674C23.7074053 6.0648269 24.3590516 5.47766745 17.3517751 2.61205254 21.0243125 4.81142928 22.1162109 5.50270904 22.0977492 7.92943708 22.0887679 9.11446457 22.8385436 8.92319293 23.4346386 9.27278674zM2.03293159 4.57518162C12.3483358 5.04487623 14.9401184 5.16217633 13.3000255 4.45936425 11.6592673 3.75589319 13.8081366 3.22870176 17.2877414 4.48803029L18.3340678 4.49494968C17.4953102 3.50201757 16.8988826 3.25094265 16.3024549 3.04846819 17.0460768 3.53579077 17.3052052 3.90779022 17.416973 4.07533825 15.8143024 3.24962467 12.0639267 3.55490146 11.6609305 3.70119708 11.2585996 3.84568048 11.891618 4.22031589 12.2530338 4.59313908 9.24361887 4.46117647 3.23693042 4.51010643 2.03293159 4.57518162zM22.6457774 9.68696151C20.4004418 10.0410035 18.4090787 11.3220787 17.2634586 14.4618331 18.7079578 11.3993452 20.9968695 10.2302982 22.6457774 9.68696151zM13.7186558 13.6588547C11.8122828 13.5707149 10.2476997 12.8557115 10.0396319 10.6324464 9.86449573 14.0015291 12.4093757 13.8339811 13.7186558 13.6588547z"/>
      <path d="M6.94422892 9.64692791C7.92535741 8.28430281 10.015349 8.89156144 10.79789 9.19370803 11.58093 9.49536037 11.8927822 10.3520464 13.8492179 11.2158166 14.4451466 11.4785886 14.2480561 12.8476389 14.0948743 13.4018489 13.9410272 13.9567178 14.6480584 14.2957678 16.5191714 14.1234421 18.3901181 13.9517754 18.0642949 12.5421973 18.931826 11.4004984 19.8001888 10.259129 19.6132438 10.2940554 18.3440471 10.0258467 17.0746841 9.7582971 13.1132468 9.58185272 11.062507 8.89946931 9.01027029 8.2174154 7.36169502 8.68743951 6.94422892 9.64692791zM5.06380197 5.97965254C7.90356934 6.19744849 10.4471187 6.0676276 12.4747399 8.25547203 10.188822 7.25100761 8.44960168 6.49712387 5.06380197 5.97965254zM33.4455089 10.332771C30.5606684 9.62023884 28.8884756 8.73521623 28.4367473 6.8892225 28.3517572 6.54292363 28.2359977 6.94984951 28.1849371 7.19598201 28.1337102 7.44227925 27.8058912 7.98248572 27.5791955 8.20324713 27.3529987 8.42400854 27.312749 8.85581127 27.8705901 9.20589933 28.4284313 9.55565789 29.670185 10.2069041 33.4455089 10.332771zM35.5867274 9.07673743C31.1775536 8.63735632 27.1361159 4.08983601 31.8242102 2.01369027 31.4009229 3.78703044 32.8322828 7.35298621 35.5867274 9.07673743z"/>
      <path d="M35.3495534 9.11199336C30.7594222 9.67098102 25.9297886 5.43845758 30.261623 2.70546427 26.9974041 5.83846408 31.9135247 8.64279298 35.3495534 9.11199336zM35.1847292 7.70340376C33.288668 6.24506047 31.3791348 1.60248095 36.093009 1.15585097 34.2160748 2.28947728 34.8668894 5.25707078 35.1847292 7.70340376zM22.1388273 67.7793363C23.4403957 66.403426 25.2842014 65.3439283 26.4770576 65.5014888 27.6709065 65.6605022 27.1291655 65.9770762 26.6951439 66.71887 26.2622806 67.4603408 25.0685971 69.4185471 25.7218633 71.9049686 26.5339784 69.9993901 28.4850072 68.1989058 29.4066619 68.0930045 30.328482 67.9864574 29.8413453 68.092843 29.7331295 68.9387623 29.6255755 69.7861345 28.3801007 73.8073184 34.4565683 77.1906726 29.2494676 75.8704574 27.8911439 72.9612377 28.214964 69.7869417 27.1306547 70.5810404 26.5885827 70.9520179 26.5900719 73.3851659 24.2581367 73.2803946 23.7142446 70.423157 24.6342446 66.6673722 24.0375683 67.037704 22.8999784 67.778852 22.1388273 67.7793363zM61.623705 48.4683229C62.8446906 50.8460987 68.7853094 53.8600897 71.0624748 54.1753722 69.2719496 51.9543498 68.1318777 51.0036592 67.1544604 48.1470673 64.7148058 48.9418117 63.0063525 48.864 61.623705 48.4683229zM54.6970647 50.8170404C55.2278849 53.0395157 54.984482 54.745722 56.2460072 54.7830135 57.5065396 54.8233722 57.6682014 54.069148 57.6667122 51.7272108 59.5393094 54.1474439 60.6390072 56.8451839 60.9643165 57.3601614 61.2902878 57.8761076 62.1454245 57.7970045 62.0221511 56.4869596 61.899705 55.1773991 61.8580072 54.9402511 61.8571799 53.7498296 64.015705 56.5650942 66.4995396 61.0872108 66.8650576 61.8411121 67.2322302 62.5954978 68.0853813 62.356574 68.0436835 60.9672646 68.0033094 59.5802152 68.0835612 59.3412915 68.0425252 58.9448072 71.5434892 62.2361435 72.6828993 61.6833901 75.7726763 61.5584395 77.7650719 61.4780448 75.8923094 58.3449148 74.9560935 57.0356771 75.9733885 56.9953184 75.891482 57.3919641 76.7864964 57.9866906 77.6823381 58.5812556 79.1061871 59.692574 79.5939856 60.128287 80.082777 60.5635157 79.8790863 60.8027623 78.8624532 60.8427982 77.8458201 60.883157 77.5628705 61.7166457 77.4400935 61.9550852 77.3193022 62.1941704 77.6843237 62.0742242 78.9038201 61.6367354 80.1246403 61.1990852 82.3202302 61.6347982 82.8498921 61.3971659 83.3785612 61.1584036 83.1737122 60.5221883 82.4009784 60.0081794 81.6279137 59.4928789 77.6442806 57.5855247 76.4198201 56.718296 75.973223 56.3999462 74.3046475 56.5996413 73.8582158 56.6790673 74.1021151 58.0678924 74.2248921 59.8141345 73.5759281 60.7670852 71.1347842 60.0929327 68.0824029 57 66.9011295 53.8660628 66.7796763 54.5014709 66.3736187 56.0091121 66.4566835 58.5089327 64.1366619 54.4630493 62.507964 52.4794978 61.1249856 51.8455426 61.0846115 52.8772735 61.0040288 53.7895426 60.9628273 54.5841256 59.2935899 51.5294529 58.0327266 50.4191031 57.5040576 50.0213274 56.9753885 49.6258117 56.6902878 50.1015605 56.4877554 50.7369686 56.2838993 51.3715695 56.2033165 52.601704 54.6970647 50.8170404z"/>
      <path d="M57.039259,57.4757489 C57.0936978,58.7979013 53.8940504,62.3654529 53.8404388,62.8949596 C53.4610216,62.8951211 52.4812878,62.4984753 52.3178058,62.392574 C52.8069281,62.8150493 52.6444388,63.6083408 52.9151439,63.7144036 C53.1868417,63.8198206 54.1635971,64.1898296 54.4880791,63.0255605 C54.9225971,65.4601614 54.4897338,65.8818296 55.4654964,65.830009 C56.4415899,65.7759283 57.5805036,65.8288789 58.5001727,62.4939552 C59.3144388,63.3934709 59.7484604,65.0336502 60.6171655,66.302852 C61.4853741,67.5718924 62.2999712,68.5240359 62.4075252,67.3594439 C62.5154101,66.1950135 63.2193094,64.6087534 63.2729209,63.4964664 C64.6305827,65.7714081 65.5535612,68.1520897 67.5601871,68.9444126 C69.5673094,69.736574 70.7060576,69.9490224 70.5425755,68.3073901 C70.3787626,66.6672108 70.3223381,63.9693094 70.5395971,63.4393184 C72.1131942,65.3447354 73.6864604,65.9244484 74.608446,66.1372197 C73.0897842,65.3959103 70.8649065,63.8101345 69.942259,62.1701166 C70.1601799,63.3347085 69.8361942,63.9160359 69.4552878,64.4981704 C69.075705,65.0811121 68.4259137,65.8230673 68.4820072,68.202296 C66.0418561,67.4098117 65.9841079,64.7656682 64.7917482,63.4425471 C63.5980647,62.1207175 63.1627194,60.9572556 62.6740935,59.6880538 C61.915259,61.1701883 61.3756691,62.7577399 61.4842158,65.878278 C60.2369209,63.8161076 59.2053957,62.1754439 59.2591727,60.2191749 C59.311295,58.26113 59.0409209,57.8386547 58.1184388,58.1032466 C57.1961223,58.3684843 57.4145396,58.8432646 57.6303094,59.2676771 C57.8480647,59.6907982 57.090554,61.9132735 55.8442518,64.0301704 C55.1913165,61.6496502 57.3645683,59.0623318 57.039259,57.4757489 Z"/>
      <path d="M72.8715324,63.5972018 C74.9875324,64.9729507 77.1032014,65.7651121 80.0309856,65.8166099 C82.9597626,65.8664933 85.6732662,66.9758744 82.8532014,67.1897758 C80.0318129,67.4020628 75.3679424,68.0400538 72.8715324,63.5972018 Z"/>
      <path d="M78.1314173 62.2195157C79.8140576 63.5934888 80.1380432 63.1175785 80.1400288 66.3448251 81.1162878 66.6089327 81.5499784 66.4500807 81.2777842 65.4459552 81.0064173 64.4398924 80.1395324 62.6933274 78.1314173 62.2195157zM53.6797698 72.3907265C54.6556978 70.5920179 56.7132878 67.1510314 57.5811655 66.6743139 58.4483813 66.197435 59.0460504 66.1969507 58.7751799 66.990565 58.5033165 67.7853094 58.613518 69.9556413 59.1026403 71.1706009 59.5907698 72.3876592 60.2963237 74.0275157 60.8931655 74.6614709 62.2476835 73.0209686 63.6036906 71.0629238 63.7643597 69.2112646 64.0355612 69.2111031 65.4989568 68.7871749 65.8250935 68.9455426 66.1505683 69.1039103 66.2584532 69.8976861 66.4773669 70.1621166 66.6937986 70.42687 67.5793813 72.1664933 70.0039784 74.8692377 70.3838921 75.2915516 70.8710288 74.0748161 71.3053813 73.0690762 71.7385755 72.0633363 72.6718129 70.8086637 71.9533525 68.9421525 71.6277122 68.0959103 72.0061367 67.9896861 72.9828921 68.0416682 73.9584892 68.0946188 75.0983957 69.2575964 76.5626187 69.7330224 78.0266763 70.2086099 80.144 70.3135426 81.0646619 70.4189596 81.9861511 70.5234081 84.0480432 70.8406278 84.156259 70.6285022 84.263482 70.4171839 84.5331942 69.8353722 84.1003309 69.3052197 83.6663094 68.7773274 82.5280576 67.6658475 82.3640791 67.137148 82.2014245 66.6084484 82.5808417 66.8191211 83.612036 67.5066726 84.6435612 68.1937399 86.1618921 69.7278565 86.7592302 69.9916413 87.3550791 70.2570404 88.7120791 71.4736143 85.9469496 71.4749058 83.1798345 71.4765202 78.4075827 71.0023857 76.7800432 70.8969686 75.1539928 70.7920359 73.7968273 70.0518565 73.2011439 69.8416682 72.604964 69.6298655 72.7128489 70.0525022 72.7133453 70.8470852 72.7138417 71.6410224 72.280482 72.646278 71.7938417 73.8625291 71.3068705 75.0810404 71.2524317 75.8204126 71.2525971 76.29713 71.2529281 76.7725561 70.0592446 76.9850045 69.4627338 76.4035157 68.866223 75.821704 65.6655827 73.2839462 65.3389496 72.649991 64.798036 73.4436054 63.5509065 74.9785291 63.0632734 75.6136143 62.5759712 76.2482152 60.7846187 76.3558924 60.0252878 75.1385112 59.2676115 73.9224215 58.0176691 70.855157 58.2875468 68.5266188 57.3658921 69.6907265 56.2820791 71.2258117 55.9024964 72.5489327 55.5252302 73.8710852 52.7059928 74.9300987 53.6797698 72.3907265z"/>
      <path d="M46.6859496 76.9975964C47.6084317 77.3141704 48.2051079 78.1082691 49.5607842 77.3132018 50.916295 76.5189417 52.3254173 75.4064933 55.1989281 74.9286457 55.7429856 76.5161973 58.0989137 80.4778117 59.0000504 81.6466009 59.326518 82.0695605 59.5427842 82.2290583 60.3544029 80.7993901 61.1678417 79.3705291 63.8775396 76.8295426 64.8536331 76.1415067 65.8303885 75.453148 66.2635827 76.2993901 66.860259 76.7744933 67.4579281 77.2512108 68.7593309 77.3561435 69.5727698 77.9904215 70.3876978 78.6253453 70.4398201 79.0484664 71.7964892 78.0950314 73.1513381 77.1424036 75.9166331 74.2833901 76.6202014 73.8063498 77.3257554 73.330278 78.2469137 73.7009327 78.7355396 74.0173453 79.2238345 74.3340807 80.9048201 74.7034439 81.6639856 74.8090224 82.4226547 74.9141166 82.9121079 74.9672287 83.4538489 75.1793543 83.9964173 75.3895426 85.2428849 76.0236592 85.9489353 75.229722 86.6523381 74.4365919 87.0848705 73.8539731 86.4890216 73.0072466 85.8921799 72.1611659 85.4583237 72.0023139 85.2951727 71.633435 85.1323525 71.2621345 85.5112734 71.4198565 85.9467842 71.4744215 86.3793165 71.526565 87.7907554 72.0011839 88.1703381 72.2654529 88.5499209 72.5303677 90.9908993 73.1633543 90.9374532 74.6445202 90.8833453 76.1269776 90.9932158 77.0794439 88.0095036 77.2395874 85.0276115 77.4003767 84.2672878 76.7112108 83.5086187 75.9187265 82.7481295 75.1252735 81.8812446 75.3385291 81.393777 75.2319821 80.9049856 75.1262422 79.8203453 74.8098296 79.1146259 74.5989955 78.4094029 74.3873543 77.3795324 73.7522691 77.2153885 74.0176682 77.0533957 74.2824215 77.2178705 76.3460448 77.1103165 78.2503318 77.0024317 80.1555874 77.2754532 80.5798386 74.3458489 80.6337578 71.4175683 80.6871928 71.1463669 80.7929327 69.3018993 79.2602691 67.4569353 77.7269596 65.8313813 77.357435 65.7213453 76.8280897 65.6119712 76.2995516 65.4499784 76.669722 65.1789424 77.2521794 64.9080719 77.833991 63.4450072 80.2154798 62.9039281 81.5926816 62.3626835 82.9677848 61.8214388 84.1851659 60.0320719 83.9213812 58.2425396 83.6571121 57.5353309 82.0179013 57.2096906 81.1198386 56.8838849 80.2193543 54.8756043 76.4109417 54.8749424 75.3535426 54.0616691 75.6181345 52.2723022 76.8886278 51.9474892 77.62913 51.6221799 78.3706009 52.1103094 78.9004305 52.6535396 79.0581525 50.8643381 79.9586368 48.260705 80.0125561 46.7410504 79.4312287 45.2220576 78.8503857 45.8733381 78.5853094 46.6859496 76.9975964zM38.0933813 70.2373453C38.0945396 72.2496323 38.1284604 73.4666906 38.6705324 74.946565 39.8638849 74.205417 40.970036 73.9408251 42.2179928 74.7859372 40.3190863 74.6816502 39.9932806 74.734278 39.1806691 76.321991 38.3678921 76.5336323 37.2829209 76.9569148 37.2283165 76.2701704 37.1745396 75.5819731 36.9554604 72.4599821 38.0933813 70.2373453zM74.8065108 54.4693453C74.0733237 52.1684126 70.4082158 48.7009507 67.1544604 48.1470673 71.0591655 48.463157 74.4800432 50.7392287 74.8065108 54.4693453z"/>
      <path d="M50.5491835,81.792348 C50.9831359,82.8115371 51.3084351,83.8315451 51.0384533,84.3140344 C50.7684714,84.7975064 50.389341,85.1193298 50.010706,85.2804871 C49.6319058,85.4414807 49.3607681,85.2808147 50.1718694,84.4216364 C48.1707014,85.5499016 46.0209196,87.5499558 48.7139676,87.6963731 C49.6873883,87.7496009 49.8495425,87.695718 50.1195243,87.5347244 C49.6867278,86.8371949 50.1723648,85.5487551 50.9842918,85.0652831 C51.3090956,85.1188384 51.3090956,85.279832 51.1469414,85.6028018 C50.9847872,85.9244613 50.3896713,87.2661289 50.8769596,87.5343969 C51.364413,87.80332 51.9601894,87.6947353 52.1770005,87.6945716 C51.9056976,86.9980247 52.3403106,86.7292653 52.4473125,86.5679442 C52.5554704,86.4076058 52.825122,85.6563571 52.8794486,85.3333873 C52.9331147,85.0110727 53.041933,84.957026 53.2579185,84.6884304 C53.4747296,84.4198349 53.8522088,83.4001544 54.2859961,84.152222 C54.719288,84.9028156 55.1530753,85.5461347 55.3692259,86.0829982 C55.5855416,86.6198618 55.4785396,87.1026787 55.8575049,87.1023511 C56.2356446,87.1021873 57.4258764,87.0483044 57.6425223,86.459032 C57.8591683,85.8663202 58.2358218,84.3641504 58.5071247,83.8813336 C58.1286547,83.6129018 57.8025299,82.8076064 57.6405408,83.2915698 C57.4787169,83.7729127 56.8305954,84.7942309 56.4504742,85.276884 C56.0720042,85.7601922 55.856349,85.2772116 55.6392077,84.7414944 C55.4230571,84.2041396 55.0424405,83.8831351 54.5566384,83.0780036 C54.0686896,82.272872 53.2012801,82.9173376 52.8236358,83.239816 C52.4454961,83.5618031 52.1208574,83.1325416 51.9032207,82.757818 C51.6874004,82.381948 51.2536131,82.0070607 50.5491835,81.792348 Z"/>
      <path d="M55.4787047 87.157708C54.8835889 87.1580356 54.3959703 86.7815104 54.2334858 85.9760513 54.070506 85.1720662 53.690715 84.6350389 53.5830526 85.3857962 53.4760506 86.1386827 53.2587441 87.1038251 52.9890926 86.9975333 52.7184502 86.8900951 52.6106226 86.6755462 52.6104575 86.3000038 52.6102924 85.9238062 52.1765051 86.4621438 52.3938115 86.8902589 52.611118 87.3195204 52.6112831 87.5337418 53.2057385 87.5334142 53.8013498 87.5329229 53.6908802 86.5412484 53.800359 85.7356256 54.1248326 86.5409209 54.5591153 87.5868058 55.4787047 87.157708zM12.4330344 33.1449433C7.94208908 34.9731947 7.13131798 36.5826389 6.31988638 37.603302 8.48485987 38.1396742 10.0013816 38.0844811 11.0286335 37.7621664 9.13512801 40.0715969 6.01935616 43.3612373 5.47906226 45.4005982 8.23799576 43.6809316 10.5375473 42.1070271 12.3223996 41.5170996 9.40032116 42.2164307 8.86729283 42.6479851 8.1098576 43.453608 9.02829117 40.608788 9.892233 39.2656464 11.2984502 37.815558 12.7048326 36.365142 16.4381775 34.8608431 14.1120406 35.1300938 11.7847478 35.3993444 10.2150553 35.8839629 11.0269823 34.9717207 11.838579 34.0578407 12.0010635 33.6284153 12.4330344 33.1449433zM10.4650568 43.0697129C6.26126647 45.0124449 4.63840327 49.772646 2.80021512 50.7936367.960045448 51.8149549.6898985 51.9751296.148778973 52.1906611 2.26008635 53.4230889 4.74837752 53.5295444 6.37206635 53.2069022 6.21189365 56.3738731 3.08654446 61.3340469 3.14186184 62.0861144 4.0072898 62.1920787 8.96570823 59.3749371 9.3986699 58.7850096 9.72479473 60.7169322 8.81692925 59.9194982 11.5512589 60.7226644 14.3037525 61.5313991 14.201374 59.2360536 14.0920603 57.0361904 15.121624 58.9142302 17.6607741 60.6628856 18.3919542 61.8692727 15.3896243 64.36672 12.1442281 66.7033376 8.16864263 70.3288862 12.226296 68.3941793 15.1475489 66.7819509 16.2841145 66.6216124 17.4208453 66.4584898 15.9598061 67.2647678 15.3916058 67.9889931 14.8230753 68.7143649 13.8499849 70.4066807 13.9330435 72.0975224 14.9882018 72.4178718 15.8006241 72.4979591 17.0975276 70.0023133 18.3950917 67.5038833 19.4495895 66.7794942 19.9357219 66.1365027 20.4233404 65.4905631 20.3414377 64.6864142 18.8807287 65.1698862 17.4201848 65.6531944 13.6046069 67.5068313 12.4290714 67.9513242 11.2517194 68.3948344 13.0373974 67.1853356 13.889285 66.782606 14.7416679 66.3800402 18.8264021 64.3647547 19.7451659 63.9350018 20.665581 63.5055764 21.2058749 62.4850771 21.6380109 60.927878 22.0701469 59.3716616 22.6646023 57.0619036 25.4770368 55.3435471 23.747667 58.6721667 22.990562 60.9807782 23.100206 61.6779802 23.5871641 61.7859098 24.1281185 61.8915464 24.6145811 61.9459207 25.1025299 62.0004587 24.6149114 62.5898949 25.0482033 62.4280824 25.4808347 62.2680716 25.9147872 62.7517073 26.6174004 62.8576716 27.3216649 62.9642909 26.4557416 63.877352 26.0780973 64.5747178 25.6988017 65.2733938 27.0525087 65.5398602 27.8096137 65.4863049 28.5673792 65.4325858 28.9461794 65.4856498 28.7848508 66.1312618 28.6223663 66.7742533 29.5966126 66.8818553 30.1380624 66.5059853 30.6788517 66.1301153 30.3010423 68.062038 30.4641872 69.2422207 30.6268368 70.4238773 31.6028996 72.4629107 31.4927602 69.8324758 31.3821254 67.2015496 30.7873398 65.270282 31.8142615 63.4451424 30.516037 64.357876 30.2447341 64.5195247 30.0825799 64.9486224 30.136246 63.2304298 30.4057325 62.319334 30.8921951 61.3510798 28.400106 57.1659024 27.3693865 54.3752929 28.1261612 51.208322 27.0977534 50.5643478 26.665122 50.2967349 26.3941494 50.0284669 25.2580791 51.1562407 23.6890471 53.2507947 22.7706135 55.0767531 21.8516846 56.9017289 20.3921315 58.9432189 19.7973459 60.2850502 17.2519209 57.172126 16.3244054 53.5529647 15.4573262 50.9228573 14.1046099 51.4610311 12.1642085 55.1892684 11.3526117 56.1028209 11.1358006 54.921328 11.1888062 53.417848 10.4307105 53.4181756 9.67261476 53.4186669 9.34797606 53.7956833 9.13265111 54.1170153 8.91600515 54.4399851 7.88842297 55.3530462 7.50978791 55.8365182 7.2928117 54.333202 7.3458173 53.6355087 7.56279352 52.7763304 9.94259658 51.7022758 12.529138 47.5798253 11.9336919 46.5606362 11.338576 45.5412833 10.2036616 46.9076813 9.39140433 47.3385807 8.58013786 47.7684973 8.04545826 47.3469333 8.31510983 46.7571696 8.58608241 46.1660956 9.49295713 44.7883969 10.4650568 43.0697129z"/>
      <path d="M7.6324769 61.0833031C5.61908953 63.0286556 3.01686108 66.7025187 1.42570217 67.0516929 4.5700409 67.1117993 4.86578246 66.3174771 5.8395334 65.8597182 5.18959552 67.1515973 4.62156037 67.6304836 3.89913195 68.0666238 3.17620815 68.5045656 3.45527193 68.8052616 4.30088471 68.6270713 5.14732313 68.4488811 6.71519921 67.8329129 7.99658082 66.8104482 6.96140282 68.9431624 6.50268141 70.1135184 6.41681563 70.87443 6.32896834 71.6358329 6.43811695 71.7336082 7.29248144 71.66302 8.14816694 71.5912853 8.4221118 71.2470244 8.61002575 70.4767776 8.79893047 69.7071858 11.0144327 67.1515973 12.5365687 66.0015498 12.3943948 67.3048933 12.151824 68.0258431 11.6111998 68.8258976 11.0717316 69.6248056 10.5860945 70.4738296 11.7474292 70.4299371 12.9084336 70.3875187 12.7814513 69.4826464 13.1343266 68.8597996 13.4865414 68.2387542 15.7337479 65.4651776 16.6308802 64.6906724 15.2175625 65.3475851 13.3044069 66.6908904 12.7968081 67.2723016 12.6741191 66.4211484 13.1549674 65.5188967 13.5352537 64.6253251 11.9069414 65.7300062 10.2375125 66.9475302 9.14354946 67.7918047 9.48271928 66.417054 9.4790865 65.7709507 10.4077579 64.777966 9.81363278 64.9351927 7.43151795 65.5107078 6.29198 66.4137784 6.43349341 65.7018364 7.00152856 65.2224589 7.57303136 64.798602 5.76093319 65.5421531 3.38443266 66.1713873 2.13128768 66.3294329 3.32994092 65.5288871 7.09234813 61.8825387 7.6324769 61.0833031zM17.2075019 72.9693116C17.3714725 76.6192631 18.070453 81.4927984 20.1885305 82.1488922 18.4137509 82.597152 16.2743721 82.2083436 15.545834 79.8335658 14.8184517 77.4591156 14.0142857 77.3397216 13.3929147 76.9669633 14.8019391 77.6726818 16.1460688 78.4819078 16.9750038 79.6258956 17.3627208 77.5578736 16.8291971 75.5456998 17.2075019 72.9693116zM12.997767 77.1505582C13.6415952 77.9031171 13.9985987 78.8466409 14.1211226 79.3414136 14.2429859 79.8355311 14.8229102 80.0453304 15.1194774 80.3922118 15.4176958 80.7404033 15.5351007 81.2879124 14.6183184 81.213066 13.701371 81.1396936 11.2112634 81.0437198 10.5482806 79.8602616 9.88562794 78.6750018 7.9004772 75.8722727 6.43696107 73.8879411 8.982386 75.8187173 11.547461 78.2719447 12.6916225 79.5500664 13.1237585 79.584296 13.1941024 78.7285571 12.997767 77.1505582z"/>
      <path d="M7.70298591 74.6504904C7.16236176 76.4769402 6.59052871 77.6897147 8.11712316 79.5906833 5.83408423 79.6209822 3.97145735 79.6994318 3.48169217 75.2436936 2.40044387 76.3188947 2.33604454 75.9438436 1.73052568 76.7027898 2.91861082 74.8065707 3.15672322 74.8150871 3.75233449 74.5468191 3.86148311 75.4584062 4.30616876 76.4271518 6.07087562 78.0781956 6.52101045 75.9068298 6.78356158 75.2417282 7.70298591 74.6504904zM1.72359037 82.0730631C1.85833359 85.0459573 3.37204817 87.1085747 5.87387972 87.0410982 5.18976064 85.4781669 4.79147553 84.3685724 5.04164218 83.3117144 4.4534616 83.2106636 3.8527314 83.9157269 3.92043327 85.0523447 2.86015604 84.7509936 2.36428117 84.1717116 1.72359037 82.0730631zM5.54114983 83.1908464C6.95364187 83.8444836 8.83856082 85.3437053 10.168985 85.6663476 10.3514498 84.1191389 11.3299894 83.4438831 11.875072 84.7269182 12.4211453 86.0112636 12.7956522 86.7400747 13.1011362 86.9795178 9.50187396 87.1734307 9.28919103 85.8103082 5.54114983 83.1908464zM13.1219421 85.4211722C14.048632 86.03452 15.9603015 87.2127373 16.752083 87.492306 16.129391 86.4724618 16.0073625 85.9780167 15.8447129 85.3184836 15.6825587 84.6600969 16.0182609 83.8793682 17.0217346 85.5220593 18.0271898 87.1644229 20.1465884 88.1307118 21.4989744 88.7199842 17.6564808 89.2057491 16.9598121 88.2630442 13.1219421 85.4211722z"/>
      <path d="M22.3135434 93.1744122C20.1489002 92.1558782 17.8802272 92.9159709 16.596699 92.0045476 15.314822 91.0923053 13.4630935 90.7287187 12.0132828 89.6394327 11.4510271 89.2167222 11.4216346 90.2380404 11.0624845 90.6388047 10.7036646 91.0403878 10.1293546 92.0728429 9.51822148 91.5916638 8.90642781 91.110976 7.19968035 90.057066 6.46338131 89.781428 5.72559612 89.5071002 5.52463718 89.9753409 5.16614755 90.3770878 4.8068323 90.7799811 4.25630056 89.5495187 4.07978034 89.050324 3.90425087 88.5519482 3.15507196 86.4441282 2.66497652 86.4580493 2.17488108 86.4729531 2.6050356 87.8532722 2.93297682 88.4721884 3.26273443 89.0912684 4.11561279 91.2618153 5.08176791 91.3931651 6.04924405 91.5259889 5.95247993 90.7108669 6.20826087 90.2467207 6.46321618 89.781428 6.85142857 90.3523573 7.70199515 91.2284047 8.55256173 92.1052709 9.44242842 91.855346 9.88298591 92.4297147 10.3245342 93.0034282 11.2046584 92.2125453 11.4239464 91.5313936 11.6429041 90.8479489 11.7771519 90.5359522 12.1686669 91.0529987 12.5610074 91.5682436 13.358073 92.440524 13.7717149 92.6902851 12.8843251 91.5954307 12.9693652 91.224474 12.6490198 90.4991022 15.0743978 92.6883198 18.8501803 93.3376987 22.3135434 93.1744122zM4.25349341 67.9690122C5.23269353 70.7170396 4.66647478 70.5450729 3.52379942 73.567428 3.3834419 70.8785244 4.90772459 71.332844 4.25349341 67.9690122zM3.05335404 83.02019C3.75811392 80.9554436 4.65722769 79.2234936 3.47640812 77.0156053 3.59711559 78.9761891 3.67934858 80.4662393 3.05335404 83.02019z"/>
      <path d="M18.5468429 91.548754C17.4053234 92.8720784 15.890453 95.193956 16.021068 95.7440856 16.1510226 96.29356 17.2463066 96.200698 18.1622633 95.7694711 19.079541 95.3372616 18.8402727 95.1313929 18.2208832 94.8626336 17.601824 94.5950207 18.1328708 92.7970682 18.5468429 91.548754zM14.3186138 92.346188C13.4125648 93.3463789 12.7426466 96.0624696 15.1191471 97.0285947 14.0578791 97.0774004 13.3859794 96.7351049 12.919497 96.6463373 12.4526844 96.5578973 12.0986532 96.6543624 11.9825693 95.9398 11.8666505 95.2232722 11.9432692 92.3971229 14.3186138 92.346188z"/>
      <path d="M10.5467944 92.6617878C9.63232389 93.8670284 9.06676564 95.9551951 12.1932707 96.4764998 12.7378579 96.7979956 12.876399 97.1427478 11.7347144 97.2025267 10.5936903 97.2621418 9.69127405 97.5276256 7.61299197 96.8793931 7.33095592 97.1710813 6.90179215 97.565622 5.891218 96.9105109 4.88113922 96.2572013 4.01009696 95.7023222 4.73087411 94.5676698 5.45165126 93.4331811 6.06212392 92.6429533 7.58657173 92.1548956 6.3935328 93.1614738 4.96403272 94.4895478 5.11991213 95.1987056 5.27678231 95.9075358 5.78537191 96.7647487 7.04693834 96.6859716 6.84895167 95.2083684 6.44373125 94.7420931 6.91434177 93.0776196 7.44439782 94.828404 7.67805181 96.0139913 9.88315104 96.6815496 8.82502045 94.9751489 8.6975428 93.9346687 10.5467944 92.6617878zM93.6990486 87.4711787C95.038885 88.5976422 96.9076216 90.6494502 96.8673307 91.2120269 96.8268747 91.7768964 95.7314255 91.8573113 94.756849 91.57676 93.7835934 91.2960449 93.9852128 91.0536538 94.5544039 90.6903947 95.121118 90.3276269 94.3082003 88.6374402 93.6990486 87.4711787zM98.0017497 87.5892624C99.0570732 88.4338644 100.155164 91.0099251 97.9636055 92.3398007 99.0195895 92.2177862 99.6277503 91.7754224 100.074087 91.6129549 100.520589 91.4524527 100.885849 91.492742 100.885519 90.7668789 100.885023 90.0438 100.355958 87.2661289 98.0017497 87.5892624z"/>
      <path d="M101.776211 87.3052718C102.872486 88.3514842 103.766976 90.3227136 100.764811 91.3314209 100.277193 91.734478 100.196446 92.0974096 101.333177 91.9763778 102.469577 91.8537082 103.402542 91.9752313 105.350044 91.0071409 105.675013 91.2490407 106.161806 91.5703727 107.055801 90.7637671 107.946658 89.959782 108.717634 89.2740444 107.825455 88.2689402 106.931295 87.2626896 106.200776 86.5792449 104.617047 86.3380002 105.956554 87.1416578 107.582059 88.2284871 107.540942 88.9532038 107.499991 89.6777567 107.134896 90.6037562 105.878284 90.7246242 105.836672 89.2350653 106.160155 88.7121229 105.429965 87.1419853 105.186404 88.9543502 105.146773 90.1620476 103.077573 91.1689533 103.847393 89.3172818 103.805781 88.2709056 101.776211 87.3052718zM99.2169156 82.3552522C97.148376 84.2884851 96.9442797 85.0575856 96.8239024 86.2613522 96.7844372 86.6640818 95.2010392 86.7053538 94.7130904 86.3840218 94.2262975 86.0613796 95.3210862 84.4509527 96.6186502 83.4838449 97.9177003 82.5169009 98.4457749 82.3151267 99.2169156 82.3552522zM85.7414377 84.4969742C87.1223905 85.623274 88.4225966 87.2315718 88.6663233 87.5943396 88.9102151 87.9569436 89.5994531 87.352276 90.0466157 86.8285147 90.4926223 86.3054084 91.9937873 85.3381369 93.5763596 86.1033067 91.8715937 86.2245022 91.2238025 87.6726253 90.6970489 88.8811416 90.1698 90.0891664 88.7487214 89.7277089 87.9774155 89.4063769 87.2061097 89.0850449 87.5712044 88.9640131 87.5295925 88.1179371 87.4896319 87.2733351 86.3926966 85.3817018 85.7414377 84.4969742z"/>
      <path d="M93.4102424 77.9707573C92.274007 79.4996229 90.8945402 81.2731724 90.6940767 83.3660887L87.852745 83.4075244C86.7150235 82.5629224 86.9173034 81.7173378 85.9035919 82.6444838 84.8890547 83.5701558 84.4849902 84.6178422 83.9154689 84.8594144 83.3480942 85.1009867 82.7787381 84.9403207 81.8865596 84.8605609 80.9938858 84.7806373 81.3986108 84.4586502 81.4800182 84.0559207 81.5609302 83.6530273 79.9317922 81.9528502 78.9157688 81.0673038 80.1741978 81.8323098 81.3172035 83.0087256 81.92619 83.2502978 84.1981654 81.2769393 86.023804 80.5514038 88.45975 81.8375507 90.2449326 79.6615991 91.5841085 78.3738144 93.4102424 77.9707573zM93.3400636 78.6946551C94.1287078 80.2507078 95.4137222 82.0565216 97.2172338 82.6778944 95.807714 83.0005367 93.0656234 80.4261138 93.3400636 78.6946551zM32.0556764 78.043966C32.0569974 80.4071156 32.4369535 82.1243256 33.3580291 82.4992129 34.2767929 82.874264 35.5753477 82.122524 36.3322875 81.4787136 37.0907135 80.8340842 38.5514225 80.563032 39.6336616 80.4028573 37.7404863 81.6914609 37.091374 82.657586 36.0096304 83.2496427 34.9280518 83.8410442 34.0074716 84.2164229 32.924572 83.7869976 31.842333 83.3593738 30.922083 82.7697738 32.0556764 78.043966zM34.1166202 84.7537778C33.7921466 86.1496558 33.5224951 87.1151258 32.8190562 87.5447149 32.1147917 87.9756142 30.3841009 88.406186 31.9541236 88.8876927 33.5238161 89.3693631 35.3634904 89.4766376 36.3367459 89.2075507 37.3103318 88.9373173 38.5562112 88.5622662 37.5814695 88.1321858 36.6078837 87.7035793 36.9316967 87.1681898 37.5268126 87.0063773 38.1219285 86.8439098 38.7172095 87.1121778 39.0430041 87.43482 39.3678079 87.7556607 39.9624284 88.6145113 41.2613134 88.3459158 42.5613543 88.0763376 42.2357249 87.4330184 43.5351053 88.1287464 44.8339903 88.8261122 47.4936828 88.7990889 48.1442812 88.637604 45.5456855 88.20867 43.4801182 87.4323633 42.884672 86.8954998 42.2895561 86.3588 41.8022678 86.7348338 41.4779594 87.1654056 41.1531556 87.5941758 40.5568838 87.4338373 39.6374595 87.0581311 38.7170444 86.68308 37.6879761 85.9852229 36.9848674 86.4161222 36.2824193 86.8447287 35.5254795 87.2746453 35.0370353 87.1139793 34.5494168 86.9534771 34.3872625 86.094954 34.1166202 84.7537778z"/>
      <path d="M50.0296955 90.1117678C47.1629344 91.6704409 46.2430147 92.4218533 44.4025148 92.2087784 42.563501 91.9945571 40.9389865 91.5657869 39.6934374 91.566442 38.4490441 91.5670971 37.2048159 91.2999756 36.5010468 91.6232729 35.7976079 91.9454238 34.9871671 92.7512104 34.8783487 91.8915409 34.7685396 91.0321989 34.7682094 90.3892073 34.7680442 90.0133373 34.7678791 89.636976 34.4974019 88.9387913 34.4977322 89.5834207 34.4980624 90.2287051 34.4983927 90.8713691 34.120253 91.4090516 33.7416179 91.9464064 33.3636434 92.4831062 33.3639736 93.0738527 33.3643039 93.6641078 32.8766854 94.2538716 33.7966051 94.2533802 34.7166899 94.2527251 35.4202939 94.3606547 35.7447675 94.1464333 36.0690759 93.9312293 35.7987638 94.1464333 35.7994243 95.0572016 35.7999197 95.9709178 35.5307635 96.9914171 36.1795455 97.527298 36.8299788 98.0621962 37.2632707 98.2782191 37.8037297 98.1704533 38.3443539 98.0613773 39.0486184 97.68649 39.0486184 97.68649 39.0486184 97.68649 38.2913483 98.2767451 37.9122178 97.4185496 37.5320967 96.5601902 37.4774398 95.808614 37.5852674 95.0041376 37.6940857 94.197532 37.9097409 93.016858 38.3960385 92.6398416 38.8828314 92.2654456 38.7756643 91.5674247 38.0712347 92.1049433 37.368126 92.6404967 36.5022027 93.5013127 36.4482063 93.0720511 36.3935495 92.6408242 36.122742 92.1601364 36.7723496 91.9976689 37.421627 91.8360202 38.4490441 91.6750267 38.8281745 91.8890842 39.2078003 92.1041244 39.1542993 92.9090922 40.7231662 93.0150564 42.2931889 93.1220033 42.6724845 93.1218396 43.808885 93.1750673 44.9444599 93.2286227 45.9727026 93.120038 46.7842993 92.635092 47.5963915 92.1537491 47.811221 91.7231773 48.5163112 91.2935882 49.2182639 90.8631802 49.5437282 90.595076 50.0296955 90.1117678zM47.2010786 93.762702C47.7421982 94.8914584 48.3932919 96.6076858 46.9327481 97.735132 46.2831404 96.9851936 46.4441388 95.4815498 45.631221 94.4091329 45.7950265 95.8584024 45.363551 97.7909802 45.6333677 98.1658676 45.9048356 98.5419013 46.6619406 98.7015847 47.2038858 98.7014209 47.7443448 98.7010933 48.3397909 98.3797613 48.6637691 97.4670278 48.9887381 96.5536391 48.8785987 94.3532847 47.2010786 93.762702z"/>
      <path d="M44.6710105 94.4214162C44.2667808 96.113732 43.7794925 96.7979956 43.6586199 97.5639842 43.5370868 98.3284989 43.4556794 97.6439078 43.2517482 96.6776189 43.0488078 95.7103473 42.7230132 94.7049156 42.1544827 94.1821369 42.4801121 95.7519469 42.3186184 97.7251416 42.603957 98.4899838 42.8874792 99.2543347 43.8620557 99.8175664 44.1459082 98.6499947 44.4297606 97.4819316 44.428935 95.9525747 44.6710105 94.4214162zM41.708476 94.9887424C41.181062 96.0344636 40.208632 98.3304642 40.2484275 96.3579247 40.2878927 94.38473 40.2056597 93.2979007 40.0435055 94.1834471 39.8823421 95.0693211 39.4777822 96.8409053 40.045487 97.8068667 40.6146781 98.7729918 41.4266051 98.4906389 41.7104575 98.4505133 41.9948053 98.4090776 41.9523678 95.9540487 41.708476 94.9887424zM47.356958 82.0424367C47.0689774 83.761612 48.1314013 87.8565478 49.2194198 89.4126004 46.3904727 87.1279004 46.10629 83.2828896 47.356958 82.0424367zM45.9015331 73.7539709C45.6132222 75.4716722 45.5780503 77.6831636 46.6652431 79.2401989 45.3358097 78.676312 44.6511953 74.9936049 45.9015331 73.7539709zM38.6906241 78.127984C40.1024557 78.780966 41.9883654 80.2810067 43.3199455 80.6031576 43.5012544 79.0564402 44.4796288 78.3816758 45.0261975 79.6648747 45.5719406 80.9479098 46.6601242 81.6092444 46.9657734 81.8491789 43.3666763 82.0416178 42.4396561 80.7479371 38.6906241 78.127984zM21.4676638 69C21.4690062 71.7873132 21.0852455 73.8166473 20.1514334 74.2596397 19.2156076 74.7051457 17.8966923 73.8201278 17.1256471 73.0586683 16.3547696 72.2979822 13.0997673 71.9354285 12 71.7463204 13.9250122 73.2665325 16.3562798 74.4520349 17.4565505 75.1491048 18.5566534 75.845208 19.4926469 76.2893605 20.5914074 75.7802384 21.6910068 75.2726632 22.6261614 74.5759799 21.4676638 69zM54.8492116 54.7578159C54.6031392 53.8943211 54.0338619 52.964362 53 52 53.5778674 52.6792322 54.3436447 53.6398116 54.6620176 54.8138332 55.0143933 56.1094357 54.8280941 57.6472995 53.4370246 59 54.4401051 58.1238968 55.3735695 56.5959396 54.8492116 54.7578159zM36.0354822 1.47418928C35.8317316 1.85407279 36.5719734 3.12990796 36.5719734 3.12990796 36.5719734 3.12990796 38.3439773 3.2497898 40 4 39.5225965 1.69427717 36.7293316.183456713 36.0354822 1.47418928zM43.7070937 6.80716667C42.86525 4.89583333 42.395 4.6535 45.4566094 1.65766667 44.0030625 3.65333333 43.58025 4.27 44.1171875 5.7495 44.3799844 6.47116667 43.9434219 6.4875 43.7070937 6.80716667zM53.9379531.136C48.6158437 2.25566667 47.2795156 2.78766667 47.9890156 2.067 48.6974844 1.34466667 47.453625 1.4055 45.8978125 2.79266667L45.3490156 2.98316667C45.5746875 2.2275 45.8335312 1.967 46.1042344 1.7385 45.8175469 2.168 45.7635781 2.44116667 45.7414062 2.563 46.403125 1.77433333 48.4419062 1.295 48.6845937 1.31116667 48.9286563 1.32933333 48.6782344 1.6705 48.5677187 1.96333333 50.1212969 1.34633333 53.2913594.310666667 53.9379531.136zM44.2110313 6.92C45.4689844 6.73666667 46.7944844 7.166 48.0787344 8.88133333 46.6537188 7.266 45.1963906 6.9595 44.2110313 6.92zM49.7687813 7.76033333C50.7524219 7.36766667 51.4194688 6.65366667 51.0454688 5.25833333 51.8702969 7.28566667 50.4958125 7.635 49.7687813 7.76033333z"/>
      <path d="M52.4581094 4.1055C51.6461719 3.44833333 50.6800625 4.19033333 50.3337344 4.51416667 49.9882656 4.83783333 50.0087187 5.4165 49.1687656 6.2915 48.9125 6.55783333 49.3134844 7.359 49.5152656 7.67033333 49.7158437 7.98166667 49.4183281 8.314 48.3975625 8.54183333 47.3764531 8.76833333 47.2411875 7.85 46.5368437 7.30683333 45.8318125 6.76366667 45.9380312 6.75233333 46.5471562 6.36283333 47.1554219 5.97333333 49.2003906 5.1615 50.1309219 4.38116667 51.0609375 3.6005 52.029625 3.59466667 52.4581094 4.1055zM52.6500937 1.53233333C51.2041094 2.17016667 49.8382187 2.54266667 49.2471406 4.23866667 50.2312969 3.21866667 50.9820469 2.45066667 52.6500937 1.53233333z"/>
    </g>
    <use fill="#000" filter="url(#logo-en-b)" xlink:href="#logo-en-c"/>
    <use fill="#FFF" xlink:href="#logo-en-c"/>
    <use fill="#000" filter="url(#logo-en-d)" xlink:href="#logo-en-e"/>
    <use fill="#FFF" xlink:href="#logo-en-e"/>
    <g stroke-linecap="square">
      <use fill="#000" filter="url(#logo-en-f)" xlink:href="#logo-en-g"/>
      <use stroke="#FFF" xlink:href="#logo-en-g"/>
    </g>
  </g>
</svg>
