<svg width="270" height="74" viewBox="0 0 270 74">
  <g fill="none" fill-rule="evenodd">
    <g fill="#443D3D" fill-rule="nonzero" transform="translate(189)">
      <path d="M38.8641921,42.3312842 C38.5621842,41.2456855 37.7382453,40.1141504 36.1461209,39 C37.019014,39.8047769 38.1654821,40.94989 38.5468551,42.4275986 C38.9679108,44.058471 38.472064,46.0725706 36,48 C37.7706342,46.7382691 39.5041819,44.6406717 38.8641921,42.3312842 Z"/>
      <path d="M38.9023202 42C40.0584629 43.943252 40.7902098 45.3409364 38.524545 46.9133458 37.1571294 47.8635214 36.4296993 48.7268549 36 50 36.3281946 48.3338103 37.1681062 47.6288973 38.3982499 46.5902606 39.6276536 45.5506989 40.2886061 44.6591504 38.9023202 42zM35.0873115 49C33.8569106 51.5283044 32.8167395 53.5410314 37 54 33.9669694 53.2056211 33.8452377 52.1817579 35.0873115 49zM35.8262762 43C36.4151364 46.2582831 35.5953225 48.0824433 32 49 35.5090137 47.7989173 36.2358245 45.6197201 35.8262762 43zM25.5874343 39.3634709C25.2532854 42.1032459 24.8427498 41.6181331 26.7189323 43.9675821 27.1935963 44.561872 27.0219818 44.8980852 26.5399402 45.4971322 26.0583527 46.0961793 25.0123213 47.010389 24 48 26.1964842 45.4914236 27.2347974 44.8005631 26.4657101 44.1186223 25.6969634 43.4353733 24.3878352 41.9121264 25.4322775 39.1551067 25.5621234 38.8709845 25.6608698 38.9987146 25.5874343 39.3634709zM30.3198457 49C29.2447945 47.1086873 28.8838652 45.9565636 30.3417053 44.6120582 31.8001594 43.2655061 33.3052801 42.4386738 33.84256 41.2436916 34.3789803 40.0476259 33.386087 39.0554994 33.2200521 39 33.8647881 39.7098141 34.1597701 40.8330444 33.0928242 41.8655013 33.3665607 40.623447 33.3751572 39.6479341 32.2949482 39.1155735 33.2985257 39.8629491 33.3704905 41.7365646 32.0317731 42.6198594 32.389141 41.579216 32.8366492 40.1127564 30.9799325 39.1946692 32.6181758 40.2013628 32.403755 42.0997785 31.1826866 43.2157854 29.9606356 44.3314312 27.4582005 46.254647 30.3198457 49z"/>
      <path d="M33.5692985 42C35.3872118 43.0795064 35.7764504 45.0209162 32.9295934 47.722873 30.2394472 50.2762992 31.9866206 54.0622672 33.1017609 55 31.0787358 53.7705865 29.76593 50.6536947 32.7591181 47.483372 35.2816097 44.8129482 35.6489607 44.0341319 33.5692985 42zM23.5734266 39C21.565334 40.069039 21.1524715 41.9681525 24.2863374 44.6507583 26.6878461 46.7046922 25.0908709 50.0735489 23.8602613 51 26.0937329 49.7844191 27.0080888 46.8519754 24.4748182 44.4143885 21.7103096 41.7535292 21.277128 41.0106879 23.5734266 39zM42 28.1078125C41.5642561 28.7293269 40.6899022 29.7567308 40 30 40.2528277 29.3246394 41.0568606 28.216226 41.3337428 28 41.0115154 28.3789663 40.8504018 29.0542067 40.7354522 29.24375 41.126465 29.0802885 41.632018 28.4591346 42 28.1078125zM18 28C19.6577724 29.3702152 21.4287566 30.5003976 22.0291225 31.5723942 22.6294885 32.6454512 24.0582959 32.9423444 24.9143097 32.8520836 25.7712129 32.7624854 27.3709181 32.8206712 28 33 26.113898 32.1366239 24.628167 31.6313753 23.7430561 31.4231524 22.8578181 31.2147969 21.88567 30.5292917 18 28zM14.560284 25C13.1818359 25.3752542 12.6868541 25.6759083 12.3342224 26.3889915 11.980883 27.1020747 11.9460916 27.7398066 13.677997 26.6131677 13.2893944 27.8513315 11.3435513 32.2570016 12.228197 35.032356 12.6456941 31.9184216 13.0649603 31.5727071 13.9491342 30.5339362 13.6708028 32.7094846 13.2533057 35.525769 15.4885664 36.9581938 15.2056354 36.0583597 15.0685926 33.4497293 15.6736096 32.7569234 16.9119485 35.8323059 18.190386 36.6602935 21 37 18.6082369 35.5225146 18.1619631 34.9647652 17.4905476 34.1399067 16.8190141 33.3146728 16.2313338 31.2627906 16.2306262 30.1369027 15.9133756 30.9254623 14.8679817 31.7995118 14.9750685 32.3618925 14.6016799 30.5831273 14.5083917 30.3364208 15.1584606 28.1614983 14.367339 28.3098226 13.4013167 29.3052852 13.4368157 29.7926902 13.1525875 28.1423475 13.6785867 27.2887004 14.490819 26.0502863 13.96081 26.1629377 13.1826614 26.388616 12.9000843 26.5390681 13.252834 25.9382608 13.6413186 25.4877805 14.560284 25zM22 35C24.3003492 36.3681369 26.6871778 36.9900172 27.5842804 36.5329096 27.2925328 36.6814098 32.0263134 35.3098592 35 35.4410628 31.4465418 35.8658532 29.9605392 36.5367785 29.1615666 36.8322997 28.3630744 37.1273658 24.9596338 37.2925936 22 35z"/>
      <path d="M35 34.6474981C37.8046705 34.9955029 40.5900235 34.3534639 41.8444408 31.7374117 42.2808444 30.8273891 42.8993662 30.7924601 42.9728696 31.0012163 43.5911485 29.8461067 43.7359684 28.8654084 43.7001279 28.3403055 43.662222 27.8154362 43.9904967 28.0258279 44.172858 28.2699803 44.1350736 26.4843968 43.5514202 25.1194797 42.386665 24 45.4468356 27.2197745 45.2293628 29.0052412 44.6470459 29.7753142 44.065458 30.5466723 44.1008125 29.3554655 44.1005695 28.9707795 44.1003265 28.5849252 43.8811528 28.3051429 43.8450693 28.8652916 43.8097148 29.4257908 44.0298605 31.4566949 42.5000181 32.7176428 40.9717552 33.9780065 38.1323376 35.7653423 35 34.6474981zM11 25C11.4839099 26.1054851 13.3567113 27.8108858 14 28L13.8997001 27.5576795C12.5709618 26.8633121 11.4030793 25.4738396 11 25z"/>
      <path d="M34.9248751 31.9341461C33.8448399 32.0303495 31.9221052 32.012547 30 31.9360754 33.7170437 31.8823173 36.5470685 31.6314168 39 31 37.4538549 31.5914271 36.0509926 31.8346103 34.9248751 31.9341461zM38 29C38.4921971 29.5425129 38.8921971 29.8879881 40 29.047612 39.1382957 29.9861775 38.800924 30.0357664 38 29zM13 22C13.6140122 22.5560053 13.5872025 22.8201371 14.7331372 22.6725724 14.4670573 22.2926549 14.7063276 22.439308 15.1064557 22.4971357 15.506821 22.5548331 15.8264016 22.6430073 16.2806235 22.5842679 15.5329189 22.9357925 15.5870127 23.2867961 16.9470687 23.432798 16.3337683 23.5207117 16.4806282 23.7552784 16.5072006 23.9020618 16.5341289 24.0479334 16.7338964 24.1057611 17.0535956 24.2517629 17.3742438 24.3988067 17.5872974 24.4429589 18.840708 24.5148528 17.8008256 24.6328525 17.9077084 24.647049 18.1739069 24.8227461 18.4406985 24.9977921 18.6809177 25.4813825 20.066953 25.2753389 21.4542931 25.0696859 22.2942893 24.7027928 23 24.4249855 22.4939382 25.0539266 21.4655626 25.2293633 21.0673326 25.4799499 20.7878479 25.6560378 21.1477615 25.7294945 21.8679447 25.5965169 22.7126859 25.4412679 21.1885691 26.6505696 20.815132 26.7972227 20.4421694 26.9441363 19.2957603 27.2666168 19.6952953 26.5636979 20.0951861 25.8606488 20.361266 25.2167297 19.587938 25.7147771 18.8153218 26.2125641 17.8111462 26.3407227 18.3078365 25.7744282 18.681155 25.3494469 18.5211274 25.3933386 18.280671 25.2180322 18.0403331 25.0429862 17.8543263 24.8084194 17.7209898 24.8969844 17.5876533 24.9848981 17.1348549 25.3068576 16.4681724 25.1902905 16.9212081 25.0726815 17.4003416 24.9255075 17.6413913 24.6626781 17.1610714 24.6040689 16.5204868 24.2823699 16.3869131 24.1945865 16.2541697 24.106282 15.9074237 24.3708046 15.5337493 24.4002394 15.1613799 24.4300649 14.2013334 24.751764 13.080429 23.4649679 14.1744051 24.3422815 14.5718048 24.3558267 15.5743197 24.092867 16.4136041 23.8728874 16.0267622 23.5942987 15.8933071 23.5944289 15.7609196 23.5944289 15.2005267 23.4484271 15.0670716 23.2438161 14.9337351 23.0395958 14.8935206 22.9512914 14.7065648 22.9514216 14.5204394 22.9512914 13.7200645 23.171271 13 22zM22.841856 26.4081031C23.2291923 25.6318152 23.8378129 24.5140057 23.8924509 25.2290668 23.9454261 25.9451109 24.1937917 25.4604927 24.3366821 25.2495693 24.4790974 25.0387864 25.1732384 24.8289864 24.9594373 25.4179429 24.7471803 26.007461 23.9461388 27.2290471 23.1807308 27.7347296 22.4156791 28.2397099 21.7214193 27.9455125 22.1125566 27.502742 22.5038127 27.0612353 22.6110696 26.8710953 22.841856 26.4081031zM10.4478343 18C11.0617885 19.5259831 11.6787231 23.3137875 9 24 12.6849673 23.9441713 12.737372 18.7360721 10.4478343 18z"/>
      <path d="M9.14208539 19C8.75446458 22.6862722 8.51128125 22.7905581 8.60645407 19.5194665 7.68363504 21.9600815 7.87896128 23.0505224 8.75457286 22.9982062 9.63040098 22.9453125 10.8470756 22.1142585 9.14208539 19zM32.7342794 22.1098069C31.4149515 22.720038 31.276907 24.4588742 32.5921162 24.6277897 33.3677694 24.7269404 33.8289363 23.2804824 33.7436384 22.7570345 34.9690323 22.6934005 35.8493815 24.4567601 33.6641864 24.8947989 31.4800543 25.3342117 30.0856588 24.3042288 30.0036824 23.519797 29.9218389 22.7348366 31.2157901 21.6497817 32.7342794 22.1098069z"/>
      <path d="M32.7342794 22.1098069C31.4149515 22.720038 31.276907 24.4588742 32.5921162 24.6277897 33.3677694 24.7269404 33.8289363 23.2804824 33.7436384 22.7570345 34.9690323 22.6934005 35.8493815 24.4567601 33.6641864 24.8947989 31.4800543 25.3342117 30.0856588 24.3042288 30.0036824 23.519797 29.9218389 22.7348366 31.2157901 21.6497817 32.7342794 22.1098069zM27.3055883 25.000354C28.0951812 25.5112041 28.2175766 26.3212775 27.0638716 26.6417536 25.9093696 26.96133 25.0729818 25.7426215 25 25.3127338 25.2712055 26.7301375 26.0356361 27.114259 27.4187614 26.9724624 28.8023421 26.8314529 30.1977639 24.9705554 27.3055883 25.000354zM42.2153669 21.446021C42.3561289 22.6007584 42.22501 23.3605851 41.3559285 23.4706075 40.4851059 23.5801321 40.1940728 22.6779235 40.250324 21.8948228 40.3060395 21.110353 40.4822933 20.7422011 39.9580855 21.200213 39.4329401 21.657727 38.6797093 22.7145146 39.1461927 23.2713475 39.6137476 23.8283048 40.4071578 23.994832 41.1029319 23.9999348 41.7980364 24.0039175 42.9653833 23.827807 42.9987322 22.8128378 43.032349 21.7974953 42.3877367 21.5857892 42.2153669 21.446021z"/>
      <path d="M38 22C39.7937205 23.3711905 40.5738795 24.193882 40.0737505 25.3234133 39.9837879 25.5279732 39.9806267 25.9132353 40.3371843 25.7355011 40.6938736 25.55868 40.9059378 24.943973 41.0269856 24.6882731 41.14777 24.4324591 42.0049834 24.5659025 41.9999782 25.2841451 41.9929972 26.0025019 41.5774304 26.0769289 41.4316198 25.8446301 41.2862044 25.6137012 41.2258781 25.6899545 40.8407379 25.8667755 40.4528317 26.0442815 39.8606326 26.0922252 39.8039944 25.7066207 39.7486733 25.3210161 39.7352382 23.3965322 38 22zM32.6365525 26C32.7888589 26.6943455 32.9961841 27.5688164 33.5265541 27.5458582 34.1500541 27.519359 34.1500541 27.0420322 34.1318993 26.0089092 34.8422929 26.7321524 35.6735339 27.815304 34.1144374 27.9603638 32.5561724 28.1048525 32.0284356 27.8451155 32.0016884 27.3310097 31.975357 26.8178177 32.2601519 26.3568244 32.6365525 26z"/>
      <path d="M36.2506331 24.111796C37.2255765 26.0088427 37.9653015 28.1219189 35.95419 29.7543956 35.1287253 30.4237506 33.5305976 30.8019825 32.0852173 29.3218559 31.5803337 28.8059323 31.6127689 28.4644663 31.9000346 27.5924183 32.015821 27.241821 32.0790571 26.3511498 31.5931569 27.0772156 31.1075081 27.8026807 30.1072954 29.2817259 28.4934529 29.620909 26.8801133 29.9609332 25.9215132 29.684228 25 28.2465144 25.8914666 29.9813587 26.8180086 30.7170365 30.8387229 29.7184707 32.5815521 30.864941 35.0589518 32.0971984 37.6815559 29.2798035 40.3023999 26.4621683 38.2834938 24.5038451 37.8319146 24.2850522 37.3817183 24.0658988 36.3657909 23.8688529 36.2506331 24.111796zM35.4920819 9C34.8089795 10.1595376 35.038229 11.3621416 35.0324617 12 36.7173087 11.4834537 36.819678 10.8469724 36.9725109 9.9092768 37.1251836 8.97270792 36.6432953 9.15699203 35.4920819 9zM34.1314529 13.1411403C33.7725236 14.2712565 34.1556033 14.9587686 35.1952257 14.993358 36.2362942 15.0285436 37.1469219 14.9434619 36.9801832 14.2573412 36.8148906 13.5716181 36.4286294 13.1825878 35.7375242 13 35.9891507 13.7464532 35.8510454 14.4902227 35.3305834 14.6071107 34.8083861 14.7232035 34.0737523 14.5711299 34.1314529 13.1411403z"/>
      <path d="M31.4735383 12.5178174C31.572669 13.8376711 31.390447 14.0998054 31.133696 14.588477 30.8770656 15.0760166 31.019973 15.3791566 31.3080792 15.4943749 31.5970296 15.609719 32.2041148 16.5569999 32.2342641 17.499501 32.2638103 18.4420021 32.5824276 19.3496609 33.3084214 18.8653917 34.0348977 18.3799905 34.9749512 18.3871602 35.3717152 18.54112 35.7678763 18.6954573 36.9936241 19.2329332 36.9995333 18.4027574 37.0045984 17.5734621 36.9705901 17.3469247 36.79078 17.2322095 36.6109698 17.1177459 36.285358 17.0397597 36.2107085 17.4543445 36.1354559 17.8681745 36.1309938 18.471184 35.7343504 18.3554625 35.3369833 18.2392379 34.324451 18.306784 33.7826088 18.3401169 33.2394399 18.373827 33.0222448 18.4476624 32.7384801 17.6158514 32.4558007 16.7850467 31.741746 15.5731158 31.3458261 15.2680891 31.2762416 14.8912396 31.5677245 14.5164027 31.9315656 14.2170363 32.2946832 13.9182988 33.0226066 13.2833401 33.0634889 12.5290122 33.1053361 11.7755648 31.5143001 11.8769469 31.4735383 12.5178174zM30.45453 18L30.6308836 19.9831171C31.10055 19.6470683 31.432768 19.153957 31.626196 18.8949315 31.8201117 18.634978 32.1490368 18.7416969 31.9243872 19.3930307 31.7002254 20.0423926 31.3638608 20.9793156 30.4862395 20.9991514 29.6087401 21.0197992 30.1593878 20.6579987 30.2976899 20.5283119 30.4367239 20.3992052 30.4720922 19.2783078 30.45453 18zM27 8C28.7478403 8.66303832 30.1707438 9.22017544 31.4843287 10.9357307 31.6414507 11.1419187 31.7580656 10.8069319 31.9195905 10.565737 32.0811154 10.3248724 33.176692 10.033479 33.5867941 9.94265933 33.9982801 9.85250021 34.2494991 9.66766851 33.6153503 9.19771823 32.9824595 8.72743769 32.2794992 8.36878273 31.5760356 8.10347933 32.4369985 8.55614637 33.1151767 9.21324013 33.2042418 9.493515 33.2923005 9.77323945 32.3795087 10.0470193 31.740328 10.2293191 31.5351512 10.3030756 29.5448977 8.61250958 27 8z"/>
      <path d="M31.9995625,16.7595166 C32.0340546,14.4380455 30.0299738,10.4408791 25.723765,9 C28.6662084,10.5694192 32.0518692,13.5243653 29.1165012,18.7020095 C26.4747584,14.9224387 24.2778755,12.6734176 19.5639521,12.4405694 C16.9516477,12.3111682 15.4064511,13.9038354 15,15.1175245 C15.7776521,13.6297805 17.7294261,12.3729167 20.0057798,13.011312 C23.5756513,14.0332365 24.7290527,17.1911407 25.5670975,19.5796493 C25.8803062,20.4698356 26.3137951,21.336651 26.6237188,21.615134 C26.9337689,21.8938631 26.70698,21.9196941 27.0756541,21.9772604 C27.4443281,22.0353187 29.0069602,21.9634838 29.4615487,21.9668049 C29.9160109,21.9700031 30.6279636,21.61538 30.3783064,20.9229856 C30.127512,20.2298531 30.8373169,20.2620804 31.3281664,19.243108 C31.4927936,18.8998014 31.9820005,17.9360582 31.9995625,16.7595166 Z"/>
      <path d="M23.9999749,20.0061718 C23.9959706,20.558662 23.5447258,21.0028107 22.9925446,20.9999866 C22.4400872,20.9957505 21.9960226,20.5451835 22.0000269,19.9928216 C22.0040312,19.4408449 22.455276,18.9955409 23.0082857,19.0000337 C23.5601907,19.0033712 24.0038412,19.4548369 23.9999749,20.0061718 Z"/>
      <path d="M24.6851851,19.4732953 C23.6786049,19.8359725 22.5869525,20.1190463 22.4207622,19.3790157 C22.2539342,18.6391025 22.1735812,17.8998937 22.7804374,17.3491268 C21.684321,18.1863723 21.6770509,19.1363307 21.7577865,19.7443933 C20.793551,18.3913689 21.205902,17.0484417 22.276382,15.8145877 C23.3469895,14.581673 22.5407815,15.0251278 22.1077683,15.3650276 C21.6751378,15.7058667 19.8069952,16.2996054 20.0162956,18.8613582 C20.2249582,21.4222892 24.6123573,21.3732121 25.6529919,20.3240429 C26.5824078,19.3872343 25.4324677,19.1879908 24.6851851,19.4732953 Z"/>
      <path d="M25,20.8859497 C22.8318949,22.0714607 21.2453609,22.0340394 19.6988634,20.1679724 C18.1512087,18.3023703 19.6017806,15.5693381 20.2820544,15 C18.6162573,15.1966361 16.721118,18.2391492 19.1744543,20.7390537 C21.6274436,23.2386096 24.4238675,21.3255917 25,20.8859497 Z"/>
      <path d="M19 14C15.7428994 15.3315178 14.4572493 19.7301811 18.6606406 21 16.2431907 18.9839009 16.5118734 16.7139102 19 14zM14.7850826 20C13.8579651 18.1267266 13.5479545 16.3192282 15 14 14.6568483 15.3262881 13.8827793 16.7962289 14.7850826 20zM27 15C23.5109353 12.1758381 23.3677488 11.4048372 15 11.5578228 23.7141878 10.0417467 23.738613 11.7569377 27 15z"/>
      <path d="M13.9133353 15.7186938C12.4245545 15.0399797 12.1433321 14.6184625 12.2329606 12 11.8612662 14.3192787 11.8816172 14.7398067 12.683317 15.3634543 13.4847006 15.986992 14.2649951 16.2404518 13.9133353 15.7186938zM13 16.7059345C12.6747378 16.5038382 12.2239455 16.3008562 12 16 12.2477126 16.5996457 12.3211337 16.8327428 12.4707655 17 12.4231198 16.5682019 12.4729971 16.6020077 13 16.7059345z"/>
      <path d="M13.6060525 18.9601396C12.3987766 19.248033 12.1163277 17.910219 12 17.0754765 12.5562054 16.9135736 13.3994742 16.9891085 14 17.5291312 13.1546923 17.62099 12.6962494 17.7498 12.5521275 17.5481263 13.103933 18.1535928 13.3432419 18.5561984 13.6060525 18.9601396zM41.6117756 6C43.5427638 7.56349779 45.1534458 10.3137237 44.9883357 12.8732792 44.814201 15.5402597 43.6467361 18.0846578 39.5203801 20.2629926 38.1059491 21.0099156 38.6061096 20.2566169 38.7241907 19.7890232 38.8429073 19.3207076 38.3816411 19.6421407 38.0764606 19.8923581 37.7691193 20.1426958 36.0432795 21.5735062 36.1264066 20.7441799 36.2083897 19.9153348 35.8242766 20.3817256 35.5545585 20.7406913 35.2848404 21.0990555 34.446452 21.1649782 34.7196019 20.3019688 34.9923705 19.4383579 34.8467075 18.7157349 34.5365698 19.3628115 34.2268135 20.0098881 32.9219475 21.2626592 33.0036764 20.5059922 33.0857866 19.7494455 33.132053 18.8128145 33.0593486 18.2352694 33.2806394 19.2100346 33.4311325 19.4637406 33.4650697 19.8968091 34.270792 19.1445931 34.6545238 18.82316 34.8095926 18.5000427 34.9644072 18.1760834 35.2693336 18.2145784 35.2656475 18.6833751 35.2619614 19.1518109 35.2567501 19.8729903 35.2159492 20.1971903 36.0962826 19.6625912 36.5581843 19.0888957 36.7881183 18.8741658 37.0180523 18.6588345 37.4769035 18.5903856 37.3951746 19.274634 37.313827 19.9590026 37.4640658 20.2129492 38.0396 19.6398551 38.6156425 19.0665204 39.3801827 18.6750746 39.2220633 19.3951714 39.0649608 20.1152681 39.4476757 19.9024631 40.4826966 19.0078156 41.5177174 18.1137696 44.052203 15.5352073 44.1880789 12.8677455 44.3221753 10.2012462 43.9882689 9.08104219 41.6117756 6z"/>
      <path d="M37.010014,12 C39.6318041,12.8822325 40.9519723,16.0644547 39.2108791,19.2208836 C38.716145,20.1177657 37.9242947,20.4505749 38.1607596,19.063995 C36.6890885,19.8788642 35.9760598,19.7977279 35,19.6409645 C39.3992239,19.1099472 39.6938338,14.8341373 37.010014,12 Z"/>
      <path d="M40.3209746 18C40.7929739 14.5094864 40.8891063 12.3856149 40 10 41.2837101 12.4612057 41.2656324 15.7386471 40.3209746 18zM17.8790582 7C18.097844 4.59188721 18.6205288 4.1511254 13 2 15.9457382 3.65100173 16.8215487 4.16992332 16.8067406 5.9915904 16.7995367 6.88115261 17.400931 6.73757111 17.8790582 7z"/>
      <path d="M2 2.79995676C9.5936333 3.04606411 11.5015611 3.1075262 10.2942149 2.73927158 9.08637894 2.37067167 10.6682583 2.09443754 13.2297521 2.75429181L14 2.75791738C13.3825528 2.23764767 12.9434956 2.10609117 12.5044383 2 13.0518519 2.25534392 13.2426079 2.45026163 13.3248852 2.53805228 12.1450872 2.10540058 9.38426691 2.26535741 9.08760331 2.34201238 8.79142945 2.41771779 9.25742271 2.61401667 9.5234772 2.80936599 7.30811142 2.74022113 2.88631772 2.76585911 2 2.79995676zM17 7C15.3313247 7.29658765 13.8513952 8.36976848 13 11 14.0735144 8.43449608 15.7745743 7.45516337 17 7zM10 9.95043582C8.44910216 9.89363217 7.17626182 9.43283241 7.00699178 8 6.86451269 10.1712799 8.93485711 10.0632999 10 9.95043582zM5 6.7655217C5.70519189 5.79078151 7.20738571 6.22517787 7.76984169 6.44131541 8.33265631 6.65709938 8.5568019 7.26992117 9.96300163 7.88781053 10.3913289 8.07578182 10.2496689 9.05511818 10.1395686 9.45156674 10.0289901 9.8484867 10.537173 10.0910227 11.8820465 9.96775124 13.2268004 9.84495119 12.9926131 8.83662364 13.6161562 8.01992076 14.2402971 7.20345358 14.1059293 7.22843785 13.1936866 7.03657749 12.2813245 6.84518853 9.43401805 6.71897082 7.96003669 6.23083469 6.48497944 5.74293427 5.30005622 6.0791613 5 6.7655217zM4 4C6.29911576 4.19140003 8.35840926 4.07731287 10 6 8.14928857 5.11727233 6.74119126 4.45475604 4 4zM24 8C22.0839259 7.40246669 20.9732768 6.66028196 20.6732447 5.11222166 20.6167954 4.82181357 20.5399094 5.1630638 20.5059956 5.36947184 20.4719713 5.57601804 20.2542381 6.02903809 20.1036697 6.2141698 19.9534327 6.39930151 19.9266994 6.76141361 20.2972103 7.05499934 20.6677213 7.34830875 21.4924782 7.89444729 24 8zM26 6C22.9880629 5.68895783 20.2273289 2.46972383 23.4297986 1 23.1406481 2.25536481 24.1184199 4.77973969 26 6z"/>
      <path d="M26 6.96109828C22.6142975 7.39396804 19.0519369 4.11637975 22.2471184 2 19.8394151 4.42613742 23.465569 6.59775814 26 6.96109828zM26.3835365 6C25.0966505 4.88634477 23.8006209 1.34106635 27 1 25.7260958 1.86568704 26.1678138 4.13187228 26.3835365 6zM16 49.7634396C16.9509954 48.7054753 18.2981784 47.8908067 19.1697429 48.0119581 20.0420327 48.1342267 19.6462078 48.3776466 19.3290884 48.9480263 19.0128153 49.5181577 18.1406464 51.0238608 18.6179576 52.9357189 19.2113323 51.4704824 20.6368582 50.0860548 21.3102684 50.0046252 21.9837995 49.922699 21.6278714 50.004501 21.5488031 50.6549449 21.4702184 51.306506 20.5602079 54.3984728 25 57 21.1954139 55.9848607 20.2029499 53.7479048 20.4395503 51.3071266 19.6472959 51.9177246 19.2512291 52.2029765 19.2523172 54.0738715 17.5484807 53.9933108 17.1510841 51.7963249 17.8232852 48.9084287 17.3873217 49.193184 16.5561377 49.7630672 16 49.7634396zM46 36.2131648C46.9055099 37.7909057 51.3112038 39.7907986 53 40 51.672107 38.5262707 50.8266045 37.8954528 50.1017303 36 48.2924285 36.5273419 47.0254019 36.475711 46 36.2131648zM41 37.6831402C41.3918612 39.2980946 41.2121767 40.5379037 42.1434578 40.5650014 43.0740061 40.594328 43.1933478 40.0462734 43.1922485 38.3445125 44.5746342 40.1031669 45.3864514 42.0634707 45.6266007 42.4376775 45.8672387 42.812588 46.4985163 42.755108 46.4075136 41.8031683 46.3171217 40.8515804 46.2863396 40.6792577 46.2857289 39.8142418 47.8791919 41.8599445 49.7128043 45.1459255 49.9826364 45.6937454 50.25369 46.2419172 50.8835019 46.0683041 50.8527198 45.058767 50.8229149 44.0508722 50.8821582 43.877259 50.8518647 43.589155 53.4363408 45.9807937 54.2774743 45.5791373 56.5584046 45.4883423 58.0292278 45.4299238 56.64672 43.1532452 55.9555882 42.201892 56.7065741 42.1725655 56.6461092 42.4607868 57.3068253 42.8929428 57.9681522 43.3249815 59.0192637 44.1325173 59.3793656 44.4491267 59.7402003 44.7653842 59.5898322 44.939232 58.8393349 44.9683239 58.0888376 44.9976505 57.879959 45.6033023 57.7893227 45.7765636 57.7001523 45.950294 57.969618 45.8631355 58.8698727 45.5452358 59.7711046 45.2272187 61.3919295 45.5438281 61.7829357 45.3711534 62.1732089 45.1976575 62.0219857 44.7353538 61.4515393 44.3618509 60.8808487 43.9874096 57.9400574 42.6014369 57.0361381 41.971268 56.7064519 41.7399402 55.4746787 41.885048 55.1451147 41.9427626 55.3251656 42.9519478 55.4158018 44.2208489 54.9367246 44.9133073 53.1346272 44.4234367 50.8813031 42.1759673 50.0092654 39.8987023 49.9196064 40.3604194 49.6198472 41.4559419 49.6811671 43.2724283 47.9684845 40.3325006 46.7661497 38.8911594 45.7452096 38.430498 45.7154047 39.1802018 45.655917 39.8430991 45.6255014 40.4204802 44.3932396 38.2008124 43.462447 37.3939805 43.0721738 37.104938 42.6819005 36.8175378 42.4714339 37.1632392 42.3219208 37.6249564 42.1714305 38.086087 42.1119428 38.9799602 41 37.6831402z"/>
      <path d="M42.6008255,43 C42.6423434,43.9858734 40.202126,46.6460464 40.1612391,47.0408772 C39.8718758,47.0409976 39.1246799,46.7452356 39,46.6662694 C39.3730301,46.9812915 39.2491074,47.5728155 39.4555611,47.6519021 C39.662772,47.7305071 40.4076964,48.0064072 40.6551632,47.1382608 C40.9865492,48.9536402 40.6564251,49.2680604 41.4005924,49.2294199 C42.145012,49.1890942 43.0136067,49.2285773 43.7149941,46.7418651 C44.3359958,47.4125961 44.6670032,48.6356087 45.3295228,49.5819991 C45.9916638,50.528269 46.6129178,51.2382423 46.6949441,50.3698552 C46.7772227,49.5015884 47.3140528,48.318781 47.3549398,47.4893955 C48.3903632,49.1857237 49.0942745,50.9608977 50.6246316,51.5516995 C52.1553673,52.1423809 53.0238359,52.3007948 52.899156,51.0766987 C52.7742237,49.853686 52.7311915,47.8419746 52.8968845,47.4467826 C54.0969914,48.8675719 55.2968459,49.2998395 56,49.4584941 C54.8417896,48.9057308 53.1449823,47.7232846 52.4413234,46.5003923 C52.6075212,47.3687795 52.3604329,47.8022508 52.0699339,48.236324 C51.7804444,48.6709991 51.2848797,49.2242438 51.3276595,50.9983344 C49.4666736,50.4074123 49.4226318,48.4357858 48.5132764,47.4491901 C47.6029114,46.4635575 47.2708944,45.5960129 46.8982429,44.6496226 C46.3195163,45.7547879 45.907997,46.9385583 45.9907804,49.2654121 C45.0395285,47.7277385 44.2528338,46.5043647 44.2938469,45.0456572 C44.3335981,43.5856257 44.1273968,43.2706036 43.4238641,43.4678987 C42.7204576,43.6656752 42.8870339,44.0196989 43.0515912,44.3361654 C43.2176627,44.651669 42.6399457,46.3088753 41.6894509,47.8873561 C41.1914886,46.1123025 42.8489233,44.1830481 42.6008255,43 Z"/>
      <path d="M54,47 C55.5155768,48.1004878 57.0309165,48.7341528 59.1279305,48.7753468 C61.2256556,48.8152495 63.169192,49.7026647 61.1493316,49.8737684 C59.1285231,50.0435808 55.788044,50.553922 54,47 Z"/>
      <path d="M58 46C59.0430779 46.9725047 59.2439183 46.6356531 59.2451492 48.9199138 59.8503375 49.1068504 60.1191847 48.9944142 59.95045 48.2836893 59.7822282 47.5715933 59.2448415 46.3353662 58 46zM40.1488965 53.6447327C40.8634427 52.2620279 42.3699505 49.6168697 43.0053854 49.250407 43.6403357 48.8838202 44.0779317 48.8834479 43.8796081 49.4935158 43.6805577 50.1044524 43.761244 51.7728318 44.1193652 52.7067967 44.4767594 53.6423748 44.9933456 54.9029667 45.4303358 55.3903013 46.4220747 54.129213 47.4149038 52.624023 47.5325411 51.2006139 47.7311069 51.2004898 48.8025628 50.8746073 49.0413507 50.9963479 49.2796539 51.1180885 49.3586441 51.7282805 49.5189264 51.9315537 49.6773913 52.1350752 50.3257894 53.4723599 52.1010091 55.550016 52.3791709 55.8746575 52.7358383 54.9393276 53.0538586 54.1661943 53.3710309 53.393061 54.0543203 52.428568 53.5282844 50.9937418 53.28986 50.3432178 53.5669314 50.261561 54.2820834 50.3015207 54.9963874 50.342225 55.8309939 51.2362302 56.9030556 51.6017001 57.9749961 51.9672941 59.5252392 52.0479581 60.1993212 52.1289943 60.8740089 52.209286 62.3836665 52.4531395 62.462899 52.2900741 62.5414046 52.1276293 62.7388801 51.6803785 62.4219501 51.2728392 62.1041721 50.8670373 61.2707771 50.0126196 61.1507168 49.6061972 61.0316258 49.1997748 61.3094241 49.3617233 62.0644347 49.8902585 62.8196875 50.4184215 63.9313655 51.5977289 64.3687191 51.8005058 64.8049825 52.0045236 65.7985386 52.9397294 63.7739908 52.9407222 61.7479893 52.9419632 58.2538848 52.5774861 57.0622475 52.4964498 55.8717005 52.4157858 54.8780233 51.8467945 54.4418811 51.6852183 54.0053755 51.5224012 54.0843657 51.8472909 54.0847291 52.4581034 54.0850926 53.0684195 53.7677991 53.8411805 53.4114952 54.7761381 53.054949 55.7128331 53.0150904 56.281204 53.0152116 56.6476667 53.0154539 57.0131366 52.1414734 57.1764501 51.7047255 56.7294475 51.2679776 56.2821968 48.9245615 54.3313693 48.6854102 53.8440348 48.2893689 54.4541027 47.3762568 55.6340306 47.019226 56.1222339 46.6624375 56.6100648 45.350861 56.6928385 44.7949009 55.7570122 44.2401523 54.8221786 43.3249807 52.4643083 43.5225773 50.6743125 42.8477684 51.5691863 42.054232 52.7492383 41.7763125 53.7663491 41.5000891 54.7827153 39.4359252 55.5968011 40.1488965 53.6447327z"/>
      <path d="M34.648608 57.0140716C35.3438489 57.2408549 35.793542 57.8097215 36.8152656 57.2401611 37.8368646 56.6711788 38.8988685 55.8742568 41.0645286 55.5319423 41.4745649 56.6692128 43.2501417 59.5071852 43.9292955 60.344468 44.1753422 60.6474626 44.3383341 60.7617216 44.9500215 59.7375536 45.5630806 58.7139638 47.6052808 56.8936833 48.3409268 56.4007966 49.0770716 55.9076787 49.4035543 56.5138992 49.8532474 56.8542477 50.3036887 57.1957527 51.2845085 57.2709231 51.8975676 57.7252994 52.5117491 58.1801382 52.5510317 58.4832485 53.5735036 57.8002385 54.5946037 57.1178068 56.6787054 55.069702 57.2089592 54.7279658 57.7407094 54.3869234 58.4349527 54.6524484 58.8032122 54.8791161 59.1712222 55.1060151 60.4381196 55.370615 61.0102749 55.446248 61.582056 55.5215341 61.9509391 55.5595818 62.3592294 55.7115417 62.7681434 55.8621139 63.7075605 56.3163745 64.2396848 55.7476235 64.7698138 55.1794508 65.0957977 54.7620816 64.6467281 54.1555141 64.1969103 53.5494093 63.8699288 53.4356128 63.7469678 53.1713599 63.6242562 52.9053723 63.909835 53.0183592 64.2380636 53.0574478 64.5640474 53.0948017 65.6277973 53.4348033 65.9138749 53.6241171 66.1999526 53.8138935 68.0396288 54.2673446 67.9993484 55.3284039 67.9585693 56.3903884 68.0413746 57.0727045 65.7926598 57.1874261 63.5453168 57.3026103 62.9722886 56.8089142 62.4005074 56.2412041 61.8273545 55.6728001 61.1740151 55.8255695 60.8066285 55.7492426 60.4382444 55.6734939 59.6207906 55.4468262 59.0889157 55.2957915 58.5574149 55.1441786 57.7812391 54.6892241 57.6575299 54.8793474 57.5354418 55.0690081 57.6594005 56.5473211 57.578341 57.9114907 57.4970321 59.2763542 57.7027985 59.5802739 55.4948628 59.6189 53.2879248 59.6571791 53.0835302 59.7329277 51.6934224 58.634977 50.3029404 57.5365638 49.0778199 57.2718483 48.9948898 56.8926424 48.9124585 56.5140148 48.7903705 56.7791929 48.5861005 57.1964466 48.3819554 57.6132376 47.2792969 59.3192591 46.8715054 60.3058419 46.4635891 61.2909213 46.0556728 62.1630138 44.7070924 61.9740469 43.3583873 61.7847331 42.82539 60.6104556 42.5799668 59.9671125 42.3344189 59.3220347 40.8208513 56.5938111 40.8203525 55.8363246 40.207418 56.0258697 38.8588376 56.93601 38.614038 57.4664818 38.3688642 57.9976476 38.7367496 58.3772003 39.1461623 58.4901873 37.7977066 59.1352651 35.8354435 59.1738911 34.6901354 58.757447 33.545326 58.3413498 34.0361724 58.1514578 34.648608 57.0140716zM28.7279476 52C28.7288664 53.5699339 28.7557758 54.5194511 29.1858013 55.6740106 30.1324873 55.0957862 31.0099964 54.8893585 32 55.548693 30.4935984 55.467331 30.2351368 55.5083898 29.5904925 56.7470822 28.9457169 56.9121992 28.0850097 57.2424331 28.0416921 56.7066531 27.9990309 56.1697394 27.8252355 53.7340433 28.7279476 52zM56 41C55.4251054 39.1802977 52.5512812 36.438041 50 36 53.0616932 36.2499808 55.7440156 38.0500217 56 41zM37.2421811 61C37.5561592 61.6881725 37.7915234 62.3768979 37.5961831 62.7026822 37.4008428 63.0291301 37.1265301 63.2464303 36.8525758 63.3552462 36.5785021 63.4639516 36.3823255 63.3554674 36.9691826 62.7753368 35.5212751 63.5371591 33.9658408 64.887627 35.9143451 64.9864903 36.6186454 65.0224306 36.735969 64.986048 36.9313093 64.8773426 36.6181675 64.4063597 36.969541 63.536385 37.5569956 63.2099371 37.7920013 63.2460985 37.7920013 63.3548039 37.6746776 63.5728781 37.557354 63.7900677 37.1267691 64.6959827 37.4793373 64.8771214 37.8320251 65.0587025 38.2630879 64.9853845 38.4199575 64.9852739 38.2236614 64.5149545 38.5381175 64.333484 38.6155367 64.2245574 38.6937923 64.1162944 38.8888937 63.6090395 38.9282007 63.3909653 38.9670298 63.1733334 39.0457632 63.1368402 39.2020355 62.9554803 39.3589051 62.7741203 39.632023 62.0856161 39.9458817 62.5934239 40.2593819 63.1002365 40.5732406 63.5346156 40.7296323 63.8971143 40.8861434 64.259613 40.8087242 64.5856185 41.0829174 64.5853974 41.3565133 64.5852868 42.2176831 64.5489042 42.3744332 64.1510182 42.5311833 63.7508099 42.8037039 62.7365213 43 62.4105158 42.7261652 62.2292665 42.4902037 61.6855184 42.3729995 62.0122981 42.2559148 62.3373083 41.7869787 63.0269184 41.5119492 63.3528133 41.2381143 63.6791506 41.0820811 63.3530345 40.9249725 62.9913099 40.7685808 62.6284795 40.4931929 62.4117322 40.1416998 61.8680948 39.7886537 61.3244573 39.1610558 61.7596106 38.8878184 61.9773531 38.6142225 62.1947638 38.3793363 61.9049197 38.2218693 61.6519005 38.0657166 61.3981072 37.7518579 61.1449774 37.2421811 61z"/>
      <path d="M41 64.7002677C40.621647 64.700529 40.3116369 64.4001438 40.2083352 63.7575623 40.1047186 63.1161568 39.8632613 62.6877256 39.7948135 63.286667 39.7267855 63.8873068 39.58863 64.6572809 39.4171953 64.5724831 39.2451308 64.4867708 39.176578 64.3156073 39.176473 64.016006 39.176368 63.7158821 38.9005818 64.1453585 39.0387374 64.4869014 39.1768929 64.8293589 39.1769979 65.000261 39.5549309 64.9999997 39.9335989 64.9996077 39.8633663 64.2084669 39.932969 63.5657548 40.1392575 64.2082056 40.4153585 65.0425946 41 64.7002677zM9.19037973 25C5.83838017 26.3425853 5.23322821 27.5244885 4.62758325 28.2740175 6.24349921 28.667905 7.37541685 28.6273737 8.14214808 28.3906803 6.72885327 30.0866219 4.40327031 32.5023854 4 34 6.05924215 32.7371544 7.77560593 31.58135 9.10780299 31.1481338 6.92679095 31.661691 6.5289436 31.9786051 5.96360102 32.5702182 6.64911125 30.4811108 7.29394934 29.4947682 8.34353673 28.4298887 9.39324737 27.3647686 12.1797811 26.2600794 10.4435743 26.4578049 8.70650466 26.6555305 7.53490089 27.0114124 8.14091559 26.3415029 8.74668379 25.6703906 8.86796068 25.35504 9.19037973 25z"/>
      <path d="M7.81894506,32 C4.63279535,33.4642472 3.40278987,37.0520355 2.00958465,37.8215615 C0.614877585,38.5913344 0.410126978,38.7120589 0,38.8745061 C1.60020859,39.8033933 3.48614189,39.8836294 4.71677313,39.6404523 C4.59537455,42.0274147 2.22660027,45.7659235 2.26852658,46.3327607 C2.92445441,46.4126265 6.68255417,44.2893323 7.01070581,43.8447008 C7.25788335,45.300801 6.56979115,44.6997708 8.6422027,45.3051214 C10.7283811,45.9146689 10.6507861,44.184655 10.5679347,42.5266068 C11.3482648,43.9420951 13.2727453,45.2600657 13.8269236,46.169326 C11.5513884,48.051665 9.09162777,49.8127858 6.07843976,52.5453807 C9.15382891,51.0871821 11.3679139,49.8720371 12.2293432,49.7511892 C13.0908977,49.6282428 11.9835424,50.2359387 11.5528903,50.7817911 C11.1219878,51.3285076 10.3844601,52.6040148 10.4474122,53.878411 C11.247141,54.11986 11.8628947,54.1802222 12.8458478,52.299241 C13.8293015,50.4161613 14.6285297,49.8701855 14.9969807,49.3855594 C15.366558,48.8987114 15.304482,48.2926202 14.197377,48.6570156 C13.0903971,49.0212875 10.1984825,50.4183833 9.30751701,50.7533999 C8.41517482,51.0876758 9.76858134,50.1760702 10.4142466,49.8725309 C11.0602873,49.5691149 14.1562016,48.0501837 14.8525539,47.7262767 C15.5501577,47.4026166 15.959659,46.633461 16.2871848,45.4597919 C16.6147107,44.2868635 17.0652622,42.5459869 19.1968712,41.2508527 C17.8861419,43.7596506 17.3123146,45.4996631 17.3954163,46.0251479 C17.764493,46.1064949 18.1744948,46.1861138 18.5431961,46.227096 C18.9130238,46.2682015 18.5434464,46.7124627 18.8718484,46.5905038 C19.1997497,46.4699028 19.5286523,46.8344216 20.061179,46.9142874 C20.5949574,46.9946469 19.9386541,47.6828258 19.6524288,48.208434 C19.3649519,48.7350298 20.3909577,48.9358669 20.964785,48.895502 C21.539113,48.8550136 21.8262144,48.8950082 21.7039397,49.3816093 C21.580789,49.8662354 22.3191928,49.9473356 22.72957,49.6640404 C23.1394467,49.3807452 22.8530962,50.8368454 22.9767476,51.7263552 C23.1000235,52.616976 23.8398039,54.153806 23.7563268,52.1712336 C23.6724741,50.1882908 23.2216724,48.7326844 24,47.3570672 C23.0160457,48.0449992 22.810419,48.1668347 22.6875186,48.4902479 C22.7281934,47.1952372 22.9324434,46.5085395 23.3011446,45.7787613 C21.4123328,42.6243714 20.6311266,40.5210744 21.2047037,38.134112 C20.4252497,37.6487453 20.0973483,37.4470441 19.8919719,37.2448491 C19.0309181,38.094858 17.8417125,39.6735343 17.1456105,41.0497687 C16.4491331,42.4252624 15.3429041,43.963944 14.8921023,44.9752893 C12.962866,42.6290621 12.2598806,39.9012814 11.6027012,37.9189558 C10.5774464,38.3245802 9.10677131,41.134572 8.49164342,41.8231213 C8.32731729,40.9326239 8.36749146,39.7994432 7.7929132,39.7996901 C7.21833494,39.8000604 6.97228378,40.0842197 6.80908404,40.3264093 C6.64488306,40.5698333 5.86605481,41.2580122 5.57907856,41.6224076 C5.41462728,40.4893503 5.45480145,39.9634952 5.61925273,39.3159281 C7.42296039,38.5064075 9.38335984,35.3992952 8.93205747,34.6311271 C8.4810054,33.8628355 7.62082758,34.8926968 7.00519907,35.2174678 C6.39032149,35.5414983 5.98507548,35.2237633 6.18945063,34.7792553 C6.394827,34.3337597 7.08216828,33.2953811 7.81894506,32 Z"/>
      <path d="M5.49021524 45C4.03365479 46.4683721 2.15110445 49.2414419 1 49.5050022 3.27473339 49.5503711 3.488684 48.9508085 4.19313221 48.6052874 3.72294259 49.5804111 3.31200452 49.9418793 2.78937252 50.2710825 2.26638214 50.6016454 2.46826741 50.8286139 3.08001564 50.6941141 3.69236116 50.5596142 4.82662192 50.0946751 5.75362177 49.3229082 5.00473491 50.9327029 4.67287852 51.8160997 4.61075997 52.3904435 4.54720792 52.9651583 4.62617015 53.0389601 5.24424969 52.9856794 5.8632849 52.9315333 6.06146695 52.6716817 6.197411 52.0902914 6.33407181 51.5093956 7.93684976 49.5804111 9.03802046 48.7123433 8.93516648 49.6961205 8.75968159 50.2403008 8.36857366 50.8441901 7.97830195 51.4472141 7.62697378 52.0880662 8.46712713 52.0549357 9.30704155 52.0229179 9.21517778 51.339911 9.47046111 50.8697797 9.72526661 50.4010083 11.3509806 48.307484 12 47.7228796 10.9775526 48.218724 9.59350362 49.2326647 9.22628744 49.6715199 9.13752959 49.0290607 9.48539345 48.3480318 9.76050694 47.6735547 8.58252427 48.5073794 7.37479638 49.4263791 6.5833822 50.0636462 6.82875046 49.0259702 6.82612237 48.5382847 7.49795834 47.7887697 7.06814578 47.907446 5.34483395 48.3418507 4.52044916 49.0234978 4.62282531 48.4861166 5.03376338 48.1242775 5.4472101 47.8043459 4.13626985 48.365586 2.41701961 48.8405384 1.51044721 48.9598329 2.37759823 48.3555726 5.09946569 45.6032712 5.49021524 45zM12.8066531 54C12.9272975 56.7349058 13.4415853 60.3866419 15 60.8782525 13.6941731 61.2141332 12.1200855 60.9227993 11.5840502 59.1433802 11.0488652 57.3642066 10.4571852 57.2747447 10 56.9954373 11.0367158 57.5242316 12.025684 58.130584 12.6355883 58.9877731 12.9208582 57.4382058 12.5283083 55.9304856 12.8066531 54z"/>
      <path d="M10.1605411,57.2248962 C10.6669579,57.7380932 10.9477665,58.381516 11.0441403,58.7189193 C11.1399945,59.0558759 11.5961462,59.1989456 11.8294174,59.4354965 C12.0639875,59.6729409 12.1563348,60.0463071 11.4352202,59.9952666 C10.7139758,59.9452313 8.75532884,59.8797833 8.23384559,59.0727405 C7.7126221,58.2644691 6.15115967,56.3531872 5,55 C7.002158,56.3166659 9.01977216,57.98961 9.91973666,58.8612073 C10.2596424,58.8845496 10.3149729,58.3009904 10.1605411,57.2248962 Z"/>
      <path d="M5.6757763 55.0821178C5.25252734 56.5288447 4.80484526 57.4894807 6 58.9952338 4.21263283 59.0192335 2.75440184 59.0813732 2.37096983 55.5519927 1.52447191 56.4036572 1.47405435 56.10658 1 56.7077396 1.93013936 55.2057486 2.11655506 55.2124945 2.58285286 55 2.66830416 55.7220662 3.01644388 56.4894074 4.39801432 57.7971955 4.75042015 56.0772615 4.95596866 55.550436 5.6757763 55.0821178zM1 61C1.09739795 63.3928432 2.19157317 65.0530166 4 64.9987057 3.50549057 63.740723 3.2175937 62.8476251 3.39842444 61.9969741 2.97326331 61.9156395 2.53903079 62.4831357 2.58796849 63.3979843 1.82155646 63.1554308 1.46311769 62.6891744 1 61zM4 62C5.12102746 62.5150998 6.61699758 63.696564 7.67289168 63.9508228 7.81770526 62.7315424 8.5943254 62.199406 9.02693139 63.2105039 9.4603237 64.2226344 9.75755193 64.7969752 10 64.9856687 7.14343752 65.1384821 6.97464124 64.0642712 4 62zM10 63.6121112C10.6637362 64.0402983 12.0329582 64.8628291 12.600067 65.0580001 12.1540675 64.3460319 12.0666654 64.0008525 11.9501685 63.5404227 11.8340265 63.0807933 12.0744712 62.5357552 12.7932034 63.682542 13.5133548 64.8291001 15.0313615 65.5036806 16 65.9150603 13.2478366 66.2541799 12.7488518 65.5960638 10 63.6121112z"/>
      <path d="M17 68.9822599C15.3658881 68.2267097 13.6532431 68.7905477 12.6842941 68.1144524 11.7165917 67.4377496 10.3187024 67.1680404 9.2242251 66.3600063 8.79977235 66.046439 8.77758363 66.8040545 8.50645742 67.1013421 8.23558053 67.3992371 7.80202791 68.165114 7.34067707 67.8081745 6.8788276 67.4515996 5.59038602 66.6698074 5.03454613 66.4653387 4.47758435 66.2618419 4.32587833 66.6091836 4.05525075 66.9072001 3.78399988 67.206067 3.36839769 66.2933079 3.23514072 65.9230045 3.10263168 65.5533086 2.53706865 63.9897242 2.16709046 64.0000509 1.79711226 64.0111066 2.12184043 65.0350295 2.3694067 65.4941426 2.61834419 65.9533772 3.26219101 67.5634924 3.99155167 67.6609279 4.72190957 67.7594568 4.64886131 67.154798 4.84195303 66.8104935 5.03442148 66.4653387 5.32748709 66.888855 5.96958874 67.5387083 6.61169038 68.1891691 7.28346009 68.0037745 7.61604157 68.4298421 7.94937098 68.8554237 8.613786 68.2687455 8.77932881 67.763466 8.9446223 67.2564856 9.04596741 67.025046 9.34152614 67.4085919 9.63770814 67.7908014 10.2394213 68.4378605 10.5516839 68.6231337 9.88178405 67.8109688 9.94598175 67.5357926 9.70414964 66.9977106 11.535093 68.6216758 14.3854708 69.1033861 17 68.9822599zM3.59548501 50C4.38464977 51.9634321 3.92831824 51.840564 3.00740422 54 2.89428617 52.0788111 4.12274821 52.4034169 3.59548501 50zM2 61C2.70475988 59.6245534 3.60387366 58.4708016 2.42305408 57 2.54376155 58.3060579 2.62599455 59.2986662 2 61z"/>
      <path d="M13.8382432 68C13.0100451 68.8675222 11.9109726 70.3896586 12.0057367 70.750303 12.1000217 71.110518 12.8946749 71.0496411 13.559222 70.7669449 14.2247276 70.4836044 14.0511331 70.3486446 13.6017521 70.172456 13.1526107 69.9970189 13.5378971 68.8183483 13.8382432 68zM10.4947413 68C9.92288593 68.6401707 9.50006524 70.3786005 11 70.9969675 10.3301778 71.0282055 9.9061065 70.8091198 9.6116849 70.7523042 9.31705486 70.6956983 9.0936071 70.7574407 9.02034042 70.3000861 8.94717795 69.8414735 8.99553605 68.0326008 10.4947413 68zM7.48430448 68.3935531C6.80993504 69.3293067 6.39286836 70.9505676 8.69848607 71.3553106 9.1000878 71.6049212 9.20225392 71.8725882 8.36032718 71.9190007 7.51888753 71.9652862 6.8534074 72.1714088 5.32079387 71.6681186 5.1128085 71.8945865 4.7963249 72.2009094 4.05108457 71.6922785 3.30620955 71.1850464 2.66386597 70.7542361 3.19539768 69.8732874 3.72692938 68.992466 4.17711786 68.37893 5.30131046 68 4.42151285 68.7815113 3.36733874 69.8126332 3.48229085 70.3632261 3.59797358 70.9135647 3.97302917 71.5791082 4.90336187 71.5179453 4.75735808 70.3707284 4.45853132 70.0087104 4.80557952 68.7164066 5.19646538 70.0757225 5.36877176 70.9962172 6.99490564 71.5145121 6.21459518 70.1896558 6.12058774 69.3818229 7.48430448 68.3935531zM70 65C70.84561 65.7928168 72.0250244 67.2369006 71.9995957 67.6328479 71.9740627 68.0304089 71.2826926 68.0870058 70.6676088 67.8895508 70.0533587 67.6919806 70.1806066 67.5213832 70.5398398 67.2657177 70.8975097 67.010398 70.3844535 65.820827 70 65zM73.0261091 65.0218034C73.74846 65.7290902 74.5000847 67.8863354 73 69 73.722803 68.8978226 74.1390787 68.5273783 74.4445888 68.3913247 74.7502118 68.2569169 75.0002259 68.290656 74.9999998 67.6828036 74.9996608 67.0772827 74.6375246 64.7512049 73.0261091 65.0218034z"/>
      <path d="M76.0393358 64.6833389C76.8830624 65.4224465 77.5714894 66.8150417 75.2609316 67.5276534 74.8856455 67.8123972 74.8235002 68.0687939 75.698363 67.9832898 76.5729716 67.8966286 77.2910097 67.9824799 78.7898667 67.2985624 79.0399727 67.469455 79.4146234 67.6964633 80.1026692 67.1266285 80.7883003 66.558645 81.3816667 66.0741986 80.6950189 65.3641324 80.006846 64.6532563 79.4446158 64.1704298 78.2257302 64 79.256655 64.5677521 80.5076935 65.3355539 80.476049 65.8475374 80.4445316 66.3594053 80.1635436 67.0135872 79.1964161 67.0989756 79.1643903 66.0466614 79.4133526 65.6772234 78.8513765 64.5679835 78.6639241 65.8483474 78.6334233 66.7015376 77.0409037 67.4128765 77.6333805 66.1047441 77.6013547 65.3655208 76.0393358 64.6833389zM73 61.0033393C71.6573182 62.3688852 71.52484 62.912142 71.4467035 63.7624268 71.4210868 64.0468962 70.3933087 64.0760488 70.0765829 63.8490748 69.7606073 63.6211754 70.4712308 62.4836447 71.313475 61.8005247 72.1566839 61.1175204 72.4994553 60.9749965 73 61.0033393zM64 63C65.0575367 63.8627393 66.0532372 65.0946864 66.2398837 65.3725645 66.4266566 65.6503171 66.9544765 65.1871451 67.2969145 64.7859469 67.6384674 64.3852505 68.7880627 63.6443259 70 64.2304416 68.6944866 64.3232768 68.1984067 65.4325309 67.7950177 66.3582476 67.3912494 67.2835879 66.3029843 67.0067134 65.7123166 66.7605749 65.121649 66.5144364 65.4012393 66.4217267 65.3693728 65.7736373 65.3387709 65.1266769 64.4987355 63.6776963 64 63zM70 58C69.1376997 59.089491 68.0908086 60.3533473 67.9386748 61.8447888L65.78236 61.8743165C64.9189319 61.2724413 65.0724441 60.6698658 64.3031283 61.330563 63.533186 61.9902098 63.2265374 62.7368059 62.794322 62.9089537 62.3637358 63.0811014 61.9316457 62.9666086 61.2545626 62.9097706 60.5771036 62.852816 60.8842535 62.6233634 60.9460343 62.3363727 61.0074392 62.0492653 59.7710702 60.8376952 59 60.2066424 59.9550343 60.7517964 60.8224726 61.5901268 61.2846385 61.7622746 63.0088633 60.3560317 64.3943585 59.8390048 66.2430222 60.7555312 67.5978149 59.2049176 68.6141288 58.2872241 70 58z"/>
      <path d="M69.0147501 58C69.6219713 59.1638761 70.6113757 60.5145654 72 60.9793318 70.914732 61.2206576 68.8034433 59.295074 69.0147501 58zM23.384856 58C23.3858348 59.594537 23.6673751 60.7532258 24.3498748 61.0061813 25.0306614 61.2592474 25.992866 60.7520102 26.5537441 60.3175986 27.1157235 59.8826345 28.1980813 59.6997418 29 59.5916638 27.5971928 60.46115 27.1162129 61.1130437 26.3146613 61.5125344 25.513232 61.9115831 24.8310994 62.1648701 24.0286913 61.8751151 23.2267725 61.5865756 22.5448847 61.1887425 23.384856 58zM25.1639559 63C24.9133075 63.9107206 24.7050079 64.5406277 24.1616176 64.8209069 23.6175896 65.102041 22.2806709 65.3829614 23.4934772 65.6971135 24.7060284 66.0113725 26.1271343 66.0813622 26.8789517 65.9058003 27.6310243 65.7294904 28.5934374 65.4847937 27.8404719 65.2041939 27.0883994 64.9245557 27.3385375 64.5752485 27.7982507 64.4696763 28.257964 64.3636767 28.7178049 64.5387043 28.9694736 64.7492076 29.2203771 64.9585355 29.6797077 65.5188803 30.6830664 65.343639 31.687318 65.1677565 31.4357767 64.7480322 32.4395181 65.2019499 33.4428768 65.6569362 35.4974278 65.6393053 36 65.5339468 33.9926449 65.2540949 32.3970418 64.7476048 31.9370734 64.3973358 31.4773601 64.0471737 31.1009412 64.2925116 30.8504204 64.573432 30.5995169 64.853177 30.1389108 64.7485664 29.4286767 64.5034423 28.7176773 64.2587456 27.9227458 63.8034387 27.3796106 64.0845728 26.8369857 64.3642109 26.2522671 64.6447039 25.8749553 64.5398797 25.4982812 64.4351623 25.3730208 63.8750312 25.1639559 63z"/>
      <path d="M37 66.623782C34.9516495 67.8529337 34.294351 68.4454889 32.9792819 68.2774605 31.6652747 68.108528 30.504531 67.7704048 29.6145645 67.7709214 28.725424 67.771438 27.8364014 67.560789 27.3335462 67.8157375 26.8309269 68.069782 26.2518529 68.7052161 26.1741003 68.0272906 26.0956398 67.3496234 26.0954038 66.8425677 26.0952858 66.5461609 26.0951678 66.2493667 25.9019072 65.6987863 25.9021432 66.2071336 25.9023791 66.7159975 25.9026151 67.2227949 25.6324278 67.6468051 25.3618865 68.0705569 25.0918171 68.4937922 25.0920531 68.9596481 25.092289 69.4251164 24.7438771 69.8901974 25.4011757 69.8898099 26.0585923 69.8892933 26.5613295 69.9744053 26.7931715 69.8054728 27.0248955 69.6357654 26.8317528 69.8054728 26.8322248 70.5236941 26.8325787 71.2442402 26.640262 72.0489943 27.1038279 72.4715837 27.5685738 72.8933983 27.8781684 73.0637515 28.2643357 72.9787686 28.650621 72.8927526 29.1538302 72.5971207 29.1538302 72.5971207 29.1538302 72.5971207 28.6127476 73.0625891 28.3418523 72.385826 28.0702492 71.7089337 28.0311959 71.1162493 28.1082406 70.4818485 28.1859932 69.8457686 28.3400825 68.9147027 28.6875506 68.6173919 29.0353725 68.3221475 28.9587998 67.7716963 28.4554726 68.1955773 27.9530893 68.6179085 27.3343721 69.2967381 27.2957908 68.9582274 27.2567375 68.6181668 27.0632409 68.239102 27.5273968 68.1109819 27.9913167 67.9835076 28.725424 67.85655 28.9963192 68.0253533 29.2675685 68.1949315 29.2293411 68.8297199 30.3503236 68.913282 31.472132 68.9976191 31.7431453 68.99749 32.5551232 69.0394648 33.3665111 69.0816979 34.1012083 68.9960693 34.6811082 68.6136464 35.2613621 68.234065 35.4148616 67.894521 35.9186607 67.555752 36.4202181 67.2163372 36.652768 67.0049133 37 66.623782zM35.0153987 69C35.3466254 69.9142099 35.7451687 71.3042281 34.8511499 72.2173768 34.4535162 71.6099817 34.5520655 70.3921406 34.0544675 69.5235616 34.154735 70.6973636 33.890623 72.2626098 34.0557815 72.566241 34.2219507 72.8708008 34.685385 73.0001325 35.017117 72.9999999 35.3479393 72.9997346 35.7124201 72.7394793 35.9107315 72.0002321 36.1096494 71.2604543 36.0422316 69.4783286 35.0153987 69z"/>
      <path d="M33,70.1863338 C32.6787402,71.5041893 32.2914698,72.0370453 32.1954068,72.6335429 C32.0988189,73.2288928 32.0341207,72.6957817 31.8720472,71.9433045 C31.7107612,71.1900619 31.4518373,70.407103 31,70 C31.2587927,71.2224567 31.1304462,72.7590408 31.3572178,73.3546457 C31.5825459,73.949868 32.3570866,74.388473 32.5826772,73.4792509 C32.8082677,72.5696461 32.8076115,71.3786914 33,70.1863338 Z"/>
      <path d="M31.8149274 69.7210188C31.3254822 70.3959814 30.423058 71.8779392 30.4599886 70.6047599 30.4966127 69.3311578 30.4202997 68.6296619 30.269819 69.2012394 30.1202578 69.7730284 29.7448224 70.9165007 30.2716579 71.5399822 30.7998726 72.1635694 31.5533485 71.9813242 31.8167663 71.9554251 32.0806437 71.9286803 32.0412613 70.3440774 31.8149274 69.7210188zM35.5502749 61C35.3261132 62.1663074 36.1530953 64.9443568 37 66 34.7979706 64.4500344 34.5767651 61.8415369 35.5502749 61zM34.4630313 55C34.2603183 56.2523733 34.2355887 57.864768 35 59 34.065268 58.588871 33.5839118 55.9038152 34.4630313 55zM29 58C30.023666 58.5237925 31.3910684 59.7270569 32.3565471 59.9854717 32.4880073 58.7447654 33.19739 58.2035 33.5936864 59.2328238 33.9893842 60.2620162 34.7783853 60.7925088 35 60.9849733 32.3904298 61.139339 31.7182823 60.1016072 29 58zM15.6273647 51C15.6283044 52.990938 15.3596719 54.4404624 14.7060033 54.7568855 14.0509253 55.0751041 13.1276846 54.4429485 12.5879529 53.8990488 12.0483387 53.3557016 9.76983709 53.0967346 9 52.9616575 10.3475086 54.0475232 12.0493959 54.8943106 12.8195853 55.3922177 13.5896574 55.8894343 14.2448528 56.2066861 15.0139852 55.8430274 15.7837048 55.4804737 16.438313 54.9828428 15.6273647 51zM39.9246058 39.9698685C39.8015696 39.3530865 39.516931 38.68883 39 38 39.2889337 38.4851658 39.6718224 39.171294 39.8310088 40.0098809 40.0071966 40.9353112 39.9140471 42.0337853 39.2185123 43 39.7200525 42.374212 40.1867848 41.282814 39.9246058 39.9698685zM27.0266117 1.31612619C26.8737987 1.56938186 27.4289801 2.41993864 27.4289801 2.41993864 27.4289801 2.41993864 28.757983 2.49985987 30 3 29.6419474 1.46285145 27.5469987.455637809 27.0266117 1.31612619zM32.5296926 5C31.8222001 3.51532511 31.4269981 3.32708677 34 1 32.7784272 2.55018287 32.423092 3.02919377 32.8743388 4.17843156 33.0951954 4.73900379 32.7283047 4.7516911 32.5296926 5zM40 0C36.282118 1.48896564 35.3485952 1.86267049 35.8442328 1.35643622 36.3391499.849031201 35.4702233.891763742 34.3833747 1.86618275L34 2C34.1576483 1.46917989 34.3384695 1.28619095 34.5275754 1.1256805 34.3273033 1.42738395 34.2896022 1.61927062 34.2741135 1.70485278 34.7363724 1.15085172 36.1606099.814142715 36.3301449.825499034 36.5006404.838260259 36.3257024 1.07791372 36.2484992 1.28361529 37.3337869.850201955 39.5483071.122695077 40 0zM33 5.01956031C33.9757366 4.92791486 35.0038662 5.14253185 36 6 34.8946807 5.19252027 33.7642981 5.03930574 33 5.01956031zM37 6C37.6420385 5.68611777 38.0774311 5.11537437 37.8333151 4 38.3716941 5.62057021 37.4745453 5.89981348 37 6z"/>
      <path d="M39 3.2921098C38.3666519 2.74717911 37.6130427 3.36245464 37.3428911 3.63098123 37.0734098 3.89936961 37.0893641 4.37920714 36.4341626 5.10476791 36.2342637 5.32561479 36.5470498 5.98995206 36.7044483 6.24811349 36.8609083 6.50627492 36.6288326 6.78184981 35.8325891 6.97077202 35.0360775 7.15858861 34.9305641 6.3970953 34.381144 5.94669481 33.8311876 5.49629433 33.9140431 5.48689659 34.3891882 5.16391839 34.863663 4.8409402 36.4588315 4.167758 37.1846881 3.52069599 37.9101425 2.87335758 38.6657627 2.86852051 39 3.2921098zM40 1C38.7252386 1.47136347 37.5210869 1.74664368 37 3 37.8676196 2.24621259 38.5294712 1.67865501 40 1z"/>
    </g>
    <path fill="#443D3D" d="M10.23 10.97625C11.3300055 11.982755 11.88 13.382491 11.88 15.1755 11.88 16.968509 11.3437554 18.3874948 10.27125 19.4325 9.19874464 20.4775052 7.562511 21 5.3625 21L1.419 21 1.419 9.4665 5.4945 9.4665C7.55151029 9.4665 9.1299945 9.96974497 10.23 10.97625zM8.34075 17.832C8.97325316 17.237997 9.2895 16.3745057 9.2895 15.2415 9.2895 14.1084943 8.97325316 13.2367531 8.34075 12.62625 7.70824684 12.0157469 6.73750655 11.7105 5.4285 11.7105L3.993 11.7105 3.993 18.723 5.6265 18.723C6.80350588 18.723 7.70824684 18.426003 8.34075 17.832zM22.3245 21L21.252 18.5085 16.4175 18.5085 15.345 21 12.606 21 17.589 9.4665 20.0805 9.4665 25.0635 21 22.3245 21zM18.843 12.8985L17.391 16.248 20.2785 16.248 18.843 12.8985zM34.7985 9.4665L37.3725 9.4665 37.3725 21 34.7985 21 29.304 13.773 29.304 21 26.73 21 26.73 9.4665 29.139 9.4665 34.7985 16.8915 34.7985 9.4665zM43.23825 11.76825C42.9907488 11.971751 42.867 12.2412483 42.867 12.57675 42.867 12.9122517 43.0182485 13.178999 43.32075 13.377 43.6232515 13.575001 44.3217445 13.8087487 45.41625 14.07825 46.5107555 14.3477513 47.360497 14.7519973 47.9655 15.291 48.570503 15.8300027 48.873 16.6164948 48.873 17.6505 48.873 18.6845052 48.4852539 19.5232468 47.70975 20.16675 46.9342461 20.8102532 45.9140063 21.132 44.649 21.132 42.8229909 21.132 41.1785073 20.4555068 39.7155 19.1025L41.25 17.2215C42.4930062 18.3105054 43.6424947 18.855 44.6985 18.855 45.1715024 18.855 45.5427486 18.753251 45.81225 18.54975 46.0817513 18.346249 46.2165 18.0712517 46.2165 17.72475 46.2165 17.3782483 46.0735014 17.103251 45.7875 16.89975 45.5014986 16.696249 44.9350042 16.490001 44.088 16.281 42.7459933 15.9619984 41.7642531 15.5467526 41.14275 15.03525 40.5212469 14.5237474 40.2105 13.7207555 40.2105 12.62625 40.2105 11.5317445 40.6037461 10.687503 41.39025 10.0935 42.1767539 9.49949703 43.1584941 9.2025 44.3355 9.2025 45.1055038 9.2025 45.8754961 9.33449868 46.6455 9.5985 47.4155038 9.86250132 48.0864971 10.2364976 48.6585 10.7205L47.355 12.6015C46.353995 11.8424962 45.3200053 11.463 44.253 11.463 43.8239978 11.463 43.4857512 11.564749 43.23825 11.76825zM59.7135 9.4665L59.7135 11.76 53.9715 11.76 53.9715 14.136 59.136 14.136 59.136 16.3305 53.9715 16.3305 53.9715 18.723 59.895 18.723 59.895 21 51.3975 21 51.3975 9.4665 59.7135 9.4665zM76.0155 10.97625C77.1155055 11.982755 77.6655 13.382491 77.6655 15.1755 77.6655 16.968509 77.1292554 18.3874948 76.05675 19.4325 74.9842446 20.4775052 73.348011 21 71.148 21L67.2045 21 67.2045 9.4665 71.28 9.4665C73.3370103 9.4665 74.9154945 9.96974497 76.0155 10.97625zM74.12625 17.832C74.7587532 17.237997 75.075 16.3745057 75.075 15.2415 75.075 14.1084943 74.7587532 13.2367531 74.12625 12.62625 73.4937468 12.0157469 72.5230065 11.7105 71.214 11.7105L69.7785 11.7105 69.7785 18.723 71.412 18.723C72.5890059 18.723 73.4937468 18.426003 74.12625 17.832zM88.539 9.4665L88.539 11.76 82.797 11.76 82.797 14.136 87.9615 14.136 87.9615 16.3305 82.797 16.3305 82.797 18.723 88.7205 18.723 88.7205 21 80.223 21 80.223 9.4665 88.539 9.4665zM96.03 21L96.03 9.4665 98.604 9.4665 98.604 18.7065 103.521 18.7065 103.521 21 96.03 21zM105.732 9.4665L108.306 9.4665 108.306 21 105.732 21 105.732 9.4665zM116.7705 18.723C118.035506 18.723 119.069496 18.222505 119.8725 17.2215L121.5225 18.921C120.213493 20.3950074 118.670759 21.132 116.89425 21.132 115.117741 21.132 113.654756 20.5710056 112.50525 19.449 111.355744 18.3269944 110.781 16.9107586 110.781 15.20025 110.781 13.4897414 111.366744 12.0625057 112.53825 10.9185 113.709756 9.77449428 115.142492 9.2025 116.8365 9.2025 118.728509 9.2025 120.312494 9.92299279 121.5885 11.364L119.988 13.179C119.173996 12.1669949 118.162006 11.661 116.952 11.661 115.983995 11.661 115.156253 11.9772468 114.46875 12.60975 113.781247 13.2422532 113.4375 14.0947446 113.4375 15.16725 113.4375 16.2397554 113.761997 17.1004968 114.411 17.7495 115.060003 18.3985032 115.846495 18.723 116.7705 18.723zM131.472 12.5355C130.811997 11.8094964 130.000755 11.4465 129.03825 11.4465 128.075745 11.4465 127.264503 11.8094964 126.6045 12.5355 125.944497 13.2615036 125.6145 14.1387449 125.6145 15.16725 125.6145 16.1957551 125.944497 17.0702464 126.6045 17.79075 127.264503 18.5112536 128.075745 18.8715 129.03825 18.8715 130.000755 18.8715 130.811997 18.5112536 131.472 17.79075 132.132003 17.0702464 132.462 16.1957551 132.462 15.16725 132.462 14.1387449 132.132003 13.2615036 131.472 12.5355zM129.03 21.1155C127.324991 21.1155 125.889506 20.5462557 124.7235 19.40775 123.557494 18.2692443 122.9745 16.8530085 122.9745 15.159 122.9745 13.4649915 123.557494 12.0487557 124.7235 10.91025 125.889506 9.77174431 127.324991 9.2025 129.03 9.2025 130.735009 9.2025 132.170494 9.77174431 133.3365 10.91025 134.502506 12.0487557 135.0855 13.4649915 135.0855 15.159 135.0855 16.8530085 134.502506 18.2692443 133.3365 19.40775 132.170494 20.5462557 130.735009 21.1155 129.03 21.1155zM146.949 13.2945C146.949 15.1425092 146.217507 16.3359973 144.7545 16.875L147.675 21 144.507 21 141.9495 17.3205 140.1675 17.3205 140.1675 21 137.5935 21 137.5935 9.4665 141.966 9.4665C143.759009 9.4665 145.037746 9.76899698 145.80225 10.374 146.566754 10.979003 146.949 11.9524933 146.949 13.2945zM143.847 14.664C144.166002 14.3779986 144.3255 13.9242531 144.3255 13.30275 144.3255 12.6812469 144.160502 12.2550012 143.8305 12.024 143.500498 11.7929988 142.923004 11.6775 142.098 11.6775L140.1675 11.6775 140.1675 15.093 142.0485 15.093C142.928504 15.093 143.527998 14.9500014 143.847 14.664zM157.9875 9.4665L160.5615 9.4665 160.5615 21 157.9875 21 152.493 13.773 152.493 21 149.919 21 149.919 9.4665 152.328 9.4665 157.9875 16.8915 157.9875 9.4665zM172.0455 9.4665L172.0455 11.76 166.3035 11.76 166.3035 14.136 171.468 14.136 171.468 16.3305 166.3035 16.3305 166.3035 18.723 172.227 18.723 172.227 21 163.7295 21 163.7295 9.4665 172.0455 9.4665zM10.23 31.08875C11.3300055 32.095255 11.88 33.494991 11.88 35.288 11.88 37.081009 11.3437554 38.4999948 10.27125 39.545 9.19874464 40.5900052 7.562511 41.1125 5.3625 41.1125L1.419 41.1125 1.419 29.579 5.4945 29.579C7.55151029 29.579 9.1299945 30.082245 10.23 31.08875zM8.34075 37.9445C8.97325316 37.350497 9.2895 36.4870057 9.2895 35.354 9.2895 34.2209943 8.97325316 33.3492531 8.34075 32.73875 7.70824684 32.128247 6.73750655 31.823 5.4285 31.823L3.993 31.823 3.993 38.8355 5.6265 38.8355C6.80350588 38.8355 7.70824684 38.538503 8.34075 37.9445zM22.3245 41.1125L21.252 38.621 16.4175 38.621 15.345 41.1125 12.606 41.1125 17.589 29.579 20.0805 29.579 25.0635 41.1125 22.3245 41.1125zM18.843 33.011L17.391 36.3605 20.2785 36.3605 18.843 33.011zM34.7985 29.579L37.3725 29.579 37.3725 41.1125 34.7985 41.1125 29.304 33.8855 29.304 41.1125 26.73 41.1125 26.73 29.579 29.139 29.579 34.7985 37.004 34.7985 29.579zM43.23825 31.88075C42.9907488 32.084251 42.867 32.3537483 42.867 32.68925 42.867 33.0247517 43.0182485 33.291499 43.32075 33.4895 43.6232515 33.687501 44.3217445 33.9212487 45.41625 34.19075 46.5107555 34.4602514 47.360497 34.8644973 47.9655 35.4035 48.570503 35.9425027 48.873 36.7289948 48.873 37.763 48.873 38.7970052 48.4852539 39.6357468 47.70975 40.27925 46.9342461 40.9227532 45.9140063 41.2445 44.649 41.2445 42.8229909 41.2445 41.1785073 40.5680068 39.7155 39.215L41.25 37.334C42.4930062 38.4230054 43.6424947 38.9675 44.6985 38.9675 45.1715024 38.9675 45.5427486 38.865751 45.81225 38.66225 46.0817513 38.458749 46.2165 38.1837517 46.2165 37.83725 46.2165 37.4907483 46.0735014 37.215751 45.7875 37.01225 45.5014986 36.808749 44.9350042 36.602501 44.088 36.3935 42.7459933 36.0744984 41.7642531 35.6592526 41.14275 35.14775 40.5212469 34.6362474 40.2105 33.8332555 40.2105 32.73875 40.2105 31.6442445 40.6037461 30.800003 41.39025 30.206 42.1767539 29.611997 43.1584941 29.315 44.3355 29.315 45.1055038 29.315 45.8754961 29.4469987 46.6455 29.711 47.4155038 29.9750013 48.0864971 30.3489976 48.6585 30.833L47.355 32.714C46.353995 31.9549962 45.3200053 31.5755 44.253 31.5755 43.8239978 31.5755 43.4857512 31.677249 43.23825 31.88075zM59.7135 29.579L59.7135 31.8725 53.9715 31.8725 53.9715 34.2485 59.136 34.2485 59.136 36.443 53.9715 36.443 53.9715 38.8355 59.895 38.8355 59.895 41.1125 51.3975 41.1125 51.3975 29.579 59.7135 29.579zM76.0155 31.08875C77.1155055 32.095255 77.6655 33.494991 77.6655 35.288 77.6655 37.081009 77.1292554 38.4999948 76.05675 39.545 74.9842446 40.5900052 73.348011 41.1125 71.148 41.1125L67.2045 41.1125 67.2045 29.579 71.28 29.579C73.3370103 29.579 74.9154945 30.082245 76.0155 31.08875zM74.12625 37.9445C74.7587532 37.350497 75.075 36.4870057 75.075 35.354 75.075 34.2209943 74.7587532 33.3492531 74.12625 32.73875 73.4937468 32.128247 72.5230065 31.823 71.214 31.823L69.7785 31.823 69.7785 38.8355 71.412 38.8355C72.5890059 38.8355 73.4937468 38.538503 74.12625 37.9445zM88.539 29.579L88.539 31.8725 82.797 31.8725 82.797 34.2485 87.9615 34.2485 87.9615 36.443 82.797 36.443 82.797 38.8355 88.7205 38.8355 88.7205 41.1125 80.223 41.1125 80.223 29.579 88.539 29.579zM104.841 31.08875C105.941005 32.095255 106.491 33.494991 106.491 35.288 106.491 37.081009 105.954755 38.4999948 104.88225 39.545 103.809745 40.5900052 102.173511 41.1125 99.9735 41.1125L96.03 41.1125 96.03 29.579 100.1055 29.579C102.16251 29.579 103.740994 30.082245 104.841 31.08875zM102.95175 37.9445C103.584253 37.350497 103.9005 36.4870057 103.9005 35.354 103.9005 34.2209943 103.584253 33.3492531 102.95175 32.73875 102.319247 32.128247 101.348507 31.823 100.0395 31.823L98.604 31.823 98.604 38.8355 100.2375 38.8355C101.414506 38.8355 102.319247 38.538503 102.95175 37.9445zM118.404 33.407C118.404 35.2550092 117.672507 36.4484973 116.2095 36.9875L119.13 41.1125 115.962 41.1125 113.4045 37.433 111.6225 37.433 111.6225 41.1125 109.0485 41.1125 109.0485 29.579 113.421 29.579C115.214009 29.579 116.492746 29.881497 117.25725 30.4865 118.021754 31.091503 118.404 32.0649933 118.404 33.407zM115.302 34.7765C115.621002 34.4904986 115.7805 34.0367531 115.7805 33.41525 115.7805 32.7937469 115.615502 32.3675012 115.2855 32.1365 114.955498 31.9054988 114.378004 31.79 113.553 31.79L111.6225 31.79 111.6225 35.2055 113.5035 35.2055C114.383504 35.2055 114.982998 35.0625014 115.302 34.7765zM129.591 41.1125L128.5185 38.621 123.684 38.621 122.6115 41.1125 119.8725 41.1125 124.8555 29.579 127.347 29.579 132.33 41.1125 129.591 41.1125zM126.1095 33.011L124.6575 36.3605 127.545 36.3605 126.1095 33.011zM141.4875 35.2385L144.078 35.2385 144.078 39.3305C142.933994 40.6065064 141.35001 41.2445 139.326 41.2445 137.631992 41.2445 136.210256 40.6835056 135.06075 39.5615 133.911244 38.4394944 133.3365 37.0232586 133.3365 35.31275 133.3365 33.6022415 133.922244 32.1750057 135.09375 31.031 136.265256 29.8869943 137.678742 29.315 139.33425 29.315 140.989758 29.315 142.427994 29.8594946 143.649 30.9485L142.3125 32.879C141.795497 32.4279977 141.319752 32.1172509 140.88525 31.94675 140.450748 31.7762492 139.980503 31.691 139.4745 31.691 138.495495 31.691 137.670503 32.0237467 136.9995 32.68925 136.328497 33.3547533 135.993 34.2319946 135.993 35.321 135.993 36.4100054 136.314747 37.2817467 136.95825 37.93625 137.601753 38.5907533 138.368996 38.918 139.26 38.918 140.151004 38.918 140.893497 38.7475017 141.4875 38.4065L141.4875 35.2385zM154.539 32.648C153.878997 31.9219964 153.067755 31.559 152.10525 31.559 151.142745 31.559 150.331503 31.9219964 149.6715 32.648 149.011497 33.3740036 148.6815 34.2512449 148.6815 35.27975 148.6815 36.3082551 149.011497 37.1827464 149.6715 37.90325 150.331503 38.6237536 151.142745 38.984 152.10525 38.984 153.067755 38.984 153.878997 38.6237536 154.539 37.90325 155.199003 37.1827464 155.529 36.3082551 155.529 35.27975 155.529 34.2512449 155.199003 33.3740036 154.539 32.648zM152.097 41.228C150.391991 41.228 148.956506 40.6587557 147.7905 39.52025 146.624494 38.3817443 146.0415 36.9655085 146.0415 35.2715 146.0415 33.5774915 146.624494 32.1612557 147.7905 31.02275 148.956506 29.8842443 150.391991 29.315 152.097 29.315 153.802009 29.315 155.237494 29.8842443 156.4035 31.02275 157.569506 32.1612557 158.1525 33.5774915 158.1525 35.2715 158.1525 36.9655085 157.569506 38.3817443 156.4035 39.52025 155.237494 40.6587557 153.802009 41.228 152.097 41.228zM168.729 29.579L171.303 29.579 171.303 41.1125 168.729 41.1125 163.2345 33.8855 163.2345 41.1125 160.6605 41.1125 160.6605 29.579 163.0695 29.579 168.729 37.004 168.729 29.579zM6.72599977 60.0314003L6.72599977 61.6160002 2.75879991 61.6160002 2.75879991 63.2576002 6.32699979 63.2576002 6.32699979 64.7738001 2.75879991 64.7738001 2.75879991 66.4268001 6.85139977 66.4268001 6.85139977 68 .980399967 68 .980399967 60.0314003 6.72599977 60.0314003zM4.50299985 59.2106003L2.8727999 59.2106003 4.32059986 57.1928004 6.0875998 57.9338003 4.50299985 59.2106003zM11.4341996 66.575C12.0042025 66.575 12.5171973 66.2900029 12.9731996 65.7200001L13.9877995 66.86C13.1973956 67.6808041 12.3424042 68.0912 11.4227996 68.0912 10.5031951 68.0912 9.72610286 67.8005029 9.0914997 67.2191 8.45689655 66.6376971 8.13959974 65.8777048 8.13959974 64.9391001 8.13959974 64.0004954 8.46069651 63.2367031 9.1028997 62.6477002 9.74510289 62.0586973 10.5069952 61.7642002 11.3885996 61.7642002 11.8294018 61.7642002 12.2758973 61.8553993 12.7280996 62.0378002 13.1803018 62.2202011 13.5773978 62.4899984 13.9193995 62.8472002L13.0301996 64.0100001C12.8325986 63.774399 12.591301 63.5920008 12.3062996 63.4628002 12.0212982 63.3335995 11.738201 63.2690002 11.4569996 63.2690002 11.0085974 63.2690002 10.6229013 63.4152987 10.2998997 63.7079001 9.97689806 64.0005016 9.81539968 64.4070975 9.81539968 64.9277001 9.81539968 65.4483027 9.97689806 65.8529986 10.2998997 66.1418001 10.6229013 66.4306015 11.0009975 66.575 11.4341996 66.575zM17.0486994 66.1589001C17.3337009 66.4743016 17.6984972 66.632 18.1430994 66.632 18.5877016 66.632 18.952498 66.4743016 19.2374994 66.1589001 19.5225008 65.8434985 19.6649994 65.4350026 19.6649994 64.9334001 19.6649994 64.4317976 19.5225008 64.0214017 19.2374994 63.7022001 18.952498 63.3829986 18.5877016 63.2234002 18.1430994 63.2234002 17.6984972 63.2234002 17.3337009 63.3829986 17.0486994 63.7022001 16.763698 64.0214017 16.6211995 64.4317976 16.6211995 64.9334001 16.6211995 65.4350026 16.763698 65.8434985 17.0486994 66.1589001zM20.4629993 67.1792C19.8473963 67.787203 19.074104 68.0912 18.1430994 68.0912 17.2120948 68.0912 16.4388025 67.787203 15.8231995 67.1792 15.2075964 66.571197 14.8997995 65.8226045 14.8997995 64.9334001 14.8997995 64.0441957 15.2075964 63.2937032 15.8231995 62.6819002 16.4388025 62.0700971 17.2120948 61.7642002 18.1430994 61.7642002 19.074104 61.7642002 19.8473963 62.0700971 20.4629993 62.6819002 21.0786024 63.2937032 21.3863993 64.0441957 21.3863993 64.9334001 21.3863993 65.8226045 21.0786024 66.571197 20.4629993 67.1792zM24.5897992 68L22.8797993 68 22.8797993 59.5412003 24.5897992 59.5412003 24.5897992 68zM31.748999 67.1108C31.0573955 67.7644033 30.2461037 68.0912 29.3150991 68.0912 28.3840944 68.0912 27.6146021 67.8043029 27.0065991 67.2305 26.3985961 66.6566972 26.0945992 65.8872049 26.0945992 64.9220001 26.0945992 63.9567953 26.4042961 63.189203 27.0236991 62.6192002 27.6431022 62.0491973 28.3745949 61.7642002 29.2181991 61.7642002 30.0618032 61.7642002 30.7780961 62.0187977 31.367099 62.5280002 31.9561019 63.0372027 32.250599 63.7363957 32.250599 64.6256001L32.250599 65.5376001 27.7817991 65.5376001C27.8349994 65.8720017 28.0097976 66.145599 28.3061991 66.3584001 28.6026006 66.5712011 28.9369972 66.6776 29.3093991 66.6776 29.909802 66.6776 30.4037971 66.4762021 30.791399 66.0734001L31.748999 67.1108zM30.107399 63.4742002C29.8717979 63.2765992 29.5849007 63.1778002 29.2466991 63.1778002 28.9084974 63.1778002 28.5988005 63.2803991 28.3175991 63.4856002 28.0363977 63.6908012 27.8729993 63.9681984 27.8273991 64.3178001L30.517799 64.3178001C30.4797988 63.9529983 30.3430002 63.6718011 30.107399 63.4742002zM37.1183988 60.0314003L38.8967987 60.0314003 38.8967987 63.3032002 41.9063986 60.0314003 44.1065986 60.0314003 40.9373987 63.5540001C41.211 63.934002 41.716395 64.6426949 42.4535986 65.6801001 43.1908023 66.7175052 43.7417968 67.4907975 44.1065986 68L42.0317986 68 39.6947987 64.8536001 38.8967987 65.7428001 38.8967987 68 37.1183988 68 37.1183988 60.0314003zM48.9515984 65.1728001L48.9515984 61.8668002 50.6729984 61.8668002 50.6729984 68 48.9515984 68 48.9515984 67.1906C48.5259963 67.791003 47.9769018 68.0912 47.3042985 68.0912 46.6316951 68.0912 46.0674008 67.8803021 45.6113985 67.4585 45.1553963 67.0366979 44.9273986 66.4116042 44.9273986 65.5832001L44.9273986 61.8668002 46.6487985 61.8668002 46.6487985 65.2070001C46.6487985 66.1494048 46.994595 66.6206 47.6861985 66.6206 48.0282002 66.6206 48.3245972 66.4971013 48.5753984 66.2501001 48.8261997 66.0030988 48.9515984 65.6440024 48.9515984 65.1728001zM54.2297982 64.5800001L54.2297982 68 52.5197983 68 52.5197983 61.8668002 54.2297982 61.8668002 54.2297982 62.5508002C54.7466008 62.0263976 55.327995 61.7642002 55.9739982 61.7642002 56.6200014 61.7642002 57.161496 61.9921979 57.5984981 62.4482002 58.0355003 62.9042025 58.2539981 63.5121964 58.2539981 64.2722001L58.2539981 68 56.5439982 68 56.5439982 64.5344001C56.5439982 63.5919954 56.1982016 63.1208002 55.5065982 63.1208002 55.1645965 63.1208002 54.8662995 63.2442989 54.6116982 63.4913002 54.357097 63.7383014 54.2297982 64.1011977 54.2297982 64.5800001zM63.9197979 63.6452001C63.6461966 63.3639987 63.308 63.2234002 62.905198 63.2234002 62.502396 63.2234002 62.1546995 63.3639987 61.862098 63.6452001 61.5694965 63.9264015 61.423198 64.3101977 61.423198 64.7966001 61.423198 65.2830025 61.5656966 65.6762986 61.850698 65.9765001 62.1356994 66.2767016 62.4833959 66.4268001 62.893798 66.4268001 63.3042 66.4268001 63.6461966 66.2786015 63.9197979 65.9822001 64.1933993 65.6857986 64.3301979 65.2925025 64.3301979 64.8023001 64.3301979 64.3120977 64.1933993 63.9264015 63.9197979 63.6452001zM64.5695979 66.9626C64.0299952 67.563003 63.359302 67.8632 62.557498 67.8632 61.755694 67.8632 61.0793008 67.5915027 60.528298 67.0481 59.9772953 66.5046973 59.7017981 65.7789046 59.7017981 64.8707001 59.7017981 63.9624956 59.9848952 63.2177031 60.551098 62.6363002 61.1173009 62.0548973 61.7651944 61.7642002 62.494798 61.7642002 63.2244016 61.7642002 63.8285955 62.0643972 64.3073979 62.6648002L64.3073979 61.8554002 66.0173979 61.8554002 66.0173979 67.202C66.0173979 67.7492027 65.9223988 68.2355979 65.7323979 68.6612 65.5423969 69.0868021 65.2877995 69.4211987 64.9685979 69.6643999 64.3377948 70.1660024 63.5930022 70.4167999 62.734198 70.4167999 62.2781957 70.4167999 61.8127004 70.3427007 61.337698 70.1944999 60.8626957 70.0462992 60.4465998 69.8354013 60.0893981 69.5617999L60.750598 68.2736C61.3130008 68.6992021 61.9076949 68.912 62.534698 68.912 63.1617011 68.912 63.6575961 68.7562015 64.0223979 68.4446 64.3871997 68.1329984 64.5695979 67.6390034 64.5695979 66.9626zM67.8185978 65.3324001L67.8185978 63.8162001 71.8769977 63.8162001 71.8769977 65.3324001 67.8185978 65.3324001zM79.3211974 60.0314003L79.3211974 61.5932002 75.6275976 61.5932002 75.6275976 63.3146002 79.1387974 63.3146002 79.1387974 64.8764001 75.6275976 64.8764001 75.6275976 68 73.8491976 68 73.8491976 60.0314003 79.3211974 60.0314003zM84.7475973 65.1728001L84.7475973 61.8668002 86.4689972 61.8668002 86.4689972 68 84.7475973 68 84.7475973 67.1906C84.3219951 67.791003 83.7729007 68.0912 83.1002973 68.0912 82.427694 68.0912 81.8633996 67.8803021 81.4073974 67.4585 80.9513951 67.0366979 80.7233974 66.4116042 80.7233974 65.5832001L80.7233974 61.8668002 82.4447973 61.8668002 82.4447973 65.2070001C82.4447973 66.1494048 82.7905939 66.6206 83.4821973 66.6206 83.824199 66.6206 84.120596 66.4971013 84.3713973 66.2501001 84.6221985 66.0030988 84.7475973 65.6440024 84.7475973 65.1728001zM93.588297 61.6217002C93.4172961 61.7623009 93.331797 61.948499 93.331797 62.1803002 93.331797 62.4121013 93.4362959 62.5963995 93.645297 62.7332002 93.854298 62.8700009 94.3368932 63.0314992 95.0930969 63.2177002 95.8493007 63.4039011 96.4363948 63.6831983 96.8543969 64.0556001 97.2723989 64.428002 97.4813968 64.9713965 97.4813968 65.6858001 97.4813968 66.4002036 97.2134995 66.9796978 96.6776969 67.4243 96.1418942 67.8689022 95.4370013 68.0912 94.5629969 68.0912 93.3013907 68.0912 92.1652021 67.6238047 91.1543971 66.689L92.214597 65.3894001C93.0734013 66.1418038 93.8675933 66.518 94.5971969 66.518 94.9239986 66.518 95.180496 66.4477008 95.3666969 66.3071001 95.5528978 66.1664994 95.6459969 65.9765013 95.6459969 65.7371001 95.6459969 65.4976989 95.5471979 65.3077008 95.3495969 65.1671001 95.1519959 65.0264994 94.7605999 64.8840008 94.175397 64.7396001 93.2481924 64.519199 92.5698992 64.2323019 92.140497 63.8789001 91.7110949 63.5254984 91.496397 62.9707039 91.496397 62.2145002 91.496397 61.4582964 91.7680943 60.8750023 92.311497 60.4646003 92.8548997 60.0541982 93.5331929 59.8490003 94.346397 59.8490003 94.8783996 59.8490003 95.4103943 59.9401994 95.9423969 60.1226003 96.4743995 60.3050012 96.9379949 60.5633986 97.3331969 60.8978002L96.4325969 62.1974002C95.7409934 61.6729976 95.0266006 61.4108002 94.289397 61.4108002 93.9929955 61.4108002 93.7592978 61.4810995 93.588297 61.6217002zM100.764597 64.6940001L100.764597 68 99.0545968 68 99.0545968 59.5412003 100.764597 59.5412003 100.764597 62.5508002C101.281399 62.0263976 101.860893 61.7642002 102.503097 61.7642002 103.1453 61.7642002 103.686794 61.9921979 104.127597 62.4482002 104.568399 62.9042025 104.788797 63.5121964 104.788797 64.2722001L104.788797 68 103.078797 68 103.078797 64.6484001C103.078797 63.7059954 102.733 63.2348002 102.041397 63.2348002 101.699395 63.2348002 101.401098 63.3582989 101.146497 63.6053001 100.891895 63.8523014 100.764597 64.2151977 100.764597 64.6940001zM111.776996 68L110.169596 68 110.169596 67.259C109.728794 67.8138028 109.1835 68.0912 108.533696 68.0912 107.883893 68.0912 107.338599 67.9031019 106.897797 67.5269 106.456994 67.1506981 106.236597 66.6491032 106.236597 66.0221001 106.236597 65.395097 106.464594 64.9258017 106.920597 64.6142001 107.376599 64.3025986 107.999793 64.1468001 108.790196 64.1468001L110.066996 64.1468001 110.066996 64.1126001C110.066996 63.4589969 109.7212 63.1322002 109.029596 63.1322002 108.733195 63.1322002 108.419698 63.1910996 108.089097 63.3089002 107.758495 63.4267007 107.479198 63.5729993 107.251197 63.7478001L106.487397 62.6420002C107.293001 62.0567973 108.212591 61.7642002 109.246196 61.7642002 109.991 61.7642002 110.598994 61.9503983 111.070196 62.3228002 111.541399 62.695202 111.776996 63.2841961 111.776996 64.0898001L111.776996 68zM110.055596 65.6630001L110.055596 65.3666001 108.983996 65.3666001C108.299993 65.3666001 107.957997 65.579398 107.957997 66.0050001 107.957997 66.2254012 108.039696 66.3944995 108.203097 66.5123 108.366497 66.6301006 108.600195 66.689 108.904196 66.689 109.208198 66.689 109.476095 66.595901 109.707896 66.4097001 109.939698 66.2234991 110.055596 65.9746016 110.055596 65.6630001zM115.362296 66.1589001C115.647298 66.4743016 116.012094 66.632 116.456696 66.632 116.901298 66.632 117.266095 66.4743016 117.551096 66.1589001 117.836098 65.8434985 117.978596 65.4350026 117.978596 64.9334001 117.978596 64.4317976 117.836098 64.0214017 117.551096 63.7022001 117.266095 63.3829986 116.901298 63.2234002 116.456696 63.2234002 116.012094 63.2234002 115.647298 63.3829986 115.362296 63.7022001 115.077295 64.0214017 114.934796 64.4317976 114.934796 64.9334001 114.934796 65.4350026 115.077295 65.8434985 115.362296 66.1589001zM118.776596 67.1792C118.160993 67.787203 117.387701 68.0912 116.456696 68.0912 115.525692 68.0912 114.752399 67.787203 114.136796 67.1792 113.521193 66.571197 113.213396 65.8226045 113.213396 64.9334001 113.213396 64.0441957 113.521193 63.2937032 114.136796 62.6819002 114.752399 62.0700971 115.525692 61.7642002 116.456696 61.7642002 117.387701 61.7642002 118.160993 62.0700971 118.776596 62.6819002 119.392199 63.2937032 119.699996 64.0441957 119.699996 64.9334001 119.699996 65.8226045 119.392199 66.571197 118.776596 67.1792zM122.903396 68L121.193396 68 121.193396 59.5412003 122.903396 59.5412003 122.903396 68zM126.460196 68L124.750196 68 124.750196 61.8668002 126.460196 61.8668002 126.460196 68zM124.601996 60.3734003C124.601996 60.0921989 124.698895 59.8547012 124.892696 59.6609003 125.086497 59.4670993 125.323995 59.3702003 125.605196 59.3702003 125.886397 59.3702003 126.123895 59.4670993 126.317696 59.6609003 126.511497 59.8547012 126.608396 60.0921989 126.608396 60.3734003 126.608396 60.6546017 126.511497 60.8920993 126.317696 61.0859002 126.123895 61.2797012 125.886397 61.3766002 125.605196 61.3766002 125.323995 61.3766002 125.086497 61.2797012 124.892696 61.0859002 124.698895 60.8920993 124.601996 60.6546017 124.601996 60.3734003zM130.016996 64.5800001L130.016996 68 128.306996 68 128.306996 61.8668002 130.016996 61.8668002 130.016996 62.5508002C130.533798 62.0263976 131.115193 61.7642002 131.761196 61.7642002 132.407199 61.7642002 132.948694 61.9921979 133.385696 62.4482002 133.822698 62.9042025 134.041196 63.5121964 134.041196 64.2722001L134.041196 68 132.331196 68 132.331196 64.5344001C132.331196 63.5919954 131.985399 63.1208002 131.293796 63.1208002 130.951794 63.1208002 130.653497 63.2442989 130.398896 63.4913002 130.144295 63.7383014 130.016996 64.1011977 130.016996 64.5800001zM142.169395 65.1044001L144.198595 60.0314003 146.125195 60.0314003 142.921795 68 141.416995 68 138.213596 60.0314003 140.140195 60.0314003 142.169395 65.1044001zM150.810595 65.1728001L150.810595 61.8668002 152.531995 61.8668002 152.531995 68 150.810595 68 150.810595 67.1906C150.384993 67.791003 149.835899 68.0912 149.163295 68.0912 148.490692 68.0912 147.926398 67.8803021 147.470395 67.4585 147.014393 67.0366979 146.786395 66.4116042 146.786395 65.5832001L146.786395 61.8668002 148.507795 61.8668002 148.507795 65.2070001C148.507795 66.1494048 148.853592 66.6206 149.545195 66.6206 149.887197 66.6206 150.183594 66.4971013 150.434395 66.2501001 150.685196 66.0030988 150.810595 65.6440024 150.810595 65.1728001zM161.275795 68L157.787395 68 157.787395 60.0314003 160.888195 60.0314003C161.427797 60.0314003 161.893293 60.0959996 162.284695 60.2252003 162.676097 60.3544009 162.970594 60.5291991 163.168195 60.7496002 163.525397 61.1600023 163.703995 61.6235976 163.703995 62.1404002 163.703995 62.7636033 163.502597 63.2271986 163.099795 63.5312001 162.962994 63.6376007 162.867995 63.7041 162.814795 63.7307001 162.761594 63.7573003 162.666595 63.8009998 162.529795 63.8618001 163.023797 63.9682007 163.417093 64.1904984 163.709695 64.5287001 164.002296 64.8669018 164.148595 65.2867976 164.148595 65.7884001 164.148595 66.3432028 163.958597 66.8333979 163.578595 67.259 163.137793 67.7530025 162.3702 68 161.275795 68zM159.565795 63.2576002L160.409395 63.2576002C160.903397 63.2576002 161.270094 63.2044007 161.509495 63.0980002 161.748896 62.9915996 161.868595 62.7617019 161.868595 62.4083002 161.868595 62.0548984 161.758396 61.8212008 161.537995 61.7072002 161.317594 61.5931996 160.945197 61.5362002 160.420795 61.5362002L159.565795 61.5362002 159.565795 63.2576002zM159.565795 66.4952001L160.785595 66.4952001C161.294797 66.4952001 161.676694 66.4325007 161.931295 66.3071001 162.185896 66.1816994 162.313195 65.9347019 162.313195 65.5661001 162.313195 65.1974983 162.178296 64.9543007 161.908495 64.8365001 161.638693 64.7186995 161.207398 64.6598001 160.614595 64.6598001L159.565795 64.6598001 159.565795 66.4952001zM170.908794 68L169.301395 68 169.301395 67.259C168.860592 67.8138028 168.315298 68.0912 167.665495 68.0912 167.015691 68.0912 166.470397 67.9031019 166.029595 67.5269 165.588792 67.1506981 165.368395 66.6491032 165.368395 66.0221001 165.368395 65.395097 165.596392 64.9258017 166.052395 64.6142001 166.508397 64.3025986 167.131591 64.1468001 167.921995 64.1468001L169.198795 64.1468001 169.198795 64.1126001C169.198795 63.4589969 168.852998 63.1322002 168.161395 63.1322002 167.864993 63.1322002 167.551496 63.1910996 167.220895 63.3089002 166.890293 63.4267007 166.610996 63.5729993 166.382995 63.7478001L165.619195 62.6420002C166.424799 62.0567973 167.344389 61.7642002 168.377995 61.7642002 169.122798 61.7642002 169.730792 61.9503983 170.201995 62.3228002 170.673197 62.695202 170.908794 63.2841961 170.908794 64.0898001L170.908794 68zM169.187395 65.6630001L169.187395 65.3666001 168.115795 65.3666001C167.431791 65.3666001 167.089795 65.579398 167.089795 66.0050001 167.089795 66.2254012 167.171494 66.3944995 167.334895 66.5123 167.498295 66.6301006 167.731993 66.689 168.035995 66.689 168.339996 66.689 168.607893 66.595901 168.839695 66.4097001 169.071496 66.2234991 169.187395 65.9746016 169.187395 65.6630001z"/>
    <path stroke="#2C2727" stroke-linecap="square" stroke-width=".75" d="M0.375,50.1212121 L170.625,50.1212121"/>
  </g>
</svg>
